<svg width="398" height="306" viewBox="0 0 398 306" fill="none" xmlns="http://www.w3.org/2000/svg">
<g filter="url(#filter0_d_115_53)">
<rect x="2" y="3" width="359.18" height="268" rx="33.4897" fill="white"/>
</g>
<rect x="2" y="3" width="359.18" height="268" rx="33.4897" fill="url(#paint0_radial_115_53)"/>
<rect x="2" y="3" width="359.18" height="268" rx="33.4897" fill="url(#paint1_radial_115_53)"/>
<mask id="mask0_115_53" style="mask-type:alpha" maskUnits="userSpaceOnUse" x="2" y="3" width="360" height="268">
<rect x="2" y="3" width="359.18" height="268" rx="33.4897" fill="white"/>
</mask>
<g mask="url(#mask0_115_53)">
<path d="M176.582 66.5256L102.839 31.3946C86.6071 21.6987 66.4034 21.5266 50.0079 30.9446L-24.564 66.5256C-24.8438 66.6658 -25.134 66.8158 -25.404 66.9756C-43.1008 77.0944 -49.2444 99.6433 -39.1256 117.34C-35.6957 123.339 -30.6504 128.255 -24.564 131.528L-3.99321 141.328V190.329C-3.98103 212.241 10.2764 231.599 31.1978 238.111C45.7571 242.323 60.8537 244.385 76.0093 244.231C91.1625 244.401 106.259 242.356 120.821 238.161C141.742 231.649 156 212.291 156.012 190.38V141.308L176.012 131.748V214.23C176.012 219.753 180.49 224.23 186.013 224.23C191.536 224.23 196.013 219.753 196.013 214.23V94.2263C196.079 82.4833 186.807 71.6351 176.582 66.5256ZM136.011 190.38C136.016 203.486 127.512 215.079 115.01 219.01C102.332 222.633 89.1937 224.391 76.0088 224.23C62.8239 224.391 49.6859 222.633 37.0077 219.01C24.5053 215.078 16.0019 203.486 16.0071 190.38V150.859L49.1782 166.659C57.3628 171.519 66.7104 174.073 76.2291 174.049C85.2894 174.113 94.1973 171.715 102 167.109L136.011 150.858V190.38ZM168.012 113.477L92.5894 149.478C82.0732 155.601 69.0383 155.428 58.6884 149.028L-15.1038 113.927C-23.3292 109.492 -26.4015 99.228 -21.9661 91.003C-20.466 88.2214 -18.2169 85.9156 -15.4737 84.3461L59.4783 48.5452C69.9978 42.4354 83.0257 42.6084 93.3793 48.9953L167.121 84.1263C172.545 87.1376 175.937 92.8242 176.012 99.0269C176.021 104.902 172.996 110.366 168.012 113.477Z" fill="url(#paint2_linear_115_53)"/>
</g>
<path d="M178.926 244H172.176L184.466 209.091H192.273L204.58 244H197.83L188.506 216.25H188.233L178.926 244ZM179.148 230.312H197.557V235.392H179.148V230.312ZM215.075 209.091V244H208.905V209.091H215.075ZM238.108 232.989V217.818H244.278V244H238.295V239.347H238.023C237.432 240.812 236.46 242.011 235.108 242.943C233.767 243.875 232.114 244.341 230.148 244.341C228.432 244.341 226.915 243.96 225.597 243.199C224.29 242.426 223.267 241.307 222.528 239.841C221.79 238.364 221.42 236.58 221.42 234.489V217.818H227.591V233.534C227.591 235.193 228.045 236.511 228.955 237.489C229.864 238.466 231.057 238.955 232.534 238.955C233.443 238.955 234.324 238.733 235.176 238.29C236.028 237.847 236.727 237.188 237.273 236.312C237.83 235.426 238.108 234.318 238.108 232.989ZM256.794 228.659V244H250.624V217.818H256.521V222.267H256.828C257.43 220.801 258.391 219.636 259.709 218.773C261.038 217.909 262.68 217.477 264.635 217.477C266.442 217.477 268.016 217.864 269.357 218.636C270.709 219.409 271.754 220.528 272.493 221.994C273.243 223.46 273.612 225.239 273.601 227.33V244H267.43V228.284C267.43 226.534 266.976 225.165 266.067 224.176C265.169 223.187 263.925 222.693 262.334 222.693C261.254 222.693 260.294 222.932 259.453 223.409C258.624 223.875 257.97 224.551 257.493 225.438C257.027 226.324 256.794 227.398 256.794 228.659ZM291.294 244.511C288.737 244.511 286.521 243.949 284.646 242.824C282.771 241.699 281.317 240.125 280.283 238.102C279.26 236.08 278.749 233.716 278.749 231.011C278.749 228.307 279.26 225.937 280.283 223.903C281.317 221.869 282.771 220.29 284.646 219.165C286.521 218.04 288.737 217.477 291.294 217.477C293.851 217.477 296.067 218.04 297.942 219.165C299.817 220.29 301.266 221.869 302.288 223.903C303.322 225.937 303.839 228.307 303.839 231.011C303.839 233.716 303.322 236.08 302.288 238.102C301.266 240.125 299.817 241.699 297.942 242.824C296.067 243.949 293.851 244.511 291.294 244.511ZM291.328 239.568C292.714 239.568 293.874 239.187 294.805 238.426C295.737 237.653 296.43 236.619 296.885 235.324C297.351 234.028 297.584 232.585 297.584 230.994C297.584 229.392 297.351 227.943 296.885 226.648C296.43 225.341 295.737 224.301 294.805 223.528C293.874 222.756 292.714 222.369 291.328 222.369C289.908 222.369 288.726 222.756 287.783 223.528C286.851 224.301 286.152 225.341 285.686 226.648C285.232 227.943 285.004 229.392 285.004 230.994C285.004 232.585 285.232 234.028 285.686 235.324C286.152 236.619 286.851 237.653 287.783 238.426C288.726 239.187 289.908 239.568 291.328 239.568ZM329.77 224.739L324.145 225.352C323.986 224.784 323.707 224.25 323.31 223.75C322.923 223.25 322.401 222.847 321.741 222.54C321.082 222.233 320.276 222.08 319.321 222.08C318.037 222.08 316.957 222.358 316.082 222.915C315.219 223.472 314.793 224.193 314.804 225.08C314.793 225.841 315.071 226.46 315.639 226.938C316.219 227.415 317.173 227.807 318.503 228.114L322.969 229.068C325.446 229.602 327.287 230.449 328.491 231.608C329.707 232.767 330.321 234.284 330.332 236.159C330.321 237.807 329.838 239.261 328.884 240.523C327.94 241.773 326.628 242.75 324.946 243.455C323.264 244.159 321.332 244.511 319.151 244.511C315.946 244.511 313.366 243.841 311.412 242.5C309.457 241.148 308.293 239.267 307.918 236.858L313.935 236.278C314.207 237.46 314.787 238.352 315.673 238.955C316.56 239.557 317.713 239.858 319.134 239.858C320.599 239.858 321.776 239.557 322.662 238.955C323.56 238.352 324.009 237.608 324.009 236.722C324.009 235.972 323.719 235.352 323.139 234.864C322.571 234.375 321.685 234 320.48 233.739L316.014 232.801C313.503 232.278 311.645 231.398 310.44 230.159C309.236 228.909 308.639 227.33 308.651 225.42C308.639 223.807 309.077 222.409 309.963 221.227C310.861 220.034 312.105 219.114 313.696 218.466C315.298 217.807 317.145 217.477 319.236 217.477C322.304 217.477 324.719 218.131 326.48 219.438C328.253 220.744 329.349 222.511 329.77 224.739Z" fill="white"/>
<defs>
<filter id="filter0_d_115_53" x="0" y="0" width="397.18" height="306" filterUnits="userSpaceOnUse" color-interpolation-filters="sRGB">
<feFlood flood-opacity="0" result="BackgroundImageFix"/>
<feColorMatrix in="SourceAlpha" type="matrix" values="0 0 0 0 0 0 0 0 0 0 0 0 0 0 0 0 0 0 127 0" result="hardAlpha"/>
<feMorphology radius="3" operator="erode" in="SourceAlpha" result="effect1_dropShadow_115_53"/>
<feOffset dx="17" dy="16"/>
<feGaussianBlur stdDeviation="11"/>
<feComposite in2="hardAlpha" operator="out"/>
<feColorMatrix type="matrix" values="0 0 0 0 0.383337 0 0 0 0 0.322292 0 0 0 0 0.758333 0 0 0 0.16 0"/>
<feBlend mode="normal" in2="BackgroundImageFix" result="effect1_dropShadow_115_53"/>
<feBlend mode="normal" in="SourceGraphic" in2="effect1_dropShadow_115_53" result="shape"/>
</filter>
<radialGradient id="paint0_radial_115_53" cx="0" cy="0" r="1" gradientUnits="userSpaceOnUse" gradientTransform="translate(361 271) rotate(-135.904) scale(694.819 931.213)">
<stop stop-color="#6551E3"/>
<stop offset="1" stop-color="#6551E3" stop-opacity="0"/>
</radialGradient>
<radialGradient id="paint1_radial_115_53" cx="0" cy="0" r="1" gradientUnits="userSpaceOnUse" gradientTransform="translate(-90.5 -141.5) rotate(41.4237) scale(510.11 683.662)">
<stop stop-color="#51D2E3"/>
<stop offset="1" stop-color="#51D2E3" stop-opacity="0"/>
</radialGradient>
<linearGradient id="paint2_linear_115_53" x1="240.5" y1="13" x2="-36" y2="249.5" gradientUnits="userSpaceOnUse">
<stop offset="0.0263481" stop-color="white"/>
<stop offset="1" stop-color="white" stop-opacity="0"/>
</linearGradient>
</defs>
</svg>
