<svg width="398" height="306" viewBox="0 0 398 306" fill="none" xmlns="http://www.w3.org/2000/svg">
<g filter="url(#filter0_d_118_191)">
<rect x="2" y="3" width="359.18" height="268" rx="33.4897" fill="white"/>
</g>
<rect x="2" y="3" width="359.18" height="268" rx="33.4897" fill="#5CABF3"/>
<rect x="2" y="3" width="359.18" height="268" rx="33.4897" fill="url(#paint0_radial_118_191)"/>
<mask id="mask0_118_191" style="mask-type:alpha" maskUnits="userSpaceOnUse" x="2" y="3" width="360" height="268">
<rect x="2" y="3" width="359.18" height="268" rx="33.4897" fill="white"/>
</mask>
<g mask="url(#mask0_118_191)">
<path d="M174.173 160.973L179.105 146.056C187.373 121.051 185.903 93.963 175.02 70.7505C164.136 47.5379 144.73 30.1023 121.07 22.2794C97.4107 14.4565 71.4359 16.8871 48.86 29.0364C26.284 41.1857 8.95629 62.0585 0.688633 87.0631L-4.24367 101.98C-16.2395 103.381 -27.5466 109.033 -36.2722 117.991C-44.9978 126.949 -50.6121 138.669 -52.1754 151.188C-53.7387 163.708 -51.1559 176.267 -44.8595 186.764C-38.5632 197.26 -28.9354 205.057 -17.5879 208.849C-12.3302 210.587 -6.55806 210.047 -1.54119 207.347C3.47568 204.648 7.32629 200.009 9.16355 194.453L29.9457 131.599C31.783 126.043 31.4564 120.023 29.0378 114.865C26.6192 109.706 22.3067 105.832 17.049 104.093L20.5127 93.6179C26.9431 74.1698 40.4202 57.9354 57.9793 48.4859C75.5383 39.0365 95.741 37.1461 114.143 43.2306C132.545 49.315 147.638 62.876 156.103 80.9302C164.569 98.9844 165.712 120.053 159.281 139.501L155.818 149.977C150.56 148.238 144.788 148.778 139.771 151.478C134.754 154.178 130.903 158.816 129.066 164.373L108.284 227.226C106.447 232.783 106.773 238.802 109.192 243.961C111.61 249.119 115.923 252.994 121.181 254.732C132.552 258.452 144.93 257.931 156.242 253.257C167.555 248.583 177.116 240.038 183.324 229.055C189.532 218.071 192.01 205.314 190.344 192.921C188.679 180.527 182.97 169.248 174.173 160.973Z" fill="url(#paint1_linear_118_191)"/>
</g>
<path d="M86.9261 241H80.1761L92.4659 206.091H100.273L112.58 241H105.83L96.5057 213.25H96.233L86.9261 241ZM87.1477 227.312H105.557V232.392H87.1477V227.312ZM133.592 229.989V214.818H139.763V241H133.78V236.347H133.507C132.916 237.812 131.945 239.011 130.592 239.943C129.251 240.875 127.598 241.341 125.632 241.341C123.916 241.341 122.399 240.96 121.081 240.199C119.774 239.426 118.751 238.307 118.013 236.841C117.274 235.364 116.905 233.58 116.905 231.489V214.818H123.075V230.534C123.075 232.193 123.53 233.511 124.439 234.489C125.348 235.466 126.541 235.955 128.018 235.955C128.928 235.955 129.808 235.733 130.661 235.29C131.513 234.847 132.212 234.188 132.757 233.312C133.314 232.426 133.592 231.318 133.592 229.989ZM155.824 241.46C153.767 241.46 151.926 240.932 150.301 239.875C148.676 238.818 147.392 237.284 146.449 235.273C145.506 233.261 145.034 230.818 145.034 227.943C145.034 225.034 145.511 222.58 146.466 220.58C147.432 218.568 148.733 217.051 150.369 216.028C152.006 214.994 153.83 214.477 155.841 214.477C157.375 214.477 158.636 214.739 159.625 215.261C160.614 215.773 161.398 216.392 161.977 217.119C162.557 217.835 163.006 218.511 163.324 219.148H163.58V206.091H169.767V241H163.699V236.875H163.324C163.006 237.511 162.545 238.187 161.943 238.903C161.341 239.608 160.545 240.21 159.557 240.71C158.568 241.21 157.324 241.46 155.824 241.46ZM157.545 236.398C158.852 236.398 159.966 236.045 160.886 235.341C161.807 234.625 162.506 233.631 162.983 232.358C163.46 231.085 163.699 229.602 163.699 227.909C163.699 226.216 163.46 224.744 162.983 223.494C162.517 222.244 161.824 221.273 160.903 220.58C159.994 219.886 158.875 219.54 157.545 219.54C156.17 219.54 155.023 219.898 154.102 220.614C153.182 221.33 152.489 222.318 152.023 223.58C151.557 224.841 151.324 226.284 151.324 227.909C151.324 229.545 151.557 231.006 152.023 232.29C152.5 233.562 153.199 234.568 154.119 235.307C155.051 236.034 156.193 236.398 157.545 236.398ZM176.342 241V214.818H182.513V241H176.342ZM179.445 211.102C178.467 211.102 177.626 210.778 176.922 210.131C176.217 209.472 175.865 208.682 175.865 207.761C175.865 206.83 176.217 206.04 176.922 205.392C177.626 204.733 178.467 204.403 179.445 204.403C180.433 204.403 181.274 204.733 181.967 205.392C182.672 206.04 183.024 206.83 183.024 207.761C183.024 208.682 182.672 209.472 181.967 210.131C181.274 210.778 180.433 211.102 179.445 211.102ZM200.278 241.511C197.722 241.511 195.506 240.949 193.631 239.824C191.756 238.699 190.301 237.125 189.267 235.102C188.244 233.08 187.733 230.716 187.733 228.011C187.733 225.307 188.244 222.937 189.267 220.903C190.301 218.869 191.756 217.29 193.631 216.165C195.506 215.04 197.722 214.477 200.278 214.477C202.835 214.477 205.051 215.04 206.926 216.165C208.801 217.29 210.25 218.869 211.273 220.903C212.307 222.937 212.824 225.307 212.824 228.011C212.824 230.716 212.307 233.08 211.273 235.102C210.25 237.125 208.801 238.699 206.926 239.824C205.051 240.949 202.835 241.511 200.278 241.511ZM200.312 236.568C201.699 236.568 202.858 236.187 203.79 235.426C204.722 234.653 205.415 233.619 205.869 232.324C206.335 231.028 206.568 229.585 206.568 227.994C206.568 226.392 206.335 224.943 205.869 223.648C205.415 222.341 204.722 221.301 203.79 220.528C202.858 219.756 201.699 219.369 200.312 219.369C198.892 219.369 197.71 219.756 196.767 220.528C195.835 221.301 195.136 222.341 194.67 223.648C194.216 224.943 193.989 226.392 193.989 227.994C193.989 229.585 194.216 231.028 194.67 232.324C195.136 233.619 195.835 234.653 196.767 235.426C197.71 236.187 198.892 236.568 200.312 236.568ZM218.334 241V206.091H231.697C234.22 206.091 236.317 206.489 237.987 207.284C239.669 208.068 240.925 209.142 241.754 210.506C242.595 211.869 243.016 213.415 243.016 215.142C243.016 216.562 242.743 217.778 242.197 218.79C241.652 219.79 240.919 220.602 239.999 221.227C239.078 221.852 238.05 222.301 236.913 222.574V222.915C238.152 222.983 239.339 223.364 240.476 224.057C241.624 224.739 242.561 225.705 243.288 226.955C244.016 228.205 244.379 229.716 244.379 231.489C244.379 233.295 243.942 234.92 243.067 236.364C242.192 237.795 240.874 238.926 239.112 239.756C237.351 240.585 235.135 241 232.464 241H218.334ZM224.658 235.716H231.459C233.754 235.716 235.408 235.278 236.419 234.403C237.442 233.517 237.953 232.381 237.953 230.994C237.953 229.96 237.697 229.028 237.186 228.199C236.675 227.358 235.947 226.699 235.004 226.222C234.061 225.733 232.936 225.489 231.629 225.489H224.658V235.716ZM224.658 220.938H230.913C232.004 220.938 232.987 220.739 233.862 220.341C234.737 219.932 235.425 219.358 235.925 218.619C236.436 217.869 236.692 216.983 236.692 215.96C236.692 214.608 236.214 213.494 235.26 212.619C234.317 211.744 232.913 211.307 231.05 211.307H224.658V220.938ZM261.028 241.511C258.472 241.511 256.256 240.949 254.381 239.824C252.506 238.699 251.051 237.125 250.017 235.102C248.994 233.08 248.483 230.716 248.483 228.011C248.483 225.307 248.994 222.937 250.017 220.903C251.051 218.869 252.506 217.29 254.381 216.165C256.256 215.04 258.472 214.477 261.028 214.477C263.585 214.477 265.801 215.04 267.676 216.165C269.551 217.29 271 218.869 272.023 220.903C273.057 222.937 273.574 225.307 273.574 228.011C273.574 230.716 273.057 233.08 272.023 235.102C271 237.125 269.551 238.699 267.676 239.824C265.801 240.949 263.585 241.511 261.028 241.511ZM261.062 236.568C262.449 236.568 263.608 236.187 264.54 235.426C265.472 234.653 266.165 233.619 266.619 232.324C267.085 231.028 267.318 229.585 267.318 227.994C267.318 226.392 267.085 224.943 266.619 223.648C266.165 222.341 265.472 221.301 264.54 220.528C263.608 219.756 262.449 219.369 261.062 219.369C259.642 219.369 258.46 219.756 257.517 220.528C256.585 221.301 255.886 222.341 255.42 223.648C254.966 224.943 254.739 226.392 254.739 227.994C254.739 229.585 254.966 231.028 255.42 232.324C255.886 233.619 256.585 234.653 257.517 235.426C258.46 236.187 259.642 236.568 261.062 236.568ZM290.232 241.511C287.675 241.511 285.459 240.949 283.584 239.824C281.709 238.699 280.254 237.125 279.22 235.102C278.197 233.08 277.686 230.716 277.686 228.011C277.686 225.307 278.197 222.937 279.22 220.903C280.254 218.869 281.709 217.29 283.584 216.165C285.459 215.04 287.675 214.477 290.232 214.477C292.788 214.477 295.004 215.04 296.879 216.165C298.754 217.29 300.203 218.869 301.226 220.903C302.26 222.937 302.777 225.307 302.777 228.011C302.777 230.716 302.26 233.08 301.226 235.102C300.203 237.125 298.754 238.699 296.879 239.824C295.004 240.949 292.788 241.511 290.232 241.511ZM290.266 236.568C291.652 236.568 292.811 236.187 293.743 235.426C294.675 234.653 295.368 233.619 295.822 232.324C296.288 231.028 296.521 229.585 296.521 227.994C296.521 226.392 296.288 224.943 295.822 223.648C295.368 222.341 294.675 221.301 293.743 220.528C292.811 219.756 291.652 219.369 290.266 219.369C288.845 219.369 287.663 219.756 286.72 220.528C285.788 221.301 285.089 222.341 284.624 223.648C284.169 224.943 283.942 226.392 283.942 227.994C283.942 229.585 284.169 231.028 284.624 232.324C285.089 233.619 285.788 234.653 286.72 235.426C287.663 236.187 288.845 236.568 290.266 236.568ZM313.639 232.784L313.622 225.335H314.611L324.02 214.818H331.23L319.656 227.705H318.378L313.639 232.784ZM308.014 241V206.091H314.185V241H308.014ZM324.446 241L315.923 229.085L320.082 224.739L331.827 241H324.446Z" fill="#F3F1F1"/>
<defs>
<filter id="filter0_d_118_191" x="0" y="0" width="397.18" height="306" filterUnits="userSpaceOnUse" color-interpolation-filters="sRGB">
<feFlood flood-opacity="0" result="BackgroundImageFix"/>
<feColorMatrix in="SourceAlpha" type="matrix" values="0 0 0 0 0 0 0 0 0 0 0 0 0 0 0 0 0 0 127 0" result="hardAlpha"/>
<feMorphology radius="3" operator="erode" in="SourceAlpha" result="effect1_dropShadow_118_191"/>
<feOffset dx="17" dy="16"/>
<feGaussianBlur stdDeviation="11"/>
<feComposite in2="hardAlpha" operator="out"/>
<feColorMatrix type="matrix" values="0 0 0 0 0.383337 0 0 0 0 0.322292 0 0 0 0 0.758333 0 0 0 0.16 0"/>
<feBlend mode="normal" in2="BackgroundImageFix" result="effect1_dropShadow_118_191"/>
<feBlend mode="normal" in="SourceGraphic" in2="effect1_dropShadow_118_191" result="shape"/>
</filter>
<radialGradient id="paint0_radial_118_191" cx="0" cy="0" r="1" gradientUnits="userSpaceOnUse" gradientTransform="translate(337 241.5) rotate(-146.476) scale(431.836 578.757)">
<stop stop-color="#5CF3EA"/>
<stop offset="1" stop-color="#5CABF3" stop-opacity="0"/>
</radialGradient>
<linearGradient id="paint1_linear_118_191" x1="252.5" y1="30" x2="-37" y2="219" gradientUnits="userSpaceOnUse">
<stop stop-color="white"/>
<stop offset="0.802083" stop-color="white" stop-opacity="0"/>
</linearGradient>
</defs>
</svg>
