<svg width="398" height="306" viewBox="0 0 398 306" fill="none" xmlns="http://www.w3.org/2000/svg">
<g filter="url(#filter0_d_95_440)">
<rect x="2" y="3" width="359.175" height="268" rx="34.0756" fill="#6A82FF"/>
</g>
<rect x="2" y="3" width="359.175" height="268" rx="34.0756" fill="url(#paint0_radial_95_440)"/>
<mask id="mask0_95_440" style="mask-type:alpha" maskUnits="userSpaceOnUse" x="2" y="3" width="360" height="268">
<rect x="2" y="3" width="359.175" height="268" rx="34.0756" fill="white"/>
</mask>
<g mask="url(#mask0_95_440)">
<path d="M99 178.25C101.453 178.25 103.806 179.224 105.541 180.959C107.275 182.694 108.25 185.047 108.25 187.5C108.25 189.953 107.275 192.306 105.541 194.041C103.806 195.775 101.453 196.75 99 196.75H89.75C87.2967 196.75 84.944 195.775 83.2093 194.041C81.4746 192.306 80.5 189.953 80.5 187.5C80.5 185.047 81.4746 182.694 83.2093 180.959C84.944 179.224 87.2967 178.25 89.75 178.25H99ZM80.5 159.75C78.0467 159.75 75.694 158.775 73.9593 157.041C72.2246 155.306 71.25 152.953 71.25 150.5V141.25H52.75V150.5C52.75 152.953 51.7754 155.306 50.0407 157.041C48.306 158.775 45.9533 159.75 43.5 159.75C41.0467 159.75 38.694 158.775 36.9593 157.041C35.2246 155.306 34.25 152.953 34.25 150.5V113.5C34.25 106.14 37.1736 99.0818 42.3778 93.8777C47.5819 88.6736 54.6402 85.7499 62 85.7499C69.3598 85.7499 76.4181 88.6736 81.6222 93.8777C86.8264 99.0818 89.75 106.14 89.75 113.5V150.5C89.75 152.953 88.7754 155.306 87.0407 157.041C85.306 158.775 82.9533 159.75 80.5 159.75ZM71.25 122.75V113.5C71.25 111.047 70.2754 108.694 68.5407 106.959C66.806 105.224 64.4533 104.25 62 104.25C59.5467 104.25 57.194 105.224 55.4593 106.959C53.7246 108.694 52.75 111.047 52.75 113.5V122.75H71.25ZM55.4232 171.775L40.5122 186.852C40.0946 187.272 39.5317 187.516 38.9397 187.533C38.3477 187.551 37.7716 187.34 37.3303 186.945L31.6323 181.025C29.915 179.266 27.5693 178.261 25.1112 178.232C22.6531 178.202 20.284 179.15 18.525 180.868C16.766 182.585 15.7613 184.931 15.7318 187.389C15.7023 189.847 16.6505 192.216 18.3677 193.975L24.1582 199.932C28.0689 203.835 33.3683 206.027 38.8935 206.027C44.4187 206.027 49.7181 203.835 53.6288 199.932L68.5768 184.725C70.1071 182.947 70.9046 180.653 70.8078 178.309C70.711 175.965 69.7271 173.745 68.0552 172.1C66.3834 170.454 64.1486 169.504 61.8033 169.444C59.458 169.384 57.1774 170.217 55.4232 171.775ZM145.25 82.5772V196.75C145.235 209.012 140.358 220.767 131.687 229.437C123.017 238.108 111.262 242.985 99 243H25C12.7382 242.985 0.98291 238.108 -7.68747 229.437C-16.3578 220.767 -21.2353 209.012 -21.25 196.75V67.2499C-21.2353 54.9882 -16.3578 43.2328 -7.68747 34.5624C0.98291 25.8921 12.7382 21.0146 25 20.9999H83.6728C89.7498 20.9843 95.7696 22.1739 101.384 24.4999C106.998 26.826 112.095 30.2423 116.381 34.5512L131.699 49.8692C136.008 54.1545 139.424 59.2518 141.75 64.8661C144.076 70.4803 145.266 76.5001 145.25 82.5772ZM103.301 47.6307C101.987 46.3232 100.546 45.1489 99 44.1249V67.2499H122.125C121.098 65.7037 119.921 64.263 118.61 62.9487L103.301 47.6307ZM126.75 85.7499H99C94.0935 85.7499 89.388 83.8008 85.9185 80.3314C82.4491 76.862 80.5 72.1564 80.5 67.2499V39.4999H25C17.6402 39.4999 10.5819 42.4236 5.37779 47.6277C0.173653 52.8318 -2.75 59.8901 -2.75 67.2499V196.75C-2.75 204.11 0.173653 211.168 5.37779 216.372C10.5819 221.576 17.6402 224.5 25 224.5H99C106.36 224.5 113.418 221.576 118.622 216.372C123.826 211.168 126.75 204.11 126.75 196.75V85.7499Z" fill="url(#paint1_linear_95_440)"/>
</g>
<path d="M162.443 234V199.091H175.807C178.33 199.091 180.426 199.489 182.097 200.284C183.778 201.068 185.034 202.142 185.864 203.506C186.705 204.869 187.125 206.415 187.125 208.142C187.125 209.562 186.852 210.778 186.307 211.79C185.761 212.79 185.028 213.602 184.108 214.227C183.188 214.852 182.159 215.301 181.023 215.574V215.915C182.261 215.983 183.449 216.364 184.585 217.057C185.733 217.739 186.67 218.705 187.398 219.955C188.125 221.205 188.489 222.716 188.489 224.489C188.489 226.295 188.051 227.92 187.176 229.364C186.301 230.795 184.983 231.926 183.222 232.756C181.46 233.585 179.244 234 176.574 234H162.443ZM168.767 228.716H175.568C177.864 228.716 179.517 228.278 180.528 227.403C181.551 226.517 182.062 225.381 182.062 223.994C182.062 222.96 181.807 222.028 181.295 221.199C180.784 220.358 180.057 219.699 179.114 219.222C178.17 218.733 177.045 218.489 175.739 218.489H168.767V228.716ZM168.767 213.938H175.023C176.114 213.938 177.097 213.739 177.972 213.341C178.847 212.932 179.534 212.358 180.034 211.619C180.545 210.869 180.801 209.983 180.801 208.96C180.801 207.608 180.324 206.494 179.369 205.619C178.426 204.744 177.023 204.307 175.159 204.307H168.767V213.938ZM205.138 234.511C202.581 234.511 200.365 233.949 198.49 232.824C196.615 231.699 195.161 230.125 194.126 228.102C193.104 226.08 192.592 223.716 192.592 221.011C192.592 218.307 193.104 215.937 194.126 213.903C195.161 211.869 196.615 210.29 198.49 209.165C200.365 208.04 202.581 207.477 205.138 207.477C207.695 207.477 209.911 208.04 211.786 209.165C213.661 210.29 215.109 211.869 216.132 213.903C217.166 215.937 217.683 218.307 217.683 221.011C217.683 223.716 217.166 226.08 216.132 228.102C215.109 230.125 213.661 231.699 211.786 232.824C209.911 233.949 207.695 234.511 205.138 234.511ZM205.172 229.568C206.558 229.568 207.717 229.187 208.649 228.426C209.581 227.653 210.274 226.619 210.729 225.324C211.195 224.028 211.428 222.585 211.428 220.994C211.428 219.392 211.195 217.943 210.729 216.648C210.274 215.341 209.581 214.301 208.649 213.528C207.717 212.756 206.558 212.369 205.172 212.369C203.751 212.369 202.57 212.756 201.626 213.528C200.695 214.301 199.996 215.341 199.53 216.648C199.075 217.943 198.848 219.392 198.848 220.994C198.848 222.585 199.075 224.028 199.53 225.324C199.996 226.619 200.695 227.653 201.626 228.426C202.57 229.187 203.751 229.568 205.172 229.568ZM229.091 199.091V234H222.92V199.091H229.091ZM247.027 234.511C244.402 234.511 242.135 233.966 240.226 232.875C238.328 231.773 236.868 230.216 235.845 228.205C234.822 226.182 234.311 223.801 234.311 221.062C234.311 218.369 234.822 216.006 235.845 213.972C236.879 211.926 238.322 210.335 240.175 209.199C242.027 208.051 244.203 207.477 246.703 207.477C248.317 207.477 249.839 207.739 251.271 208.261C252.714 208.773 253.987 209.568 255.089 210.648C256.203 211.727 257.078 213.102 257.714 214.773C258.351 216.432 258.669 218.409 258.669 220.705V222.597H237.209V218.438H252.754C252.743 217.256 252.487 216.205 251.987 215.284C251.487 214.352 250.788 213.619 249.891 213.085C249.004 212.551 247.97 212.284 246.788 212.284C245.527 212.284 244.419 212.591 243.464 213.205C242.51 213.807 241.766 214.602 241.232 215.591C240.709 216.568 240.442 217.642 240.43 218.812V222.443C240.43 223.966 240.709 225.273 241.266 226.364C241.822 227.443 242.601 228.273 243.601 228.852C244.601 229.42 245.771 229.705 247.112 229.705C248.01 229.705 248.822 229.58 249.55 229.33C250.277 229.068 250.908 228.688 251.442 228.188C251.976 227.688 252.379 227.068 252.652 226.33L258.413 226.977C258.05 228.5 257.357 229.83 256.334 230.966C255.322 232.091 254.027 232.966 252.447 233.591C250.868 234.205 249.061 234.511 247.027 234.511ZM276.963 207.818V212.591H261.912V207.818H276.963ZM265.628 201.545H271.798V226.125C271.798 226.955 271.923 227.591 272.173 228.034C272.435 228.466 272.776 228.761 273.196 228.92C273.616 229.08 274.082 229.159 274.594 229.159C274.98 229.159 275.332 229.131 275.651 229.074C275.98 229.017 276.23 228.966 276.401 228.92L277.44 233.744C277.111 233.858 276.639 233.983 276.026 234.119C275.423 234.256 274.685 234.335 273.81 234.358C272.264 234.403 270.872 234.17 269.634 233.659C268.395 233.136 267.412 232.33 266.685 231.239C265.969 230.148 265.616 228.784 265.628 227.148V201.545ZM282.124 234V207.818H288.294V234H282.124ZM285.226 204.102C284.249 204.102 283.408 203.778 282.703 203.131C281.999 202.472 281.646 201.682 281.646 200.761C281.646 199.83 281.999 199.04 282.703 198.392C283.408 197.733 284.249 197.403 285.226 197.403C286.214 197.403 287.055 197.733 287.749 198.392C288.453 199.04 288.805 199.83 288.805 200.761C288.805 201.682 288.453 202.472 287.749 203.131C287.055 203.778 286.214 204.102 285.226 204.102ZM294.639 234V207.818H300.537V212.267H300.844C301.389 210.767 302.293 209.597 303.554 208.756C304.815 207.903 306.321 207.477 308.071 207.477C309.844 207.477 311.338 207.909 312.554 208.773C313.781 209.625 314.645 210.79 315.145 212.267H315.418C315.997 210.812 316.974 209.653 318.349 208.79C319.736 207.915 321.378 207.477 323.276 207.477C325.685 207.477 327.651 208.239 329.173 209.761C330.696 211.284 331.457 213.506 331.457 216.426V234H325.27V217.381C325.27 215.756 324.838 214.568 323.974 213.818C323.111 213.057 322.054 212.676 320.804 212.676C319.315 212.676 318.151 213.142 317.31 214.074C316.48 214.994 316.065 216.193 316.065 217.67V234H310.014V217.125C310.014 215.773 309.605 214.693 308.787 213.886C307.98 213.08 306.923 212.676 305.616 212.676C304.73 212.676 303.923 212.903 303.196 213.358C302.469 213.801 301.889 214.432 301.457 215.25C301.026 216.057 300.81 217 300.81 218.08V234H294.639Z" fill="white"/>
<defs>
<filter id="filter0_d_95_440" x="0" y="0" width="397.175" height="306" filterUnits="userSpaceOnUse" color-interpolation-filters="sRGB">
<feFlood flood-opacity="0" result="BackgroundImageFix"/>
<feColorMatrix in="SourceAlpha" type="matrix" values="0 0 0 0 0 0 0 0 0 0 0 0 0 0 0 0 0 0 127 0" result="hardAlpha"/>
<feMorphology radius="3" operator="erode" in="SourceAlpha" result="effect1_dropShadow_95_440"/>
<feOffset dx="17" dy="16"/>
<feGaussianBlur stdDeviation="11"/>
<feComposite in2="hardAlpha" operator="out"/>
<feColorMatrix type="matrix" values="0 0 0 0 0.383337 0 0 0 0 0.322292 0 0 0 0 0.758333 0 0 0 0.16 0"/>
<feBlend mode="normal" in2="BackgroundImageFix" result="effect1_dropShadow_95_440"/>
<feBlend mode="normal" in="SourceGraphic" in2="effect1_dropShadow_95_440" result="shape"/>
</filter>
<radialGradient id="paint0_radial_95_440" cx="0" cy="0" r="1" gradientUnits="userSpaceOnUse" gradientTransform="translate(36.5 34.5) rotate(42.9913) scale(413.558 554.253)">
<stop stop-color="#6ADBFF"/>
<stop offset="1" stop-color="#CF6AFF" stop-opacity="0"/>
</radialGradient>
<linearGradient id="paint1_linear_95_440" x1="117.5" y1="13" x2="25.5" y2="315.5" gradientUnits="userSpaceOnUse">
<stop stop-color="white"/>
<stop offset="1" stop-color="white" stop-opacity="0"/>
</linearGradient>
</defs>
</svg>
