<svg width="282" height="42" viewBox="0 0 282 42" fill="none" xmlns="http://www.w3.org/2000/svg">
<path d="M282 42H41.0255C23.903 42 13.9776 22.6098 23.9902 8.71997V8.71997C27.9373 3.24448 34.2757 0 41.0255 0H206.277C218.961 0 230.769 6.47037 237.595 17.1613L238.092 17.9399C247.662 32.9286 264.217 42 282 42V42Z" fill="white"/>
<path d="M59.517 29V11.5455H66.4034C67.7273 11.5455 68.8551 11.7983 69.7869 12.304C70.7188 12.804 71.429 13.5 71.9176 14.392C72.4119 15.2784 72.6591 16.3011 72.6591 17.4602C72.6591 18.6193 72.4091 19.642 71.9091 20.5284C71.4091 21.4148 70.6847 22.1051 69.7358 22.5994C68.7926 23.0937 67.6506 23.3409 66.3097 23.3409H61.9205V20.3835H65.7131C66.4233 20.3835 67.0085 20.2614 67.4688 20.017C67.9347 19.767 68.2813 19.4233 68.5085 18.9858C68.7415 18.5426 68.858 18.0341 68.858 17.4602C68.858 16.8807 68.7415 16.375 68.5085 15.9432C68.2813 15.5057 67.9347 15.1676 67.4688 14.929C67.0028 14.6847 66.4119 14.5625 65.696 14.5625H63.2074V29H59.517ZM80.6918 29.2557C79.3679 29.2557 78.223 28.9744 77.2571 28.4119C76.2969 27.8437 75.5554 27.054 75.0327 26.0426C74.5099 25.0256 74.2486 23.8466 74.2486 22.5057C74.2486 21.1534 74.5099 19.9716 75.0327 18.9602C75.5554 17.9432 76.2969 17.1534 77.2571 16.5909C78.223 16.0227 79.3679 15.7386 80.6918 15.7386C82.0156 15.7386 83.1577 16.0227 84.1179 16.5909C85.0838 17.1534 85.8281 17.9432 86.3509 18.9602C86.8736 19.9716 87.1349 21.1534 87.1349 22.5057C87.1349 23.8466 86.8736 25.0256 86.3509 26.0426C85.8281 27.054 85.0838 27.8437 84.1179 28.4119C83.1577 28.9744 82.0156 29.2557 80.6918 29.2557ZM80.7088 26.4432C81.3111 26.4432 81.8139 26.2727 82.2173 25.9318C82.6207 25.5852 82.9247 25.1136 83.1293 24.517C83.3395 23.9205 83.4446 23.2415 83.4446 22.4801C83.4446 21.7188 83.3395 21.0398 83.1293 20.4432C82.9247 19.8466 82.6207 19.375 82.2173 19.0284C81.8139 18.6818 81.3111 18.5085 80.7088 18.5085C80.1009 18.5085 79.5895 18.6818 79.1747 19.0284C78.7656 19.375 78.456 19.8466 78.2457 20.4432C78.0412 21.0398 77.9389 21.7188 77.9389 22.4801C77.9389 23.2415 78.0412 23.9205 78.2457 24.517C78.456 25.1136 78.7656 25.5852 79.1747 25.9318C79.5895 26.2727 80.1009 26.4432 80.7088 26.4432ZM89.4957 29V15.9091H93.0156V18.1932H93.152C93.3906 17.3807 93.7912 16.767 94.3537 16.3523C94.9162 15.9318 95.5639 15.7216 96.2969 15.7216C96.4787 15.7216 96.6747 15.733 96.8849 15.7557C97.0952 15.7784 97.2798 15.8097 97.4389 15.8494V19.071C97.2685 19.0199 97.0327 18.9744 96.7315 18.9347C96.4304 18.8949 96.1548 18.875 95.9048 18.875C95.3707 18.875 94.8935 18.9915 94.473 19.2244C94.0582 19.4517 93.7287 19.7699 93.4844 20.179C93.2457 20.5881 93.1264 21.0597 93.1264 21.5938V29H89.4957ZM106.935 15.9091V18.6364H99.0518V15.9091H106.935ZM100.842 12.7727H104.472V24.9773C104.472 25.3125 104.523 25.5739 104.626 25.7614C104.728 25.9432 104.87 26.071 105.052 26.1449C105.239 26.2187 105.455 26.2557 105.7 26.2557C105.87 26.2557 106.04 26.2415 106.211 26.2131C106.381 26.179 106.512 26.1534 106.603 26.1364L107.174 28.8381C106.992 28.8949 106.737 28.9602 106.407 29.0341C106.077 29.1136 105.677 29.1619 105.205 29.179C104.33 29.2131 103.563 29.0966 102.904 28.8295C102.251 28.5625 101.742 28.1477 101.379 27.5852C101.015 27.0227 100.836 26.3125 100.842 25.4545V12.7727ZM117.695 23.4261V15.9091H121.326V29H117.84V26.6222H117.704C117.408 27.3892 116.917 28.0057 116.229 28.4716C115.548 28.9375 114.715 29.1705 113.732 29.1705C112.857 29.1705 112.087 28.9716 111.423 28.5739C110.758 28.1761 110.238 27.6108 109.863 26.8778C109.494 26.1449 109.306 25.267 109.3 24.2443V15.9091H112.931V23.5966C112.937 24.3693 113.144 24.9801 113.553 25.429C113.962 25.8778 114.511 26.1023 115.198 26.1023C115.636 26.1023 116.045 26.0028 116.425 25.804C116.806 25.5994 117.113 25.2983 117.346 24.9006C117.585 24.5028 117.701 24.0114 117.695 23.4261ZM130.128 34.1818C128.952 34.1818 127.943 34.0199 127.102 33.696C126.267 33.3778 125.602 32.9432 125.108 32.392C124.614 31.8409 124.293 31.2216 124.145 30.5341L127.503 30.0824C127.605 30.3438 127.767 30.5881 127.989 30.8153C128.21 31.0426 128.503 31.2244 128.866 31.3608C129.236 31.5028 129.685 31.5739 130.213 31.5739C131.003 31.5739 131.653 31.3807 132.165 30.9943C132.682 30.6136 132.94 29.9744 132.94 29.0767V26.6818H132.787C132.628 27.0455 132.389 27.3892 132.071 27.7131C131.753 28.0369 131.344 28.3011 130.844 28.5057C130.344 28.7102 129.747 28.8125 129.054 28.8125C128.071 28.8125 127.176 28.5852 126.369 28.1307C125.568 27.6705 124.929 26.9687 124.452 26.0256C123.98 25.0767 123.744 23.8778 123.744 22.429C123.744 20.946 123.986 19.7074 124.469 18.7131C124.952 17.7187 125.594 16.9744 126.395 16.4801C127.202 15.9858 128.085 15.7386 129.045 15.7386C129.778 15.7386 130.392 15.8636 130.886 16.1136C131.381 16.358 131.778 16.6648 132.08 17.0341C132.386 17.3977 132.622 17.7557 132.787 18.108H132.923V15.9091H136.528V29.1278C136.528 30.2415 136.256 31.1733 135.71 31.9233C135.165 32.6733 134.409 33.2358 133.443 33.6108C132.483 33.9915 131.378 34.1818 130.128 34.1818ZM130.205 26.0852C130.79 26.0852 131.284 25.9403 131.688 25.6506C132.097 25.3551 132.409 24.9347 132.625 24.3892C132.847 23.8381 132.957 23.179 132.957 22.4119C132.957 21.6449 132.849 20.9801 132.634 20.4176C132.418 19.8494 132.105 19.4091 131.696 19.0966C131.287 18.7841 130.79 18.6278 130.205 18.6278C129.608 18.6278 129.105 18.7898 128.696 19.1136C128.287 19.4318 127.977 19.875 127.767 20.4432C127.557 21.0114 127.452 21.6676 127.452 22.4119C127.452 23.1676 127.557 23.821 127.767 24.3722C127.983 24.9176 128.293 25.3409 128.696 25.642C129.105 25.9375 129.608 26.0852 130.205 26.0852ZM147.812 23.4261V15.9091H151.443V29H147.957V26.6222H147.821C147.526 27.3892 147.034 28.0057 146.347 28.4716C145.665 28.9375 144.832 29.1705 143.849 29.1705C142.974 29.1705 142.205 28.9716 141.54 28.5739C140.875 28.1761 140.355 27.6108 139.98 26.8778C139.611 26.1449 139.423 25.267 139.418 24.2443V15.9091H143.048V23.5966C143.054 24.3693 143.261 24.9801 143.67 25.429C144.08 25.8778 144.628 26.1023 145.315 26.1023C145.753 26.1023 146.162 26.0028 146.543 25.804C146.923 25.5994 147.23 25.2983 147.463 24.9006C147.702 24.5028 147.818 24.0114 147.812 23.4261ZM160.313 29.2557C158.967 29.2557 157.808 28.983 156.836 28.4375C155.87 27.8864 155.126 27.108 154.603 26.1023C154.08 25.0909 153.819 23.8949 153.819 22.5142C153.819 21.1676 154.08 19.9858 154.603 18.9688C155.126 17.9517 155.862 17.1591 156.81 16.5909C157.765 16.0227 158.884 15.7386 160.168 15.7386C161.032 15.7386 161.836 15.8778 162.58 16.1562C163.33 16.429 163.984 16.8409 164.54 17.392C165.103 17.9432 165.54 18.6364 165.853 19.4716C166.165 20.3011 166.322 21.2727 166.322 22.3864V23.3835H155.268V21.1335H162.904C162.904 20.6108 162.79 20.1477 162.563 19.7443C162.336 19.3409 162.021 19.0256 161.617 18.7983C161.219 18.5653 160.756 18.4489 160.228 18.4489C159.677 18.4489 159.188 18.5767 158.762 18.8324C158.342 19.0824 158.012 19.4205 157.773 19.8466C157.535 20.267 157.413 20.7358 157.407 21.2528V23.392C157.407 24.0398 157.526 24.5994 157.765 25.071C158.009 25.5426 158.353 25.9062 158.796 26.1619C159.239 26.4176 159.765 26.5455 160.373 26.5455C160.776 26.5455 161.146 26.4886 161.481 26.375C161.816 26.2614 162.103 26.0909 162.342 25.8636C162.58 25.6364 162.762 25.358 162.887 25.0284L166.245 25.25C166.075 26.0568 165.725 26.7614 165.197 27.3636C164.674 27.9602 163.998 28.4261 163.168 28.7614C162.344 29.0909 161.393 29.2557 160.313 29.2557ZM161.796 14.3409L160.083 12.2614L158.37 14.3409H155.276V14.2216L158.728 10.4716H161.43L164.89 14.2216V14.3409H161.796ZM179.583 19.642L176.259 19.8466C176.202 19.5625 176.08 19.3068 175.893 19.0795C175.705 18.8466 175.458 18.6619 175.151 18.5256C174.85 18.3835 174.489 18.3125 174.069 18.3125C173.506 18.3125 173.032 18.4318 172.646 18.6705C172.259 18.9034 172.066 19.2159 172.066 19.608C172.066 19.9205 172.191 20.1847 172.441 20.4006C172.691 20.6165 173.12 20.7898 173.728 20.9205L176.097 21.3977C177.37 21.6591 178.319 22.0795 178.944 22.6591C179.569 23.2386 179.881 24 179.881 24.9432C179.881 25.8011 179.629 26.554 179.123 27.2017C178.623 27.8494 177.935 28.3551 177.06 28.7188C176.191 29.0767 175.188 29.2557 174.052 29.2557C172.319 29.2557 170.938 28.8949 169.91 28.1733C168.887 27.446 168.288 26.4574 168.112 25.2074L171.683 25.0199C171.79 25.5483 172.052 25.9517 172.467 26.2301C172.881 26.5028 173.413 26.6392 174.06 26.6392C174.697 26.6392 175.208 26.517 175.594 26.2727C175.987 26.0227 176.185 25.7017 176.191 25.3097C176.185 24.9801 176.046 24.7102 175.773 24.5C175.501 24.2841 175.08 24.1193 174.512 24.0057L172.245 23.554C170.967 23.2983 170.015 22.8551 169.39 22.2244C168.771 21.5937 168.461 20.7898 168.461 19.8125C168.461 18.9716 168.688 18.2472 169.143 17.6392C169.603 17.0312 170.248 16.5625 171.077 16.233C171.913 15.9034 172.89 15.7386 174.009 15.7386C175.663 15.7386 176.964 16.0881 177.913 16.7869C178.867 17.4858 179.424 18.4375 179.583 19.642Z" fill="black"/>
</svg>
