<svg width="398" height="306" viewBox="0 0 398 306" fill="none" xmlns="http://www.w3.org/2000/svg">
<g filter="url(#filter0_d_95_441)">
<rect x="2" y="3" width="359.18" height="268" rx="37" fill="white"/>
</g>
<rect x="2" y="3" width="359.18" height="268" rx="37" fill="#BB4EEE"/>
<rect x="2" y="3" width="359.18" height="268" rx="37" fill="url(#paint0_radial_95_441)"/>
<mask id="mask0_95_441" style="mask-type:alpha" maskUnits="userSpaceOnUse" x="2" y="3" width="360" height="268">
<rect x="2" y="3" width="359.18" height="268" rx="37" fill="white"/>
</mask>
<g mask="url(#mask0_95_441)">
<path d="M159.125 209.25H17.375C11.1093 209.25 5.10015 206.761 0.669603 202.33C-3.76094 197.9 -6.25 191.891 -6.25 185.625V43.875C-6.25 41.7864 -7.07968 39.7834 -8.55653 38.3065C-10.0334 36.8297 -12.0364 36 -14.125 36C-16.2136 36 -18.2166 36.8297 -19.6935 38.3065C-21.1703 39.7834 -22 41.7864 -22 43.875V185.625C-21.9875 196.064 -17.8351 206.072 -10.4535 213.454C-3.07198 220.835 6.93594 224.987 17.375 225H159.125C161.214 225 163.217 224.17 164.693 222.693C166.17 221.217 167 219.214 167 217.125C167 215.036 166.17 213.033 164.693 211.557C163.217 210.08 161.214 209.25 159.125 209.25Z" fill="url(#paint1_linear_95_441)"/>
<path d="M25.25 193.5C27.3386 193.5 29.3416 192.67 30.8184 191.193C32.2953 189.717 33.125 187.714 33.125 185.625V130.5C33.125 128.411 32.2953 126.408 30.8184 124.931C29.3416 123.455 27.3386 122.625 25.25 122.625C23.1614 122.625 21.1584 123.455 19.6815 124.931C18.2047 126.408 17.375 128.411 17.375 130.5V185.625C17.375 187.714 18.2047 189.717 19.6815 191.193C21.1584 192.67 23.1614 193.5 25.25 193.5Z" fill="url(#paint2_linear_95_441)"/>
<path d="M56.75 114.75V185.625C56.75 187.714 57.5797 189.717 59.0565 191.193C60.5334 192.67 62.5364 193.5 64.625 193.5C66.7136 193.5 68.7166 192.67 70.1935 191.193C71.6703 189.717 72.5 187.714 72.5 185.625V114.75C72.5 112.661 71.6703 110.658 70.1935 109.182C68.7166 107.705 66.7136 106.875 64.625 106.875C62.5364 106.875 60.5334 107.705 59.0565 109.182C57.5797 110.658 56.75 112.661 56.75 114.75Z" fill="url(#paint3_linear_95_441)"/>
<path d="M96.125 138.375V185.625C96.125 187.714 96.9547 189.717 98.4315 191.193C99.9084 192.67 101.911 193.5 104 193.5C106.089 193.5 108.092 192.67 109.568 191.193C111.045 189.717 111.875 187.714 111.875 185.625V138.375C111.875 136.286 111.045 134.283 109.568 132.807C108.092 131.33 106.089 130.5 104 130.5C101.911 130.5 99.9084 131.33 98.4315 132.807C96.9547 134.283 96.125 136.286 96.125 138.375Z" fill="url(#paint4_linear_95_441)"/>
<path d="M135.5 106.875V185.625C135.5 187.714 136.33 189.717 137.807 191.193C139.283 192.67 141.286 193.5 143.375 193.5C145.464 193.5 147.467 192.67 148.943 191.193C150.42 189.717 151.25 187.714 151.25 185.625V106.875C151.25 104.786 150.42 102.783 148.943 101.306C147.467 99.8296 145.464 98.9999 143.375 98.9999C141.286 98.9999 139.283 99.8296 137.807 101.306C136.33 102.783 135.5 104.786 135.5 106.875Z" fill="url(#paint5_linear_95_441)"/>
<path d="M25.25 106.875C27.3384 106.875 29.3411 106.045 30.8176 104.568L59.0574 76.3279C60.5584 74.898 62.5519 74.1004 64.625 74.1004C66.6981 74.1004 68.6916 74.898 70.1926 76.3279L87.2971 93.4324C91.7275 97.8614 97.7355 100.349 104 100.349C110.265 100.349 116.273 97.8614 120.703 93.4324L164.693 49.4426C166.127 47.9574 166.921 45.9682 166.903 43.9034C166.885 41.8386 166.057 39.8634 164.597 38.4033C163.137 36.9432 161.161 36.115 159.097 36.0971C157.032 36.0791 155.043 36.8729 153.557 38.3074L109.568 82.2893C108.091 83.7656 106.088 84.595 104 84.595C101.912 84.595 99.9092 83.7656 98.4324 82.2893L81.3279 65.1927C76.8975 60.7636 70.8895 58.2756 64.625 58.2756C58.3605 58.2756 52.3525 60.7636 47.9221 65.1927L19.6824 93.4324C18.5814 94.5337 17.8316 95.9368 17.5279 97.4641C17.2242 98.9915 17.3801 100.575 17.976 102.013C18.5719 103.452 19.581 104.682 20.8758 105.547C22.1705 106.413 23.6927 106.875 25.25 106.875Z" fill="url(#paint6_linear_95_441)"/>
<path d="M140.443 234V199.091H163.148V204.392H146.767V213.869H161.972V219.17H146.767V228.699H163.284V234H140.443ZM190.02 214.739L184.395 215.352C184.236 214.784 183.957 214.25 183.56 213.75C183.173 213.25 182.651 212.847 181.991 212.54C181.332 212.233 180.526 212.08 179.571 212.08C178.287 212.08 177.207 212.358 176.332 212.915C175.469 213.472 175.043 214.193 175.054 215.08C175.043 215.841 175.321 216.46 175.889 216.938C176.469 217.415 177.423 217.807 178.753 218.114L183.219 219.068C185.696 219.602 187.537 220.449 188.741 221.608C189.957 222.767 190.571 224.284 190.582 226.159C190.571 227.807 190.088 229.261 189.134 230.523C188.19 231.773 186.878 232.75 185.196 233.455C183.514 234.159 181.582 234.511 179.401 234.511C176.196 234.511 173.616 233.841 171.662 232.5C169.707 231.148 168.543 229.267 168.168 226.858L174.185 226.278C174.457 227.46 175.037 228.352 175.923 228.955C176.81 229.557 177.963 229.858 179.384 229.858C180.849 229.858 182.026 229.557 182.912 228.955C183.81 228.352 184.259 227.608 184.259 226.722C184.259 225.972 183.969 225.352 183.389 224.864C182.821 224.375 181.935 224 180.73 223.739L176.264 222.801C173.753 222.278 171.895 221.398 170.69 220.159C169.486 218.909 168.889 217.33 168.901 215.42C168.889 213.807 169.327 212.409 170.213 211.227C171.111 210.034 172.355 209.114 173.946 208.466C175.548 207.807 177.395 207.477 179.486 207.477C182.554 207.477 184.969 208.131 186.73 209.438C188.503 210.744 189.599 212.511 190.02 214.739ZM208.744 207.818V212.591H193.693V207.818H208.744ZM197.409 201.545H203.58V226.125C203.58 226.955 203.705 227.591 203.955 228.034C204.216 228.466 204.557 228.761 204.977 228.92C205.398 229.08 205.864 229.159 206.375 229.159C206.761 229.159 207.114 229.131 207.432 229.074C207.761 229.017 208.011 228.966 208.182 228.92L209.222 233.744C208.892 233.858 208.42 233.983 207.807 234.119C207.205 234.256 206.466 234.335 205.591 234.358C204.045 234.403 202.653 234.17 201.415 233.659C200.176 233.136 199.193 232.33 198.466 231.239C197.75 230.148 197.398 228.784 197.409 227.148V201.545ZM221.439 234.528C219.78 234.528 218.286 234.233 216.956 233.642C215.638 233.04 214.592 232.153 213.82 230.983C213.058 229.812 212.678 228.369 212.678 226.653C212.678 225.176 212.95 223.955 213.496 222.989C214.041 222.023 214.786 221.25 215.729 220.67C216.672 220.091 217.734 219.653 218.916 219.358C220.109 219.051 221.342 218.83 222.615 218.693C224.149 218.534 225.393 218.392 226.348 218.267C227.303 218.131 227.996 217.926 228.428 217.653C228.871 217.369 229.092 216.932 229.092 216.341V216.239C229.092 214.955 228.712 213.96 227.95 213.256C227.189 212.551 226.092 212.199 224.661 212.199C223.149 212.199 221.95 212.528 221.064 213.188C220.189 213.847 219.598 214.625 219.291 215.523L213.53 214.705C213.984 213.114 214.734 211.784 215.78 210.716C216.825 209.636 218.104 208.83 219.615 208.295C221.126 207.75 222.797 207.477 224.626 207.477C225.888 207.477 227.143 207.625 228.393 207.92C229.643 208.216 230.786 208.705 231.82 209.386C232.854 210.057 233.683 210.972 234.308 212.131C234.945 213.29 235.263 214.739 235.263 216.477V234H229.331V230.403H229.126C228.751 231.131 228.223 231.812 227.541 232.449C226.871 233.074 226.024 233.58 225.001 233.966C223.99 234.341 222.803 234.528 221.439 234.528ZM223.041 229.994C224.28 229.994 225.354 229.75 226.263 229.261C227.172 228.761 227.871 228.102 228.359 227.284C228.859 226.466 229.109 225.574 229.109 224.608V221.523C228.916 221.682 228.587 221.83 228.121 221.966C227.666 222.102 227.155 222.222 226.587 222.324C226.018 222.426 225.456 222.517 224.899 222.597C224.342 222.676 223.859 222.744 223.45 222.801C222.53 222.926 221.706 223.131 220.979 223.415C220.251 223.699 219.678 224.097 219.257 224.608C218.837 225.108 218.626 225.756 218.626 226.551C218.626 227.688 219.041 228.545 219.871 229.125C220.7 229.705 221.757 229.994 223.041 229.994ZM222.53 204.375L226.348 196.585H232.382L227.149 204.375H222.53ZM252.854 244.364C250.638 244.364 248.734 244.063 247.143 243.46C245.553 242.869 244.274 242.074 243.308 241.074C242.342 240.074 241.672 238.966 241.297 237.75L246.854 236.403C247.104 236.915 247.467 237.42 247.945 237.92C248.422 238.432 249.064 238.852 249.871 239.182C250.689 239.523 251.717 239.693 252.956 239.693C254.706 239.693 256.155 239.267 257.303 238.415C258.45 237.574 259.024 236.188 259.024 234.256V229.295H258.717C258.399 229.932 257.933 230.585 257.32 231.256C256.717 231.926 255.916 232.489 254.916 232.943C253.928 233.398 252.683 233.625 251.183 233.625C249.172 233.625 247.348 233.153 245.712 232.21C244.087 231.256 242.791 229.835 241.825 227.949C240.871 226.051 240.393 223.676 240.393 220.824C240.393 217.949 240.871 215.523 241.825 213.545C242.791 211.557 244.092 210.051 245.729 209.028C247.365 207.994 249.189 207.477 251.2 207.477C252.734 207.477 253.996 207.739 254.984 208.261C255.984 208.773 256.78 209.392 257.371 210.119C257.962 210.835 258.411 211.511 258.717 212.148H259.058V207.818H265.143V234.426C265.143 236.665 264.609 238.517 263.541 239.983C262.473 241.449 261.013 242.545 259.161 243.273C257.308 244 255.206 244.364 252.854 244.364ZM252.905 228.784C254.212 228.784 255.325 228.466 256.246 227.83C257.166 227.193 257.865 226.278 258.342 225.085C258.82 223.892 259.058 222.46 259.058 220.79C259.058 219.142 258.82 217.699 258.342 216.46C257.876 215.222 257.183 214.261 256.263 213.58C255.354 212.886 254.234 212.54 252.905 212.54C251.53 212.54 250.382 212.898 249.462 213.614C248.541 214.33 247.848 215.312 247.382 216.562C246.916 217.801 246.683 219.21 246.683 220.79C246.683 222.392 246.916 223.795 247.382 225C247.859 226.193 248.558 227.125 249.479 227.795C250.411 228.455 251.553 228.784 252.905 228.784ZM271.467 234V207.818H277.638V234H271.467ZM274.57 204.102C273.592 204.102 272.751 203.778 272.047 203.131C271.342 202.472 270.99 201.682 270.99 200.761C270.99 199.83 271.342 199.04 272.047 198.392C272.751 197.733 273.592 197.403 274.57 197.403C275.558 197.403 276.399 197.733 277.092 198.392C277.797 199.04 278.149 199.83 278.149 200.761C278.149 201.682 277.797 202.472 277.092 203.131C276.399 203.778 275.558 204.102 274.57 204.102ZM295.403 234.511C292.847 234.511 290.631 233.949 288.756 232.824C286.881 231.699 285.426 230.125 284.392 228.102C283.369 226.08 282.858 223.716 282.858 221.011C282.858 218.307 283.369 215.937 284.392 213.903C285.426 211.869 286.881 210.29 288.756 209.165C290.631 208.04 292.847 207.477 295.403 207.477C297.96 207.477 300.176 208.04 302.051 209.165C303.926 210.29 305.375 211.869 306.398 213.903C307.432 215.937 307.949 218.307 307.949 221.011C307.949 223.716 307.432 226.08 306.398 228.102C305.375 230.125 303.926 231.699 302.051 232.824C300.176 233.949 297.96 234.511 295.403 234.511ZM295.438 229.568C296.824 229.568 297.983 229.187 298.915 228.426C299.847 227.653 300.54 226.619 300.994 225.324C301.46 224.028 301.693 222.585 301.693 220.994C301.693 219.392 301.46 217.943 300.994 216.648C300.54 215.341 299.847 214.301 298.915 213.528C297.983 212.756 296.824 212.369 295.438 212.369C294.017 212.369 292.835 212.756 291.892 213.528C290.96 214.301 290.261 215.341 289.795 216.648C289.341 217.943 289.114 219.392 289.114 220.994C289.114 222.585 289.341 224.028 289.795 225.324C290.261 226.619 290.96 227.653 291.892 228.426C292.835 229.187 294.017 229.568 295.438 229.568ZM333.879 214.739L328.254 215.352C328.095 214.784 327.817 214.25 327.419 213.75C327.033 213.25 326.51 212.847 325.851 212.54C325.192 212.233 324.385 212.08 323.43 212.08C322.146 212.08 321.067 212.358 320.192 212.915C319.328 213.472 318.902 214.193 318.913 215.08C318.902 215.841 319.18 216.46 319.749 216.938C320.328 217.415 321.283 217.807 322.612 218.114L327.078 219.068C329.555 219.602 331.396 220.449 332.601 221.608C333.817 222.767 334.43 224.284 334.442 226.159C334.43 227.807 333.947 229.261 332.993 230.523C332.05 231.773 330.737 232.75 329.055 233.455C327.374 234.159 325.442 234.511 323.26 234.511C320.055 234.511 317.476 233.841 315.521 232.5C313.567 231.148 312.402 229.267 312.027 226.858L318.044 226.278C318.317 227.46 318.896 228.352 319.783 228.955C320.669 229.557 321.822 229.858 323.243 229.858C324.709 229.858 325.885 229.557 326.771 228.955C327.669 228.352 328.118 227.608 328.118 226.722C328.118 225.972 327.828 225.352 327.249 224.864C326.68 224.375 325.794 224 324.589 223.739L320.124 222.801C317.612 222.278 315.754 221.398 314.55 220.159C313.345 218.909 312.749 217.33 312.76 215.42C312.749 213.807 313.186 212.409 314.072 211.227C314.97 210.034 316.214 209.114 317.805 208.466C319.408 207.807 321.254 207.477 323.345 207.477C326.413 207.477 328.828 208.131 330.589 209.438C332.362 210.744 333.459 212.511 333.879 214.739Z" fill="white"/>
</g>
<defs>
<filter id="filter0_d_95_441" x="0" y="0" width="397.18" height="306" filterUnits="userSpaceOnUse" color-interpolation-filters="sRGB">
<feFlood flood-opacity="0" result="BackgroundImageFix"/>
<feColorMatrix in="SourceAlpha" type="matrix" values="0 0 0 0 0 0 0 0 0 0 0 0 0 0 0 0 0 0 127 0" result="hardAlpha"/>
<feMorphology radius="3" operator="erode" in="SourceAlpha" result="effect1_dropShadow_95_441"/>
<feOffset dx="17" dy="16"/>
<feGaussianBlur stdDeviation="11"/>
<feComposite in2="hardAlpha" operator="out"/>
<feColorMatrix type="matrix" values="0 0 0 0 0.383337 0 0 0 0 0.322292 0 0 0 0 0.758333 0 0 0 0.16 0"/>
<feBlend mode="normal" in2="BackgroundImageFix" result="effect1_dropShadow_95_441"/>
<feBlend mode="normal" in="SourceGraphic" in2="effect1_dropShadow_95_441" result="shape"/>
</filter>
<radialGradient id="paint0_radial_95_441" cx="0" cy="0" r="1" gradientUnits="userSpaceOnUse" gradientTransform="translate(277 -84) rotate(103.503) scale(325.497 436.239)">
<stop stop-color="#7381FF"/>
<stop offset="1" stop-color="#7381FF" stop-opacity="0"/>
</radialGradient>
<linearGradient id="paint1_linear_95_441" x1="167" y1="18.5" x2="-0.999991" y2="240" gradientUnits="userSpaceOnUse">
<stop stop-color="white"/>
<stop offset="1" stop-color="white" stop-opacity="0"/>
</linearGradient>
<linearGradient id="paint2_linear_95_441" x1="167" y1="18.5" x2="-0.999991" y2="240" gradientUnits="userSpaceOnUse">
<stop stop-color="white"/>
<stop offset="1" stop-color="white" stop-opacity="0"/>
</linearGradient>
<linearGradient id="paint3_linear_95_441" x1="167" y1="18.5" x2="-0.999991" y2="240" gradientUnits="userSpaceOnUse">
<stop stop-color="white"/>
<stop offset="1" stop-color="white" stop-opacity="0"/>
</linearGradient>
<linearGradient id="paint4_linear_95_441" x1="167" y1="18.5" x2="-0.999991" y2="240" gradientUnits="userSpaceOnUse">
<stop stop-color="white"/>
<stop offset="1" stop-color="white" stop-opacity="0"/>
</linearGradient>
<linearGradient id="paint5_linear_95_441" x1="167" y1="18.5" x2="-0.999991" y2="240" gradientUnits="userSpaceOnUse">
<stop stop-color="white"/>
<stop offset="1" stop-color="white" stop-opacity="0"/>
</linearGradient>
<linearGradient id="paint6_linear_95_441" x1="167" y1="18.5" x2="-0.999991" y2="240" gradientUnits="userSpaceOnUse">
<stop stop-color="white"/>
<stop offset="1" stop-color="white" stop-opacity="0"/>
</linearGradient>
</defs>
</svg>
