<svg width="822" height="725" viewBox="0 0 822 725" fill="none" xmlns="http://www.w3.org/2000/svg">
<g clip-path="url(#clip0_508_51)">
<rect width="822" height="725" rx="35.1026" fill="white"/>
<rect x="-219" width="2517" height="1977" fill="white"/>
<rect x="-219" width="2517" height="1977" fill="url(#paint0_radial_508_51)"/>
<rect x="-219" width="2517" height="1977" fill="url(#paint1_radial_508_51)"/>
<rect x="-219" width="2517" height="1977" fill="url(#paint2_radial_508_51)"/>
<rect x="-219" width="2517" height="1977" fill="url(#paint3_radial_508_51)"/>
<g filter="url(#filter0_b_508_51)">
<rect x="-219" width="2517" height="1977" fill="white" fill-opacity="0.58"/>
</g>
<path d="M142.616 70.7008V138.779H131.646L99.5683 92.4072H99.0032V138.779H86.6708V70.7008H97.7068L129.751 117.105H130.35V70.7008H142.616ZM177.793 139.776C172.807 139.776 168.485 138.679 164.829 136.485C161.172 134.291 158.336 131.222 156.319 127.277C154.325 123.333 153.327 118.723 153.327 113.449C153.327 108.175 154.325 103.554 156.319 99.5873C158.336 95.6206 161.172 92.5402 164.829 90.3463C168.485 88.1524 172.807 87.0554 177.793 87.0554C182.779 87.0554 187.1 88.1524 190.757 90.3463C194.413 92.5402 197.239 95.6206 199.233 99.5873C201.25 103.554 202.258 108.175 202.258 113.449C202.258 118.723 201.25 123.333 199.233 127.277C197.239 131.222 194.413 134.291 190.757 136.485C187.1 138.679 182.779 139.776 177.793 139.776ZM177.859 130.136C180.563 130.136 182.823 129.393 184.641 127.909C186.458 126.402 187.81 124.385 188.696 121.859C189.605 119.333 190.059 116.518 190.059 113.416C190.059 110.291 189.605 107.465 188.696 104.939C187.81 102.391 186.458 100.363 184.641 98.856C182.823 97.3491 180.563 96.5956 177.859 96.5956C175.089 96.5956 172.785 97.3491 170.945 98.856C169.128 100.363 167.765 102.391 166.857 104.939C165.97 107.465 165.527 110.291 165.527 113.416C165.527 116.518 165.97 119.333 166.857 121.859C167.765 124.385 169.128 126.402 170.945 127.909C172.785 129.393 175.089 130.136 177.859 130.136ZM256.342 87.7203L238.159 138.779H224.862L206.679 87.7203H219.51L231.245 125.648H231.776L243.544 87.7203H256.342ZM285.203 139.776C280.217 139.776 275.896 138.679 272.239 136.485C268.583 134.291 265.746 131.222 263.729 127.277C261.735 123.333 260.738 118.723 260.738 113.449C260.738 108.175 261.735 103.554 263.729 99.5873C265.746 95.6206 268.583 92.5402 272.239 90.3463C275.896 88.1524 280.217 87.0554 285.203 87.0554C290.189 87.0554 294.511 88.1524 298.167 90.3463C301.824 92.5402 304.649 95.6206 306.644 99.5873C308.66 103.554 309.669 108.175 309.669 113.449C309.669 118.723 308.66 123.333 306.644 127.277C304.649 131.222 301.824 134.291 298.167 136.485C294.511 138.679 290.189 139.776 285.203 139.776ZM285.27 130.136C287.973 130.136 290.234 129.393 292.051 127.909C293.868 126.402 295.22 124.385 296.106 121.859C297.015 119.333 297.469 116.518 297.469 113.416C297.469 110.291 297.015 107.465 296.106 104.939C295.22 102.391 293.868 100.363 292.051 98.856C290.234 97.3491 287.973 96.5956 285.27 96.5956C282.5 96.5956 280.195 97.3491 278.355 98.856C276.538 100.363 275.175 102.391 274.267 104.939C273.38 107.465 272.937 110.291 272.937 113.416C272.937 116.518 273.38 119.333 274.267 121.859C275.175 124.385 276.538 126.402 278.355 127.909C280.195 129.393 282.5 130.136 285.27 130.136ZM386.547 70.7008H398.879V115.177C398.879 120.053 397.727 124.341 395.422 128.042C393.14 131.743 389.926 134.635 385.782 136.718C381.638 138.779 376.796 139.809 371.256 139.809C365.694 139.809 360.84 138.779 356.696 136.718C352.552 134.635 349.339 131.743 347.057 128.042C344.774 124.341 343.633 120.053 343.633 115.177V70.7008H355.965V114.147C355.965 116.983 356.586 119.51 357.827 121.726C359.09 123.942 360.863 125.682 363.145 126.945C365.428 128.186 368.131 128.806 371.256 128.806C374.381 128.806 377.084 128.186 379.367 126.945C381.672 125.682 383.444 123.942 384.685 121.726C385.926 119.51 386.547 116.983 386.547 114.147V70.7008ZM411.752 157.925V87.7203H423.586V96.1635H424.284C424.904 94.9225 425.78 93.6039 426.91 92.2078C428.04 90.7895 429.569 89.5818 431.497 88.5845C433.425 87.5651 435.885 87.0554 438.877 87.0554C442.821 87.0554 446.378 88.0637 449.547 90.0804C452.738 92.0748 455.265 95.0333 457.126 98.9557C459.01 102.856 459.952 107.643 459.952 113.316C459.952 118.923 459.032 123.687 457.193 127.61C455.353 131.532 452.849 134.524 449.68 136.585C446.511 138.646 442.921 139.676 438.91 139.676C435.985 139.676 433.558 139.189 431.63 138.213C429.702 137.238 428.151 136.064 426.976 134.69C425.824 133.294 424.927 131.975 424.284 130.734H423.785V157.925H411.752ZM423.553 113.249C423.553 116.551 424.018 119.443 424.949 121.925C425.902 124.407 427.264 126.346 429.037 127.743C430.832 129.116 433.004 129.803 435.553 129.803C438.212 129.803 440.439 129.094 442.234 127.676C444.029 126.236 445.381 124.274 446.289 121.792C447.22 119.288 447.686 116.441 447.686 113.249C447.686 110.08 447.231 107.266 446.323 104.806C445.414 102.346 444.062 100.418 442.267 99.0222C440.472 97.6261 438.234 96.928 435.553 96.928C432.982 96.928 430.799 97.6039 429.004 98.9557C427.209 100.308 425.846 102.202 424.915 104.64C424.007 107.078 423.553 109.947 423.553 113.249ZM489.204 139.676C485.193 139.676 481.603 138.646 478.434 136.585C475.265 134.524 472.76 131.532 470.921 127.61C469.082 123.687 468.162 118.923 468.162 113.316C468.162 107.643 469.093 102.856 470.954 98.9557C472.838 95.0333 475.375 92.0748 478.567 90.0804C481.758 88.0637 485.315 87.0554 489.237 87.0554C492.229 87.0554 494.688 87.5651 496.616 88.5845C498.544 89.5818 500.074 90.7895 501.204 92.2078C502.334 93.6039 503.209 94.9225 503.83 96.1635H504.328V70.7008H516.395V138.779H504.561V130.734H503.83C503.209 131.975 502.312 133.294 501.137 134.69C499.963 136.064 498.412 137.238 496.484 138.213C494.556 139.189 492.129 139.676 489.204 139.676ZM492.561 129.803C495.11 129.803 497.281 129.116 499.076 127.743C500.871 126.346 502.234 124.407 503.165 121.925C504.096 119.443 504.561 116.551 504.561 113.249C504.561 109.947 504.096 107.078 503.165 104.64C502.256 102.202 500.905 100.308 499.11 98.9557C497.337 97.6039 495.154 96.928 492.561 96.928C489.88 96.928 487.641 97.6261 485.846 99.0222C484.051 100.418 482.7 102.346 481.791 104.806C480.882 107.266 480.428 110.08 480.428 113.249C480.428 116.441 480.882 119.288 481.791 121.792C482.722 124.274 484.085 126.236 485.88 127.676C487.697 129.094 489.924 129.803 492.561 129.803ZM543.91 139.809C540.675 139.809 537.761 139.233 535.168 138.081C532.597 136.906 530.558 135.177 529.051 132.895C527.567 130.612 526.824 127.798 526.824 124.452C526.824 121.571 527.356 119.188 528.42 117.305C529.484 115.421 530.935 113.914 532.774 112.784C534.614 111.654 536.686 110.801 538.991 110.224C541.317 109.626 543.722 109.194 546.204 108.928C549.196 108.618 551.622 108.341 553.484 108.097C555.345 107.831 556.697 107.432 557.539 106.9C558.403 106.346 558.835 105.493 558.835 104.341V104.141C558.835 101.637 558.093 99.6981 556.608 98.3242C555.124 96.9502 552.985 96.2632 550.193 96.2632C547.245 96.2632 544.907 96.9059 543.179 98.1912C541.473 99.4765 540.32 100.995 539.722 102.745L528.486 101.15C529.373 98.0472 530.835 95.4543 532.874 93.3712C534.913 91.266 537.406 89.6926 540.353 88.651C543.301 87.5873 546.558 87.0554 550.126 87.0554C552.586 87.0554 555.035 87.3435 557.473 87.9197C559.91 88.4959 562.137 89.4488 564.154 90.7784C566.171 92.0859 567.788 93.8699 569.007 96.1302C570.248 98.3906 570.869 101.216 570.869 104.607V138.779H559.301V131.765H558.902C558.171 133.183 557.14 134.513 555.811 135.754C554.503 136.972 552.852 137.959 550.858 138.712C548.885 139.443 546.57 139.809 543.91 139.809ZM547.035 130.967C549.45 130.967 551.545 130.49 553.317 129.538C555.09 128.562 556.453 127.277 557.406 125.682C558.381 124.086 558.869 122.346 558.869 120.463V114.446C558.492 114.756 557.849 115.044 556.941 115.31C556.054 115.576 555.057 115.809 553.949 116.008C552.841 116.208 551.744 116.385 550.658 116.54C549.572 116.695 548.63 116.828 547.833 116.939C546.038 117.183 544.431 117.582 543.013 118.136C541.594 118.69 540.475 119.465 539.655 120.463C538.835 121.438 538.425 122.701 538.425 124.252C538.425 126.468 539.234 128.141 540.852 129.272C542.47 130.402 544.531 130.967 547.035 130.967ZM608.464 87.7203V97.0278H579.113V87.7203H608.464ZM586.359 75.4875H598.392V123.421C598.392 125.039 598.636 126.28 599.124 127.144C599.633 127.986 600.298 128.562 601.118 128.873C601.938 129.183 602.847 129.338 603.844 129.338C604.597 129.338 605.284 129.283 605.905 129.172C606.548 129.061 607.035 128.961 607.367 128.873L609.395 138.28C608.753 138.502 607.833 138.745 606.636 139.011C605.462 139.277 604.021 139.432 602.315 139.477C599.301 139.565 596.586 139.111 594.171 138.114C591.755 137.094 589.838 135.521 588.42 133.394C587.024 131.266 586.337 128.607 586.359 125.416V75.4875ZM640.584 139.776C635.464 139.776 631.043 138.712 627.32 136.585C623.62 134.435 620.772 131.399 618.777 127.477C616.783 123.532 615.786 118.889 615.786 113.549C615.786 108.296 616.783 103.687 618.777 99.7203C620.794 95.7314 623.608 92.6289 627.221 90.4128C630.833 88.1745 635.077 87.0554 639.952 87.0554C643.099 87.0554 646.068 87.5651 648.861 88.5845C651.675 89.5818 654.157 91.133 656.307 93.2383C658.478 95.3435 660.185 98.025 661.426 101.283C662.667 104.518 663.287 108.374 663.287 112.851V116.54H621.437V108.429H651.753C651.73 106.125 651.232 104.075 650.257 102.28C649.282 100.463 647.919 99.0333 646.168 97.9917C644.44 96.9502 642.423 96.4294 640.118 96.4294C637.658 96.4294 635.498 97.0278 633.636 98.2244C631.775 99.399 630.323 100.95 629.282 102.878C628.262 104.784 627.741 106.878 627.719 109.161V116.241C627.719 119.211 628.262 121.759 629.348 123.887C630.434 125.992 631.952 127.61 633.902 128.74C635.852 129.848 638.135 130.402 640.75 130.402C642.501 130.402 644.085 130.158 645.503 129.671C646.922 129.161 648.151 128.418 649.193 127.443C650.235 126.468 651.021 125.261 651.553 123.82L662.789 125.083C662.079 128.053 660.728 130.646 658.733 132.862C656.761 135.056 654.235 136.762 651.154 137.981C648.074 139.177 644.55 139.776 640.584 139.776Z" fill="black"/>
<rect x="80" y="246" width="173" height="70" rx="9.93398" fill="white"/>
<path d="M82.8693 228V198.909H101.79V203.327H88.1392V211.224H100.81V215.642H88.1392V223.582H101.903V228H82.8693ZM124.183 211.949L119.496 212.46C119.363 211.987 119.131 211.542 118.8 211.125C118.478 210.708 118.042 210.372 117.493 210.116C116.944 209.861 116.271 209.733 115.476 209.733C114.406 209.733 113.506 209.965 112.777 210.429C112.057 210.893 111.702 211.494 111.712 212.233C111.702 212.867 111.934 213.384 112.408 213.781C112.891 214.179 113.686 214.506 114.794 214.761L118.516 215.557C120.58 216.002 122.114 216.707 123.118 217.673C124.131 218.639 124.643 219.903 124.652 221.466C124.643 222.839 124.24 224.051 123.445 225.102C122.659 226.144 121.565 226.958 120.163 227.545C118.762 228.133 117.152 228.426 115.334 228.426C112.663 228.426 110.514 227.867 108.885 226.75C107.256 225.623 106.286 224.056 105.973 222.048L110.987 221.565C111.214 222.55 111.697 223.294 112.436 223.795C113.175 224.297 114.136 224.548 115.32 224.548C116.541 224.548 117.521 224.297 118.26 223.795C119.008 223.294 119.382 222.673 119.382 221.935C119.382 221.31 119.141 220.794 118.658 220.386C118.184 219.979 117.446 219.667 116.442 219.449L112.72 218.668C110.627 218.232 109.079 217.498 108.075 216.466C107.071 215.424 106.574 214.108 106.584 212.517C106.574 211.172 106.939 210.008 107.678 209.023C108.426 208.028 109.463 207.261 110.788 206.722C112.124 206.172 113.662 205.898 115.405 205.898C117.962 205.898 119.974 206.442 121.442 207.531C122.919 208.62 123.833 210.093 124.183 211.949ZM139.787 206.182V210.159H127.244V206.182H139.787ZM130.341 200.955H135.483V221.438C135.483 222.129 135.587 222.659 135.795 223.028C136.013 223.388 136.297 223.634 136.648 223.767C136.998 223.9 137.386 223.966 137.812 223.966C138.134 223.966 138.428 223.942 138.693 223.895C138.968 223.848 139.176 223.805 139.318 223.767L140.185 227.787C139.91 227.882 139.517 227.986 139.006 228.099C138.504 228.213 137.888 228.279 137.159 228.298C135.871 228.336 134.711 228.142 133.679 227.716C132.647 227.28 131.828 226.608 131.222 225.699C130.625 224.79 130.331 223.653 130.341 222.29V200.955ZM150.366 228.44C148.983 228.44 147.738 228.194 146.63 227.702C145.531 227.2 144.66 226.461 144.016 225.486C143.382 224.51 143.065 223.308 143.065 221.878C143.065 220.647 143.292 219.629 143.746 218.824C144.201 218.019 144.821 217.375 145.607 216.892C146.393 216.409 147.279 216.045 148.263 215.798C149.258 215.543 150.285 215.358 151.346 215.244C152.624 215.112 153.661 214.993 154.457 214.889C155.252 214.776 155.83 214.605 156.19 214.378C156.559 214.141 156.744 213.777 156.744 213.284V213.199C156.744 212.129 156.426 211.3 155.792 210.713C155.157 210.126 154.244 209.832 153.05 209.832C151.791 209.832 150.792 210.107 150.053 210.656C149.324 211.205 148.832 211.854 148.576 212.602L143.775 211.92C144.154 210.595 144.779 209.487 145.65 208.597C146.521 207.697 147.586 207.025 148.846 206.58C150.105 206.125 151.497 205.898 153.022 205.898C154.073 205.898 155.12 206.021 156.161 206.267C157.203 206.513 158.155 206.92 159.016 207.489C159.878 208.047 160.569 208.81 161.09 209.776C161.621 210.741 161.886 211.949 161.886 213.398V228H156.942V225.003H156.772C156.46 225.609 156.019 226.177 155.451 226.707C154.892 227.228 154.187 227.65 153.335 227.972C152.492 228.284 151.502 228.44 150.366 228.44ZM151.701 224.662C152.733 224.662 153.628 224.458 154.386 224.051C155.143 223.634 155.726 223.085 156.133 222.403C156.549 221.722 156.758 220.978 156.758 220.173V217.602C156.597 217.735 156.322 217.858 155.934 217.972C155.555 218.085 155.129 218.185 154.656 218.27C154.182 218.355 153.713 218.431 153.249 218.497C152.785 218.563 152.383 218.62 152.042 218.668C151.275 218.772 150.588 218.942 149.982 219.179C149.376 219.416 148.898 219.747 148.548 220.173C148.197 220.59 148.022 221.13 148.022 221.793C148.022 222.74 148.368 223.455 149.059 223.938C149.75 224.42 150.631 224.662 151.701 224.662ZM151.275 203.312L154.457 196.821H159.485L155.124 203.312H151.275ZM176.545 236.636C174.698 236.636 173.112 236.385 171.786 235.884C170.46 235.391 169.395 234.728 168.59 233.895C167.785 233.062 167.227 232.138 166.914 231.125L171.545 230.003C171.753 230.429 172.056 230.85 172.454 231.267C172.852 231.693 173.387 232.044 174.059 232.318C174.741 232.602 175.598 232.744 176.63 232.744C178.088 232.744 179.296 232.389 180.252 231.679C181.209 230.978 181.687 229.823 181.687 228.213V224.08H181.431C181.166 224.61 180.778 225.154 180.266 225.713C179.764 226.272 179.097 226.741 178.263 227.119C177.44 227.498 176.403 227.688 175.153 227.688C173.477 227.688 171.957 227.295 170.593 226.509C169.239 225.713 168.159 224.529 167.354 222.957C166.559 221.376 166.161 219.397 166.161 217.02C166.161 214.624 166.559 212.602 167.354 210.955C168.159 209.297 169.244 208.043 170.607 207.19C171.971 206.329 173.491 205.898 175.167 205.898C176.445 205.898 177.496 206.116 178.32 206.551C179.154 206.977 179.817 207.493 180.309 208.099C180.801 208.696 181.175 209.259 181.431 209.79H181.715V206.182H186.786V228.355C186.786 230.221 186.341 231.764 185.451 232.986C184.561 234.207 183.344 235.121 181.8 235.727C180.257 236.333 178.505 236.636 176.545 236.636ZM176.587 223.653C177.676 223.653 178.604 223.388 179.371 222.858C180.138 222.328 180.721 221.565 181.119 220.571C181.516 219.577 181.715 218.384 181.715 216.991C181.715 215.618 181.516 214.416 181.119 213.384C180.73 212.351 180.153 211.551 179.386 210.983C178.628 210.405 177.695 210.116 176.587 210.116C175.442 210.116 174.485 210.415 173.718 211.011C172.951 211.608 172.373 212.427 171.985 213.469C171.597 214.501 171.403 215.675 171.403 216.991C171.403 218.327 171.597 219.496 171.985 220.5C172.383 221.494 172.965 222.271 173.732 222.83C174.509 223.379 175.46 223.653 176.587 223.653ZM192.056 228V206.182H197.198V228H192.056ZM194.641 203.085C193.827 203.085 193.126 202.815 192.539 202.276C191.952 201.726 191.658 201.068 191.658 200.301C191.658 199.525 191.952 198.866 192.539 198.327C193.126 197.777 193.827 197.503 194.641 197.503C195.465 197.503 196.166 197.777 196.744 198.327C197.331 198.866 197.624 199.525 197.624 200.301C197.624 201.068 197.331 201.726 196.744 202.276C196.166 202.815 195.465 203.085 194.641 203.085ZM212.003 228.426C209.872 228.426 208.026 227.957 206.463 227.02C204.901 226.082 203.688 224.771 202.827 223.085C201.974 221.4 201.548 219.43 201.548 217.176C201.548 214.922 201.974 212.948 202.827 211.253C203.688 209.558 204.901 208.241 206.463 207.304C208.026 206.366 209.872 205.898 212.003 205.898C214.134 205.898 215.98 206.366 217.543 207.304C219.105 208.241 220.313 209.558 221.165 211.253C222.027 212.948 222.457 214.922 222.457 217.176C222.457 219.43 222.027 221.4 221.165 223.085C220.313 224.771 219.105 226.082 217.543 227.02C215.98 227.957 214.134 228.426 212.003 228.426ZM212.031 224.307C213.187 224.307 214.152 223.99 214.929 223.355C215.705 222.711 216.283 221.849 216.662 220.77C217.05 219.69 217.244 218.488 217.244 217.162C217.244 215.827 217.05 214.619 216.662 213.54C216.283 212.451 215.705 211.584 214.929 210.94C214.152 210.296 213.187 209.974 212.031 209.974C210.848 209.974 209.863 210.296 209.077 210.94C208.3 211.584 207.718 212.451 207.33 213.54C206.951 214.619 206.761 215.827 206.761 217.162C206.761 218.488 206.951 219.69 207.33 220.77C207.718 221.849 208.3 222.711 209.077 223.355C209.863 223.99 210.848 224.307 212.031 224.307Z" fill="#5F6776"/>
<path d="M209.654 257L220.612 275.601L198.695 275.601L209.654 257Z" fill="#D9D9D9"/>
<path d="M221.268 276.306L209.935 295.556L198.93 276.495L221.268 276.306Z" fill="#D9D9D9"/>
<rect x="383" y="455" width="332" height="70" rx="9.93398" fill="white"/>
<path d="M395.727 440H385.869V410.909H395.926C398.814 410.909 401.295 411.491 403.369 412.656C405.453 413.812 407.053 415.473 408.17 417.642C409.288 419.811 409.847 422.405 409.847 425.426C409.847 428.456 409.283 431.061 408.156 433.239C407.039 435.417 405.424 437.088 403.312 438.253C401.21 439.418 398.682 440 395.727 440ZM391.139 435.44H395.472C397.498 435.44 399.188 435.071 400.543 434.332C401.897 433.584 402.915 432.472 403.597 430.994C404.278 429.508 404.619 427.652 404.619 425.426C404.619 423.201 404.278 421.354 403.597 419.886C402.915 418.409 401.906 417.306 400.571 416.577C399.245 415.838 397.598 415.469 395.628 415.469H391.139V435.44ZM420.905 440.44C419.522 440.44 418.277 440.194 417.169 439.702C416.071 439.2 415.199 438.461 414.555 437.486C413.921 436.51 413.604 435.308 413.604 433.878C413.604 432.647 413.831 431.629 414.286 430.824C414.74 430.019 415.36 429.375 416.146 428.892C416.932 428.409 417.818 428.045 418.803 427.798C419.797 427.543 420.824 427.358 421.885 427.244C423.163 427.112 424.2 426.993 424.996 426.889C425.791 426.776 426.369 426.605 426.729 426.378C427.098 426.141 427.283 425.777 427.283 425.284V425.199C427.283 424.129 426.965 423.3 426.331 422.713C425.696 422.126 424.783 421.832 423.589 421.832C422.33 421.832 421.331 422.107 420.592 422.656C419.863 423.205 419.371 423.854 419.115 424.602L414.314 423.92C414.693 422.595 415.318 421.487 416.189 420.597C417.06 419.697 418.125 419.025 419.385 418.58C420.644 418.125 422.036 417.898 423.561 417.898C424.612 417.898 425.659 418.021 426.7 418.267C427.742 418.513 428.694 418.92 429.555 419.489C430.417 420.047 431.108 420.81 431.629 421.776C432.16 422.741 432.425 423.949 432.425 425.398V440H427.482V437.003H427.311C426.999 437.609 426.558 438.177 425.99 438.707C425.431 439.228 424.726 439.65 423.874 439.972C423.031 440.284 422.041 440.44 420.905 440.44ZM422.24 436.662C423.272 436.662 424.167 436.458 424.925 436.051C425.682 435.634 426.265 435.085 426.672 434.403C427.089 433.722 427.297 432.978 427.297 432.173V429.602C427.136 429.735 426.861 429.858 426.473 429.972C426.094 430.085 425.668 430.185 425.195 430.27C424.721 430.355 424.252 430.431 423.788 430.497C423.324 430.563 422.922 430.62 422.581 430.668C421.814 430.772 421.127 430.942 420.521 431.179C419.915 431.416 419.437 431.747 419.087 432.173C418.736 432.59 418.561 433.13 418.561 433.793C418.561 434.74 418.907 435.455 419.598 435.938C420.289 436.42 421.17 436.662 422.24 436.662ZM448.49 418.182V422.159H435.947V418.182H448.49ZM439.044 412.955H444.186V433.438C444.186 434.129 444.29 434.659 444.499 435.028C444.716 435.388 445 435.634 445.351 435.767C445.701 435.9 446.089 435.966 446.516 435.966C446.838 435.966 447.131 435.942 447.396 435.895C447.671 435.848 447.879 435.805 448.021 435.767L448.888 439.787C448.613 439.882 448.22 439.986 447.709 440.099C447.207 440.213 446.591 440.279 445.862 440.298C444.574 440.336 443.414 440.142 442.382 439.716C441.35 439.28 440.531 438.608 439.925 437.699C439.328 436.79 439.035 435.653 439.044 434.29V412.955ZM459.069 440.44C457.686 440.44 456.441 440.194 455.333 439.702C454.235 439.2 453.363 438.461 452.719 437.486C452.085 436.51 451.768 435.308 451.768 433.878C451.768 432.647 451.995 431.629 452.45 430.824C452.904 430.019 453.524 429.375 454.31 428.892C455.096 428.409 455.982 428.045 456.967 427.798C457.961 427.543 458.988 427.358 460.049 427.244C461.327 427.112 462.364 426.993 463.16 426.889C463.955 426.776 464.533 426.605 464.893 426.378C465.262 426.141 465.447 425.777 465.447 425.284V425.199C465.447 424.129 465.129 423.3 464.495 422.713C463.861 422.126 462.947 421.832 461.754 421.832C460.494 421.832 459.495 422.107 458.756 422.656C458.027 423.205 457.535 423.854 457.279 424.602L452.478 423.92C452.857 422.595 453.482 421.487 454.353 420.597C455.224 419.697 456.29 419.025 457.549 418.58C458.808 418.125 460.201 417.898 461.725 417.898C462.776 417.898 463.823 418.021 464.864 418.267C465.906 418.513 466.858 418.92 467.719 419.489C468.581 420.047 469.272 420.81 469.793 421.776C470.324 422.741 470.589 423.949 470.589 425.398V440H465.646V437.003H465.475C465.163 437.609 464.722 438.177 464.154 438.707C463.595 439.228 462.89 439.65 462.038 439.972C461.195 440.284 460.205 440.44 459.069 440.44ZM460.404 436.662C461.436 436.662 462.331 436.458 463.089 436.051C463.846 435.634 464.429 435.085 464.836 434.403C465.253 433.722 465.461 432.978 465.461 432.173V429.602C465.3 429.735 465.025 429.858 464.637 429.972C464.258 430.085 463.832 430.185 463.359 430.27C462.885 430.355 462.416 430.431 461.952 430.497C461.488 430.563 461.086 430.62 460.745 430.668C459.978 430.772 459.291 430.942 458.685 431.179C458.079 431.416 457.601 431.747 457.251 432.173C456.9 432.59 456.725 433.13 456.725 433.793C456.725 434.74 457.071 435.455 457.762 435.938C458.453 436.42 459.334 436.662 460.404 436.662ZM504.246 410.909H509.516V429.915C509.516 431.998 509.024 433.83 508.039 435.412C507.064 436.993 505.691 438.229 503.92 439.119C502.149 440 500.08 440.44 497.712 440.44C495.335 440.44 493.262 440 491.491 439.119C489.72 438.229 488.347 436.993 487.371 435.412C486.396 433.83 485.908 431.998 485.908 429.915V410.909H491.178V429.474C491.178 430.687 491.443 431.766 491.974 432.713C492.513 433.66 493.271 434.403 494.246 434.943C495.222 435.473 496.377 435.739 497.712 435.739C499.048 435.739 500.203 435.473 501.178 434.943C502.163 434.403 502.921 433.66 503.451 432.713C503.981 431.766 504.246 430.687 504.246 429.474V410.909ZM515.017 448.182V418.182H520.074V421.79H520.372C520.637 421.259 521.011 420.696 521.494 420.099C521.977 419.493 522.631 418.977 523.455 418.551C524.278 418.116 525.33 417.898 526.608 417.898C528.294 417.898 529.813 418.329 531.168 419.19C532.531 420.043 533.611 421.307 534.406 422.983C535.211 424.65 535.614 426.695 535.614 429.119C535.614 431.515 535.221 433.551 534.435 435.227C533.649 436.903 532.579 438.182 531.224 439.062C529.87 439.943 528.336 440.384 526.622 440.384C525.372 440.384 524.335 440.175 523.511 439.759C522.688 439.342 522.025 438.84 521.523 438.253C521.03 437.656 520.647 437.093 520.372 436.562H520.159V448.182H515.017ZM520.06 429.091C520.06 430.502 520.259 431.738 520.656 432.798C521.063 433.859 521.646 434.687 522.403 435.284C523.17 435.871 524.098 436.165 525.188 436.165C526.324 436.165 527.276 435.862 528.043 435.256C528.81 434.64 529.387 433.802 529.776 432.741C530.173 431.671 530.372 430.455 530.372 429.091C530.372 427.737 530.178 426.534 529.79 425.483C529.402 424.432 528.824 423.608 528.057 423.011C527.29 422.415 526.333 422.116 525.188 422.116C524.089 422.116 523.156 422.405 522.389 422.983C521.622 423.561 521.04 424.37 520.642 425.412C520.254 426.454 520.06 427.68 520.06 429.091ZM548.114 440.384C546.4 440.384 544.866 439.943 543.511 439.062C542.157 438.182 541.087 436.903 540.301 435.227C539.515 433.551 539.122 431.515 539.122 429.119C539.122 426.695 539.52 424.65 540.315 422.983C541.12 421.307 542.205 420.043 543.568 419.19C544.932 418.329 546.452 417.898 548.128 417.898C549.406 417.898 550.457 418.116 551.281 418.551C552.105 418.977 552.759 419.493 553.241 420.099C553.724 420.696 554.098 421.259 554.364 421.79H554.577V410.909H559.733V440H554.676V436.562H554.364C554.098 437.093 553.715 437.656 553.213 438.253C552.711 438.84 552.048 439.342 551.224 439.759C550.401 440.175 549.364 440.384 548.114 440.384ZM549.548 436.165C550.637 436.165 551.565 435.871 552.332 435.284C553.099 434.687 553.682 433.859 554.08 432.798C554.477 431.738 554.676 430.502 554.676 429.091C554.676 427.68 554.477 426.454 554.08 425.412C553.691 424.37 553.114 423.561 552.347 422.983C551.589 422.405 550.656 422.116 549.548 422.116C548.402 422.116 547.446 422.415 546.679 423.011C545.912 423.608 545.334 424.432 544.946 425.483C544.558 426.534 544.364 427.737 544.364 429.091C544.364 430.455 544.558 431.671 544.946 432.741C545.344 433.802 545.926 434.64 546.693 435.256C547.47 435.862 548.421 436.165 549.548 436.165ZM571.491 440.44C570.108 440.44 568.863 440.194 567.755 439.702C566.656 439.2 565.785 438.461 565.141 437.486C564.507 436.51 564.19 435.308 564.19 433.878C564.19 432.647 564.417 431.629 564.871 430.824C565.326 430.019 565.946 429.375 566.732 428.892C567.518 428.409 568.404 428.045 569.388 427.798C570.383 427.543 571.41 427.358 572.471 427.244C573.749 427.112 574.786 426.993 575.582 426.889C576.377 426.776 576.955 426.605 577.315 426.378C577.684 426.141 577.869 425.777 577.869 425.284V425.199C577.869 424.129 577.551 423.3 576.917 422.713C576.282 422.126 575.369 421.832 574.175 421.832C572.916 421.832 571.917 422.107 571.178 422.656C570.449 423.205 569.957 423.854 569.701 424.602L564.9 423.92C565.279 422.595 565.904 421.487 566.775 420.597C567.646 419.697 568.711 419.025 569.971 418.58C571.23 418.125 572.622 417.898 574.147 417.898C575.198 417.898 576.245 418.021 577.286 418.267C578.328 418.513 579.28 418.92 580.141 419.489C581.003 420.047 581.694 420.81 582.215 421.776C582.746 422.741 583.011 423.949 583.011 425.398V440H578.067V437.003H577.897C577.585 437.609 577.144 438.177 576.576 438.707C576.017 439.228 575.312 439.65 574.46 439.972C573.617 440.284 572.627 440.44 571.491 440.44ZM572.826 436.662C573.858 436.662 574.753 436.458 575.511 436.051C576.268 435.634 576.851 435.085 577.258 434.403C577.674 433.722 577.883 432.978 577.883 432.173V429.602C577.722 429.735 577.447 429.858 577.059 429.972C576.68 430.085 576.254 430.185 575.781 430.27C575.307 430.355 574.838 430.431 574.374 430.497C573.91 430.563 573.508 430.62 573.167 430.668C572.4 430.772 571.713 430.942 571.107 431.179C570.501 431.416 570.023 431.747 569.673 432.173C569.322 432.59 569.147 433.13 569.147 433.793C569.147 434.74 569.493 435.455 570.184 435.938C570.875 436.42 571.756 436.662 572.826 436.662ZM599.076 418.182V422.159H586.533V418.182H599.076ZM589.63 412.955H594.772V433.438C594.772 434.129 594.876 434.659 595.085 435.028C595.302 435.388 595.586 435.634 595.937 435.767C596.287 435.9 596.675 435.966 597.102 435.966C597.424 435.966 597.717 435.942 597.982 435.895C598.257 435.848 598.465 435.805 598.607 435.767L599.474 439.787C599.199 439.882 598.806 439.986 598.295 440.099C597.793 440.213 597.177 440.279 596.448 440.298C595.16 440.336 594 440.142 592.968 439.716C591.936 439.28 591.117 438.608 590.511 437.699C589.914 436.79 589.621 435.653 589.63 434.29V412.955ZM612.801 440.426C610.614 440.426 608.724 439.972 607.134 439.062C605.552 438.144 604.335 436.847 603.483 435.17C602.631 433.485 602.205 431.501 602.205 429.219C602.205 426.974 602.631 425.005 603.483 423.31C604.345 421.605 605.547 420.279 607.091 419.332C608.634 418.376 610.448 417.898 612.531 417.898C613.876 417.898 615.145 418.116 616.338 418.551C617.541 418.977 618.601 419.64 619.52 420.54C620.448 421.439 621.177 422.585 621.707 423.977C622.238 425.36 622.503 427.008 622.503 428.92V430.497H604.619V427.031H617.574C617.564 426.046 617.351 425.17 616.935 424.403C616.518 423.627 615.936 423.016 615.188 422.571C614.449 422.126 613.587 421.903 612.602 421.903C611.551 421.903 610.628 422.159 609.832 422.67C609.037 423.172 608.417 423.835 607.972 424.659C607.536 425.473 607.313 426.368 607.304 427.344V430.369C607.304 431.638 607.536 432.727 608 433.636C608.464 434.536 609.113 435.227 609.946 435.71C610.779 436.184 611.755 436.42 612.872 436.42C613.62 436.42 614.297 436.316 614.903 436.108C615.509 435.89 616.035 435.573 616.48 435.156C616.925 434.74 617.261 434.223 617.489 433.608L622.29 434.148C621.987 435.417 621.409 436.525 620.557 437.472C619.714 438.409 618.634 439.138 617.318 439.659C616.002 440.17 614.496 440.426 612.801 440.426Z" fill="#5F6776"/>
<path d="M401.707 218.227H406.48L409.307 221.892L411.324 224.278L416.168 230.5H411.054L407.759 226.324L406.352 224.335L401.707 218.227ZM416.864 213.455C416.864 216.589 416.277 219.274 415.102 221.509C413.938 223.734 412.347 225.438 410.33 226.622C408.322 227.806 406.045 228.398 403.497 228.398C400.95 228.398 398.668 227.806 396.651 226.622C394.643 225.429 393.052 223.72 391.878 221.494C390.713 219.259 390.131 216.58 390.131 213.455C390.131 210.32 390.713 207.64 391.878 205.415C393.052 203.18 394.643 201.471 396.651 200.287C398.668 199.103 400.95 198.511 403.497 198.511C406.045 198.511 408.322 199.103 410.33 200.287C412.347 201.471 413.938 203.18 415.102 205.415C416.277 207.64 416.864 210.32 416.864 213.455ZM411.565 213.455C411.565 211.248 411.22 209.387 410.528 207.872C409.847 206.348 408.9 205.197 407.688 204.42C406.475 203.634 405.079 203.241 403.497 203.241C401.916 203.241 400.519 203.634 399.307 204.42C398.095 205.197 397.143 206.348 396.452 207.872C395.77 209.387 395.429 211.248 395.429 213.455C395.429 215.661 395.77 217.527 396.452 219.051C397.143 220.566 398.095 221.717 399.307 222.503C400.519 223.279 401.916 223.668 403.497 223.668C405.079 223.668 406.475 223.279 407.688 222.503C408.9 221.717 409.847 220.566 410.528 219.051C411.22 217.527 411.565 215.661 411.565 213.455ZM435.564 218.824V206.182H440.706V228H435.72V224.122H435.493C435 225.344 434.191 226.343 433.064 227.119C431.946 227.896 430.569 228.284 428.93 228.284C427.5 228.284 426.236 227.967 425.138 227.332C424.049 226.688 423.196 225.756 422.581 224.534C421.965 223.303 421.658 221.816 421.658 220.074V206.182H426.8V219.278C426.8 220.661 427.179 221.759 427.936 222.574C428.694 223.388 429.688 223.795 430.919 223.795C431.677 223.795 432.411 223.611 433.121 223.241C433.831 222.872 434.413 222.323 434.868 221.594C435.332 220.855 435.564 219.932 435.564 218.824ZM452.272 228.44C450.889 228.44 449.644 228.194 448.536 227.702C447.438 227.2 446.567 226.461 445.923 225.486C445.288 224.51 444.971 223.308 444.971 221.878C444.971 220.647 445.198 219.629 445.653 218.824C446.107 218.019 446.728 217.375 447.513 216.892C448.299 216.409 449.185 216.045 450.17 215.798C451.164 215.543 452.192 215.358 453.252 215.244C454.531 215.112 455.567 214.993 456.363 214.889C457.158 214.776 457.736 214.605 458.096 214.378C458.465 214.141 458.65 213.777 458.65 213.284V213.199C458.65 212.129 458.333 211.3 457.698 210.713C457.064 210.126 456.15 209.832 454.957 209.832C453.697 209.832 452.698 210.107 451.96 210.656C451.23 211.205 450.738 211.854 450.482 212.602L445.681 211.92C446.06 210.595 446.685 209.487 447.556 208.597C448.427 207.697 449.493 207.025 450.752 206.58C452.012 206.125 453.404 205.898 454.928 205.898C455.979 205.898 457.026 206.021 458.067 206.267C459.109 206.513 460.061 206.92 460.923 207.489C461.784 208.047 462.476 208.81 462.996 209.776C463.527 210.741 463.792 211.949 463.792 213.398V228H458.849V225.003H458.678C458.366 225.609 457.925 226.177 457.357 226.707C456.799 227.228 456.093 227.65 455.241 227.972C454.398 228.284 453.408 228.44 452.272 228.44ZM453.607 224.662C454.639 224.662 455.534 224.458 456.292 224.051C457.049 223.634 457.632 223.085 458.039 222.403C458.456 221.722 458.664 220.978 458.664 220.173V217.602C458.503 217.735 458.228 217.858 457.84 217.972C457.461 218.085 457.035 218.185 456.562 218.27C456.088 218.355 455.62 218.431 455.156 218.497C454.692 218.563 454.289 218.62 453.948 218.668C453.181 218.772 452.495 218.942 451.888 219.179C451.282 219.416 450.804 219.747 450.454 220.173C450.103 220.59 449.928 221.13 449.928 221.793C449.928 222.74 450.274 223.455 450.965 223.938C451.656 224.42 452.537 224.662 453.607 224.662ZM474.104 215.216V228H468.962V206.182H473.877V209.889H474.133C474.635 208.668 475.435 207.697 476.533 206.977C477.641 206.258 479.01 205.898 480.638 205.898C482.144 205.898 483.456 206.22 484.573 206.864C485.7 207.508 486.571 208.44 487.187 209.662C487.812 210.884 488.12 212.366 488.11 214.108V228H482.968V214.903C482.968 213.445 482.589 212.304 481.832 211.48C481.084 210.656 480.047 210.244 478.721 210.244C477.821 210.244 477.021 210.443 476.32 210.841C475.629 211.229 475.085 211.793 474.687 212.531C474.299 213.27 474.104 214.165 474.104 215.216ZM504.232 206.182V210.159H491.69V206.182H504.232ZM494.786 200.955H499.928V221.438C499.928 222.129 500.032 222.659 500.241 223.028C500.459 223.388 500.743 223.634 501.093 223.767C501.443 223.9 501.832 223.966 502.258 223.966C502.58 223.966 502.873 223.942 503.138 223.895C503.413 223.848 503.621 223.805 503.763 223.767L504.63 227.787C504.355 227.882 503.962 227.986 503.451 228.099C502.949 228.213 502.334 228.279 501.604 228.298C500.317 228.336 499.156 228.142 498.124 227.716C497.092 227.28 496.273 226.608 495.667 225.699C495.07 224.79 494.777 223.653 494.786 222.29V200.955ZM511.7 228.312C510.839 228.312 510.1 228.009 509.484 227.403C508.869 226.797 508.566 226.059 508.575 225.188C508.566 224.335 508.869 223.606 509.484 223C510.1 222.394 510.839 222.091 511.7 222.091C512.534 222.091 513.258 222.394 513.874 223C514.499 223.606 514.816 224.335 514.825 225.188C514.816 225.765 514.664 226.291 514.371 226.764C514.087 227.238 513.708 227.616 513.234 227.901C512.77 228.175 512.259 228.312 511.7 228.312ZM547.723 198.909H552.993V217.915C552.993 219.998 552.5 221.83 551.516 223.412C550.54 224.993 549.167 226.229 547.396 227.119C545.625 228 543.556 228.44 541.189 228.44C538.812 228.44 536.738 228 534.967 227.119C533.196 226.229 531.823 224.993 530.848 223.412C529.873 221.83 529.385 219.998 529.385 217.915V198.909H534.655V217.474C534.655 218.687 534.92 219.766 535.45 220.713C535.99 221.66 536.748 222.403 537.723 222.943C538.698 223.473 539.854 223.739 541.189 223.739C542.524 223.739 543.679 223.473 544.655 222.943C545.64 222.403 546.397 221.66 546.928 220.713C547.458 219.766 547.723 218.687 547.723 217.474V198.909ZM575.738 211.949L571.05 212.46C570.918 211.987 570.686 211.542 570.354 211.125C570.032 210.708 569.597 210.372 569.048 210.116C568.498 209.861 567.826 209.733 567.031 209.733C565.96 209.733 565.061 209.965 564.332 210.429C563.612 210.893 563.257 211.494 563.266 212.233C563.257 212.867 563.489 213.384 563.962 213.781C564.445 214.179 565.241 214.506 566.349 214.761L570.07 215.557C572.135 216.002 573.669 216.707 574.673 217.673C575.686 218.639 576.197 219.903 576.207 221.466C576.197 222.839 575.795 224.051 574.999 225.102C574.213 226.144 573.12 226.958 571.718 227.545C570.317 228.133 568.707 228.426 566.888 228.426C564.218 228.426 562.068 227.867 560.44 226.75C558.811 225.623 557.84 224.056 557.528 222.048L562.542 221.565C562.769 222.55 563.252 223.294 563.991 223.795C564.729 224.297 565.691 224.548 566.874 224.548C568.096 224.548 569.076 224.297 569.815 223.795C570.563 223.294 570.937 222.673 570.937 221.935C570.937 221.31 570.695 220.794 570.212 220.386C569.739 219.979 569 219.667 567.996 219.449L564.275 218.668C562.182 218.232 560.634 217.498 559.63 216.466C558.626 215.424 558.129 214.108 558.138 212.517C558.129 211.172 558.494 210.008 559.232 209.023C559.98 208.028 561.017 207.261 562.343 206.722C563.678 206.172 565.217 205.898 566.96 205.898C569.516 205.898 571.529 206.442 572.996 207.531C574.474 208.62 575.388 210.093 575.738 211.949ZM586.725 228.44C585.343 228.44 584.097 228.194 582.989 227.702C581.891 227.2 581.02 226.461 580.376 225.486C579.741 224.51 579.424 223.308 579.424 221.878C579.424 220.647 579.651 219.629 580.106 218.824C580.56 218.019 581.181 217.375 581.967 216.892C582.753 216.409 583.638 216.045 584.623 215.798C585.617 215.543 586.645 215.358 587.705 215.244C588.984 215.112 590.021 214.993 590.816 214.889C591.612 214.776 592.189 214.605 592.549 214.378C592.918 214.141 593.103 213.777 593.103 213.284V213.199C593.103 212.129 592.786 211.3 592.151 210.713C591.517 210.126 590.603 209.832 589.41 209.832C588.15 209.832 587.151 210.107 586.413 210.656C585.683 211.205 585.191 211.854 584.935 212.602L580.134 211.92C580.513 210.595 581.138 209.487 582.009 208.597C582.88 207.697 583.946 207.025 585.205 206.58C586.465 206.125 587.857 205.898 589.381 205.898C590.433 205.898 591.479 206.021 592.521 206.267C593.562 206.513 594.514 206.92 595.376 207.489C596.237 208.047 596.929 208.81 597.45 209.776C597.98 210.741 598.245 211.949 598.245 213.398V228H593.302V225.003H593.131C592.819 225.609 592.379 226.177 591.81 226.707C591.252 227.228 590.546 227.65 589.694 227.972C588.851 228.284 587.862 228.44 586.725 228.44ZM588.06 224.662C589.093 224.662 589.987 224.458 590.745 224.051C591.503 223.634 592.085 223.085 592.492 222.403C592.909 221.722 593.117 220.978 593.117 220.173V217.602C592.956 217.735 592.682 217.858 592.293 217.972C591.915 218.085 591.488 218.185 591.015 218.27C590.541 218.355 590.073 218.431 589.609 218.497C589.145 218.563 588.742 218.62 588.401 218.668C587.634 218.772 586.948 218.942 586.342 219.179C585.736 219.416 585.257 219.747 584.907 220.173C584.557 220.59 584.381 221.13 584.381 221.793C584.381 222.74 584.727 223.455 585.418 223.938C586.11 224.42 586.99 224.662 588.06 224.662ZM611.512 228.384C609.798 228.384 608.264 227.943 606.91 227.062C605.556 226.182 604.486 224.903 603.7 223.227C602.914 221.551 602.521 219.515 602.521 217.119C602.521 214.695 602.918 212.65 603.714 210.983C604.519 209.307 605.603 208.043 606.967 207.19C608.33 206.329 609.85 205.898 611.526 205.898C612.805 205.898 613.856 206.116 614.68 206.551C615.504 206.977 616.157 207.493 616.64 208.099C617.123 208.696 617.497 209.259 617.762 209.79H617.975V198.909H623.131V228H618.075V224.562H617.762C617.497 225.093 617.113 225.656 616.612 226.253C616.11 226.84 615.447 227.342 614.623 227.759C613.799 228.175 612.762 228.384 611.512 228.384ZM612.947 224.165C614.036 224.165 614.964 223.871 615.731 223.284C616.498 222.687 617.08 221.859 617.478 220.798C617.876 219.738 618.075 218.502 618.075 217.091C618.075 215.68 617.876 214.454 617.478 213.412C617.09 212.37 616.512 211.561 615.745 210.983C614.987 210.405 614.055 210.116 612.947 210.116C611.801 210.116 610.844 210.415 610.077 211.011C609.31 211.608 608.733 212.432 608.344 213.483C607.956 214.534 607.762 215.737 607.762 217.091C607.762 218.455 607.956 219.671 608.344 220.741C608.742 221.802 609.325 222.64 610.092 223.256C610.868 223.862 611.82 224.165 612.947 224.165ZM634.889 228.44C633.507 228.44 632.261 228.194 631.153 227.702C630.055 227.2 629.184 226.461 628.54 225.486C627.905 224.51 627.588 223.308 627.588 221.878C627.588 220.647 627.815 219.629 628.27 218.824C628.724 218.019 629.345 217.375 630.131 216.892C630.917 216.409 631.802 216.045 632.787 215.798C633.781 215.543 634.809 215.358 635.869 215.244C637.148 215.112 638.185 214.993 638.98 214.889C639.776 214.776 640.353 214.605 640.713 214.378C641.082 214.141 641.267 213.777 641.267 213.284V213.199C641.267 212.129 640.95 211.3 640.315 210.713C639.681 210.126 638.767 209.832 637.574 209.832C636.314 209.832 635.315 210.107 634.577 210.656C633.848 211.205 633.355 211.854 633.099 212.602L628.298 211.92C628.677 210.595 629.302 209.487 630.173 208.597C631.045 207.697 632.11 207.025 633.369 206.58C634.629 206.125 636.021 205.898 637.545 205.898C638.597 205.898 639.643 206.021 640.685 206.267C641.726 206.513 642.678 206.92 643.54 207.489C644.402 208.047 645.093 208.81 645.614 209.776C646.144 210.741 646.409 211.949 646.409 213.398V228H641.466V225.003H641.295C640.983 225.609 640.543 226.177 639.974 226.707C639.416 227.228 638.71 227.65 637.858 227.972C637.015 228.284 636.026 228.44 634.889 228.44ZM636.224 224.662C637.257 224.662 638.152 224.458 638.909 224.051C639.667 223.634 640.249 223.085 640.656 222.403C641.073 221.722 641.281 220.978 641.281 220.173V217.602C641.12 217.735 640.846 217.858 640.457 217.972C640.079 218.085 639.652 218.185 639.179 218.27C638.705 218.355 638.237 218.431 637.773 218.497C637.309 218.563 636.906 218.62 636.565 218.668C635.798 218.772 635.112 218.942 634.506 219.179C633.9 219.416 633.421 219.747 633.071 220.173C632.721 220.59 632.545 221.13 632.545 221.793C632.545 222.74 632.891 223.455 633.582 223.938C634.274 224.42 635.154 224.662 636.224 224.662Z" fill="#5F6776"/>
<path d="M93.7074 430.227H98.4801L101.307 433.892L103.324 436.278L108.168 442.5H103.054L99.7585 438.324L98.3523 436.335L93.7074 430.227ZM108.864 425.455C108.864 428.589 108.277 431.274 107.102 433.509C105.938 435.734 104.347 437.438 102.33 438.622C100.322 439.806 98.0445 440.398 95.4972 440.398C92.9498 440.398 90.6676 439.806 88.6506 438.622C86.643 437.429 85.0521 435.72 83.8778 433.494C82.7131 431.259 82.1307 428.58 82.1307 425.455C82.1307 422.32 82.7131 419.64 83.8778 417.415C85.0521 415.18 86.643 413.471 88.6506 412.287C90.6676 411.103 92.9498 410.511 95.4972 410.511C98.0445 410.511 100.322 411.103 102.33 412.287C104.347 413.471 105.938 415.18 107.102 417.415C108.277 419.64 108.864 422.32 108.864 425.455ZM103.565 425.455C103.565 423.248 103.22 421.387 102.528 419.872C101.847 418.348 100.9 417.197 99.6875 416.42C98.4754 415.634 97.0786 415.241 95.4972 415.241C93.9157 415.241 92.5189 415.634 91.3068 416.42C90.0947 417.197 89.143 418.348 88.4517 419.872C87.7699 421.387 87.429 423.248 87.429 425.455C87.429 427.661 87.7699 429.527 88.4517 431.051C89.143 432.566 90.0947 433.717 91.3068 434.503C92.5189 435.279 93.9157 435.668 95.4972 435.668C97.0786 435.668 98.4754 435.279 99.6875 434.503C100.9 433.717 101.847 432.566 102.528 431.051C103.22 429.527 103.565 427.661 103.565 425.455ZM127.564 430.824V418.182H132.706V440H127.72V436.122H127.493C127 437.344 126.191 438.343 125.064 439.119C123.946 439.896 122.569 440.284 120.93 440.284C119.5 440.284 118.236 439.967 117.138 439.332C116.049 438.688 115.196 437.756 114.581 436.534C113.965 435.303 113.658 433.816 113.658 432.074V418.182H118.8V431.278C118.8 432.661 119.179 433.759 119.936 434.574C120.694 435.388 121.688 435.795 122.919 435.795C123.677 435.795 124.411 435.611 125.121 435.241C125.831 434.872 126.413 434.323 126.868 433.594C127.332 432.855 127.564 431.932 127.564 430.824ZM144.272 440.44C142.889 440.44 141.644 440.194 140.536 439.702C139.438 439.2 138.567 438.461 137.923 437.486C137.288 436.51 136.971 435.308 136.971 433.878C136.971 432.647 137.198 431.629 137.653 430.824C138.107 430.019 138.728 429.375 139.513 428.892C140.299 428.409 141.185 428.045 142.17 427.798C143.164 427.543 144.192 427.358 145.252 427.244C146.531 427.112 147.567 426.993 148.363 426.889C149.158 426.776 149.736 426.605 150.096 426.378C150.465 426.141 150.65 425.777 150.65 425.284V425.199C150.65 424.129 150.333 423.3 149.698 422.713C149.064 422.126 148.15 421.832 146.957 421.832C145.697 421.832 144.698 422.107 143.96 422.656C143.23 423.205 142.738 423.854 142.482 424.602L137.681 423.92C138.06 422.595 138.685 421.487 139.556 420.597C140.427 419.697 141.493 419.025 142.752 418.58C144.012 418.125 145.404 417.898 146.928 417.898C147.979 417.898 149.026 418.021 150.067 418.267C151.109 418.513 152.061 418.92 152.923 419.489C153.784 420.047 154.476 420.81 154.996 421.776C155.527 422.741 155.792 423.949 155.792 425.398V440H150.849V437.003H150.678C150.366 437.609 149.925 438.177 149.357 438.707C148.799 439.228 148.093 439.65 147.241 439.972C146.398 440.284 145.408 440.44 144.272 440.44ZM145.607 436.662C146.639 436.662 147.534 436.458 148.292 436.051C149.049 435.634 149.632 435.085 150.039 434.403C150.456 433.722 150.664 432.978 150.664 432.173V429.602C150.503 429.735 150.228 429.858 149.84 429.972C149.461 430.085 149.035 430.185 148.562 430.27C148.088 430.355 147.62 430.431 147.156 430.497C146.692 430.563 146.289 430.62 145.948 430.668C145.181 430.772 144.495 430.942 143.888 431.179C143.282 431.416 142.804 431.747 142.454 432.173C142.103 432.59 141.928 433.13 141.928 433.793C141.928 434.74 142.274 435.455 142.965 435.938C143.656 436.42 144.537 436.662 145.607 436.662ZM166.104 427.216V440H160.962V418.182H165.877V421.889H166.133C166.635 420.668 167.435 419.697 168.533 418.977C169.641 418.258 171.01 417.898 172.638 417.898C174.144 417.898 175.456 418.22 176.573 418.864C177.7 419.508 178.571 420.44 179.187 421.662C179.812 422.884 180.12 424.366 180.11 426.108V440H174.968V426.903C174.968 425.445 174.589 424.304 173.832 423.48C173.084 422.656 172.047 422.244 170.721 422.244C169.821 422.244 169.021 422.443 168.32 422.841C167.629 423.229 167.085 423.793 166.687 424.531C166.299 425.27 166.104 426.165 166.104 427.216ZM196.232 418.182V422.159H183.69V418.182H196.232ZM186.786 412.955H191.928V433.438C191.928 434.129 192.032 434.659 192.241 435.028C192.459 435.388 192.743 435.634 193.093 435.767C193.443 435.9 193.832 435.966 194.258 435.966C194.58 435.966 194.873 435.942 195.138 435.895C195.413 435.848 195.621 435.805 195.763 435.767L196.63 439.787C196.355 439.882 195.962 439.986 195.451 440.099C194.949 440.213 194.334 440.279 193.604 440.298C192.317 440.336 191.156 440.142 190.124 439.716C189.092 439.28 188.273 438.608 187.667 437.699C187.07 436.79 186.777 435.653 186.786 434.29V412.955ZM203.7 440.312C202.839 440.312 202.1 440.009 201.484 439.403C200.869 438.797 200.566 438.059 200.575 437.188C200.566 436.335 200.869 435.606 201.484 435C202.1 434.394 202.839 434.091 203.7 434.091C204.534 434.091 205.258 434.394 205.874 435C206.499 435.606 206.816 436.335 206.825 437.188C206.816 437.765 206.664 438.291 206.371 438.764C206.087 439.238 205.708 439.616 205.234 439.901C204.77 440.175 204.259 440.312 203.7 440.312ZM239.723 410.909H244.993V429.915C244.993 431.998 244.5 433.83 243.516 435.412C242.54 436.993 241.167 438.229 239.396 439.119C237.625 440 235.556 440.44 233.189 440.44C230.812 440.44 228.738 440 226.967 439.119C225.196 438.229 223.823 436.993 222.848 435.412C221.873 433.83 221.385 431.998 221.385 429.915V410.909H226.655V429.474C226.655 430.687 226.92 431.766 227.45 432.713C227.99 433.66 228.748 434.403 229.723 434.943C230.698 435.473 231.854 435.739 233.189 435.739C234.524 435.739 235.679 435.473 236.655 434.943C237.64 434.403 238.397 433.66 238.928 432.713C239.458 431.766 239.723 430.687 239.723 429.474V410.909ZM255.636 427.216V440H250.494V418.182H255.408V421.889H255.664C256.166 420.668 256.966 419.697 258.065 418.977C259.173 418.258 260.541 417.898 262.17 417.898C263.675 417.898 264.987 418.22 266.104 418.864C267.231 419.508 268.103 420.44 268.718 421.662C269.343 422.884 269.651 424.366 269.641 426.108V440H264.499V426.903C264.499 425.445 264.121 424.304 263.363 423.48C262.615 422.656 261.578 422.244 260.252 422.244C259.353 422.244 258.552 422.443 257.852 422.841C257.16 423.229 256.616 423.793 256.218 424.531C255.83 425.27 255.636 426.165 255.636 427.216ZM274.869 440V418.182H280.011V440H274.869ZM277.454 415.085C276.639 415.085 275.939 414.815 275.352 414.276C274.764 413.726 274.471 413.068 274.471 412.301C274.471 411.525 274.764 410.866 275.352 410.327C275.939 409.777 276.639 409.503 277.454 409.503C278.278 409.503 278.978 409.777 279.556 410.327C280.143 410.866 280.437 411.525 280.437 412.301C280.437 413.068 280.143 413.726 279.556 414.276C278.978 414.815 278.278 415.085 277.454 415.085ZM293.395 440.384C291.681 440.384 290.147 439.943 288.793 439.062C287.438 438.182 286.368 436.903 285.582 435.227C284.796 433.551 284.403 431.515 284.403 429.119C284.403 426.695 284.801 424.65 285.597 422.983C286.402 421.307 287.486 420.043 288.849 419.19C290.213 418.329 291.733 417.898 293.409 417.898C294.688 417.898 295.739 418.116 296.562 418.551C297.386 418.977 298.04 419.493 298.523 420.099C299.006 420.696 299.38 421.259 299.645 421.79H299.858V410.909H305.014V440H299.957V436.562H299.645C299.38 437.093 298.996 437.656 298.494 438.253C297.992 438.84 297.33 439.342 296.506 439.759C295.682 440.175 294.645 440.384 293.395 440.384ZM294.83 436.165C295.919 436.165 296.847 435.871 297.614 435.284C298.381 434.687 298.963 433.859 299.361 432.798C299.759 431.738 299.957 430.502 299.957 429.091C299.957 427.68 299.759 426.454 299.361 425.412C298.973 424.37 298.395 423.561 297.628 422.983C296.87 422.405 295.938 422.116 294.83 422.116C293.684 422.116 292.727 422.415 291.96 423.011C291.193 423.608 290.616 424.432 290.227 425.483C289.839 426.534 289.645 427.737 289.645 429.091C289.645 430.455 289.839 431.671 290.227 432.741C290.625 433.802 291.207 434.64 291.974 435.256C292.751 435.862 293.703 436.165 294.83 436.165ZM313.661 440.312C312.799 440.312 312.061 440.009 311.445 439.403C310.83 438.797 310.527 438.059 310.536 437.188C310.527 436.335 310.83 435.606 311.445 435C312.061 434.394 312.799 434.091 313.661 434.091C314.495 434.091 315.219 434.394 315.835 435C316.46 435.606 316.777 436.335 316.786 437.188C316.777 437.765 316.625 438.291 316.332 438.764C316.048 439.238 315.669 439.616 315.195 439.901C314.731 440.175 314.22 440.312 313.661 440.312Z" fill="#5F6776"/>
<path d="M125.585 295V291.193L135.685 281.293C136.651 280.317 137.455 279.451 138.099 278.693C138.743 277.936 139.226 277.202 139.548 276.491C139.87 275.781 140.031 275.024 140.031 274.219C140.031 273.3 139.823 272.514 139.406 271.861C138.99 271.198 138.417 270.687 137.688 270.327C136.958 269.967 136.13 269.787 135.202 269.787C134.245 269.787 133.407 269.986 132.688 270.384C131.968 270.772 131.409 271.326 131.011 272.045C130.623 272.765 130.429 273.622 130.429 274.616H125.415C125.415 272.77 125.836 271.165 126.679 269.801C127.522 268.437 128.682 267.382 130.159 266.634C131.646 265.885 133.35 265.511 135.273 265.511C137.223 265.511 138.938 265.876 140.415 266.605C141.892 267.334 143.038 268.333 143.852 269.602C144.676 270.871 145.088 272.32 145.088 273.949C145.088 275.038 144.88 276.108 144.463 277.159C144.046 278.21 143.313 279.375 142.261 280.653C141.22 281.932 139.757 283.48 137.872 285.298L132.858 290.398V290.597H145.528V295H125.585ZM154.449 295H148.824L159.065 265.909H165.571L175.827 295H170.202L162.432 271.875H162.205L154.449 295ZM154.634 283.594H169.974V287.827H154.634V283.594Z" fill="black"/>
<rect x="80" y="246" width="173" height="70" rx="9.93398" fill="white"/>
<path d="M209.654 257L220.612 275.601L198.695 275.601L209.654 257Z" fill="#D9D9D9"/>
<path d="M221.268 276.306L209.935 295.556L198.93 276.495L221.268 276.306Z" fill="#D9D9D9"/>
<path d="M125.585 295V291.193L135.685 281.293C136.651 280.317 137.455 279.451 138.099 278.693C138.743 277.936 139.226 277.202 139.548 276.491C139.87 275.781 140.031 275.024 140.031 274.219C140.031 273.3 139.823 272.514 139.406 271.861C138.99 271.198 138.417 270.687 137.688 270.327C136.958 269.967 136.13 269.787 135.202 269.787C134.245 269.787 133.407 269.986 132.688 270.384C131.968 270.772 131.409 271.326 131.011 272.045C130.623 272.765 130.429 273.622 130.429 274.616H125.415C125.415 272.77 125.836 271.165 126.679 269.801C127.522 268.437 128.682 267.382 130.159 266.634C131.646 265.885 133.35 265.511 135.273 265.511C137.223 265.511 138.938 265.876 140.415 266.605C141.892 267.334 143.038 268.333 143.852 269.602C144.676 270.871 145.088 272.32 145.088 273.949C145.088 275.038 144.88 276.108 144.463 277.159C144.046 278.21 143.313 279.375 142.261 280.653C141.22 281.932 139.757 283.48 137.872 285.298L132.858 290.398V290.597H145.528V295H125.585ZM154.449 295H148.824L159.065 265.909H165.571L175.827 295H170.202L162.432 271.875H162.205L154.449 295ZM154.634 283.594H169.974V287.827H154.634V283.594Z" fill="black"/>
<rect x="80" y="467" width="173" height="70" rx="9.93398" fill="white"/>
<path d="M209.654 478L220.612 496.601L198.695 496.601L209.654 478Z" fill="#D9D9D9"/>
<path d="M221.268 497.306L209.935 516.556L198.93 497.495L221.268 497.306Z" fill="#D9D9D9"/>
<path d="M125.585 516V512.193L135.685 502.293C136.651 501.317 137.455 500.451 138.099 499.693C138.743 498.936 139.226 498.202 139.548 497.491C139.87 496.781 140.031 496.024 140.031 495.219C140.031 494.3 139.823 493.514 139.406 492.861C138.99 492.198 138.417 491.687 137.688 491.327C136.958 490.967 136.13 490.787 135.202 490.787C134.245 490.787 133.407 490.986 132.688 491.384C131.968 491.772 131.409 492.326 131.011 493.045C130.623 493.765 130.429 494.622 130.429 495.616H125.415C125.415 493.77 125.836 492.165 126.679 490.801C127.522 489.437 128.682 488.382 130.159 487.634C131.646 486.885 133.35 486.511 135.273 486.511C137.223 486.511 138.938 486.876 140.415 487.605C141.892 488.334 143.038 489.333 143.852 490.602C144.676 491.871 145.088 493.32 145.088 494.949C145.088 496.038 144.88 497.108 144.463 498.159C144.046 499.21 143.313 500.375 142.261 501.653C141.22 502.932 139.757 504.48 137.872 506.298L132.858 511.398V511.597H145.528V516H125.585ZM154.449 516H148.824L159.065 486.909H165.571L175.827 516H170.202L162.432 492.875H162.205L154.449 516ZM154.634 504.594H169.974V508.827H154.634V504.594Z" fill="black"/>
<rect x="80" y="467" width="173" height="70" rx="9.93398" fill="white"/>
<path d="M209.654 478L220.612 496.601L198.695 496.601L209.654 478Z" fill="#D9D9D9"/>
<path d="M221.268 497.306L209.935 516.556L198.93 497.495L221.268 497.306Z" fill="#D9D9D9"/>
<path d="M125.585 516V512.193L135.685 502.293C136.651 501.317 137.455 500.451 138.099 499.693C138.743 498.936 139.226 498.202 139.548 497.491C139.87 496.781 140.031 496.024 140.031 495.219C140.031 494.3 139.823 493.514 139.406 492.861C138.99 492.198 138.417 491.687 137.688 491.327C136.958 490.967 136.13 490.787 135.202 490.787C134.245 490.787 133.407 490.986 132.688 491.384C131.968 491.772 131.409 492.326 131.011 493.045C130.623 493.765 130.429 494.622 130.429 495.616H125.415C125.415 493.77 125.836 492.165 126.679 490.801C127.522 489.437 128.682 488.382 130.159 487.634C131.646 486.885 133.35 486.511 135.273 486.511C137.223 486.511 138.938 486.876 140.415 487.605C141.892 488.334 143.038 489.333 143.852 490.602C144.676 491.871 145.088 493.32 145.088 494.949C145.088 496.038 144.88 497.108 144.463 498.159C144.046 499.21 143.313 500.375 142.261 501.653C141.22 502.932 139.757 504.48 137.872 506.298L132.858 511.398V511.597H145.528V516H125.585ZM154.449 516H148.824L159.065 486.909H165.571L175.827 516H170.202L162.432 492.875H162.205L154.449 516ZM154.634 504.594H169.974V508.827H154.634V504.594Z" fill="black"/>
<rect x="392" y="246" width="173" height="70" rx="9.93398" fill="white"/>
<path d="M521.654 257L532.612 275.601L510.695 275.601L521.654 257Z" fill="#D9D9D9"/>
<path d="M533.268 276.306L521.935 295.556L510.93 276.495L533.268 276.306Z" fill="#D9D9D9"/>
<path d="M449.418 265.909V295H444.148V271.037H443.977L437.173 275.384V270.554L444.403 265.909H449.418ZM467.557 295.554C465.218 295.554 463.21 294.962 461.534 293.778C459.867 292.585 458.584 290.866 457.685 288.622C456.795 286.368 456.349 283.655 456.349 280.483C456.359 277.311 456.809 274.612 457.699 272.386C458.598 270.152 459.882 268.447 461.548 267.273C463.224 266.098 465.227 265.511 467.557 265.511C469.886 265.511 471.889 266.098 473.565 267.273C475.241 268.447 476.525 270.152 477.415 272.386C478.314 274.621 478.764 277.32 478.764 280.483C478.764 283.665 478.314 286.383 477.415 288.636C476.525 290.881 475.241 292.595 473.565 293.778C471.899 294.962 469.896 295.554 467.557 295.554ZM467.557 291.108C469.375 291.108 470.81 290.213 471.861 288.423C472.921 286.624 473.452 283.977 473.452 280.483C473.452 278.172 473.21 276.231 472.727 274.659C472.244 273.087 471.563 271.903 470.682 271.108C469.801 270.303 468.759 269.901 467.557 269.901C465.748 269.901 464.318 270.8 463.267 272.599C462.216 274.389 461.686 277.017 461.676 280.483C461.667 282.803 461.899 284.754 462.372 286.335C462.855 287.917 463.537 289.11 464.418 289.915C465.298 290.71 466.345 291.108 467.557 291.108Z" fill="black"/>
<path d="M404.585 506V502.193L414.685 492.293C415.651 491.317 416.455 490.451 417.099 489.693C417.743 488.936 418.226 488.202 418.548 487.491C418.87 486.781 419.031 486.024 419.031 485.219C419.031 484.3 418.823 483.514 418.406 482.861C417.99 482.198 417.417 481.687 416.688 481.327C415.958 480.967 415.13 480.787 414.202 480.787C413.245 480.787 412.407 480.986 411.688 481.384C410.968 481.772 410.409 482.326 410.011 483.045C409.623 483.765 409.429 484.622 409.429 485.616H404.415C404.415 483.77 404.836 482.165 405.679 480.801C406.522 479.437 407.682 478.382 409.159 477.634C410.646 476.885 412.35 476.511 414.273 476.511C416.223 476.511 417.938 476.876 419.415 477.605C420.892 478.334 422.038 479.333 422.852 480.602C423.676 481.871 424.088 483.32 424.088 484.949C424.088 486.038 423.88 487.108 423.463 488.159C423.046 489.21 422.313 490.375 421.261 491.653C420.22 492.932 418.757 494.48 416.872 496.298L411.858 501.398V501.597H424.528V506H404.585ZM439.528 476.511C440.92 476.521 442.275 476.767 443.591 477.25C444.917 477.723 446.11 478.5 447.17 479.58C448.231 480.65 449.074 482.084 449.699 483.884C450.324 485.683 450.636 487.908 450.636 490.56C450.646 493.06 450.381 495.295 449.841 497.264C449.311 499.224 448.548 500.882 447.554 502.236C446.56 503.59 445.362 504.622 443.96 505.332C442.559 506.043 440.982 506.398 439.23 506.398C437.393 506.398 435.764 506.038 434.344 505.318C432.933 504.598 431.792 503.614 430.92 502.364C430.049 501.114 429.514 499.684 429.315 498.074H434.5C434.765 499.229 435.305 500.148 436.119 500.83C436.943 501.502 437.98 501.838 439.23 501.838C441.247 501.838 442.8 500.962 443.889 499.21C444.978 497.458 445.523 495.025 445.523 491.909H445.324C444.86 492.742 444.259 493.462 443.52 494.068C442.781 494.665 441.943 495.124 441.006 495.446C440.078 495.768 439.093 495.929 438.051 495.929C436.347 495.929 434.813 495.522 433.449 494.707C432.095 493.893 431.02 492.776 430.224 491.355C429.438 489.935 429.041 488.311 429.031 486.483C429.031 484.589 429.467 482.889 430.338 481.384C431.219 479.868 432.445 478.675 434.017 477.804C435.589 476.923 437.426 476.492 439.528 476.511ZM439.543 480.773C438.52 480.773 437.597 481.024 436.773 481.526C435.958 482.018 435.314 482.69 434.841 483.543C434.377 484.385 434.145 485.328 434.145 486.369C434.154 487.402 434.386 488.339 434.841 489.182C435.305 490.025 435.935 490.692 436.73 491.185C437.535 491.677 438.454 491.923 439.486 491.923C440.253 491.923 440.968 491.777 441.631 491.483C442.294 491.189 442.871 490.782 443.364 490.261C443.866 489.731 444.254 489.13 444.528 488.457C444.813 487.785 444.95 487.075 444.94 486.327C444.94 485.332 444.704 484.414 444.23 483.571C443.766 482.728 443.127 482.051 442.312 481.54C441.508 481.028 440.584 480.773 439.543 480.773ZM467.298 475.545L457.923 510.375H453.42L462.795 475.545H467.298ZM481.276 506.554C478.937 506.554 476.929 505.962 475.253 504.778C473.586 503.585 472.303 501.866 471.403 499.622C470.513 497.368 470.068 494.655 470.068 491.483C470.078 488.311 470.527 485.612 471.418 483.386C472.317 481.152 473.6 479.447 475.267 478.273C476.943 477.098 478.946 476.511 481.276 476.511C483.605 476.511 485.608 477.098 487.284 478.273C488.96 479.447 490.243 481.152 491.134 483.386C492.033 485.621 492.483 488.32 492.483 491.483C492.483 494.665 492.033 497.383 491.134 499.636C490.243 501.881 488.96 503.595 487.284 504.778C485.617 505.962 483.615 506.554 481.276 506.554ZM481.276 502.108C483.094 502.108 484.528 501.213 485.58 499.423C486.64 497.624 487.17 494.977 487.17 491.483C487.17 489.172 486.929 487.231 486.446 485.659C485.963 484.087 485.281 482.903 484.401 482.108C483.52 481.303 482.478 480.901 481.276 480.901C479.467 480.901 478.037 481.8 476.986 483.599C475.935 485.389 475.404 488.017 475.395 491.483C475.385 493.803 475.617 495.754 476.091 497.335C476.574 498.917 477.256 500.11 478.136 500.915C479.017 501.71 480.063 502.108 481.276 502.108ZM507.302 476.511C508.694 476.521 510.048 476.767 511.364 477.25C512.69 477.723 513.883 478.5 514.944 479.58C516.004 480.65 516.847 482.084 517.472 483.884C518.097 485.683 518.41 487.908 518.41 490.56C518.419 493.06 518.154 495.295 517.614 497.264C517.084 499.224 516.322 500.882 515.327 502.236C514.333 503.59 513.135 504.622 511.734 505.332C510.332 506.043 508.755 506.398 507.004 506.398C505.166 506.398 503.538 506.038 502.117 505.318C500.706 504.598 499.565 503.614 498.694 502.364C497.823 501.114 497.288 499.684 497.089 498.074H502.273C502.539 499.229 503.078 500.148 503.893 500.83C504.717 501.502 505.754 501.838 507.004 501.838C509.021 501.838 510.574 500.962 511.663 499.21C512.752 497.458 513.296 495.025 513.296 491.909H513.097C512.633 492.742 512.032 493.462 511.293 494.068C510.555 494.665 509.717 495.124 508.779 495.446C507.851 495.768 506.866 495.929 505.825 495.929C504.12 495.929 502.586 495.522 501.222 494.707C499.868 493.893 498.793 492.776 497.998 491.355C497.212 489.935 496.814 488.311 496.805 486.483C496.805 484.589 497.24 482.889 498.112 481.384C498.992 479.868 500.219 478.675 501.79 477.804C503.362 476.923 505.2 476.492 507.302 476.511ZM507.316 480.773C506.293 480.773 505.37 481.024 504.546 481.526C503.732 482.018 503.088 482.69 502.614 483.543C502.15 484.385 501.918 485.328 501.918 486.369C501.928 487.402 502.16 488.339 502.614 489.182C503.078 490.025 503.708 490.692 504.504 491.185C505.308 491.677 506.227 491.923 507.259 491.923C508.026 491.923 508.741 491.777 509.404 491.483C510.067 491.189 510.645 490.782 511.137 490.261C511.639 489.731 512.027 489.13 512.302 488.457C512.586 487.785 512.723 487.075 512.714 486.327C512.714 485.332 512.477 484.414 512.004 483.571C511.54 482.728 510.9 482.051 510.086 481.54C509.281 481.028 508.358 480.773 507.316 480.773ZM535.072 475.545L525.697 510.375H521.194L530.569 475.545H535.072ZM538.296 506V502.193L548.396 492.293C549.362 491.317 550.166 490.451 550.81 489.693C551.454 488.936 551.937 488.202 552.259 487.491C552.581 486.781 552.742 486.024 552.742 485.219C552.742 484.3 552.534 483.514 552.117 482.861C551.701 482.198 551.128 481.687 550.398 481.327C549.669 480.967 548.841 480.787 547.913 480.787C546.956 480.787 546.118 480.986 545.398 481.384C544.679 481.772 544.12 482.326 543.722 483.045C543.334 483.765 543.14 484.622 543.14 485.616H538.126C538.126 483.77 538.547 482.165 539.39 480.801C540.233 479.437 541.393 478.382 542.87 477.634C544.357 476.885 546.061 476.511 547.984 476.511C549.934 476.511 551.648 476.876 553.126 477.605C554.603 478.334 555.749 479.333 556.563 480.602C557.387 481.871 557.799 483.32 557.799 484.949C557.799 486.038 557.591 487.108 557.174 488.159C556.757 489.21 556.023 490.375 554.972 491.653C553.931 492.932 552.468 494.48 550.583 496.298L545.569 501.398V501.597H558.239V506H538.296ZM573.893 506.554C571.554 506.554 569.546 505.962 567.87 504.778C566.203 503.585 564.92 501.866 564.021 499.622C563.13 497.368 562.685 494.655 562.685 491.483C562.695 488.311 563.145 485.612 564.035 483.386C564.934 481.152 566.218 479.447 567.884 478.273C569.56 477.098 571.563 476.511 573.893 476.511C576.222 476.511 578.225 477.098 579.901 478.273C581.577 479.447 582.861 481.152 583.751 483.386C584.65 485.621 585.1 488.32 585.1 491.483C585.1 494.665 584.65 497.383 583.751 499.636C582.861 501.881 581.577 503.595 579.901 504.778C578.235 505.962 576.232 506.554 573.893 506.554ZM573.893 502.108C575.711 502.108 577.146 501.213 578.197 499.423C579.257 497.624 579.788 494.977 579.788 491.483C579.788 489.172 579.546 487.231 579.063 485.659C578.58 484.087 577.898 482.903 577.018 482.108C576.137 481.303 575.095 480.901 573.893 480.901C572.084 480.901 570.654 481.8 569.603 483.599C568.552 485.389 568.022 488.017 568.012 491.483C568.003 493.803 568.235 495.754 568.708 497.335C569.191 498.917 569.873 500.11 570.754 500.915C571.634 501.71 572.681 502.108 573.893 502.108ZM600.572 506.554C598.233 506.554 596.226 505.962 594.55 504.778C592.883 503.585 591.6 501.866 590.7 499.622C589.81 497.368 589.365 494.655 589.365 491.483C589.375 488.311 589.824 485.612 590.714 483.386C591.614 481.152 592.897 479.447 594.564 478.273C596.24 477.098 598.243 476.511 600.572 476.511C602.902 476.511 604.905 477.098 606.581 478.273C608.257 479.447 609.54 481.152 610.43 483.386C611.33 485.621 611.78 488.32 611.78 491.483C611.78 494.665 611.33 497.383 610.43 499.636C609.54 501.881 608.257 503.595 606.581 504.778C604.914 505.962 602.911 506.554 600.572 506.554ZM600.572 502.108C602.391 502.108 603.825 501.213 604.876 499.423C605.937 497.624 606.467 494.977 606.467 491.483C606.467 489.172 606.226 487.231 605.743 485.659C605.26 484.087 604.578 482.903 603.697 482.108C602.817 481.303 601.775 480.901 600.572 480.901C598.764 480.901 597.334 481.8 596.283 483.599C595.232 485.389 594.701 488.017 594.692 491.483C594.682 493.803 594.914 495.754 595.388 497.335C595.871 498.917 596.553 500.11 597.433 500.915C598.314 501.71 599.36 502.108 600.572 502.108ZM626.613 506.398C624.719 506.398 623.024 506.043 621.528 505.332C620.031 504.613 618.843 503.628 617.962 502.378C617.091 501.128 616.627 499.698 616.57 498.088H621.684C621.779 499.281 622.295 500.257 623.232 501.014C624.17 501.762 625.297 502.136 626.613 502.136C627.645 502.136 628.564 501.9 629.369 501.426C630.174 500.953 630.808 500.295 631.272 499.452C631.736 498.609 631.963 497.648 631.954 496.568C631.963 495.47 631.731 494.494 631.258 493.642C630.784 492.79 630.136 492.122 629.312 491.639C628.488 491.147 627.541 490.901 626.471 490.901C625.6 490.891 624.743 491.052 623.9 491.384C623.057 491.715 622.389 492.151 621.897 492.69L617.138 491.909L618.658 476.909H635.533V481.312H623.019L622.181 489.026H622.352C622.891 488.391 623.654 487.866 624.638 487.449C625.623 487.023 626.703 486.81 627.877 486.81C629.638 486.81 631.21 487.226 632.593 488.06C633.976 488.884 635.065 490.02 635.86 491.469C636.656 492.918 637.053 494.575 637.053 496.44C637.053 498.363 636.608 500.077 635.718 501.582C634.837 503.079 633.611 504.258 632.039 505.119C630.477 505.972 628.668 506.398 626.613 506.398Z" fill="black"/>
<rect x="656" y="657" width="135" height="46" rx="23" fill="#99B5EE"/>
<path d="M691.943 674.125C691.837 673.133 691.39 672.36 690.602 671.807C689.822 671.254 688.807 670.977 687.557 670.977C686.678 670.977 685.924 671.11 685.295 671.375C684.667 671.64 684.186 672 683.852 672.455C683.519 672.909 683.348 673.428 683.341 674.011C683.341 674.496 683.451 674.917 683.67 675.273C683.898 675.629 684.205 675.932 684.591 676.182C684.977 676.424 685.405 676.629 685.875 676.795C686.345 676.962 686.818 677.102 687.295 677.216L689.477 677.761C690.356 677.966 691.201 678.242 692.011 678.591C692.83 678.939 693.561 679.379 694.205 679.909C694.856 680.439 695.371 681.08 695.75 681.83C696.129 682.58 696.318 683.458 696.318 684.466C696.318 685.83 695.97 687.03 695.273 688.068C694.576 689.098 693.568 689.905 692.25 690.489C690.939 691.064 689.352 691.352 687.489 691.352C685.678 691.352 684.106 691.072 682.773 690.511C681.447 689.951 680.409 689.133 679.659 688.057C678.917 686.981 678.515 685.67 678.455 684.125H682.602C682.663 684.936 682.913 685.61 683.352 686.148C683.792 686.686 684.364 687.087 685.068 687.352C685.78 687.617 686.576 687.75 687.455 687.75C688.371 687.75 689.174 687.614 689.864 687.341C690.561 687.061 691.106 686.674 691.5 686.182C691.894 685.682 692.095 685.098 692.102 684.432C692.095 683.826 691.917 683.326 691.568 682.932C691.22 682.53 690.731 682.197 690.102 681.932C689.481 681.659 688.754 681.417 687.92 681.205L685.273 680.523C683.356 680.03 681.841 679.284 680.727 678.284C679.621 677.277 679.068 675.939 679.068 674.273C679.068 672.902 679.439 671.701 680.182 670.67C680.932 669.64 681.951 668.841 683.239 668.273C684.527 667.697 685.985 667.409 687.614 667.409C689.265 667.409 690.712 667.697 691.955 668.273C693.205 668.841 694.186 669.633 694.898 670.648C695.61 671.655 695.977 672.814 696 674.125H691.943ZM704.918 691.352C703.812 691.352 702.815 691.155 701.929 690.761C701.05 690.36 700.353 689.769 699.838 688.989C699.33 688.208 699.077 687.246 699.077 686.102C699.077 685.117 699.259 684.303 699.622 683.659C699.986 683.015 700.482 682.5 701.111 682.114C701.74 681.727 702.448 681.436 703.236 681.239C704.031 681.034 704.853 680.886 705.702 680.795C706.724 680.689 707.554 680.595 708.19 680.511C708.827 680.42 709.289 680.284 709.577 680.102C709.872 679.913 710.02 679.621 710.02 679.227V679.159C710.02 678.303 709.766 677.64 709.259 677.17C708.751 676.701 708.02 676.466 707.065 676.466C706.058 676.466 705.259 676.686 704.668 677.125C704.084 677.564 703.69 678.083 703.486 678.682L699.645 678.136C699.948 677.076 700.448 676.189 701.145 675.477C701.842 674.758 702.694 674.22 703.702 673.864C704.709 673.5 705.823 673.318 707.043 673.318C707.884 673.318 708.721 673.417 709.554 673.614C710.387 673.811 711.149 674.136 711.838 674.591C712.527 675.038 713.08 675.648 713.497 676.42C713.921 677.193 714.134 678.159 714.134 679.318V691H710.179V688.602H710.043C709.793 689.087 709.44 689.542 708.986 689.966C708.539 690.383 707.974 690.72 707.293 690.977C706.618 691.227 705.827 691.352 704.918 691.352ZM705.986 688.33C706.812 688.33 707.527 688.167 708.134 687.841C708.74 687.508 709.205 687.068 709.531 686.523C709.865 685.977 710.031 685.383 710.031 684.739V682.682C709.902 682.788 709.683 682.886 709.372 682.977C709.069 683.068 708.728 683.148 708.349 683.216C707.971 683.284 707.596 683.345 707.224 683.398C706.853 683.451 706.531 683.496 706.259 683.534C705.645 683.617 705.096 683.754 704.611 683.943C704.126 684.133 703.743 684.398 703.463 684.739C703.183 685.072 703.043 685.504 703.043 686.034C703.043 686.792 703.319 687.364 703.872 687.75C704.425 688.136 705.13 688.33 705.986 688.33ZM722.384 667.727V691H718.27V667.727H722.384ZM742.205 673.545L735.989 691H731.443L725.227 673.545H729.614L733.625 686.511H733.807L737.83 673.545H742.205ZM749.574 691.352C748.468 691.352 747.472 691.155 746.585 690.761C745.706 690.36 745.009 689.769 744.494 688.989C743.987 688.208 743.733 687.246 743.733 686.102C743.733 685.117 743.915 684.303 744.278 683.659C744.642 683.015 745.138 682.5 745.767 682.114C746.396 681.727 747.104 681.436 747.892 681.239C748.688 681.034 749.509 680.886 750.358 680.795C751.381 680.689 752.21 680.595 752.847 680.511C753.483 680.42 753.945 680.284 754.233 680.102C754.528 679.913 754.676 679.621 754.676 679.227V679.159C754.676 678.303 754.422 677.64 753.915 677.17C753.407 676.701 752.676 676.466 751.722 676.466C750.714 676.466 749.915 676.686 749.324 677.125C748.741 677.564 748.347 678.083 748.142 678.682L744.301 678.136C744.604 677.076 745.104 676.189 745.801 675.477C746.498 674.758 747.35 674.22 748.358 673.864C749.366 673.5 750.479 673.318 751.699 673.318C752.54 673.318 753.377 673.417 754.21 673.614C755.044 673.811 755.805 674.136 756.494 674.591C757.184 675.038 757.737 675.648 758.153 676.42C758.578 677.193 758.79 678.159 758.79 679.318V691H754.835V688.602H754.699C754.449 689.087 754.097 689.542 753.642 689.966C753.195 690.383 752.631 690.72 751.949 690.977C751.275 691.227 750.483 691.352 749.574 691.352ZM750.642 688.33C751.468 688.33 752.184 688.167 752.79 687.841C753.396 687.508 753.862 687.068 754.188 686.523C754.521 685.977 754.688 685.383 754.688 684.739V682.682C754.559 682.788 754.339 682.886 754.028 682.977C753.725 683.068 753.384 683.148 753.006 683.216C752.627 683.284 752.252 683.345 751.881 683.398C751.509 683.451 751.188 683.496 750.915 683.534C750.301 683.617 749.752 683.754 749.267 683.943C748.782 684.133 748.4 684.398 748.119 684.739C747.839 685.072 747.699 685.504 747.699 686.034C747.699 686.792 747.975 687.364 748.528 687.75C749.081 688.136 749.786 688.33 750.642 688.33ZM762.926 691V673.545H766.915V676.455H767.097C767.415 675.447 767.96 674.67 768.733 674.125C769.513 673.572 770.403 673.295 771.403 673.295C771.631 673.295 771.884 673.307 772.165 673.33C772.453 673.345 772.691 673.371 772.881 673.409V677.193C772.706 677.133 772.43 677.08 772.051 677.034C771.68 676.981 771.32 676.955 770.972 676.955C770.222 676.955 769.547 677.117 768.949 677.443C768.358 677.761 767.892 678.205 767.551 678.773C767.21 679.341 767.04 679.996 767.04 680.739V691H762.926Z" fill="black"/>
<rect x="488" y="657" width="158" height="46" rx="23" fill="#99B5EE"/>
<path d="M522.216 675.58H517.966C517.845 674.883 517.621 674.265 517.295 673.727C516.97 673.182 516.564 672.72 516.08 672.341C515.595 671.962 515.042 671.678 514.42 671.489C513.807 671.292 513.144 671.193 512.432 671.193C511.167 671.193 510.045 671.511 509.068 672.148C508.091 672.777 507.326 673.701 506.773 674.92C506.22 676.133 505.943 677.614 505.943 679.364C505.943 681.144 506.22 682.644 506.773 683.864C507.333 685.076 508.098 685.992 509.068 686.614C510.045 687.227 511.163 687.534 512.42 687.534C513.117 687.534 513.769 687.443 514.375 687.261C514.989 687.072 515.538 686.795 516.023 686.432C516.515 686.068 516.928 685.621 517.261 685.091C517.602 684.561 517.837 683.955 517.966 683.273L522.216 683.295C522.057 684.402 521.712 685.439 521.182 686.409C520.659 687.379 519.973 688.235 519.125 688.977C518.277 689.712 517.284 690.288 516.148 690.705C515.011 691.114 513.75 691.318 512.364 691.318C510.318 691.318 508.492 690.845 506.886 689.898C505.28 688.951 504.015 687.583 503.091 685.795C502.167 684.008 501.705 681.864 501.705 679.364C501.705 676.856 502.17 674.712 503.102 672.932C504.034 671.144 505.303 669.777 506.909 668.83C508.515 667.883 510.333 667.409 512.364 667.409C513.659 667.409 514.864 667.591 515.977 667.955C517.091 668.318 518.083 668.852 518.955 669.557C519.826 670.254 520.542 671.11 521.102 672.125C521.67 673.133 522.042 674.284 522.216 675.58ZM530.918 691.352C529.812 691.352 528.815 691.155 527.929 690.761C527.05 690.36 526.353 689.769 525.838 688.989C525.33 688.208 525.077 687.246 525.077 686.102C525.077 685.117 525.259 684.303 525.622 683.659C525.986 683.015 526.482 682.5 527.111 682.114C527.74 681.727 528.448 681.436 529.236 681.239C530.031 681.034 530.853 680.886 531.702 680.795C532.724 680.689 533.554 680.595 534.19 680.511C534.827 680.42 535.289 680.284 535.577 680.102C535.872 679.913 536.02 679.621 536.02 679.227V679.159C536.02 678.303 535.766 677.64 535.259 677.17C534.751 676.701 534.02 676.466 533.065 676.466C532.058 676.466 531.259 676.686 530.668 677.125C530.084 677.564 529.69 678.083 529.486 678.682L525.645 678.136C525.948 677.076 526.448 676.189 527.145 675.477C527.842 674.758 528.694 674.22 529.702 673.864C530.709 673.5 531.823 673.318 533.043 673.318C533.884 673.318 534.721 673.417 535.554 673.614C536.387 673.811 537.149 674.136 537.838 674.591C538.527 675.038 539.08 675.648 539.497 676.42C539.921 677.193 540.134 678.159 540.134 679.318V691H536.179V688.602H536.043C535.793 689.087 535.44 689.542 534.986 689.966C534.539 690.383 533.974 690.72 533.293 690.977C532.618 691.227 531.827 691.352 530.918 691.352ZM531.986 688.33C532.812 688.33 533.527 688.167 534.134 687.841C534.74 687.508 535.205 687.068 535.531 686.523C535.865 685.977 536.031 685.383 536.031 684.739V682.682C535.902 682.788 535.683 682.886 535.372 682.977C535.069 683.068 534.728 683.148 534.349 683.216C533.971 683.284 533.596 683.345 533.224 683.398C532.853 683.451 532.531 683.496 532.259 683.534C531.645 683.617 531.096 683.754 530.611 683.943C530.126 684.133 529.743 684.398 529.463 684.739C529.183 685.072 529.043 685.504 529.043 686.034C529.043 686.792 529.319 687.364 529.872 687.75C530.425 688.136 531.13 688.33 531.986 688.33ZM548.384 680.773V691H544.27V673.545H548.202V676.511H548.406C548.808 675.534 549.448 674.758 550.327 674.182C551.213 673.606 552.308 673.318 553.611 673.318C554.815 673.318 555.865 673.576 556.759 674.091C557.66 674.606 558.357 675.352 558.849 676.33C559.349 677.307 559.596 678.492 559.588 679.886V691H555.474V680.523C555.474 679.356 555.171 678.443 554.565 677.784C553.967 677.125 553.137 676.795 552.077 676.795C551.357 676.795 550.717 676.955 550.156 677.273C549.603 677.583 549.168 678.034 548.849 678.625C548.539 679.216 548.384 679.932 548.384 680.773ZM571.384 691.341C569.641 691.341 568.145 690.958 566.895 690.193C565.652 689.428 564.694 688.371 564.02 687.023C563.353 685.667 563.02 684.106 563.02 682.341C563.02 680.568 563.361 679.004 564.043 677.648C564.724 676.284 565.687 675.223 566.929 674.466C568.179 673.701 569.656 673.318 571.361 673.318C572.777 673.318 574.031 673.58 575.122 674.102C576.221 674.617 577.096 675.348 577.747 676.295C578.399 677.235 578.77 678.333 578.861 679.591H574.929C574.77 678.75 574.391 678.049 573.793 677.489C573.202 676.92 572.41 676.636 571.418 676.636C570.577 676.636 569.838 676.864 569.202 677.318C568.565 677.765 568.069 678.409 567.713 679.25C567.365 680.091 567.19 681.098 567.19 682.273C567.19 683.462 567.365 684.485 567.713 685.341C568.062 686.189 568.55 686.845 569.179 687.307C569.815 687.761 570.562 687.989 571.418 687.989C572.024 687.989 572.565 687.875 573.043 687.648C573.527 687.413 573.933 687.076 574.259 686.636C574.584 686.197 574.808 685.663 574.929 685.034H578.861C578.762 686.269 578.399 687.364 577.77 688.318C577.141 689.265 576.285 690.008 575.202 690.545C574.118 691.076 572.846 691.341 571.384 691.341ZM589.966 691.341C588.216 691.341 586.705 690.977 585.432 690.25C584.167 689.515 583.193 688.477 582.511 687.136C581.83 685.788 581.489 684.201 581.489 682.375C581.489 680.58 581.83 679.004 582.511 677.648C583.201 676.284 584.163 675.223 585.398 674.466C586.633 673.701 588.083 673.318 589.75 673.318C590.826 673.318 591.841 673.492 592.795 673.841C593.758 674.182 594.606 674.712 595.341 675.432C596.083 676.152 596.667 677.068 597.091 678.182C597.515 679.288 597.727 680.606 597.727 682.136V683.398H583.42V680.625H593.784C593.777 679.837 593.606 679.136 593.273 678.523C592.939 677.902 592.473 677.413 591.875 677.057C591.284 676.701 590.595 676.523 589.807 676.523C588.966 676.523 588.227 676.727 587.591 677.136C586.955 677.538 586.458 678.068 586.102 678.727C585.754 679.379 585.576 680.095 585.568 680.875V683.295C585.568 684.311 585.754 685.182 586.125 685.909C586.496 686.629 587.015 687.182 587.682 687.568C588.348 687.947 589.129 688.136 590.023 688.136C590.621 688.136 591.163 688.053 591.648 687.886C592.133 687.712 592.553 687.458 592.909 687.125C593.265 686.792 593.534 686.379 593.716 685.886L597.557 686.318C597.314 687.333 596.852 688.22 596.17 688.977C595.496 689.727 594.633 690.311 593.58 690.727C592.527 691.136 591.322 691.341 589.966 691.341ZM605.321 667.727V691H601.207V667.727H605.321ZM614.574 691.352C613.468 691.352 612.472 691.155 611.585 690.761C610.706 690.36 610.009 689.769 609.494 688.989C608.987 688.208 608.733 687.246 608.733 686.102C608.733 685.117 608.915 684.303 609.278 683.659C609.642 683.015 610.138 682.5 610.767 682.114C611.396 681.727 612.104 681.436 612.892 681.239C613.688 681.034 614.509 680.886 615.358 680.795C616.381 680.689 617.21 680.595 617.847 680.511C618.483 680.42 618.945 680.284 619.233 680.102C619.528 679.913 619.676 679.621 619.676 679.227V679.159C619.676 678.303 619.422 677.64 618.915 677.17C618.407 676.701 617.676 676.466 616.722 676.466C615.714 676.466 614.915 676.686 614.324 677.125C613.741 677.564 613.347 678.083 613.142 678.682L609.301 678.136C609.604 677.076 610.104 676.189 610.801 675.477C611.498 674.758 612.35 674.22 613.358 673.864C614.366 673.5 615.479 673.318 616.699 673.318C617.54 673.318 618.377 673.417 619.21 673.614C620.044 673.811 620.805 674.136 621.494 674.591C622.184 675.038 622.737 675.648 623.153 676.42C623.578 677.193 623.79 678.159 623.79 679.318V691H619.835V688.602H619.699C619.449 689.087 619.097 689.542 618.642 689.966C618.195 690.383 617.631 690.72 616.949 690.977C616.275 691.227 615.483 691.352 614.574 691.352ZM615.642 688.33C616.468 688.33 617.184 688.167 617.79 687.841C618.396 687.508 618.862 687.068 619.188 686.523C619.521 685.977 619.688 685.383 619.688 684.739V682.682C619.559 682.788 619.339 682.886 619.028 682.977C618.725 683.068 618.384 683.148 618.006 683.216C617.627 683.284 617.252 683.345 616.881 683.398C616.509 683.451 616.188 683.496 615.915 683.534C615.301 683.617 614.752 683.754 614.267 683.943C613.782 684.133 613.4 684.398 613.119 684.739C612.839 685.072 612.699 685.504 612.699 686.034C612.699 686.792 612.975 687.364 613.528 687.75C614.081 688.136 614.786 688.33 615.642 688.33ZM627.926 691V673.545H631.915V676.455H632.097C632.415 675.447 632.96 674.67 633.733 674.125C634.513 673.572 635.403 673.295 636.403 673.295C636.631 673.295 636.884 673.307 637.165 673.33C637.453 673.345 637.691 673.371 637.881 673.409V677.193C637.706 677.133 637.43 677.08 637.051 677.034C636.68 676.981 636.32 676.955 635.972 676.955C635.222 676.955 634.547 677.117 633.949 677.443C633.358 677.761 632.892 678.205 632.551 678.773C632.21 679.341 632.04 679.996 632.04 680.739V691H627.926Z" fill="black"/>
</g>
<defs>
<filter id="filter0_b_508_51" x="-238" y="-19" width="2555" height="2015" filterUnits="userSpaceOnUse" color-interpolation-filters="sRGB">
<feFlood flood-opacity="0" result="BackgroundImageFix"/>
<feGaussianBlur in="BackgroundImageFix" stdDeviation="9.5"/>
<feComposite in2="SourceAlpha" operator="in" result="effect1_backgroundBlur_508_51"/>
<feBlend mode="normal" in="SourceGraphic" in2="effect1_backgroundBlur_508_51" result="shape"/>
</filter>
<radialGradient id="paint0_radial_508_51" cx="0" cy="0" r="1" gradientUnits="userSpaceOnUse" gradientTransform="translate(2055.48 1561.07) rotate(-179.541) scale(2319.71 4360.42)">
<stop stop-color="#982AEE"/>
<stop offset="1" stop-color="white" stop-opacity="0"/>
</radialGradient>
<radialGradient id="paint1_radial_508_51" cx="0" cy="0" r="1" gradientUnits="userSpaceOnUse" gradientTransform="translate(1099.95 395.577) rotate(88.1175) scale(1729.26 2202.72)">
<stop stop-color="#2A6CEE"/>
<stop offset="1" stop-color="white" stop-opacity="0"/>
</radialGradient>
<radialGradient id="paint2_radial_508_51" cx="0" cy="0" r="1" gradientUnits="userSpaceOnUse" gradientTransform="translate(198.315 403.542) rotate(58.2428) scale(1944.17 2801.92)">
<stop stop-color="#3166ED"/>
<stop offset="1" stop-color="white" stop-opacity="0"/>
</radialGradient>
<radialGradient id="paint3_radial_508_51" cx="0" cy="0" r="1" gradientUnits="userSpaceOnUse" gradientTransform="translate(257.307 1508.86) rotate(51.344) scale(929.257 1224.23)">
<stop stop-color="#50E2E2"/>
<stop stop-color="#41D6D6"/>
<stop offset="1" stop-color="#4FCDCD" stop-opacity="0"/>
</radialGradient>
<clipPath id="clip0_508_51">
<rect width="822" height="725" rx="35.1026" fill="white"/>
</clipPath>
</defs>
</svg>
