<svg width="79" height="20" viewBox="0 0 79 20" fill="none" xmlns="http://www.w3.org/2000/svg">
<rect width="79" height="19.6555" rx="9.82775" fill="#99B5EE"/>
<path d="M27.3618 6.79395V12.292H26.4759L23.8853 8.54699H23.8397V12.292H22.8437V6.79395H23.735L26.3229 10.5416H26.3712V6.79395H27.3618ZM30.2028 12.3725C29.8001 12.3725 29.4511 12.2839 29.1558 12.1068C28.8605 11.9296 28.6314 11.6817 28.4686 11.3631C28.3075 11.0446 28.227 10.6723 28.227 10.2463C28.227 9.82038 28.3075 9.44722 28.4686 9.12686C28.6314 8.8065 28.8605 8.55773 29.1558 8.38054C29.4511 8.20336 29.8001 8.11477 30.2028 8.11477C30.6055 8.11477 30.9545 8.20336 31.2498 8.38054C31.5451 8.55773 31.7733 8.8065 31.9344 9.12686C32.0972 9.44722 32.1787 9.82038 32.1787 10.2463C32.1787 10.6723 32.0972 11.0446 31.9344 11.3631C31.7733 11.6817 31.5451 11.9296 31.2498 12.1068C30.9545 12.2839 30.6055 12.3725 30.2028 12.3725ZM30.2082 11.594C30.4265 11.594 30.6091 11.534 30.7558 11.4141C30.9026 11.2924 31.0118 11.1296 31.0834 10.9255C31.1567 10.7215 31.1934 10.4942 31.1934 10.2436C31.1934 9.9913 31.1567 9.76311 31.0834 9.55908C31.0118 9.35326 30.9026 9.1895 30.7558 9.0678C30.6091 8.9461 30.4265 8.88525 30.2082 8.88525C29.9845 8.88525 29.7983 8.9461 29.6498 9.0678C29.503 9.1895 29.393 9.35326 29.3196 9.55908C29.248 9.76311 29.2122 9.9913 29.2122 10.2436C29.2122 10.4942 29.248 10.7215 29.3196 10.9255C29.393 11.1296 29.503 11.2924 29.6498 11.4141C29.7983 11.534 29.9845 11.594 30.2082 11.594ZM36.5465 8.16846L35.078 12.292H34.0042L32.5357 8.16846H33.572L34.5196 11.2316H34.5626L35.5129 8.16846H36.5465ZM38.8774 12.3725C38.4747 12.3725 38.1257 12.2839 37.8304 12.1068C37.5351 11.9296 37.306 11.6817 37.1432 11.3631C36.9821 11.0446 36.9015 10.6723 36.9015 10.2463C36.9015 9.82038 36.9821 9.44722 37.1432 9.12686C37.306 8.8065 37.5351 8.55773 37.8304 8.38054C38.1257 8.20336 38.4747 8.11477 38.8774 8.11477C39.2801 8.11477 39.6291 8.20336 39.9244 8.38054C40.2197 8.55773 40.4479 8.8065 40.609 9.12686C40.7718 9.44722 40.8533 9.82038 40.8533 10.2463C40.8533 10.6723 40.7718 11.0446 40.609 11.3631C40.4479 11.6817 40.2197 11.9296 39.9244 12.1068C39.6291 12.2839 39.2801 12.3725 38.8774 12.3725ZM38.8828 11.594C39.1011 11.594 39.2837 11.534 39.4304 11.4141C39.5772 11.2924 39.6864 11.1296 39.7579 10.9255C39.8313 10.7215 39.868 10.4942 39.868 10.2436C39.868 9.9913 39.8313 9.76311 39.7579 9.55908C39.6864 9.35326 39.5772 9.1895 39.4304 9.0678C39.2837 8.9461 39.1011 8.88525 38.8828 8.88525C38.6591 8.88525 38.4729 8.9461 38.3244 9.0678C38.1776 9.1895 38.0675 9.35326 37.9942 9.55908C37.9226 9.76311 37.8868 9.9913 37.8868 10.2436C37.8868 10.4942 37.9226 10.7215 37.9942 10.9255C38.0675 11.1296 38.1776 11.2924 38.3244 11.4141C38.4729 11.534 38.6591 11.594 38.8828 11.594ZM47.062 6.79395H48.058V10.3859C48.058 10.7797 47.965 11.126 47.7788 11.4249C47.5945 11.7238 47.335 11.9573 47.0003 12.1255C46.6656 12.292 46.2746 12.3752 45.8271 12.3752C45.3779 12.3752 44.986 12.292 44.6513 12.1255C44.3166 11.9573 44.0571 11.7238 43.8728 11.4249C43.6884 11.126 43.5962 10.7797 43.5962 10.3859V6.79395H44.5922V10.3027C44.5922 10.5318 44.6423 10.7358 44.7426 10.9148C44.8446 11.0938 44.9878 11.2343 45.1721 11.3363C45.3564 11.4365 45.5748 11.4866 45.8271 11.4866C46.0795 11.4866 46.2978 11.4365 46.4822 11.3363C46.6683 11.2343 46.8115 11.0938 46.9117 10.9148C47.0119 10.7358 47.062 10.5318 47.062 10.3027V6.79395ZM49.0976 13.8383V8.16846H50.0534V8.85035H50.1097C50.1598 8.75012 50.2305 8.64363 50.3218 8.53088C50.4131 8.41634 50.5366 8.3188 50.6923 8.23826C50.848 8.15593 51.0467 8.11477 51.2883 8.11477C51.6068 8.11477 51.8941 8.1962 52.15 8.35907C52.4077 8.52014 52.6118 8.75907 52.7621 9.07585C52.9142 9.39084 52.9903 9.77742 52.9903 10.2356C52.9903 10.6884 52.916 11.0732 52.7675 11.39C52.6189 11.7068 52.4167 11.9484 52.1608 12.1148C51.9048 12.2813 51.6149 12.3645 51.2909 12.3645C51.0547 12.3645 50.8587 12.3251 50.703 12.2464C50.5473 12.1676 50.422 12.0728 50.3272 11.9618C50.2341 11.849 50.1616 11.7425 50.1097 11.6423H50.0695V13.8383H49.0976ZM50.0507 10.2302C50.0507 10.4969 50.0883 10.7305 50.1634 10.9309C50.2404 11.1314 50.3504 11.288 50.4936 11.4007C50.6386 11.5117 50.814 11.5672 51.0198 11.5672C51.2346 11.5672 51.4144 11.5099 51.5594 11.3953C51.7044 11.279 51.8136 11.1206 51.8869 10.9202C51.9621 10.7179 51.9997 10.4879 51.9997 10.2302C51.9997 9.9743 51.963 9.747 51.8896 9.54834C51.8162 9.34968 51.7071 9.19397 51.5621 9.08122C51.4171 8.96847 51.2364 8.91209 51.0198 8.91209C50.8122 8.91209 50.6359 8.96668 50.4909 9.07585C50.346 9.18503 50.2359 9.33805 50.1607 9.53492C50.0874 9.73179 50.0507 9.96356 50.0507 10.2302ZM55.3527 12.3645C55.0288 12.3645 54.7389 12.2813 54.4829 12.1148C54.227 11.9484 54.0248 11.7068 53.8762 11.39C53.7277 11.0732 53.6534 10.6884 53.6534 10.2356C53.6534 9.77742 53.7286 9.39084 53.8789 9.07585C54.031 8.75907 54.2359 8.52014 54.4937 8.35907C54.7514 8.1962 55.0386 8.11477 55.3554 8.11477C55.597 8.11477 55.7957 8.15593 55.9514 8.23826C56.1071 8.3188 56.2306 8.41634 56.3219 8.53088C56.4131 8.64363 56.4838 8.75012 56.534 8.85035H56.5742V6.79395H57.5487V12.292H56.593V11.6423H56.534C56.4838 11.7425 56.4114 11.849 56.3165 11.9618C56.2216 12.0728 56.0964 12.1676 55.9407 12.2464C55.785 12.3251 55.589 12.3645 55.3527 12.3645ZM55.6239 11.5672C55.8297 11.5672 56.0051 11.5117 56.1501 11.4007C56.295 11.288 56.4051 11.1314 56.4803 10.9309C56.5554 10.7305 56.593 10.4969 56.593 10.2302C56.593 9.96356 56.5554 9.73179 56.4803 9.53492C56.4069 9.33805 56.2977 9.18503 56.1527 9.07585C56.0096 8.96668 55.8333 8.91209 55.6239 8.91209C55.4073 8.91209 55.2266 8.96847 55.0816 9.08122C54.9366 9.19397 54.8275 9.34968 54.7541 9.54834C54.6807 9.747 54.644 9.9743 54.644 10.2302C54.644 10.4879 54.6807 10.7179 54.7541 10.9202C54.8292 11.1206 54.9393 11.279 55.0843 11.3953C55.231 11.5099 55.4109 11.5672 55.6239 11.5672ZM59.7709 12.3752C59.5096 12.3752 59.2743 12.3287 59.0649 12.2356C58.8572 12.1408 58.6926 12.0012 58.5709 11.8168C58.451 11.6325 58.391 11.4052 58.391 11.1349C58.391 10.9023 58.434 10.7099 58.5199 10.5577C58.6058 10.4056 58.723 10.2839 58.8716 10.1926C59.0201 10.1014 59.1875 10.0325 59.3736 9.98593C59.5615 9.93761 59.7557 9.90271 59.9561 9.88123C60.1978 9.85617 60.3937 9.8338 60.5441 9.81411C60.6944 9.79264 60.8036 9.76042 60.8716 9.71747C60.9414 9.67273 60.9763 9.60382 60.9763 9.51076V9.49465C60.9763 9.29241 60.9163 9.13581 60.7964 9.02484C60.6765 8.91388 60.5038 8.8584 60.2783 8.8584C60.0403 8.8584 59.8514 8.9103 59.7118 9.01411C59.574 9.11791 59.481 9.24051 59.4326 9.3819L58.5253 9.25303C58.5968 9.00247 58.715 8.79307 58.8796 8.62484C59.0443 8.45482 59.2456 8.32775 59.4837 8.24363C59.7217 8.15772 59.9848 8.11477 60.2729 8.11477C60.4716 8.11477 60.6693 8.13803 60.8662 8.18457C61.0631 8.2311 61.243 8.30806 61.4058 8.41544C61.5687 8.52104 61.6993 8.66511 61.7978 8.84766C61.898 9.03021 61.9481 9.2584 61.9481 9.53223V12.292H61.0139V11.7255H60.9817C60.9226 11.8401 60.8394 11.9475 60.732 12.0477C60.6264 12.1461 60.4931 12.2258 60.332 12.2866C60.1727 12.3457 59.9857 12.3752 59.7709 12.3752ZM60.0233 11.6611C60.2183 11.6611 60.3875 11.6226 60.5306 11.5457C60.6738 11.4669 60.7839 11.3631 60.8608 11.2343C60.9396 11.1054 60.979 10.9649 60.979 10.8128V10.3269C60.9485 10.3519 60.8966 10.3752 60.8233 10.3967C60.7517 10.4181 60.6711 10.4369 60.5816 10.453C60.4922 10.4692 60.4036 10.4835 60.3159 10.496C60.2282 10.5085 60.1521 10.5193 60.0877 10.5282C59.9427 10.5479 59.813 10.5801 59.6984 10.6249C59.5839 10.6696 59.4935 10.7322 59.4273 10.8128C59.3611 10.8915 59.3279 10.9935 59.3279 11.1188C59.3279 11.2978 59.3933 11.4329 59.5239 11.5242C59.6546 11.6155 59.821 11.6611 60.0233 11.6611ZM64.9844 8.16846V8.92015H62.6139V8.16846H64.9844ZM63.1991 7.18053H64.1709V11.0517C64.1709 11.1824 64.1906 11.2826 64.23 11.3524C64.2712 11.4204 64.3249 11.4669 64.3911 11.492C64.4573 11.517 64.5307 11.5296 64.6112 11.5296C64.6721 11.5296 64.7276 11.5251 64.7777 11.5161C64.8296 11.5072 64.8689 11.4991 64.8958 11.492L65.0595 12.2517C65.0076 12.2696 64.9334 12.2893 64.8367 12.3108C64.7419 12.3323 64.6255 12.3448 64.4877 12.3484C64.2443 12.3555 64.0251 12.3188 63.83 12.2383C63.6349 12.156 63.4801 12.0289 63.3656 11.8571C63.2528 11.6853 63.1973 11.4705 63.1991 11.2128V7.18053ZM67.5784 12.3725C67.1649 12.3725 66.8079 12.2866 66.5072 12.1148C66.2083 11.9412 65.9783 11.696 65.8173 11.3792C65.6562 11.0607 65.5757 10.6857 65.5757 10.2544C65.5757 9.83022 65.6562 9.45796 65.8173 9.1376C65.9801 8.81545 66.2074 8.56488 66.4992 8.38591C66.7909 8.20515 67.1336 8.11477 67.5274 8.11477C67.7815 8.11477 68.0213 8.15593 68.2468 8.23826C68.4741 8.3188 68.6746 8.44408 68.8482 8.6141C69.0236 8.78413 69.1614 9.00068 69.2616 9.26377C69.3618 9.52507 69.4119 9.83649 69.4119 10.198V10.496H66.032V9.84096H68.4804C68.4786 9.65483 68.4383 9.48928 68.3596 9.34431C68.2808 9.19755 68.1708 9.08212 68.0294 8.998C67.8898 8.91388 67.7269 8.87182 67.5408 8.87182C67.3421 8.87182 67.1676 8.92015 67.0173 9.01679C66.8669 9.11165 66.7497 9.23693 66.6656 9.39263C66.5833 9.54655 66.5412 9.71568 66.5394 9.90002V10.4718C66.5394 10.7117 66.5833 10.9175 66.671 11.0893C66.7587 11.2593 66.8813 11.39 67.0388 11.4812C67.1963 11.5707 67.3806 11.6155 67.5918 11.6155C67.7332 11.6155 67.8611 11.5958 67.9757 11.5564C68.0902 11.5153 68.1896 11.4553 68.2737 11.3765C68.3578 11.2978 68.4213 11.2003 68.4643 11.0839L69.3717 11.1859C69.3144 11.4258 69.2052 11.6352 69.0442 11.8141C68.8849 11.9913 68.6808 12.1291 68.4321 12.2276C68.1833 12.3242 67.8987 12.3725 67.5784 12.3725Z" fill="black"/>
<line x1="8.16636" y1="9.73965" x2="15.6471" y2="9.73965" stroke="black" stroke-width="1.21309" stroke-linecap="round"/>
<line x1="12.0078" y1="13.3793" x2="12.0078" y2="5.8986" stroke="black" stroke-width="1.21309" stroke-linecap="round"/>
</svg>
