<svg width="398" height="306" viewBox="0 0 398 306" fill="none" xmlns="http://www.w3.org/2000/svg">
<g filter="url(#filter0_d_110_50)">
<rect x="2" y="3" width="359.18" height="268" rx="37" fill="white"/>
</g>
<rect x="2" y="3" width="359.18" height="268" rx="37" fill="url(#paint0_linear_110_50)"/>
<rect x="2" y="3" width="359.18" height="268" rx="37" fill="url(#paint1_radial_110_50)"/>
<mask id="mask0_110_50" style="mask-type:alpha" maskUnits="userSpaceOnUse" x="2" y="3" width="360" height="268">
<rect x="2" y="3" width="359.18" height="268" rx="37" fill="white"/>
</mask>
<g mask="url(#mask0_110_50)">
<path d="M187.81 78.799L169.346 48.146L75.9084 17L-17.5296 48.146L-35.819 78.4897C-40.4106 86.1457 -41.2613 95.329 -38.168 103.691C-35.1713 111.801 -28.8493 118.075 -20.768 121.023L-20.8453 216.182L75.8214 248.401L172.488 216.182L172.565 121.023C180.743 118.162 187.133 111.878 190.149 103.739C193.213 95.4547 192.363 86.368 187.81 78.7797V78.799ZM132.352 56.1983L75.9857 75.0097L19.6001 56.15L75.9084 37.3773L132.352 56.1983ZM-19.2503 88.456L-6.76096 67.721L61.3697 90.5053L46.5894 115.146C44.2791 118.993 39.4844 120.762 35.2504 119.341L-13.866 102.975C-16.737 102.018 -18.9893 99.8433 -20.043 97.0013C-21.087 94.169 -20.8066 91.037 -19.2503 88.456ZM-1.43462 127.49L29.1411 137.679C42.1234 142.009 56.1304 136.828 63.1774 125.093L66.2321 120.008L66.1837 224.824L-1.48296 202.271L-1.42495 127.5L-1.43462 127.49ZM85.5074 224.814L85.5557 119.94L88.6394 125.083C94.0141 134.054 103.449 139.187 113.396 139.187C116.479 139.187 119.611 138.694 122.676 137.669L153.232 127.49L153.174 202.252L85.5074 224.814ZM172.024 97.0593C171.009 99.8143 168.824 101.922 166.04 102.85L116.566 119.341C112.332 120.762 107.538 119.003 105.227 115.146L90.4761 90.5633L158.636 67.8177L171.251 88.7653C172.759 91.2787 173.049 94.3043 172.024 97.0593Z" fill="url(#paint2_linear_110_50)"/>
</g>
<path d="M117.767 201.091V236H111.443V201.091H117.767ZM130.513 220.659V236H124.342V209.818H130.24V214.267H130.547C131.149 212.801 132.109 211.636 133.428 210.773C134.757 209.909 136.399 209.477 138.354 209.477C140.161 209.477 141.734 209.864 143.075 210.636C144.428 211.409 145.473 212.528 146.212 213.994C146.962 215.46 147.331 217.239 147.32 219.33V236H141.149V220.284C141.149 218.534 140.695 217.165 139.786 216.176C138.888 215.187 137.643 214.693 136.053 214.693C134.973 214.693 134.013 214.932 133.172 215.409C132.342 215.875 131.689 216.551 131.212 217.438C130.746 218.324 130.513 219.398 130.513 220.659ZM176.041 209.818L166.717 236H159.899L150.575 209.818H157.155L163.172 229.267H163.445L169.479 209.818H176.041ZM191.011 236.511C188.386 236.511 186.119 235.966 184.21 234.875C182.313 233.773 180.852 232.216 179.83 230.205C178.807 228.182 178.295 225.801 178.295 223.062C178.295 220.369 178.807 218.006 179.83 215.972C180.864 213.926 182.307 212.335 184.159 211.199C186.011 210.051 188.188 209.477 190.688 209.477C192.301 209.477 193.824 209.739 195.256 210.261C196.699 210.773 197.972 211.568 199.074 212.648C200.188 213.727 201.063 215.102 201.699 216.773C202.335 218.432 202.653 220.409 202.653 222.705V224.597H181.193V220.438H196.739C196.727 219.256 196.472 218.205 195.972 217.284C195.472 216.352 194.773 215.619 193.875 215.085C192.989 214.551 191.955 214.284 190.773 214.284C189.511 214.284 188.403 214.591 187.449 215.205C186.494 215.807 185.75 216.602 185.216 217.591C184.693 218.568 184.426 219.642 184.415 220.812V224.443C184.415 225.966 184.693 227.273 185.25 228.364C185.807 229.443 186.585 230.273 187.585 230.852C188.585 231.42 189.756 231.705 191.097 231.705C191.994 231.705 192.807 231.58 193.534 231.33C194.261 231.068 194.892 230.688 195.426 230.188C195.96 229.688 196.364 229.068 196.636 228.33L202.398 228.977C202.034 230.5 201.341 231.83 200.318 232.966C199.307 234.091 198.011 234.966 196.432 235.591C194.852 236.205 193.045 236.511 191.011 236.511ZM214.044 220.659V236H207.874V209.818H213.771V214.267H214.078C214.68 212.801 215.641 211.636 216.959 210.773C218.288 209.909 219.93 209.477 221.885 209.477C223.692 209.477 225.266 209.864 226.607 210.636C227.959 211.409 229.004 212.528 229.743 213.994C230.493 215.46 230.862 217.239 230.851 219.33V236H224.68V220.284C224.68 218.534 224.226 217.165 223.317 216.176C222.419 215.187 221.175 214.693 219.584 214.693C218.504 214.693 217.544 214.932 216.703 215.409C215.874 215.875 215.22 216.551 214.743 217.438C214.277 218.324 214.044 219.398 214.044 220.659ZM250.197 209.818V214.591H235.146V209.818H250.197ZM238.862 203.545H245.033V228.125C245.033 228.955 245.158 229.591 245.408 230.034C245.669 230.466 246.01 230.761 246.43 230.92C246.851 231.08 247.317 231.159 247.828 231.159C248.214 231.159 248.567 231.131 248.885 231.074C249.214 231.017 249.464 230.966 249.635 230.92L250.675 235.744C250.345 235.858 249.874 235.983 249.26 236.119C248.658 236.256 247.919 236.335 247.044 236.358C245.499 236.403 244.107 236.17 242.868 235.659C241.629 235.136 240.646 234.33 239.919 233.239C239.203 232.148 238.851 230.784 238.862 229.148V203.545ZM262.892 236.528C261.233 236.528 259.739 236.233 258.409 235.642C257.091 235.04 256.045 234.153 255.273 232.983C254.511 231.812 254.131 230.369 254.131 228.653C254.131 227.176 254.403 225.955 254.949 224.989C255.494 224.023 256.239 223.25 257.182 222.67C258.125 222.091 259.188 221.653 260.369 221.358C261.563 221.051 262.795 220.83 264.068 220.693C265.602 220.534 266.847 220.392 267.801 220.267C268.756 220.131 269.449 219.926 269.881 219.653C270.324 219.369 270.545 218.932 270.545 218.341V218.239C270.545 216.955 270.165 215.96 269.403 215.256C268.642 214.551 267.545 214.199 266.114 214.199C264.602 214.199 263.403 214.528 262.517 215.188C261.642 215.847 261.051 216.625 260.744 217.523L254.983 216.705C255.438 215.114 256.188 213.784 257.233 212.716C258.278 211.636 259.557 210.83 261.068 210.295C262.58 209.75 264.25 209.477 266.08 209.477C267.341 209.477 268.597 209.625 269.847 209.92C271.097 210.216 272.239 210.705 273.273 211.386C274.307 212.057 275.136 212.972 275.761 214.131C276.398 215.29 276.716 216.739 276.716 218.477V236H270.784V232.403H270.58C270.205 233.131 269.676 233.812 268.994 234.449C268.324 235.074 267.477 235.58 266.455 235.966C265.443 236.341 264.256 236.528 262.892 236.528ZM264.494 231.994C265.733 231.994 266.807 231.75 267.716 231.261C268.625 230.761 269.324 230.102 269.812 229.284C270.312 228.466 270.562 227.574 270.562 226.608V223.523C270.369 223.682 270.04 223.83 269.574 223.966C269.119 224.102 268.608 224.222 268.04 224.324C267.472 224.426 266.909 224.517 266.352 224.597C265.795 224.676 265.313 224.744 264.903 224.801C263.983 224.926 263.159 225.131 262.432 225.415C261.705 225.699 261.131 226.097 260.71 226.608C260.29 227.108 260.08 227.756 260.08 228.551C260.08 229.688 260.494 230.545 261.324 231.125C262.153 231.705 263.21 231.994 264.494 231.994ZM263.983 206.375L267.801 198.585H273.835L268.602 206.375H263.983ZM282.92 236V209.818H288.903V214.182H289.176C289.653 212.67 290.472 211.506 291.631 210.688C292.801 209.858 294.136 209.443 295.636 209.443C295.977 209.443 296.358 209.46 296.778 209.494C297.21 209.517 297.568 209.557 297.852 209.614V215.29C297.591 215.199 297.176 215.119 296.608 215.051C296.051 214.972 295.511 214.932 294.989 214.932C293.864 214.932 292.852 215.176 291.955 215.665C291.068 216.142 290.369 216.807 289.858 217.659C289.347 218.511 289.091 219.494 289.091 220.608V236H282.92ZM301.952 236V209.818H308.122V236H301.952ZM305.054 206.102C304.077 206.102 303.236 205.778 302.531 205.131C301.827 204.472 301.474 203.682 301.474 202.761C301.474 201.83 301.827 201.04 302.531 200.392C303.236 199.733 304.077 199.403 305.054 199.403C306.043 199.403 306.884 199.733 307.577 200.392C308.281 201.04 308.634 201.83 308.634 202.761C308.634 203.682 308.281 204.472 307.577 205.131C306.884 205.778 306.043 206.102 305.054 206.102ZM325.888 236.511C323.331 236.511 321.115 235.949 319.24 234.824C317.365 233.699 315.911 232.125 314.876 230.102C313.854 228.08 313.342 225.716 313.342 223.011C313.342 220.307 313.854 217.937 314.876 215.903C315.911 213.869 317.365 212.29 319.24 211.165C321.115 210.04 323.331 209.477 325.888 209.477C328.445 209.477 330.661 210.04 332.536 211.165C334.411 212.29 335.859 213.869 336.882 215.903C337.916 217.937 338.433 220.307 338.433 223.011C338.433 225.716 337.916 228.08 336.882 230.102C335.859 232.125 334.411 233.699 332.536 234.824C330.661 235.949 328.445 236.511 325.888 236.511ZM325.922 231.568C327.308 231.568 328.467 231.187 329.399 230.426C330.331 229.653 331.024 228.619 331.479 227.324C331.945 226.028 332.178 224.585 332.178 222.994C332.178 221.392 331.945 219.943 331.479 218.648C331.024 217.341 330.331 216.301 329.399 215.528C328.467 214.756 327.308 214.369 325.922 214.369C324.501 214.369 323.32 214.756 322.376 215.528C321.445 216.301 320.746 217.341 320.28 218.648C319.825 219.943 319.598 221.392 319.598 222.994C319.598 224.585 319.825 226.028 320.28 227.324C320.746 228.619 321.445 229.653 322.376 230.426C323.32 231.187 324.501 231.568 325.922 231.568Z" fill="white"/>
<defs>
<filter id="filter0_d_110_50" x="0" y="0" width="397.18" height="306" filterUnits="userSpaceOnUse" color-interpolation-filters="sRGB">
<feFlood flood-opacity="0" result="BackgroundImageFix"/>
<feColorMatrix in="SourceAlpha" type="matrix" values="0 0 0 0 0 0 0 0 0 0 0 0 0 0 0 0 0 0 127 0" result="hardAlpha"/>
<feMorphology radius="3" operator="erode" in="SourceAlpha" result="effect1_dropShadow_110_50"/>
<feOffset dx="17" dy="16"/>
<feGaussianBlur stdDeviation="11"/>
<feComposite in2="hardAlpha" operator="out"/>
<feColorMatrix type="matrix" values="0 0 0 0 0.383337 0 0 0 0 0.322292 0 0 0 0 0.758333 0 0 0 0.16 0"/>
<feBlend mode="normal" in2="BackgroundImageFix" result="effect1_dropShadow_110_50"/>
<feBlend mode="normal" in="SourceGraphic" in2="effect1_dropShadow_110_50" result="shape"/>
</filter>
<linearGradient id="paint0_linear_110_50" x1="-39.5" y1="-43" x2="413" y2="375.5" gradientUnits="userSpaceOnUse">
<stop offset="0.260611" stop-color="#9923F3"/>
<stop offset="0.821079" stop-color="white" stop-opacity="0.85"/>
<stop offset="1" stop-color="white" stop-opacity="0"/>
</linearGradient>
<radialGradient id="paint1_radial_110_50" cx="0" cy="0" r="1" gradientUnits="userSpaceOnUse" gradientTransform="translate(388 298) rotate(-141.052) scale(496.327 665.189)">
<stop offset="0.0697002" stop-color="#EF23F3"/>
<stop offset="1" stop-color="#EF23F3" stop-opacity="0"/>
</radialGradient>
<linearGradient id="paint2_linear_110_50" x1="220.5" y1="0.500002" x2="-87" y2="230" gradientUnits="userSpaceOnUse">
<stop stop-color="white"/>
<stop offset="1" stop-color="white" stop-opacity="0"/>
</linearGradient>
</defs>
</svg>
