<svg width="398" height="306" viewBox="0 0 398 306" fill="none" xmlns="http://www.w3.org/2000/svg">
<g filter="url(#filter0_d_118_85)">
<rect x="2" y="3" width="359.18" height="268" rx="37" fill="white"/>
</g>
<rect x="2" y="3" width="359.18" height="268" rx="37" fill="#5743D2"/>
<rect x="2" y="3" width="359.18" height="268" rx="37" fill="url(#paint0_radial_118_85)"/>
<mask id="mask0_118_85" style="mask-type:alpha" maskUnits="userSpaceOnUse" x="2" y="3" width="360" height="268">
<path d="M2 40C2 19.5655 18.5655 3 39 3H324.18C344.615 3 361.18 19.5655 361.18 40V234C361.18 254.435 344.615 271 324.18 271H39C18.5655 271 2 254.435 2 234V40Z" fill="white"/>
</mask>
<g mask="url(#mask0_118_85)">
<path d="M156.426 47.4198C151.149 43.207 144.964 40.1551 138.311 38.4808C131.658 36.8065 124.701 36.5508 117.933 37.7319L82.0502 43.9515C73.7657 45.4037 66.2331 49.4723 60.663 55.5035C55.0783 49.4619 47.5242 45.3924 39.2195 43.9515L3.39263 37.7319C-3.37506 36.5498 -10.3322 36.8021 -16.9864 38.471C-23.6406 40.14 -29.8292 43.1848 -35.114 47.3898C-40.3988 51.5948 -44.6507 56.8574 -47.5688 62.8049C-50.4868 68.7523 -51.9995 75.2394 -52 81.8069L-52 178.533C-51.9995 189.026 -48.1415 199.186 -41.0986 207.242C-34.0557 215.298 -24.2745 220.739 -13.4599 222.617L45.5567 232.861C55.5458 234.593 65.7802 234.593 75.7692 232.861L134.833 222.617C145.639 220.73 155.409 215.284 162.443 207.229C169.476 199.174 173.327 189.02 173.326 178.533V81.8069C173.33 75.2417 171.818 68.7564 168.897 62.8128C165.976 56.8692 161.718 51.6134 156.426 47.4198ZM51.2744 215.591C50.4858 215.484 49.6971 215.358 48.9085 215.224L-10.0988 204.989C-16.5885 203.862 -22.4579 200.596 -26.6838 195.762C-30.9097 190.927 -33.2238 184.83 -33.2228 178.533V81.8069C-33.2228 74.6763 -30.2554 67.8377 -24.9733 62.7956C-19.6912 57.7536 -12.5271 54.9209 -5.05709 54.9209C-3.35691 54.9248 -1.6604 55.0718 0.0127411 55.3601L35.8771 61.6335C40.1922 62.3872 44.0947 64.5593 46.9072 67.7728C49.7198 70.9863 51.2649 75.0384 51.2744 79.2258V215.591ZM154.549 178.533C154.55 184.83 152.236 190.927 148.01 195.762C143.784 200.596 137.914 203.862 131.425 204.989L72.4175 215.224C71.6288 215.358 70.8402 215.484 70.0516 215.591V79.2258C70.0509 75.0281 71.5937 70.9634 74.4109 67.7402C77.2281 64.5171 81.1411 62.34 85.4676 61.5887L121.341 55.3153C125.404 54.6097 129.579 54.7655 133.572 55.7715C137.565 56.7776 141.276 58.6093 144.445 61.137C147.613 63.6647 150.161 66.8265 151.907 70.3985C153.653 73.9704 154.555 77.8652 154.549 81.8069V178.533Z" fill="url(#paint1_linear_118_85)"/>
</g>
<path d="M60.4432 240V205.091H66.767V234.699H82.142V240H60.4432ZM87.358 240V213.818H93.5284V240H87.358ZM90.4602 210.102C89.483 210.102 88.642 209.778 87.9375 209.131C87.233 208.472 86.8807 207.682 86.8807 206.761C86.8807 205.83 87.233 205.04 87.9375 204.392C88.642 203.733 89.483 203.403 90.4602 203.403C91.4489 203.403 92.2898 203.733 92.983 204.392C93.6875 205.04 94.0398 205.83 94.0398 206.761C94.0398 207.682 93.6875 208.472 92.983 209.131C92.2898 209.778 91.4489 210.102 90.4602 210.102ZM106.044 224.659V240H99.8736V213.818H105.771V218.267H106.078C106.68 216.801 107.641 215.636 108.959 214.773C110.288 213.909 111.93 213.477 113.885 213.477C115.692 213.477 117.266 213.864 118.607 214.636C119.959 215.409 121.004 216.528 121.743 217.994C122.493 219.46 122.862 221.239 122.851 223.33V240H116.68V224.284C116.68 222.534 116.226 221.165 115.317 220.176C114.419 219.187 113.175 218.693 111.584 218.693C110.504 218.693 109.544 218.932 108.703 219.409C107.874 219.875 107.22 220.551 106.743 221.438C106.277 222.324 106.044 223.398 106.044 224.659ZM135.294 224.659V240H129.124V205.091H135.158V218.267H135.464C136.078 216.79 137.027 215.625 138.311 214.773C139.607 213.909 141.254 213.477 143.254 213.477C145.072 213.477 146.658 213.858 148.01 214.619C149.362 215.381 150.408 216.494 151.146 217.96C151.896 219.426 152.271 221.216 152.271 223.33V240H146.101V224.284C146.101 222.523 145.646 221.153 144.737 220.176C143.839 219.187 142.578 218.693 140.953 218.693C139.862 218.693 138.885 218.932 138.021 219.409C137.169 219.875 136.499 220.551 136.01 221.438C135.533 222.324 135.294 223.398 135.294 224.659ZM166.095 240.528C164.436 240.528 162.942 240.233 161.612 239.642C160.294 239.04 159.249 238.153 158.476 236.983C157.714 235.812 157.334 234.369 157.334 232.653C157.334 231.176 157.607 229.955 158.152 228.989C158.697 228.023 159.442 227.25 160.385 226.67C161.328 226.091 162.391 225.653 163.572 225.358C164.766 225.051 165.999 224.83 167.271 224.693C168.805 224.534 170.05 224.392 171.004 224.267C171.959 224.131 172.652 223.926 173.084 223.653C173.527 223.369 173.749 222.932 173.749 222.341V222.239C173.749 220.955 173.368 219.96 172.607 219.256C171.845 218.551 170.749 218.199 169.317 218.199C167.805 218.199 166.607 218.528 165.72 219.188C164.845 219.847 164.254 220.625 163.947 221.523L158.186 220.705C158.641 219.114 159.391 217.784 160.436 216.716C161.482 215.636 162.76 214.83 164.271 214.295C165.783 213.75 167.453 213.477 169.283 213.477C170.544 213.477 171.8 213.625 173.05 213.92C174.3 214.216 175.442 214.705 176.476 215.386C177.51 216.057 178.339 216.972 178.964 218.131C179.601 219.29 179.919 220.739 179.919 222.477V240H173.987V236.403H173.783C173.408 237.131 172.879 237.812 172.197 238.449C171.527 239.074 170.68 239.58 169.658 239.966C168.646 240.341 167.459 240.528 166.095 240.528ZM167.697 235.994C168.936 235.994 170.01 235.75 170.919 235.261C171.828 234.761 172.527 234.102 173.016 233.284C173.516 232.466 173.766 231.574 173.766 230.608V227.523C173.572 227.682 173.243 227.83 172.777 227.966C172.322 228.102 171.811 228.222 171.243 228.324C170.675 228.426 170.112 228.517 169.555 228.597C168.999 228.676 168.516 228.744 168.107 228.801C167.186 228.926 166.362 229.131 165.635 229.415C164.908 229.699 164.334 230.097 163.913 230.608C163.493 231.108 163.283 231.756 163.283 232.551C163.283 233.688 163.697 234.545 164.527 235.125C165.357 235.705 166.413 235.994 167.697 235.994ZM210.132 240H198.303V205.091H210.371C213.837 205.091 216.814 205.79 219.303 207.188C221.803 208.574 223.723 210.568 225.064 213.17C226.405 215.773 227.075 218.886 227.075 222.511C227.075 226.148 226.399 229.273 225.047 231.886C223.706 234.5 221.768 236.506 219.234 237.903C216.712 239.301 213.678 240 210.132 240ZM204.626 234.528H209.825C212.257 234.528 214.286 234.085 215.911 233.199C217.536 232.301 218.757 230.966 219.575 229.193C220.393 227.409 220.803 225.182 220.803 222.511C220.803 219.841 220.393 217.625 219.575 215.864C218.757 214.091 217.547 212.767 215.945 211.892C214.354 211.006 212.376 210.562 210.013 210.562H204.626V234.528ZM232.811 240V213.818H238.982V240H232.811ZM235.913 210.102C234.936 210.102 234.095 209.778 233.391 209.131C232.686 208.472 232.334 207.682 232.334 206.761C232.334 205.83 232.686 205.04 233.391 204.392C234.095 203.733 234.936 203.403 235.913 203.403C236.902 203.403 237.743 203.733 238.436 204.392C239.141 205.04 239.493 205.83 239.493 206.761C239.493 207.682 239.141 208.472 238.436 209.131C237.743 209.778 236.902 210.102 235.913 210.102ZM245.327 240V213.818H251.31V218.182H251.582C252.06 216.67 252.878 215.506 254.037 214.688C255.207 213.858 256.543 213.443 258.043 213.443C258.384 213.443 258.764 213.46 259.185 213.494C259.616 213.517 259.974 213.557 260.259 213.614V219.29C259.997 219.199 259.582 219.119 259.014 219.051C258.457 218.972 257.918 218.932 257.395 218.932C256.27 218.932 255.259 219.176 254.361 219.665C253.474 220.142 252.776 220.807 252.264 221.659C251.753 222.511 251.497 223.494 251.497 224.608V240H245.327ZM274.871 240.511C272.246 240.511 269.979 239.966 268.07 238.875C266.172 237.773 264.712 236.216 263.689 234.205C262.666 232.182 262.155 229.801 262.155 227.062C262.155 224.369 262.666 222.006 263.689 219.972C264.723 217.926 266.166 216.335 268.018 215.199C269.871 214.051 272.047 213.477 274.547 213.477C276.161 213.477 277.683 213.739 279.115 214.261C280.558 214.773 281.831 215.568 282.933 216.648C284.047 217.727 284.922 219.102 285.558 220.773C286.195 222.432 286.513 224.409 286.513 226.705V228.597H265.053V224.438H280.598C280.587 223.256 280.331 222.205 279.831 221.284C279.331 220.352 278.632 219.619 277.734 219.085C276.848 218.551 275.814 218.284 274.632 218.284C273.371 218.284 272.263 218.591 271.308 219.205C270.354 219.807 269.609 220.602 269.075 221.591C268.553 222.568 268.286 223.642 268.274 224.812V228.443C268.274 229.966 268.553 231.273 269.109 232.364C269.666 233.443 270.445 234.273 271.445 234.852C272.445 235.42 273.615 235.705 274.956 235.705C275.854 235.705 276.666 235.58 277.393 235.33C278.121 235.068 278.751 234.688 279.286 234.188C279.82 233.688 280.223 233.068 280.496 232.33L286.257 232.977C285.893 234.5 285.2 235.83 284.178 236.966C283.166 238.091 281.871 238.966 280.291 239.591C278.712 240.205 276.905 240.511 274.871 240.511ZM304.807 213.818V218.591H289.756V213.818H304.807ZM293.472 207.545H299.642V232.125C299.642 232.955 299.767 233.591 300.017 234.034C300.278 234.466 300.619 234.761 301.04 234.92C301.46 235.08 301.926 235.159 302.438 235.159C302.824 235.159 303.176 235.131 303.494 235.074C303.824 235.017 304.074 234.966 304.244 234.92L305.284 239.744C304.955 239.858 304.483 239.983 303.869 240.119C303.267 240.256 302.528 240.335 301.653 240.358C300.108 240.403 298.716 240.17 297.477 239.659C296.239 239.136 295.256 238.33 294.528 237.239C293.813 236.148 293.46 234.784 293.472 233.148V207.545ZM317.501 240.528C315.842 240.528 314.348 240.233 313.018 239.642C311.7 239.04 310.655 238.153 309.882 236.983C309.121 235.812 308.74 234.369 308.74 232.653C308.74 231.176 309.013 229.955 309.558 228.989C310.104 228.023 310.848 227.25 311.791 226.67C312.734 226.091 313.797 225.653 314.979 225.358C316.172 225.051 317.405 224.83 318.678 224.693C320.212 224.534 321.456 224.392 322.411 224.267C323.365 224.131 324.058 223.926 324.49 223.653C324.933 223.369 325.155 222.932 325.155 222.341V222.239C325.155 220.955 324.774 219.96 324.013 219.256C323.251 218.551 322.155 218.199 320.723 218.199C319.212 218.199 318.013 218.528 317.126 219.188C316.251 219.847 315.661 220.625 315.354 221.523L309.592 220.705C310.047 219.114 310.797 217.784 311.842 216.716C312.888 215.636 314.166 214.83 315.678 214.295C317.189 213.75 318.859 213.477 320.689 213.477C321.95 213.477 323.206 213.625 324.456 213.92C325.706 214.216 326.848 214.705 327.882 215.386C328.916 216.057 329.746 216.972 330.371 218.131C331.007 219.29 331.325 220.739 331.325 222.477V240H325.393V236.403H325.189C324.814 237.131 324.286 237.812 323.604 238.449C322.933 239.074 322.087 239.58 321.064 239.966C320.053 240.341 318.865 240.528 317.501 240.528ZM319.104 235.994C320.342 235.994 321.416 235.75 322.325 235.261C323.234 234.761 323.933 234.102 324.422 233.284C324.922 232.466 325.172 231.574 325.172 230.608V227.523C324.979 227.682 324.649 227.83 324.183 227.966C323.729 228.102 323.217 228.222 322.649 228.324C322.081 228.426 321.518 228.517 320.962 228.597C320.405 228.676 319.922 228.744 319.513 228.801C318.592 228.926 317.768 229.131 317.041 229.415C316.314 229.699 315.74 230.097 315.32 230.608C314.899 231.108 314.689 231.756 314.689 232.551C314.689 233.688 315.104 234.545 315.933 235.125C316.763 235.705 317.82 235.994 319.104 235.994Z" fill="white"/>
<g filter="url(#filter1_d_118_85)">
<path d="M171.838 160.562C170.211 161.015 168.492 161.01 166.868 160.547C165.245 160.084 163.781 159.182 162.638 157.939L148.01 140.803L140.128 152.761C139.806 153.25 139.35 153.635 138.815 153.872C138.28 154.108 137.688 154.186 137.11 154.095C136.533 154.004 135.993 153.748 135.557 153.359C135.12 152.97 134.805 152.463 134.649 151.899L122.439 107.811C121.969 106.115 121.999 104.319 122.525 102.64C123.052 100.96 124.052 99.4684 125.406 98.3437C126.76 97.219 128.41 96.5093 130.157 96.2999C131.905 96.0904 133.676 96.3902 135.257 97.1631L174.987 118.516C175.502 118.793 175.927 119.212 176.211 119.723C176.494 120.234 176.625 120.817 176.587 121.4C176.548 121.984 176.343 122.544 175.994 123.014C175.646 123.483 175.17 123.843 174.623 124.05L161.839 128.876L176.176 145.667C177.212 146.823 177.936 148.224 178.281 149.738C178.625 151.252 178.578 152.828 178.143 154.319C177.709 155.81 176.903 157.165 175.799 158.257C174.696 159.35 173.332 160.143 171.838 160.562Z" fill="url(#paint2_linear_118_85)" shape-rendering="crispEdges"/>
</g>
<defs>
<filter id="filter0_d_118_85" x="0" y="0" width="397.18" height="306" filterUnits="userSpaceOnUse" color-interpolation-filters="sRGB">
<feFlood flood-opacity="0" result="BackgroundImageFix"/>
<feColorMatrix in="SourceAlpha" type="matrix" values="0 0 0 0 0 0 0 0 0 0 0 0 0 0 0 0 0 0 127 0" result="hardAlpha"/>
<feMorphology radius="3" operator="erode" in="SourceAlpha" result="effect1_dropShadow_118_85"/>
<feOffset dx="17" dy="16"/>
<feGaussianBlur stdDeviation="11"/>
<feComposite in2="hardAlpha" operator="out"/>
<feColorMatrix type="matrix" values="0 0 0 0 0.383337 0 0 0 0 0.322292 0 0 0 0 0.758333 0 0 0 0.16 0"/>
<feBlend mode="normal" in2="BackgroundImageFix" result="effect1_dropShadow_118_85"/>
<feBlend mode="normal" in="SourceGraphic" in2="effect1_dropShadow_118_85" result="shape"/>
</filter>
<filter id="filter1_d_118_85" x="107.135" y="92.7121" width="77.5375" height="85.8001" filterUnits="userSpaceOnUse" color-interpolation-filters="sRGB">
<feFlood flood-opacity="0" result="BackgroundImageFix"/>
<feColorMatrix in="SourceAlpha" type="matrix" values="0 0 0 0 0 0 0 0 0 0 0 0 0 0 0 0 0 0 127 0" result="hardAlpha"/>
<feOffset dx="-4.40349" dy="7.04559"/>
<feGaussianBlur stdDeviation="5.28419"/>
<feComposite in2="hardAlpha" operator="out"/>
<feColorMatrix type="matrix" values="0 0 0 0 0 0 0 0 0 0 0 0 0 0 0 0 0 0 0.15 0"/>
<feBlend mode="normal" in2="BackgroundImageFix" result="effect1_dropShadow_118_85"/>
<feBlend mode="normal" in="SourceGraphic" in2="effect1_dropShadow_118_85" result="shape"/>
</filter>
<radialGradient id="paint0_radial_118_85" cx="0" cy="0" r="1" gradientUnits="userSpaceOnUse" gradientTransform="translate(311.5 45.5) rotate(143.954) scale(458.847 614.958)">
<stop stop-color="#3AD7EC"/>
<stop offset="1" stop-color="#5743D2" stop-opacity="0"/>
</radialGradient>
<linearGradient id="paint1_linear_118_85" x1="228.5" y1="8.00001" x2="-57.9911" y2="211.83" gradientUnits="userSpaceOnUse">
<stop stop-color="white"/>
<stop offset="1" stop-color="white" stop-opacity="0"/>
</linearGradient>
<linearGradient id="paint2_linear_118_85" x1="160.512" y1="57.8177" x2="-33.6818" y2="305.294" gradientUnits="userSpaceOnUse">
<stop offset="0.166667" stop-color="#F3F3F3"/>
<stop offset="0.760417" stop-color="#F3F3F3" stop-opacity="0"/>
<stop offset="0.9999" stop-color="#F3F3F3" stop-opacity="0.0476355"/>
</linearGradient>
</defs>
</svg>
