<svg width="19" height="21" viewBox="0 0 19 21" fill="none" xmlns="http://www.w3.org/2000/svg">
<path d="M0 2.12951C0 1.85479 0.222709 1.63208 0.497434 1.63208H14.9778C15.2525 1.63208 15.4752 1.85479 15.4752 2.12951V20.0515C15.4752 20.3262 15.2525 20.5489 14.9778 20.5489H0V2.12951Z" fill="#B9B9B9"/>
<path d="M0 2.12951C0 1.85479 0.222709 1.63208 0.497434 1.63208H14.9778C15.2525 1.63208 15.4752 1.85479 15.4752 2.12951V20.0515C15.4752 20.3262 15.2525 20.5489 14.9778 20.5489H0V2.12951Z" fill="url(#paint0_radial_188_53)"/>
<path d="M0 2.12951C0 1.85479 0.222709 1.63208 0.497434 1.63208H14.9778C15.2525 1.63208 15.4752 1.85479 15.4752 2.12951V20.0515C15.4752 20.3262 15.2525 20.5489 14.9778 20.5489H0V2.12951Z" fill="url(#paint1_radial_188_53)"/>
<path d="M0 2.12951C0 1.85479 0.222709 1.63208 0.497434 1.63208H14.9778C15.2525 1.63208 15.4752 1.85479 15.4752 2.12951V20.0515C15.4752 20.3262 15.2525 20.5489 14.9778 20.5489H0V2.12951Z" fill="url(#paint2_radial_188_53)"/>
<path d="M2.8689 0.281879C2.8689 0.126202 2.9951 0 3.15078 0H12.6824V4.16914C12.6824 4.32482 12.5562 4.45102 12.4006 4.45102H3.15078C2.9951 4.45102 2.8689 4.32482 2.8689 4.16914V0.281879Z" fill="url(#paint3_linear_188_53)"/>
<path d="M2.8689 0.281879C2.8689 0.126202 2.9951 0 3.15078 0H12.6824V4.16914C12.6824 4.32482 12.5562 4.45102 12.4006 4.45102H3.15078C2.9951 4.45102 2.8689 4.32482 2.8689 4.16914V0.281879Z" fill="url(#paint4_linear_188_53)"/>
<path d="M19 3.97754L10.6904 13.9053L7.59201 15.2525L8.33938 12.005L16.649 2.07718L19 3.97754Z" fill="white" fill-opacity="0.46"/>
<path d="M19 3.97754L10.6904 13.9053L7.59201 15.2525L8.33938 12.005L16.649 2.07718L19 3.97754Z" fill="url(#paint5_radial_188_53)"/>
<path d="M0 2.12951C0 1.85479 0.222709 1.63208 0.497434 1.63208H14.9778C15.2525 1.63208 15.4752 1.85479 15.4752 2.12951V20.0515C15.4752 20.3262 15.2525 20.5489 14.9778 20.5489H0V2.12951Z" fill="#B9B9B9"/>
<path d="M0 2.12951C0 1.85479 0.222709 1.63208 0.497434 1.63208H14.9778C15.2525 1.63208 15.4752 1.85479 15.4752 2.12951V20.0515C15.4752 20.3262 15.2525 20.5489 14.9778 20.5489H0V2.12951Z" fill="url(#paint6_radial_188_53)"/>
<path d="M0 2.12951C0 1.85479 0.222709 1.63208 0.497434 1.63208H14.9778C15.2525 1.63208 15.4752 1.85479 15.4752 2.12951V20.0515C15.4752 20.3262 15.2525 20.5489 14.9778 20.5489H0V2.12951Z" fill="url(#paint7_radial_188_53)"/>
<path d="M0 2.12951C0 1.85479 0.222709 1.63208 0.497434 1.63208H14.9778C15.2525 1.63208 15.4752 1.85479 15.4752 2.12951V20.0515C15.4752 20.3262 15.2525 20.5489 14.9778 20.5489H0V2.12951Z" fill="url(#paint8_radial_188_53)"/>
<path d="M2.8689 0.281879C2.8689 0.126202 2.9951 0 3.15078 0H12.6824V4.16914C12.6824 4.32482 12.5562 4.45102 12.4006 4.45102H3.15078C2.9951 4.45102 2.8689 4.32482 2.8689 4.16914V0.281879Z" fill="url(#paint9_linear_188_53)"/>
<path d="M2.8689 0.281879C2.8689 0.126202 2.9951 0 3.15078 0H12.6824V4.16914C12.6824 4.32482 12.5562 4.45102 12.4006 4.45102H3.15078C2.9951 4.45102 2.8689 4.32482 2.8689 4.16914V0.281879Z" fill="url(#paint10_linear_188_53)"/>
<path d="M19 3.97754L10.6904 13.9053L7.59201 15.2525L8.33938 12.005L16.649 2.07718L19 3.97754Z" fill="white" fill-opacity="0.46"/>
<path d="M19 3.97754L10.6904 13.9053L7.59201 15.2525L8.33938 12.005L16.649 2.07718L19 3.97754Z" fill="url(#paint11_radial_188_53)"/>
<path d="M0 2.12951C0 1.85479 0.222709 1.63208 0.497434 1.63208H14.9778C15.2525 1.63208 15.4752 1.85479 15.4752 2.12951V20.0515C15.4752 20.3262 15.2525 20.5489 14.9778 20.5489H0V2.12951Z" fill="#B9B9B9"/>
<path d="M0 2.12951C0 1.85479 0.222709 1.63208 0.497434 1.63208H14.9778C15.2525 1.63208 15.4752 1.85479 15.4752 2.12951V20.0515C15.4752 20.3262 15.2525 20.5489 14.9778 20.5489H0V2.12951Z" fill="url(#paint12_radial_188_53)"/>
<path d="M0 2.12951C0 1.85479 0.222709 1.63208 0.497434 1.63208H14.9778C15.2525 1.63208 15.4752 1.85479 15.4752 2.12951V20.0515C15.4752 20.3262 15.2525 20.5489 14.9778 20.5489H0V2.12951Z" fill="url(#paint13_radial_188_53)"/>
<path d="M0 2.12951C0 1.85479 0.222709 1.63208 0.497434 1.63208H14.9778C15.2525 1.63208 15.4752 1.85479 15.4752 2.12951V20.0515C15.4752 20.3262 15.2525 20.5489 14.9778 20.5489H0V2.12951Z" fill="url(#paint14_radial_188_53)"/>
<path d="M2.8689 0.281879C2.8689 0.126202 2.9951 0 3.15078 0H12.6824V4.16914C12.6824 4.32482 12.5562 4.45102 12.4006 4.45102H3.15078C2.9951 4.45102 2.8689 4.32482 2.8689 4.16914V0.281879Z" fill="url(#paint15_linear_188_53)"/>
<path d="M2.8689 0.281879C2.8689 0.126202 2.9951 0 3.15078 0H12.6824V4.16914C12.6824 4.32482 12.5562 4.45102 12.4006 4.45102H3.15078C2.9951 4.45102 2.8689 4.32482 2.8689 4.16914V0.281879Z" fill="url(#paint16_linear_188_53)"/>
<path d="M19 3.97754L10.6904 13.9053L7.59201 15.2525L8.33938 12.005L16.649 2.07718L19 3.97754Z" fill="white" fill-opacity="0.46"/>
<path d="M19 3.97754L10.6904 13.9053L7.59201 15.2525L8.33938 12.005L16.649 2.07718L19 3.97754Z" fill="url(#paint17_radial_188_53)"/>
<path d="M0 2.12951C0 1.85479 0.222709 1.63208 0.497434 1.63208H14.9778C15.2525 1.63208 15.4752 1.85479 15.4752 2.12951V20.0515C15.4752 20.3262 15.2525 20.5489 14.9778 20.5489H0V2.12951Z" fill="#B9B9B9"/>
<path d="M0 2.12951C0 1.85479 0.222709 1.63208 0.497434 1.63208H14.9778C15.2525 1.63208 15.4752 1.85479 15.4752 2.12951V20.0515C15.4752 20.3262 15.2525 20.5489 14.9778 20.5489H0V2.12951Z" fill="url(#paint18_radial_188_53)"/>
<path d="M0 2.12951C0 1.85479 0.222709 1.63208 0.497434 1.63208H14.9778C15.2525 1.63208 15.4752 1.85479 15.4752 2.12951V20.0515C15.4752 20.3262 15.2525 20.5489 14.9778 20.5489H0V2.12951Z" fill="url(#paint19_radial_188_53)"/>
<path d="M0 2.12951C0 1.85479 0.222709 1.63208 0.497434 1.63208H14.9778C15.2525 1.63208 15.4752 1.85479 15.4752 2.12951V20.0515C15.4752 20.3262 15.2525 20.5489 14.9778 20.5489H0V2.12951Z" fill="url(#paint20_radial_188_53)"/>
<path d="M2.8689 0.281879C2.8689 0.126202 2.9951 0 3.15078 0H12.6824V4.16914C12.6824 4.32482 12.5562 4.45102 12.4006 4.45102H3.15078C2.9951 4.45102 2.8689 4.32482 2.8689 4.16914V0.281879Z" fill="url(#paint21_linear_188_53)"/>
<path d="M2.8689 0.281879C2.8689 0.126202 2.9951 0 3.15078 0H12.6824V4.16914C12.6824 4.32482 12.5562 4.45102 12.4006 4.45102H3.15078C2.9951 4.45102 2.8689 4.32482 2.8689 4.16914V0.281879Z" fill="url(#paint22_linear_188_53)"/>
<path d="M19 3.97754L10.6904 13.9053L7.59201 15.2525L8.33938 12.005L16.649 2.07718L19 3.97754Z" fill="white" fill-opacity="0.46"/>
<path d="M19 3.97754L10.6904 13.9053L7.59201 15.2525L8.33938 12.005L16.649 2.07718L19 3.97754Z" fill="url(#paint23_radial_188_53)"/>
<defs>
<radialGradient id="paint0_radial_188_53" cx="0" cy="0" r="1" gradientUnits="userSpaceOnUse" gradientTransform="translate(0.301954 1.33535) rotate(45.9136) scale(23.599 26.038)">
<stop stop-color="#2A6CEE"/>
<stop offset="1" stop-color="white" stop-opacity="0"/>
</radialGradient>
<radialGradient id="paint1_radial_188_53" cx="0" cy="0" r="1" gradientUnits="userSpaceOnUse" gradientTransform="translate(4.45384 21.3279) rotate(-59.3152) scale(18.4168 20.4786)">
<stop stop-color="#B131ED"/>
<stop offset="1" stop-color="#A641D6" stop-opacity="0"/>
</radialGradient>
<radialGradient id="paint2_radial_188_53" cx="0" cy="0" r="1" gradientUnits="userSpaceOnUse" gradientTransform="translate(16.7585 4.2656) rotate(143.705) scale(13.3467 11.8911)">
<stop stop-color="#41D6D6"/>
<stop offset="1" stop-color="#CEAADF" stop-opacity="0"/>
</radialGradient>
<linearGradient id="paint3_linear_188_53" x1="7.77567" y1="0" x2="7.77567" y2="17.9525" gradientUnits="userSpaceOnUse">
<stop stop-color="#F4F4F4"/>
<stop offset="1" stop-color="#F4F4F4" stop-opacity="0.53"/>
</linearGradient>
<linearGradient id="paint4_linear_188_53" x1="7.77567" y1="-2.81898" x2="7.77567" y2="6.26852" gradientUnits="userSpaceOnUse">
<stop stop-color="#95B0E7" stop-opacity="0"/>
<stop offset="1" stop-color="#B5C7EB"/>
</linearGradient>
<radialGradient id="paint5_radial_188_53" cx="0" cy="0" r="1" gradientUnits="userSpaceOnUse" gradientTransform="translate(7.13364 15.6899) rotate(-50.865) scale(18.4567 98.023)">
<stop stop-color="white"/>
<stop offset="1" stop-color="#D9D9D9" stop-opacity="0.33"/>
</radialGradient>
<radialGradient id="paint6_radial_188_53" cx="0" cy="0" r="1" gradientUnits="userSpaceOnUse" gradientTransform="translate(0.301954 1.33535) rotate(45.9136) scale(23.599 26.038)">
<stop stop-color="#2A6CEE"/>
<stop offset="1" stop-color="white" stop-opacity="0"/>
</radialGradient>
<radialGradient id="paint7_radial_188_53" cx="0" cy="0" r="1" gradientUnits="userSpaceOnUse" gradientTransform="translate(4.45384 21.3279) rotate(-59.3152) scale(18.4168 20.4786)">
<stop stop-color="#B131ED"/>
<stop offset="1" stop-color="#A641D6" stop-opacity="0"/>
</radialGradient>
<radialGradient id="paint8_radial_188_53" cx="0" cy="0" r="1" gradientUnits="userSpaceOnUse" gradientTransform="translate(16.7585 4.2656) rotate(143.705) scale(13.3467 11.8911)">
<stop stop-color="#41D6D6"/>
<stop offset="1" stop-color="#CEAADF" stop-opacity="0"/>
</radialGradient>
<linearGradient id="paint9_linear_188_53" x1="7.77567" y1="0" x2="7.77567" y2="17.9525" gradientUnits="userSpaceOnUse">
<stop stop-color="#F4F4F4"/>
<stop offset="1" stop-color="#F4F4F4" stop-opacity="0.53"/>
</linearGradient>
<linearGradient id="paint10_linear_188_53" x1="7.77567" y1="-2.81898" x2="7.77567" y2="6.26852" gradientUnits="userSpaceOnUse">
<stop stop-color="#95B0E7" stop-opacity="0"/>
<stop offset="1" stop-color="#B5C7EB"/>
</linearGradient>
<radialGradient id="paint11_radial_188_53" cx="0" cy="0" r="1" gradientUnits="userSpaceOnUse" gradientTransform="translate(7.13364 15.6899) rotate(-50.865) scale(18.4567 98.023)">
<stop stop-color="white"/>
<stop offset="1" stop-color="#D9D9D9" stop-opacity="0.33"/>
</radialGradient>
<radialGradient id="paint12_radial_188_53" cx="0" cy="0" r="1" gradientUnits="userSpaceOnUse" gradientTransform="translate(0.301954 1.33535) rotate(45.9136) scale(23.599 26.038)">
<stop stop-color="#2A6CEE"/>
<stop offset="1" stop-color="white" stop-opacity="0"/>
</radialGradient>
<radialGradient id="paint13_radial_188_53" cx="0" cy="0" r="1" gradientUnits="userSpaceOnUse" gradientTransform="translate(4.45384 21.3279) rotate(-59.3152) scale(18.4168 20.4786)">
<stop stop-color="#B131ED"/>
<stop offset="1" stop-color="#A641D6" stop-opacity="0"/>
</radialGradient>
<radialGradient id="paint14_radial_188_53" cx="0" cy="0" r="1" gradientUnits="userSpaceOnUse" gradientTransform="translate(16.7585 4.2656) rotate(143.705) scale(13.3467 11.8911)">
<stop stop-color="#41D6D6"/>
<stop offset="1" stop-color="#CEAADF" stop-opacity="0"/>
</radialGradient>
<linearGradient id="paint15_linear_188_53" x1="7.77567" y1="0" x2="7.77567" y2="17.9525" gradientUnits="userSpaceOnUse">
<stop stop-color="#F4F4F4"/>
<stop offset="1" stop-color="#F4F4F4" stop-opacity="0.53"/>
</linearGradient>
<linearGradient id="paint16_linear_188_53" x1="7.77567" y1="-2.81898" x2="7.77567" y2="6.26852" gradientUnits="userSpaceOnUse">
<stop stop-color="#95B0E7" stop-opacity="0"/>
<stop offset="1" stop-color="#B5C7EB"/>
</linearGradient>
<radialGradient id="paint17_radial_188_53" cx="0" cy="0" r="1" gradientUnits="userSpaceOnUse" gradientTransform="translate(7.13364 15.6899) rotate(-50.865) scale(18.4567 98.023)">
<stop stop-color="white"/>
<stop offset="1" stop-color="#D9D9D9" stop-opacity="0.33"/>
</radialGradient>
<radialGradient id="paint18_radial_188_53" cx="0" cy="0" r="1" gradientUnits="userSpaceOnUse" gradientTransform="translate(0.301954 1.33535) rotate(45.9136) scale(23.599 26.038)">
<stop stop-color="#2A6CEE"/>
<stop offset="1" stop-color="white" stop-opacity="0"/>
</radialGradient>
<radialGradient id="paint19_radial_188_53" cx="0" cy="0" r="1" gradientUnits="userSpaceOnUse" gradientTransform="translate(4.45384 21.3279) rotate(-59.3152) scale(18.4168 20.4786)">
<stop stop-color="#B131ED"/>
<stop offset="1" stop-color="#A641D6" stop-opacity="0"/>
</radialGradient>
<radialGradient id="paint20_radial_188_53" cx="0" cy="0" r="1" gradientUnits="userSpaceOnUse" gradientTransform="translate(16.7585 4.2656) rotate(143.705) scale(13.3467 11.8911)">
<stop stop-color="#41D6D6"/>
<stop offset="1" stop-color="#CEAADF" stop-opacity="0"/>
</radialGradient>
<linearGradient id="paint21_linear_188_53" x1="7.77567" y1="0" x2="7.77567" y2="17.9525" gradientUnits="userSpaceOnUse">
<stop stop-color="#F4F4F4"/>
<stop offset="1" stop-color="#F4F4F4" stop-opacity="0.53"/>
</linearGradient>
<linearGradient id="paint22_linear_188_53" x1="7.77567" y1="-2.81898" x2="7.77567" y2="6.26852" gradientUnits="userSpaceOnUse">
<stop stop-color="#95B0E7" stop-opacity="0"/>
<stop offset="1" stop-color="#B5C7EB"/>
</linearGradient>
<radialGradient id="paint23_radial_188_53" cx="0" cy="0" r="1" gradientUnits="userSpaceOnUse" gradientTransform="translate(7.13364 15.6899) rotate(-50.865) scale(18.4567 98.023)">
<stop stop-color="white"/>
<stop offset="1" stop-color="#D9D9D9" stop-opacity="0.33"/>
</radialGradient>
</defs>
</svg>
