<svg width="248" height="93" viewBox="0 0 248 93" fill="none" xmlns="http://www.w3.org/2000/svg">
<g filter="url(#filter0_d_520_105)">
<path d="M222 42.0086C222 53.0496 213.05 62 202.009 62H46.5C35.1782 62 26 52.8218 26 41.5V41.5C26 30.1782 35.1782 21 46.5 21H200.991C212.594 21 222 30.4059 222 42.0086V42.0086Z" fill="white"/>
</g>
<path d="M82.9071 34.8971H86.5843L90.4681 44.3725H90.6334L94.5172 34.8971H98.1944V49H95.3022V39.8207H95.1852L91.5355 48.9311H89.5661L85.9164 39.7863H85.7993V49H82.9071V34.8971ZM103.612 49.1997C102.937 49.1997 102.336 49.0826 101.808 48.8485C101.28 48.6098 100.862 48.2586 100.555 47.7949C100.252 47.3267 100.1 46.7436 100.1 46.0458C100.1 45.4582 100.208 44.9647 100.424 44.5653C100.64 44.1659 100.933 43.8446 101.305 43.6012C101.677 43.3579 102.099 43.1743 102.572 43.0504C103.05 42.9264 103.55 42.8392 104.073 42.7887C104.689 42.7244 105.184 42.6647 105.561 42.6096C105.937 42.55 106.21 42.4627 106.38 42.348C106.55 42.2332 106.635 42.0633 106.635 41.8384V41.7971C106.635 41.3609 106.497 41.0235 106.222 40.7848C105.951 40.5461 105.565 40.4267 105.065 40.4267C104.537 40.4267 104.117 40.5438 103.805 40.7779C103.493 41.0075 103.286 41.2967 103.185 41.6456L100.472 41.4252C100.61 40.7825 100.881 40.227 101.285 39.7588C101.689 39.2859 102.21 38.9232 102.848 38.6708C103.49 38.4137 104.234 38.2851 105.079 38.2851C105.666 38.2851 106.229 38.354 106.766 38.4917C107.308 38.6294 107.787 38.8429 108.205 39.1321C108.628 39.4213 108.96 39.7932 109.204 40.2477C109.447 40.6976 109.569 41.237 109.569 41.8659V49H106.787V47.5332H106.704C106.534 47.8638 106.307 48.1553 106.022 48.4078C105.738 48.6557 105.396 48.8508 104.996 48.9931C104.597 49.1308 104.135 49.1997 103.612 49.1997ZM104.452 47.1752C104.884 47.1752 105.265 47.0902 105.595 46.9204C105.926 46.7459 106.185 46.5118 106.373 46.218C106.562 45.9242 106.656 45.5913 106.656 45.2195V44.097C106.564 44.1567 106.438 44.2118 106.277 44.2623C106.121 44.3082 105.944 44.3518 105.747 44.3932C105.549 44.4299 105.352 44.4643 105.155 44.4964C104.957 44.524 104.778 44.5492 104.617 44.5722C104.273 44.6227 103.972 44.703 103.715 44.8132C103.458 44.9234 103.259 45.0726 103.116 45.2608C102.974 45.4444 102.903 45.674 102.903 45.9494C102.903 46.3488 103.047 46.6541 103.337 46.8653C103.63 47.0719 104.002 47.1752 104.452 47.1752ZM117.471 38.4228V40.6264H111.101V38.4228H117.471ZM112.547 35.8887H115.48V45.7497C115.48 46.0206 115.522 46.2318 115.604 46.3833C115.687 46.5302 115.802 46.6335 115.949 46.6931C116.1 46.7528 116.275 46.7827 116.472 46.7827C116.61 46.7827 116.747 46.7712 116.885 46.7482C117.023 46.7207 117.129 46.7 117.202 46.6862L117.663 48.8692C117.516 48.9151 117.31 48.9679 117.044 49.0275C116.777 49.0918 116.454 49.1308 116.073 49.1446C115.366 49.1722 114.746 49.078 114.213 48.8623C113.685 48.6465 113.275 48.3114 112.981 47.8569C112.687 47.4024 112.542 46.8286 112.547 46.1354V35.8887ZM124.088 49.2066C123 49.2066 122.064 48.9862 121.279 48.5455C120.498 48.1002 119.897 47.4713 119.474 46.6587C119.052 45.8415 118.841 44.8752 118.841 43.7596C118.841 42.6716 119.052 41.7167 119.474 40.895C119.897 40.0732 120.491 39.4328 121.258 38.9737C122.029 38.5147 122.934 38.2851 123.971 38.2851C124.669 38.2851 125.318 38.3976 125.92 38.6225C126.526 38.8429 127.054 39.1757 127.504 39.621C127.958 40.0663 128.312 40.6264 128.564 41.3013C128.817 41.9715 128.943 42.7565 128.943 43.6563V44.462H120.012V42.6441H126.182C126.182 42.2217 126.09 41.8476 125.906 41.5216C125.722 41.1957 125.468 40.9409 125.142 40.7573C124.82 40.569 124.446 40.4749 124.019 40.4749C123.574 40.4749 123.179 40.5782 122.835 40.7848C122.495 40.9868 122.229 41.2599 122.036 41.6043C121.843 41.944 121.745 42.3227 121.74 42.7405V44.4689C121.74 44.9923 121.836 45.4444 122.029 45.8255C122.227 46.2065 122.504 46.5003 122.862 46.7069C123.22 46.9135 123.645 47.0168 124.136 47.0168C124.462 47.0168 124.761 46.9709 125.032 46.8791C125.302 46.7872 125.534 46.6495 125.727 46.4659C125.92 46.2823 126.067 46.0573 126.168 45.791L128.881 45.9701C128.743 46.622 128.461 47.1912 128.034 47.6779C127.612 48.1599 127.065 48.5363 126.395 48.8072C125.729 49.0735 124.96 49.2066 124.088 49.2066ZM130.857 49V38.4228H133.653V40.289H133.777C133.997 39.6692 134.365 39.1803 134.879 38.8222C135.393 38.4642 136.008 38.2851 136.724 38.2851C137.45 38.2851 138.067 38.4665 138.577 38.8291C139.086 39.1872 139.426 39.6738 139.596 40.289H139.706C139.922 39.683 140.312 39.1987 140.877 38.836C141.446 38.4688 142.118 38.2851 142.894 38.2851C143.881 38.2851 144.682 38.5996 145.298 39.2285C145.917 39.8529 146.227 40.7389 146.227 41.8866V49H143.301V42.465C143.301 41.8774 143.144 41.4367 142.832 41.1429C142.52 40.8491 142.13 40.7022 141.662 40.7022C141.129 40.7022 140.714 40.872 140.415 41.2117C140.117 41.5469 139.968 41.9899 139.968 42.5408V49H137.124V42.4031C137.124 41.8843 136.974 41.4711 136.676 41.1635C136.382 40.856 135.994 40.7022 135.512 40.7022C135.186 40.7022 134.893 40.7848 134.631 40.9501C134.374 41.1107 134.169 41.338 134.018 41.6318C133.866 41.921 133.791 42.2607 133.791 42.651V49H130.857ZM151.56 49.1997C150.886 49.1997 150.284 49.0826 149.756 48.8485C149.228 48.6098 148.811 48.2586 148.503 47.7949C148.2 47.3267 148.049 46.7436 148.049 46.0458C148.049 45.4582 148.156 44.9647 148.372 44.5653C148.588 44.1659 148.882 43.8446 149.254 43.6012C149.625 43.3579 150.048 43.1743 150.521 43.0504C150.998 42.9264 151.499 42.8392 152.022 42.7887C152.637 42.7244 153.133 42.6647 153.509 42.6096C153.886 42.55 154.159 42.4627 154.329 42.348C154.499 42.2332 154.584 42.0633 154.584 41.8384V41.7971C154.584 41.3609 154.446 41.0235 154.17 40.7848C153.899 40.5461 153.514 40.4267 153.013 40.4267C152.486 40.4267 152.065 40.5438 151.753 40.7779C151.441 41.0075 151.235 41.2967 151.134 41.6456L148.42 41.4252C148.558 40.7825 148.829 40.227 149.233 39.7588C149.637 39.2859 150.158 38.9232 150.796 38.6708C151.439 38.4137 152.183 38.2851 153.027 38.2851C153.615 38.2851 154.177 38.354 154.714 38.4917C155.256 38.6294 155.736 38.8429 156.154 39.1321C156.576 39.4213 156.909 39.7932 157.152 40.2477C157.395 40.6976 157.517 41.237 157.517 41.8659V49H154.735V47.5332H154.652C154.483 47.8638 154.255 48.1553 153.971 48.4078C153.686 48.6557 153.344 48.8508 152.945 48.9931C152.545 49.1308 152.084 49.1997 151.56 49.1997ZM152.401 47.1752C152.832 47.1752 153.213 47.0902 153.544 46.9204C153.874 46.7459 154.134 46.5118 154.322 46.218C154.51 45.9242 154.604 45.5913 154.604 45.2195V44.097C154.512 44.1567 154.386 44.2118 154.225 44.2623C154.069 44.3082 153.893 44.3518 153.695 44.3932C153.498 44.4299 153.3 44.4643 153.103 44.4964C152.906 44.524 152.727 44.5492 152.566 44.5722C152.222 44.6227 151.921 44.703 151.664 44.8132C151.407 44.9234 151.207 45.0726 151.065 45.2608C150.922 45.4444 150.851 45.674 150.851 45.9494C150.851 46.3488 150.996 46.6541 151.285 46.8653C151.579 47.0719 151.951 47.1752 152.401 47.1752ZM152.084 37.0594L153.544 33.9262H156.257L154.157 37.0594H152.084ZM165.419 38.4228V40.6264H159.049V38.4228H165.419ZM160.495 35.8887H163.429V45.7497C163.429 46.0206 163.47 46.2318 163.553 46.3833C163.635 46.5302 163.75 46.6335 163.897 46.6931C164.049 46.7528 164.223 46.7827 164.42 46.7827C164.558 46.7827 164.696 46.7712 164.834 46.7482C164.971 46.7207 165.077 46.7 165.15 46.6862L165.612 48.8692C165.465 48.9151 165.258 48.9679 164.992 49.0275C164.726 49.0918 164.402 49.1308 164.021 49.1446C163.314 49.1722 162.694 49.078 162.162 48.8623C161.634 48.6465 161.223 48.3114 160.929 47.8569C160.635 47.4024 160.491 46.8286 160.495 46.1354V35.8887ZM167.33 49V38.4228H170.263V49H167.33ZM168.803 37.0594C168.367 37.0594 167.993 36.9148 167.681 36.6256C167.373 36.3317 167.22 35.9806 167.22 35.572C167.22 35.168 167.373 34.8214 167.681 34.5322C167.993 34.2384 168.367 34.0915 168.803 34.0915C169.24 34.0915 169.611 34.2384 169.919 34.5322C170.231 34.8214 170.387 35.168 170.387 35.572C170.387 35.9806 170.231 36.3317 169.919 36.6256C169.611 36.9148 169.24 37.0594 168.803 37.0594ZM177.392 49.2066C176.309 49.2066 175.377 48.977 174.596 48.518C173.821 48.0543 173.224 47.4116 172.806 46.5898C172.393 45.7681 172.186 44.8224 172.186 43.7527C172.186 42.6693 172.395 41.719 172.813 40.9019C173.235 40.0801 173.834 39.4397 174.61 38.9806C175.386 38.517 176.309 38.2851 177.378 38.2851C178.301 38.2851 179.109 38.4527 179.802 38.7878C180.496 39.1229 181.044 39.5935 181.448 40.1995C181.852 40.8055 182.075 41.517 182.116 42.3342H179.348C179.27 41.8063 179.063 41.3816 178.728 41.0603C178.398 40.7343 177.964 40.5713 177.427 40.5713C176.972 40.5713 176.575 40.6953 176.235 40.9432C175.9 41.1865 175.639 41.5423 175.45 42.0105C175.262 42.4788 175.168 43.0458 175.168 43.7114C175.168 44.3863 175.26 44.9601 175.443 45.433C175.632 45.9058 175.896 46.2662 176.235 46.5141C176.575 46.762 176.972 46.8859 177.427 46.8859C177.762 46.8859 178.062 46.8171 178.329 46.6794C178.6 46.5416 178.822 46.3419 178.997 46.0803C179.176 45.814 179.293 45.4949 179.348 45.1231H182.116C182.07 45.9311 181.85 46.6426 181.455 47.2578C181.065 47.8684 180.525 48.3458 179.837 48.6901C179.148 49.0344 178.333 49.2066 177.392 49.2066ZM187.01 49.1997C186.336 49.1997 185.734 49.0826 185.206 48.8485C184.678 48.6098 184.261 48.2586 183.953 47.7949C183.65 47.3267 183.499 46.7436 183.499 46.0458C183.499 45.4582 183.606 44.9647 183.822 44.5653C184.038 44.1659 184.332 43.8446 184.704 43.6012C185.075 43.3579 185.498 43.1743 185.971 43.0504C186.448 42.9264 186.948 42.8392 187.472 42.7887C188.087 42.7244 188.583 42.6647 188.959 42.6096C189.336 42.55 189.609 42.4627 189.779 42.348C189.949 42.2332 190.034 42.0633 190.034 41.8384V41.7971C190.034 41.3609 189.896 41.0235 189.62 40.7848C189.349 40.5461 188.964 40.4267 188.463 40.4267C187.936 40.4267 187.515 40.5438 187.203 40.7779C186.891 41.0075 186.685 41.2967 186.584 41.6456L183.87 41.4252C184.008 40.7825 184.279 40.227 184.683 39.7588C185.087 39.2859 185.608 38.9232 186.246 38.6708C186.889 38.4137 187.633 38.2851 188.477 38.2851C189.065 38.2851 189.627 38.354 190.164 38.4917C190.706 38.6294 191.186 38.8429 191.604 39.1321C192.026 39.4213 192.359 39.7932 192.602 40.2477C192.845 40.6976 192.967 41.237 192.967 41.8659V49H190.185V47.5332H190.102C189.933 47.8638 189.705 48.1553 189.421 48.4078C189.136 48.6557 188.794 48.8508 188.395 48.9931C187.995 49.1308 187.534 49.1997 187.01 49.1997ZM187.851 47.1752C188.282 47.1752 188.663 47.0902 188.994 46.9204C189.324 46.7459 189.584 46.5118 189.772 46.218C189.96 45.9242 190.054 45.5913 190.054 45.2195V44.097C189.962 44.1567 189.836 44.2118 189.675 44.2623C189.519 44.3082 189.343 44.3518 189.145 44.3932C188.948 44.4299 188.75 44.4643 188.553 44.4964C188.356 44.524 188.177 44.5492 188.016 44.5722C187.672 44.6227 187.371 44.703 187.114 44.8132C186.857 44.9234 186.657 45.0726 186.515 45.2608C186.372 45.4444 186.301 45.674 186.301 45.9494C186.301 46.3488 186.446 46.6541 186.735 46.8653C187.029 47.0719 187.401 47.1752 187.851 47.1752Z" fill="black"/>
<line x1="50.6842" y1="42.2553" x2="69.8145" y2="42.2553" stroke="black" stroke-width="3.36835" stroke-linecap="round"/>
<circle cx="60.129" cy="34.6766" r="2.82701" fill="black"/>
<circle cx="60.129" cy="49.8338" r="2.82701" fill="black"/>
<defs>
<filter id="filter0_d_520_105" x="0.615385" y="0.692308" width="246.769" height="91.7692" filterUnits="userSpaceOnUse" color-interpolation-filters="sRGB">
<feFlood flood-opacity="0" result="BackgroundImageFix"/>
<feColorMatrix in="SourceAlpha" type="matrix" values="0 0 0 0 0 0 0 0 0 0 0 0 0 0 0 0 0 0 127 0" result="hardAlpha"/>
<feOffset dy="5.07692"/>
<feGaussianBlur stdDeviation="12.6923"/>
<feComposite in2="hardAlpha" operator="out"/>
<feColorMatrix type="matrix" values="0 0 0 0 0.384314 0 0 0 0 0.321569 0 0 0 0 0.756863 0 0 0 0.25 0"/>
<feBlend mode="normal" in2="BackgroundImageFix" result="effect1_dropShadow_520_105"/>
<feBlend mode="normal" in="SourceGraphic" in2="effect1_dropShadow_520_105" result="shape"/>
</filter>
</defs>
</svg>
