<svg width="160" height="43" viewBox="0 0 160 43" fill="none" xmlns="http://www.w3.org/2000/svg">
<g clip-path="url(#clip0_289_82)">
<line x1="110.245" y1="34.1812" x2="110.245" y2="12.4314" stroke="black" stroke-width="3.72036"/>
<path d="M136.266 14.5778H125.067C123.638 14.5778 122.305 15.2719 121.521 16.4246L121.423 16.5687C120.222 18.3325 120.449 20.6643 121.968 22.1817C123.054 23.2662 124.55 23.8786 126.112 23.8786H129.665C130.867 23.8786 132.032 24.2781 132.965 25.0099C134.778 26.432 135.03 29.0134 133.524 30.737L133.452 30.8189C132.699 31.6806 131.59 32.1779 130.422 32.1779H118.776" stroke="black" stroke-width="3.72036"/>
<path d="M85.8697 34.1812V32.321M85.8697 32.321V12.4314M85.8697 32.321H84.2393M85.8697 32.321H101.73" stroke="black" stroke-width="3.72036"/>
<path d="M150.792 34.1812V12.4314M142.046 14.2916H159.537" stroke="black" stroke-width="3.72036"/>
<path d="M60.9681 34.1812V12.4314M60.8101 24.9955L76.172 13.2621M64.0946 22.709L77.1383 32.7254" stroke="black" stroke-width="3.72036"/>
<path d="M9.89355 8.0722C9.89355 5.50019 11.9786 3.41516 14.5506 3.41516H38.2012C40.7732 3.41516 42.8583 5.50019 42.8583 8.0722V38.3429C42.8583 40.915 40.7732 43 38.2012 43H9.89355V8.0722Z" fill="#B9B9B9"/>
<path d="M9.89355 8.0722C9.89355 5.50019 11.9786 3.41516 14.5506 3.41516H38.2012C40.7732 3.41516 42.8583 5.50019 42.8583 8.0722V38.3429C42.8583 40.915 40.7732 43 38.2012 43H9.89355V8.0722Z" fill="url(#paint0_radial_289_82)"/>
<path d="M9.89355 8.0722C9.89355 5.50019 11.9786 3.41516 14.5506 3.41516H38.2012C40.7732 3.41516 42.8583 5.50019 42.8583 8.0722V38.3429C42.8583 40.915 40.7732 43 38.2012 43H9.89355V8.0722Z" fill="url(#paint1_radial_289_82)"/>
<path d="M9.89355 8.0722C9.89355 5.50019 11.9786 3.41516 14.5506 3.41516H38.2012C40.7732 3.41516 42.8583 5.50019 42.8583 8.0722V38.3429C42.8583 40.915 40.7732 43 38.2012 43H9.89355V8.0722Z" fill="url(#paint2_radial_289_82)"/>
<path d="M16.0044 2.63899C16.0044 1.18151 17.1859 0 18.6434 0H36.9088V6.67509C36.9088 8.13256 35.7273 9.31408 34.2699 9.31408H18.6434C17.1859 9.31408 16.0044 8.13256 16.0044 6.67509V2.63899Z" fill="url(#paint3_linear_289_82)"/>
<path d="M16.0044 2.63899C16.0044 1.18151 17.1859 0 18.6434 0H36.9088V6.67509C36.9088 8.13256 35.7273 9.31408 34.2699 9.31408H18.6434C17.1859 9.31408 16.0044 8.13256 16.0044 6.67509V2.63899Z" fill="url(#paint4_linear_289_82)"/>
<path d="M50.3672 8.32324L32.6664 29.0979L26.0663 31.9169L27.6583 25.1212L45.3591 4.34661L50.3672 8.32324Z" fill="white" fill-opacity="0.46"/>
<path d="M50.3672 8.32324L32.6664 29.0979L26.0663 31.9169L27.6583 25.1212L45.3591 4.34661L50.3672 8.32324Z" fill="url(#paint5_radial_289_82)"/>
<path d="M9.89355 8.0722C9.89355 5.50019 11.9786 3.41516 14.5506 3.41516H38.2012C40.7732 3.41516 42.8583 5.50019 42.8583 8.0722V38.3429C42.8583 40.915 40.7732 43 38.2012 43H9.89355V8.0722Z" fill="#B9B9B9"/>
<path d="M9.89355 8.0722C9.89355 5.50019 11.9786 3.41516 14.5506 3.41516H38.2012C40.7732 3.41516 42.8583 5.50019 42.8583 8.0722V38.3429C42.8583 40.915 40.7732 43 38.2012 43H9.89355V8.0722Z" fill="url(#paint6_radial_289_82)"/>
<path d="M9.89355 8.0722C9.89355 5.50019 11.9786 3.41516 14.5506 3.41516H38.2012C40.7732 3.41516 42.8583 5.50019 42.8583 8.0722V38.3429C42.8583 40.915 40.7732 43 38.2012 43H9.89355V8.0722Z" fill="url(#paint7_radial_289_82)"/>
<path d="M9.89355 8.0722C9.89355 5.50019 11.9786 3.41516 14.5506 3.41516H38.2012C40.7732 3.41516 42.8583 5.50019 42.8583 8.0722V38.3429C42.8583 40.915 40.7732 43 38.2012 43H9.89355V8.0722Z" fill="url(#paint8_radial_289_82)"/>
<path d="M16.0044 2.63899C16.0044 1.18151 17.1859 0 18.6434 0H36.9088V6.67509C36.9088 8.13256 35.7273 9.31408 34.2699 9.31408H18.6434C17.1859 9.31408 16.0044 8.13256 16.0044 6.67509V2.63899Z" fill="url(#paint9_linear_289_82)"/>
<path d="M16.0044 2.63899C16.0044 1.18151 17.1859 0 18.6434 0H36.9088V6.67509C36.9088 8.13256 35.7273 9.31408 34.2699 9.31408H18.6434C17.1859 9.31408 16.0044 8.13256 16.0044 6.67509V2.63899Z" fill="url(#paint10_linear_289_82)"/>
<path d="M50.3672 8.32324L32.6664 29.0979L26.0663 31.9169L27.6583 25.1212L45.3591 4.34661L50.3672 8.32324Z" fill="white" fill-opacity="0.46"/>
<path d="M50.3672 8.32324L32.6664 29.0979L26.0663 31.9169L27.6583 25.1212L45.3591 4.34661L50.3672 8.32324Z" fill="url(#paint11_radial_289_82)"/>
<path d="M9.89355 8.0722C9.89355 5.50019 11.9786 3.41516 14.5506 3.41516H38.2012C40.7732 3.41516 42.8583 5.50019 42.8583 8.0722V38.3429C42.8583 40.915 40.7732 43 38.2012 43H9.89355V8.0722Z" fill="#B9B9B9"/>
<path d="M9.89355 8.0722C9.89355 5.50019 11.9786 3.41516 14.5506 3.41516H38.2012C40.7732 3.41516 42.8583 5.50019 42.8583 8.0722V38.3429C42.8583 40.915 40.7732 43 38.2012 43H9.89355V8.0722Z" fill="url(#paint12_radial_289_82)"/>
<path d="M9.89355 8.0722C9.89355 5.50019 11.9786 3.41516 14.5506 3.41516H38.2012C40.7732 3.41516 42.8583 5.50019 42.8583 8.0722V38.3429C42.8583 40.915 40.7732 43 38.2012 43H9.89355V8.0722Z" fill="url(#paint13_radial_289_82)"/>
<path d="M9.89355 8.0722C9.89355 5.50019 11.9786 3.41516 14.5506 3.41516H38.2012C40.7732 3.41516 42.8583 5.50019 42.8583 8.0722V38.3429C42.8583 40.915 40.7732 43 38.2012 43H9.89355V8.0722Z" fill="url(#paint14_radial_289_82)"/>
<path d="M16.0044 2.63899C16.0044 1.18151 17.1859 0 18.6434 0H36.9088V6.67509C36.9088 8.13256 35.7273 9.31408 34.2699 9.31408H18.6434C17.1859 9.31408 16.0044 8.13256 16.0044 6.67509V2.63899Z" fill="url(#paint15_linear_289_82)"/>
<path d="M16.0044 2.63899C16.0044 1.18151 17.1859 0 18.6434 0H36.9088V6.67509C36.9088 8.13256 35.7273 9.31408 34.2699 9.31408H18.6434C17.1859 9.31408 16.0044 8.13256 16.0044 6.67509V2.63899Z" fill="url(#paint16_linear_289_82)"/>
<path d="M50.3672 8.32324L32.6664 29.0979L26.0663 31.9169L27.6583 25.1212L45.3591 4.34661L50.3672 8.32324Z" fill="white" fill-opacity="0.46"/>
<path d="M50.3672 8.32324L32.6664 29.0979L26.0663 31.9169L27.6583 25.1212L45.3591 4.34661L50.3672 8.32324Z" fill="url(#paint17_radial_289_82)"/>
</g>
<defs>
<radialGradient id="paint0_radial_289_82" cx="0" cy="0" r="1" gradientUnits="userSpaceOnUse" gradientTransform="translate(10.5368 2.79422) rotate(45.4037) scale(49.814 54.9849)">
<stop stop-color="#2A6CEE"/>
<stop offset="1" stop-color="white" stop-opacity="0"/>
</radialGradient>
<radialGradient id="paint1_radial_289_82" cx="0" cy="0" r="1" gradientUnits="userSpaceOnUse" gradientTransform="translate(19.381 44.6299) rotate(-58.8656) scale(38.7199 43.4184)">
<stop stop-color="#B131ED"/>
<stop offset="1" stop-color="#A641D6" stop-opacity="0"/>
</radialGradient>
<radialGradient id="paint2_radial_289_82" cx="0" cy="0" r="1" gradientUnits="userSpaceOnUse" gradientTransform="translate(45.5919 8.92599) rotate(144.19) scale(28.2559 25.0369)">
<stop stop-color="#41D6D6"/>
<stop offset="1" stop-color="#CEAADF" stop-opacity="0"/>
</radialGradient>
<linearGradient id="paint3_linear_289_82" x1="26.4566" y1="0" x2="26.4566" y2="37.5668" gradientUnits="userSpaceOnUse">
<stop stop-color="#F4F4F4"/>
<stop offset="1" stop-color="#F4F4F4" stop-opacity="0.53"/>
</linearGradient>
<linearGradient id="paint4_linear_289_82" x1="26.4566" y1="-5.89891" x2="26.4566" y2="13.1173" gradientUnits="userSpaceOnUse">
<stop stop-color="#95B0E7" stop-opacity="0"/>
<stop offset="1" stop-color="#B5C7EB"/>
</linearGradient>
<radialGradient id="paint5_radial_289_82" cx="0" cy="0" r="1" gradientUnits="userSpaceOnUse" gradientTransform="translate(25.0899 32.8322) rotate(-50.3647) scale(38.8998 207.314)">
<stop stop-color="white"/>
<stop offset="1" stop-color="#D9D9D9" stop-opacity="0.33"/>
</radialGradient>
<radialGradient id="paint6_radial_289_82" cx="0" cy="0" r="1" gradientUnits="userSpaceOnUse" gradientTransform="translate(10.5368 2.79422) rotate(45.4037) scale(49.814 54.9849)">
<stop stop-color="#2A6CEE"/>
<stop offset="1" stop-color="white" stop-opacity="0"/>
</radialGradient>
<radialGradient id="paint7_radial_289_82" cx="0" cy="0" r="1" gradientUnits="userSpaceOnUse" gradientTransform="translate(19.381 44.6299) rotate(-58.8656) scale(38.7199 43.4184)">
<stop stop-color="#B131ED"/>
<stop offset="1" stop-color="#A641D6" stop-opacity="0"/>
</radialGradient>
<radialGradient id="paint8_radial_289_82" cx="0" cy="0" r="1" gradientUnits="userSpaceOnUse" gradientTransform="translate(45.5919 8.92599) rotate(144.19) scale(28.2559 25.0369)">
<stop stop-color="#41D6D6"/>
<stop offset="1" stop-color="#CEAADF" stop-opacity="0"/>
</radialGradient>
<linearGradient id="paint9_linear_289_82" x1="26.4566" y1="0" x2="26.4566" y2="37.5668" gradientUnits="userSpaceOnUse">
<stop stop-color="#F4F4F4"/>
<stop offset="1" stop-color="#F4F4F4" stop-opacity="0.53"/>
</linearGradient>
<linearGradient id="paint10_linear_289_82" x1="26.4566" y1="-5.89891" x2="26.4566" y2="13.1173" gradientUnits="userSpaceOnUse">
<stop stop-color="#95B0E7" stop-opacity="0"/>
<stop offset="1" stop-color="#B5C7EB"/>
</linearGradient>
<radialGradient id="paint11_radial_289_82" cx="0" cy="0" r="1" gradientUnits="userSpaceOnUse" gradientTransform="translate(25.0899 32.8322) rotate(-50.3647) scale(38.8998 207.314)">
<stop stop-color="white"/>
<stop offset="1" stop-color="#D9D9D9" stop-opacity="0.33"/>
</radialGradient>
<radialGradient id="paint12_radial_289_82" cx="0" cy="0" r="1" gradientUnits="userSpaceOnUse" gradientTransform="translate(10.5368 2.79422) rotate(45.4037) scale(49.814 54.9849)">
<stop stop-color="#2A6CEE"/>
<stop offset="1" stop-color="white" stop-opacity="0"/>
</radialGradient>
<radialGradient id="paint13_radial_289_82" cx="0" cy="0" r="1" gradientUnits="userSpaceOnUse" gradientTransform="translate(19.381 44.6299) rotate(-58.8656) scale(38.7199 43.4184)">
<stop stop-color="#B131ED"/>
<stop offset="1" stop-color="#A641D6" stop-opacity="0"/>
</radialGradient>
<radialGradient id="paint14_radial_289_82" cx="0" cy="0" r="1" gradientUnits="userSpaceOnUse" gradientTransform="translate(45.5919 8.92599) rotate(144.19) scale(28.2559 25.0369)">
<stop stop-color="#41D6D6"/>
<stop offset="1" stop-color="#CEAADF" stop-opacity="0"/>
</radialGradient>
<linearGradient id="paint15_linear_289_82" x1="26.4566" y1="0" x2="26.4566" y2="37.5668" gradientUnits="userSpaceOnUse">
<stop stop-color="#F4F4F4"/>
<stop offset="1" stop-color="#F4F4F4" stop-opacity="0.53"/>
</linearGradient>
<linearGradient id="paint16_linear_289_82" x1="26.4566" y1="-5.89891" x2="26.4566" y2="13.1173" gradientUnits="userSpaceOnUse">
<stop stop-color="#95B0E7" stop-opacity="0"/>
<stop offset="1" stop-color="#B5C7EB"/>
</linearGradient>
<radialGradient id="paint17_radial_289_82" cx="0" cy="0" r="1" gradientUnits="userSpaceOnUse" gradientTransform="translate(25.0899 32.8322) rotate(-50.3647) scale(38.8998 207.314)">
<stop stop-color="white"/>
<stop offset="1" stop-color="#D9D9D9" stop-opacity="0.33"/>
</radialGradient>
<clipPath id="clip0_289_82">
<rect width="159.537" height="43" fill="white"/>
</clipPath>
</defs>
</svg>
