<svg width="120" height="33" viewBox="0 0 120 33" fill="none" xmlns="http://www.w3.org/2000/svg">
<line x1="82.4922" y1="26.2321" x2="82.4922" y2="9.54037" stroke="black" stroke-width="3.44037"/>
<path d="M102.36 11.1877H93.9476C92.8743 11.1877 91.873 11.7204 91.2836 12.6051L91.2099 12.7157C90.308 14.0693 90.4782 15.8588 91.6196 17.0234C92.4354 17.8557 93.5588 18.3256 94.7325 18.3256H97.4013C98.3043 18.3256 99.1798 18.6322 99.8807 19.1938C101.243 20.2852 101.432 22.2663 100.3 23.589L100.246 23.6519C99.6805 24.3132 98.8477 24.6948 97.9703 24.6948H89.2217" stroke="black" stroke-width="3.44037"/>
<path d="M64.5041 26.232V24.8044M64.5041 24.8044V9.54028M64.5041 24.8044H63.2793M64.5041 24.8044H76.4179" stroke="black" stroke-width="3.44037"/>
<path d="M113.273 26.232V9.54028M106.704 10.9679H119.842" stroke="black" stroke-width="3.44037"/>
<path d="M45.7984 26.232V9.54028M45.6797 19.1825L57.2194 10.1778M48.147 17.4278L57.9452 25.1147" stroke="black" stroke-width="3.44037"/>
<path d="M0 6.92753C0 4.54909 1.92811 2.62097 4.30656 2.62097H20.4561C22.8346 2.62097 24.7627 4.54908 24.7627 6.92753V28.6935C24.7627 31.0719 22.8346 33 20.4561 33H0V6.92753Z" fill="#B9B9B9"/>
<path d="M0 6.92753C0 4.54909 1.92811 2.62097 4.30656 2.62097H20.4561C22.8346 2.62097 24.7627 4.54908 24.7627 6.92753V28.6935C24.7627 31.0719 22.8346 33 20.4561 33H0V6.92753Z" fill="url(#paint0_radial_315_50)"/>
<path d="M0 6.92753C0 4.54909 1.92811 2.62097 4.30656 2.62097H20.4561C22.8346 2.62097 24.7627 4.54908 24.7627 6.92753V28.6935C24.7627 31.0719 22.8346 33 20.4561 33H0V6.92753Z" fill="url(#paint1_radial_315_50)"/>
<path d="M0 6.92753C0 4.54909 1.92811 2.62097 4.30656 2.62097H20.4561C22.8346 2.62097 24.7627 4.54908 24.7627 6.92753V28.6935C24.7627 31.0719 22.8346 33 20.4561 33H0V6.92753Z" fill="url(#paint2_radial_315_50)"/>
<path d="M4.58984 2.44038C4.58984 1.0926 5.68244 0 7.03023 0H20.293V4.70763C20.293 6.05541 19.2004 7.14801 17.8526 7.14801H7.03022C5.68244 7.14801 4.58984 6.05542 4.58984 4.70763V2.44038Z" fill="url(#paint3_linear_315_50)"/>
<path d="M4.58984 2.44038C4.58984 1.0926 5.68244 0 7.03023 0H20.293V4.70763C20.293 6.05541 19.2004 7.14801 17.8526 7.14801H7.03022C5.68244 7.14801 4.58984 6.05542 4.58984 4.70763V2.44038Z" fill="url(#paint4_linear_315_50)"/>
<path d="M30.4033 6.3877L17.1067 22.331L12.1488 24.4944L13.3447 19.2792L26.6413 3.33586L30.4033 6.3877Z" fill="white" fill-opacity="0.46"/>
<path d="M30.4033 6.3877L17.1067 22.331L12.1488 24.4944L13.3447 19.2792L26.6413 3.33586L30.4033 6.3877Z" fill="url(#paint5_radial_315_50)"/>
<path d="M0 6.92753C0 4.54909 1.92811 2.62097 4.30656 2.62097H20.4561C22.8346 2.62097 24.7627 4.54908 24.7627 6.92753V28.6935C24.7627 31.0719 22.8346 33 20.4561 33H0V6.92753Z" fill="#B9B9B9"/>
<path d="M0 6.92753C0 4.54909 1.92811 2.62097 4.30656 2.62097H20.4561C22.8346 2.62097 24.7627 4.54908 24.7627 6.92753V28.6935C24.7627 31.0719 22.8346 33 20.4561 33H0V6.92753Z" fill="url(#paint6_radial_315_50)"/>
<path d="M0 6.92753C0 4.54909 1.92811 2.62097 4.30656 2.62097H20.4561C22.8346 2.62097 24.7627 4.54908 24.7627 6.92753V28.6935C24.7627 31.0719 22.8346 33 20.4561 33H0V6.92753Z" fill="url(#paint7_radial_315_50)"/>
<path d="M0 6.92753C0 4.54909 1.92811 2.62097 4.30656 2.62097H20.4561C22.8346 2.62097 24.7627 4.54908 24.7627 6.92753V28.6935C24.7627 31.0719 22.8346 33 20.4561 33H0V6.92753Z" fill="url(#paint8_radial_315_50)"/>
<path d="M4.58984 2.44038C4.58984 1.0926 5.68244 0 7.03023 0H20.293V4.70763C20.293 6.05541 19.2004 7.14801 17.8526 7.14801H7.03022C5.68244 7.14801 4.58984 6.05542 4.58984 4.70763V2.44038Z" fill="url(#paint9_linear_315_50)"/>
<path d="M4.58984 2.44038C4.58984 1.0926 5.68244 0 7.03023 0H20.293V4.70763C20.293 6.05541 19.2004 7.14801 17.8526 7.14801H7.03022C5.68244 7.14801 4.58984 6.05542 4.58984 4.70763V2.44038Z" fill="url(#paint10_linear_315_50)"/>
<path d="M30.4033 6.3877L17.1067 22.331L12.1488 24.4944L13.3447 19.2792L26.6413 3.33586L30.4033 6.3877Z" fill="white" fill-opacity="0.46"/>
<path d="M30.4033 6.3877L17.1067 22.331L12.1488 24.4944L13.3447 19.2792L26.6413 3.33586L30.4033 6.3877Z" fill="url(#paint11_radial_315_50)"/>
<path d="M0 6.92753C0 4.54909 1.92811 2.62097 4.30656 2.62097H20.4561C22.8346 2.62097 24.7627 4.54908 24.7627 6.92753V28.6935C24.7627 31.0719 22.8346 33 20.4561 33H0V6.92753Z" fill="#B9B9B9"/>
<path d="M0 6.92753C0 4.54909 1.92811 2.62097 4.30656 2.62097H20.4561C22.8346 2.62097 24.7627 4.54908 24.7627 6.92753V28.6935C24.7627 31.0719 22.8346 33 20.4561 33H0V6.92753Z" fill="url(#paint12_radial_315_50)"/>
<path d="M0 6.92753C0 4.54909 1.92811 2.62097 4.30656 2.62097H20.4561C22.8346 2.62097 24.7627 4.54908 24.7627 6.92753V28.6935C24.7627 31.0719 22.8346 33 20.4561 33H0V6.92753Z" fill="url(#paint13_radial_315_50)"/>
<path d="M0 6.92753C0 4.54909 1.92811 2.62097 4.30656 2.62097H20.4561C22.8346 2.62097 24.7627 4.54908 24.7627 6.92753V28.6935C24.7627 31.0719 22.8346 33 20.4561 33H0V6.92753Z" fill="url(#paint14_radial_315_50)"/>
<path d="M4.58984 2.44038C4.58984 1.0926 5.68244 0 7.03023 0H20.293V4.70763C20.293 6.05541 19.2004 7.14801 17.8526 7.14801H7.03022C5.68244 7.14801 4.58984 6.05542 4.58984 4.70763V2.44038Z" fill="url(#paint15_linear_315_50)"/>
<path d="M4.58984 2.44038C4.58984 1.0926 5.68244 0 7.03023 0H20.293V4.70763C20.293 6.05541 19.2004 7.14801 17.8526 7.14801H7.03022C5.68244 7.14801 4.58984 6.05542 4.58984 4.70763V2.44038Z" fill="url(#paint16_linear_315_50)"/>
<path d="M30.4033 6.3877L17.1067 22.331L12.1488 24.4944L13.3447 19.2792L26.6413 3.33586L30.4033 6.3877Z" fill="white" fill-opacity="0.46"/>
<path d="M30.4033 6.3877L17.1067 22.331L12.1488 24.4944L13.3447 19.2792L26.6413 3.33586L30.4033 6.3877Z" fill="url(#paint17_radial_315_50)"/>
<defs>
<radialGradient id="paint0_radial_315_50" cx="0" cy="0" r="1" gradientUnits="userSpaceOnUse" gradientTransform="translate(0.483173 2.14444) rotate(46.0167) scale(37.8324 41.7374)">
<stop stop-color="#2A6CEE"/>
<stop offset="1" stop-color="white" stop-opacity="0"/>
</radialGradient>
<radialGradient id="paint1_radial_315_50" cx="0" cy="0" r="1" gradientUnits="userSpaceOnUse" gradientTransform="translate(7.12683 34.2509) rotate(-59.4057) scale(29.5484 32.7996)">
<stop stop-color="#B131ED"/>
<stop offset="1" stop-color="#A641D6" stop-opacity="0"/>
</radialGradient>
<radialGradient id="paint2_radial_315_50" cx="0" cy="0" r="1" gradientUnits="userSpaceOnUse" gradientTransform="translate(26.8162 6.85021) rotate(143.606) scale(21.3838 19.0721)">
<stop stop-color="#41D6D6"/>
<stop offset="1" stop-color="#CEAADF" stop-opacity="0"/>
</radialGradient>
<linearGradient id="paint3_linear_315_50" x1="12.4414" y1="0" x2="12.4414" y2="28.8303" gradientUnits="userSpaceOnUse">
<stop stop-color="#F4F4F4"/>
<stop offset="1" stop-color="#F4F4F4" stop-opacity="0.53"/>
</linearGradient>
<linearGradient id="paint4_linear_315_50" x1="12.4414" y1="-4.52707" x2="12.4414" y2="10.0668" gradientUnits="userSpaceOnUse">
<stop stop-color="#95B0E7" stop-opacity="0"/>
<stop offset="1" stop-color="#B5C7EB"/>
</linearGradient>
<radialGradient id="paint5_radial_315_50" cx="0" cy="0" r="1" gradientUnits="userSpaceOnUse" gradientTransform="translate(11.4153 25.1969) rotate(-50.966) scale(29.5977 157.077)">
<stop stop-color="white"/>
<stop offset="1" stop-color="#D9D9D9" stop-opacity="0.33"/>
</radialGradient>
<radialGradient id="paint6_radial_315_50" cx="0" cy="0" r="1" gradientUnits="userSpaceOnUse" gradientTransform="translate(0.483173 2.14444) rotate(46.0167) scale(37.8324 41.7374)">
<stop stop-color="#2A6CEE"/>
<stop offset="1" stop-color="white" stop-opacity="0"/>
</radialGradient>
<radialGradient id="paint7_radial_315_50" cx="0" cy="0" r="1" gradientUnits="userSpaceOnUse" gradientTransform="translate(7.12683 34.2509) rotate(-59.4057) scale(29.5484 32.7996)">
<stop stop-color="#B131ED"/>
<stop offset="1" stop-color="#A641D6" stop-opacity="0"/>
</radialGradient>
<radialGradient id="paint8_radial_315_50" cx="0" cy="0" r="1" gradientUnits="userSpaceOnUse" gradientTransform="translate(26.8162 6.85021) rotate(143.606) scale(21.3838 19.0721)">
<stop stop-color="#41D6D6"/>
<stop offset="1" stop-color="#CEAADF" stop-opacity="0"/>
</radialGradient>
<linearGradient id="paint9_linear_315_50" x1="12.4414" y1="0" x2="12.4414" y2="28.8303" gradientUnits="userSpaceOnUse">
<stop stop-color="#F4F4F4"/>
<stop offset="1" stop-color="#F4F4F4" stop-opacity="0.53"/>
</linearGradient>
<linearGradient id="paint10_linear_315_50" x1="12.4414" y1="-4.52707" x2="12.4414" y2="10.0668" gradientUnits="userSpaceOnUse">
<stop stop-color="#95B0E7" stop-opacity="0"/>
<stop offset="1" stop-color="#B5C7EB"/>
</linearGradient>
<radialGradient id="paint11_radial_315_50" cx="0" cy="0" r="1" gradientUnits="userSpaceOnUse" gradientTransform="translate(11.4153 25.1969) rotate(-50.966) scale(29.5977 157.077)">
<stop stop-color="white"/>
<stop offset="1" stop-color="#D9D9D9" stop-opacity="0.33"/>
</radialGradient>
<radialGradient id="paint12_radial_315_50" cx="0" cy="0" r="1" gradientUnits="userSpaceOnUse" gradientTransform="translate(0.483173 2.14444) rotate(46.0167) scale(37.8324 41.7374)">
<stop stop-color="#2A6CEE"/>
<stop offset="1" stop-color="white" stop-opacity="0"/>
</radialGradient>
<radialGradient id="paint13_radial_315_50" cx="0" cy="0" r="1" gradientUnits="userSpaceOnUse" gradientTransform="translate(7.12683 34.2509) rotate(-59.4057) scale(29.5484 32.7996)">
<stop stop-color="#B131ED"/>
<stop offset="1" stop-color="#A641D6" stop-opacity="0"/>
</radialGradient>
<radialGradient id="paint14_radial_315_50" cx="0" cy="0" r="1" gradientUnits="userSpaceOnUse" gradientTransform="translate(26.8162 6.85021) rotate(143.606) scale(21.3838 19.0721)">
<stop stop-color="#41D6D6"/>
<stop offset="1" stop-color="#CEAADF" stop-opacity="0"/>
</radialGradient>
<linearGradient id="paint15_linear_315_50" x1="12.4414" y1="0" x2="12.4414" y2="28.8303" gradientUnits="userSpaceOnUse">
<stop stop-color="#F4F4F4"/>
<stop offset="1" stop-color="#F4F4F4" stop-opacity="0.53"/>
</linearGradient>
<linearGradient id="paint16_linear_315_50" x1="12.4414" y1="-4.52707" x2="12.4414" y2="10.0668" gradientUnits="userSpaceOnUse">
<stop stop-color="#95B0E7" stop-opacity="0"/>
<stop offset="1" stop-color="#B5C7EB"/>
</linearGradient>
<radialGradient id="paint17_radial_315_50" cx="0" cy="0" r="1" gradientUnits="userSpaceOnUse" gradientTransform="translate(11.4153 25.1969) rotate(-50.966) scale(29.5977 157.077)">
<stop stop-color="white"/>
<stop offset="1" stop-color="#D9D9D9" stop-opacity="0.33"/>
</radialGradient>
</defs>
</svg>
