<svg width="398" height="306" viewBox="0 0 398 306" fill="none" xmlns="http://www.w3.org/2000/svg">
<g filter="url(#filter0_d_139_69)">
<rect x="2" y="3" width="359.18" height="268" rx="37" fill="white"/>
</g>
<rect x="2" y="3" width="359.18" height="268" rx="37" fill="url(#paint0_radial_139_69)"/>
<rect x="2" y="3" width="359.18" height="268" rx="37" fill="url(#paint1_radial_139_69)"/>
<mask id="mask0_139_69" style="mask-type:alpha" maskUnits="userSpaceOnUse" x="2" y="3" width="360" height="268">
<rect x="2" y="3" width="359.18" height="268" rx="37" fill="white"/>
</mask>
<g mask="url(#mask0_139_69)">
<path d="M136.375 46.5H99.875V37.375C99.875 30.1147 96.9909 23.1518 91.8571 18.018C86.7233 12.8841 79.7603 10 72.5 10C65.2397 10 58.2768 12.8841 53.143 18.018C48.0091 23.1518 45.125 30.1147 45.125 37.375V46.5H8.625C-3.47105 46.5145 -15.0675 51.3261 -23.6207 59.8793C-32.174 68.4325 -36.9855 80.0289 -37 92.125V183.375C-36.9855 195.471 -32.174 207.068 -23.6207 215.621C-15.0675 224.174 -3.47105 228.986 8.625 229H136.375C148.471 228.986 160.068 224.174 168.621 215.621C177.174 207.068 181.986 195.471 182 183.375V92.125C181.986 80.0289 177.174 68.4325 168.621 59.8793C160.068 51.3261 148.471 46.5145 136.375 46.5ZM63.375 37.375C63.375 34.9549 64.3364 32.6339 66.0477 30.9227C67.7589 29.2114 70.0799 28.25 72.5 28.25C74.9201 28.25 77.2411 29.2114 78.9524 30.9227C80.6636 32.6339 81.625 34.9549 81.625 37.375V55.625C81.625 58.0451 80.6636 60.3661 78.9524 62.0774C77.2411 63.7886 74.9201 64.75 72.5 64.75C70.0799 64.75 67.7589 63.7886 66.0477 62.0774C64.3364 60.3661 63.375 58.0451 63.375 55.625V37.375ZM163.75 183.375C163.75 190.635 160.866 197.598 155.732 202.732C150.598 207.866 143.635 210.75 136.375 210.75H8.625C1.3647 210.75 -5.59824 207.866 -10.732 202.732C-15.8659 197.598 -18.75 190.635 -18.75 183.375V92.125C-18.75 84.8647 -15.8659 77.9018 -10.732 72.768C-5.59824 67.6341 1.3647 64.75 8.625 64.75H46.804C48.6623 70.084 52.1344 74.7075 56.7388 77.9792C61.3432 81.2509 66.8516 83.0086 72.5 83.0086C78.1484 83.0086 83.6568 81.2509 88.2612 77.9792C92.8656 74.7075 96.3377 70.084 98.196 64.75H136.375C143.635 64.75 150.598 67.6341 155.732 72.768C160.866 77.9018 163.75 84.8647 163.75 92.125V183.375ZM54.25 101.25H8.625C6.2049 101.25 3.88392 102.211 2.17265 103.923C0.461384 105.634 -0.499996 107.955 -0.499996 110.375V183.375C-0.499996 185.795 0.461384 188.116 2.17265 189.827C3.88392 191.539 6.2049 192.5 8.625 192.5H54.25C56.6701 192.5 58.9911 191.539 60.7024 189.827C62.4136 188.116 63.375 185.795 63.375 183.375V110.375C63.375 107.955 62.4136 105.634 60.7024 103.923C58.9911 102.211 56.6701 101.25 54.25 101.25ZM45.125 174.25H17.75V119.5H45.125V174.25ZM145.5 146.875C145.5 149.295 144.539 151.616 142.827 153.327C141.116 155.039 138.795 156 136.375 156H90.75C88.3299 156 86.0089 155.039 84.2977 153.327C82.5864 151.616 81.625 149.295 81.625 146.875C81.625 144.455 82.5864 142.134 84.2977 140.423C86.0089 138.711 88.3299 137.75 90.75 137.75H136.375C138.795 137.75 141.116 138.711 142.827 140.423C144.539 142.134 145.5 144.455 145.5 146.875ZM145.5 110.375C145.5 112.795 144.539 115.116 142.827 116.827C141.116 118.539 138.795 119.5 136.375 119.5H90.75C88.3299 119.5 86.0089 118.539 84.2977 116.827C82.5864 115.116 81.625 112.795 81.625 110.375C81.625 107.955 82.5864 105.634 84.2977 103.923C86.0089 102.211 88.3299 101.25 90.75 101.25H136.375C138.795 101.25 141.116 102.211 142.827 103.923C144.539 105.634 145.5 107.955 145.5 110.375ZM127.25 183.375C127.25 185.795 126.289 188.116 124.577 189.827C122.866 191.539 120.545 192.5 118.125 192.5H90.75C88.3299 192.5 86.0089 191.539 84.2977 189.827C82.5864 188.116 81.625 185.795 81.625 183.375C81.625 180.955 82.5864 178.634 84.2977 176.923C86.0089 175.211 88.3299 174.25 90.75 174.25H118.125C120.545 174.25 122.866 175.211 124.577 176.923C126.289 178.634 127.25 180.955 127.25 183.375Z" fill="url(#paint2_linear_139_69)"/>
</g>
<path d="M236.365 147.091V182H230.74L214.291 158.222H214.001V182H207.678V147.091H213.337L229.768 170.886H230.075V147.091H236.365ZM254.403 182.511C251.847 182.511 249.631 181.949 247.756 180.824C245.881 179.699 244.426 178.125 243.392 176.102C242.369 174.08 241.858 171.716 241.858 169.011C241.858 166.307 242.369 163.937 243.392 161.903C244.426 159.869 245.881 158.29 247.756 157.165C249.631 156.04 251.847 155.477 254.403 155.477C256.96 155.477 259.176 156.04 261.051 157.165C262.926 158.29 264.375 159.869 265.398 161.903C266.432 163.937 266.949 166.307 266.949 169.011C266.949 171.716 266.432 174.08 265.398 176.102C264.375 178.125 262.926 179.699 261.051 180.824C259.176 181.949 256.96 182.511 254.403 182.511ZM254.438 177.568C255.824 177.568 256.983 177.187 257.915 176.426C258.847 175.653 259.54 174.619 259.994 173.324C260.46 172.028 260.693 170.585 260.693 168.994C260.693 167.392 260.46 165.943 259.994 164.648C259.54 163.341 258.847 162.301 257.915 161.528C256.983 160.756 255.824 160.369 254.438 160.369C253.017 160.369 251.835 160.756 250.892 161.528C249.96 162.301 249.261 163.341 248.795 164.648C248.341 165.943 248.114 167.392 248.114 168.994C248.114 170.585 248.341 172.028 248.795 173.324C249.261 174.619 249.96 175.653 250.892 176.426C251.835 177.187 253.017 177.568 254.438 177.568ZM294.682 155.818L285.358 182H278.54L269.216 155.818H275.795L281.812 175.267H282.085L288.119 155.818H294.682ZM309.482 182.511C306.925 182.511 304.709 181.949 302.834 180.824C300.959 179.699 299.504 178.125 298.47 176.102C297.447 174.08 296.936 171.716 296.936 169.011C296.936 166.307 297.447 163.937 298.47 161.903C299.504 159.869 300.959 158.29 302.834 157.165C304.709 156.04 306.925 155.477 309.482 155.477C312.038 155.477 314.254 156.04 316.129 157.165C318.004 158.29 319.453 159.869 320.476 161.903C321.51 163.937 322.027 166.307 322.027 169.011C322.027 171.716 321.51 174.08 320.476 176.102C319.453 178.125 318.004 179.699 316.129 180.824C314.254 181.949 312.038 182.511 309.482 182.511ZM309.516 177.568C310.902 177.568 312.061 177.187 312.993 176.426C313.925 175.653 314.618 174.619 315.072 173.324C315.538 172.028 315.771 170.585 315.771 168.994C315.771 167.392 315.538 165.943 315.072 164.648C314.618 163.341 313.925 162.301 312.993 161.528C312.061 160.756 310.902 160.369 309.516 160.369C308.095 160.369 306.913 160.756 305.97 161.528C305.038 162.301 304.339 163.341 303.874 164.648C303.419 165.943 303.192 167.392 303.192 168.994C303.192 170.585 303.419 172.028 303.874 173.324C304.339 174.619 305.038 175.653 305.97 176.426C306.913 177.187 308.095 177.568 309.516 177.568ZM67.5213 244V209.091H89.8849V214.392H73.8452V223.869H88.3509V229.17H73.8452V244H67.5213ZM110.42 232.989V217.818H116.591V244H110.608V239.347H110.335C109.744 240.812 108.773 242.011 107.42 242.943C106.08 243.875 104.426 244.341 102.46 244.341C100.744 244.341 99.2273 243.96 97.9091 243.199C96.6023 242.426 95.5795 241.307 94.8409 239.841C94.1023 238.364 93.733 236.58 93.733 234.489V217.818H99.9034V233.534C99.9034 235.193 100.358 236.511 101.267 237.489C102.176 238.466 103.369 238.955 104.847 238.955C105.756 238.955 106.636 238.733 107.489 238.29C108.341 237.847 109.04 237.188 109.585 236.312C110.142 235.426 110.42 234.318 110.42 232.989ZM129.107 228.659V244H122.936V217.818H128.834V222.267H129.141C129.743 220.801 130.703 219.636 132.021 218.773C133.351 217.909 134.993 217.477 136.947 217.477C138.754 217.477 140.328 217.864 141.669 218.636C143.021 219.409 144.067 220.528 144.805 221.994C145.555 223.46 145.925 225.239 145.913 227.33V244H139.743V228.284C139.743 226.534 139.288 225.165 138.379 224.176C137.482 223.187 136.237 222.693 134.646 222.693C133.567 222.693 132.607 222.932 131.766 223.409C130.936 223.875 130.283 224.551 129.805 225.438C129.339 226.324 129.107 227.398 129.107 228.659ZM163.607 244.511C160.993 244.511 158.749 243.938 156.874 242.79C155.01 241.642 153.572 240.057 152.561 238.034C151.561 236 151.061 233.659 151.061 231.011C151.061 228.352 151.572 226.006 152.595 223.972C153.618 221.926 155.061 220.335 156.925 219.199C158.8 218.051 161.016 217.477 163.572 217.477C165.697 217.477 167.578 217.869 169.214 218.653C170.862 219.426 172.175 220.523 173.152 221.943C174.129 223.352 174.686 225 174.822 226.886H168.925C168.686 225.625 168.118 224.574 167.22 223.733C166.334 222.881 165.146 222.455 163.658 222.455C162.396 222.455 161.288 222.795 160.334 223.477C159.379 224.148 158.635 225.114 158.101 226.375C157.578 227.636 157.317 229.148 157.317 230.909C157.317 232.693 157.578 234.227 158.101 235.511C158.624 236.784 159.357 237.767 160.3 238.46C161.254 239.142 162.374 239.483 163.658 239.483C164.567 239.483 165.379 239.312 166.095 238.972C166.822 238.619 167.43 238.114 167.919 237.455C168.408 236.795 168.743 235.994 168.925 235.051H174.822C174.675 236.903 174.129 238.545 173.186 239.977C172.243 241.398 170.959 242.511 169.334 243.318C167.709 244.114 165.8 244.511 163.607 244.511ZM179.889 244V217.818H186.06V244H179.889ZM182.991 214.102C182.014 214.102 181.173 213.778 180.469 213.131C179.764 212.472 179.412 211.682 179.412 210.761C179.412 209.83 179.764 209.04 180.469 208.392C181.173 207.733 182.014 207.403 182.991 207.403C183.98 207.403 184.821 207.733 185.514 208.392C186.219 209.04 186.571 209.83 186.571 210.761C186.571 211.682 186.219 212.472 185.514 213.131C184.821 213.778 183.98 214.102 182.991 214.102ZM203.825 244.511C201.268 244.511 199.053 243.949 197.178 242.824C195.303 241.699 193.848 240.125 192.814 238.102C191.791 236.08 191.28 233.716 191.28 231.011C191.28 228.307 191.791 225.937 192.814 223.903C193.848 221.869 195.303 220.29 197.178 219.165C199.053 218.04 201.268 217.477 203.825 217.477C206.382 217.477 208.598 218.04 210.473 219.165C212.348 220.29 213.797 221.869 214.82 223.903C215.854 225.937 216.371 228.307 216.371 231.011C216.371 233.716 215.854 236.08 214.82 238.102C213.797 240.125 212.348 241.699 210.473 242.824C208.598 243.949 206.382 244.511 203.825 244.511ZM203.859 239.568C205.246 239.568 206.405 239.187 207.337 238.426C208.268 237.653 208.962 236.619 209.416 235.324C209.882 234.028 210.115 232.585 210.115 230.994C210.115 229.392 209.882 227.943 209.416 226.648C208.962 225.341 208.268 224.301 207.337 223.528C206.405 222.756 205.246 222.369 203.859 222.369C202.439 222.369 201.257 222.756 200.314 223.528C199.382 224.301 198.683 225.341 198.217 226.648C197.763 227.943 197.536 229.392 197.536 230.994C197.536 232.585 197.763 234.028 198.217 235.324C198.683 236.619 199.382 237.653 200.314 238.426C201.257 239.187 202.439 239.568 203.859 239.568ZM227.778 228.659V244H221.608V217.818H227.506V222.267H227.812C228.415 220.801 229.375 219.636 230.693 218.773C232.023 217.909 233.665 217.477 235.619 217.477C237.426 217.477 239 217.864 240.341 218.636C241.693 219.409 242.739 220.528 243.477 221.994C244.227 223.46 244.597 225.239 244.585 227.33V244H238.415V228.284C238.415 226.534 237.96 225.165 237.051 224.176C236.153 223.187 234.909 222.693 233.318 222.693C232.239 222.693 231.278 222.932 230.438 223.409C229.608 223.875 228.955 224.551 228.477 225.438C228.011 226.324 227.778 227.398 227.778 228.659ZM258.392 244.528C256.733 244.528 255.239 244.233 253.909 243.642C252.591 243.04 251.545 242.153 250.773 240.983C250.011 239.812 249.631 238.369 249.631 236.653C249.631 235.176 249.903 233.955 250.449 232.989C250.994 232.023 251.739 231.25 252.682 230.67C253.625 230.091 254.688 229.653 255.869 229.358C257.063 229.051 258.295 228.83 259.568 228.693C261.102 228.534 262.347 228.392 263.301 228.267C264.256 228.131 264.949 227.926 265.381 227.653C265.824 227.369 266.045 226.932 266.045 226.341V226.239C266.045 224.955 265.665 223.96 264.903 223.256C264.142 222.551 263.045 222.199 261.614 222.199C260.102 222.199 258.903 222.528 258.017 223.188C257.142 223.847 256.551 224.625 256.244 225.523L250.483 224.705C250.938 223.114 251.688 221.784 252.733 220.716C253.778 219.636 255.057 218.83 256.568 218.295C258.08 217.75 259.75 217.477 261.58 217.477C262.841 217.477 264.097 217.625 265.347 217.92C266.597 218.216 267.739 218.705 268.773 219.386C269.807 220.057 270.636 220.972 271.261 222.131C271.898 223.29 272.216 224.739 272.216 226.477V244H266.284V240.403H266.08C265.705 241.131 265.176 241.812 264.494 242.449C263.824 243.074 262.977 243.58 261.955 243.966C260.943 244.341 259.756 244.528 258.392 244.528ZM259.994 239.994C261.233 239.994 262.307 239.75 263.216 239.261C264.125 238.761 264.824 238.102 265.312 237.284C265.812 236.466 266.062 235.574 266.062 234.608V231.523C265.869 231.682 265.54 231.83 265.074 231.966C264.619 232.102 264.108 232.222 263.54 232.324C262.972 232.426 262.409 232.517 261.852 232.597C261.295 232.676 260.813 232.744 260.403 232.801C259.483 232.926 258.659 233.131 257.932 233.415C257.205 233.699 256.631 234.097 256.21 234.608C255.79 235.108 255.58 235.756 255.58 236.551C255.58 237.688 255.994 238.545 256.824 239.125C257.653 239.705 258.71 239.994 259.994 239.994ZM259.483 214.375L263.301 206.585H269.335L264.102 214.375H259.483ZM278.42 244V217.818H284.403V222.182H284.676C285.153 220.67 285.972 219.506 287.131 218.688C288.301 217.858 289.636 217.443 291.136 217.443C291.477 217.443 291.858 217.46 292.278 217.494C292.71 217.517 293.068 217.557 293.352 217.614V223.29C293.091 223.199 292.676 223.119 292.108 223.051C291.551 222.972 291.011 222.932 290.489 222.932C289.364 222.932 288.352 223.176 287.455 223.665C286.568 224.142 285.869 224.807 285.358 225.659C284.847 226.511 284.591 227.494 284.591 228.608V244H278.42ZM297.452 244V217.818H303.622V244H297.452ZM300.554 214.102C299.577 214.102 298.736 213.778 298.031 213.131C297.327 212.472 296.974 211.682 296.974 210.761C296.974 209.83 297.327 209.04 298.031 208.392C298.736 207.733 299.577 207.403 300.554 207.403C301.543 207.403 302.384 207.733 303.077 208.392C303.781 209.04 304.134 209.83 304.134 210.761C304.134 211.682 303.781 212.472 303.077 213.131C302.384 213.778 301.543 214.102 300.554 214.102ZM321.388 244.511C318.831 244.511 316.615 243.949 314.74 242.824C312.865 241.699 311.411 240.125 310.376 238.102C309.354 236.08 308.842 233.716 308.842 231.011C308.842 228.307 309.354 225.937 310.376 223.903C311.411 221.869 312.865 220.29 314.74 219.165C316.615 218.04 318.831 217.477 321.388 217.477C323.945 217.477 326.161 218.04 328.036 219.165C329.911 220.29 331.359 221.869 332.382 223.903C333.416 225.937 333.933 228.307 333.933 231.011C333.933 233.716 333.416 236.08 332.382 238.102C331.359 240.125 329.911 241.699 328.036 242.824C326.161 243.949 323.945 244.511 321.388 244.511ZM321.422 239.568C322.808 239.568 323.967 239.187 324.899 238.426C325.831 237.653 326.524 236.619 326.979 235.324C327.445 234.028 327.678 232.585 327.678 230.994C327.678 229.392 327.445 227.943 326.979 226.648C326.524 225.341 325.831 224.301 324.899 223.528C323.967 222.756 322.808 222.369 321.422 222.369C320.001 222.369 318.82 222.756 317.876 223.528C316.945 224.301 316.246 225.341 315.78 226.648C315.325 227.943 315.098 229.392 315.098 230.994C315.098 232.585 315.325 234.028 315.78 235.324C316.246 236.619 316.945 237.653 317.876 238.426C318.82 239.187 320.001 239.568 321.422 239.568Z" fill="white"/>
<defs>
<filter id="filter0_d_139_69" x="0" y="0" width="397.18" height="306" filterUnits="userSpaceOnUse" color-interpolation-filters="sRGB">
<feFlood flood-opacity="0" result="BackgroundImageFix"/>
<feColorMatrix in="SourceAlpha" type="matrix" values="0 0 0 0 0 0 0 0 0 0 0 0 0 0 0 0 0 0 127 0" result="hardAlpha"/>
<feMorphology radius="3" operator="erode" in="SourceAlpha" result="effect1_dropShadow_139_69"/>
<feOffset dx="17" dy="16"/>
<feGaussianBlur stdDeviation="11"/>
<feComposite in2="hardAlpha" operator="out"/>
<feColorMatrix type="matrix" values="0 0 0 0 0.383337 0 0 0 0 0.322292 0 0 0 0 0.758333 0 0 0 0.16 0"/>
<feBlend mode="normal" in2="BackgroundImageFix" result="effect1_dropShadow_139_69"/>
<feBlend mode="normal" in="SourceGraphic" in2="effect1_dropShadow_139_69" result="shape"/>
</filter>
<radialGradient id="paint0_radial_139_69" cx="0" cy="0" r="1" gradientUnits="userSpaceOnUse" gradientTransform="translate(2 3) rotate(37.5915) scale(381.13 510.8)">
<stop stop-color="#51C1F1"/>
<stop offset="1" stop-color="#51C1F1" stop-opacity="0"/>
</radialGradient>
<radialGradient id="paint1_radial_139_69" cx="0" cy="0" r="1" gradientUnits="userSpaceOnUse" gradientTransform="translate(335 250) rotate(-140.833) scale(476.583 638.728)">
<stop stop-color="#5E51F1"/>
<stop offset="1" stop-color="#5E51F1" stop-opacity="0"/>
</radialGradient>
<linearGradient id="paint2_linear_139_69" x1="214" y1="43" x2="-19" y2="238" gradientUnits="userSpaceOnUse">
<stop stop-color="white"/>
<stop offset="1" stop-color="white" stop-opacity="0"/>
</linearGradient>
</defs>
</svg>
