<svg width="398" height="306" viewBox="0 0 398 306" fill="none" xmlns="http://www.w3.org/2000/svg">
<g filter="url(#filter0_d_139_70)">
<rect x="2" y="3" width="359.18" height="268" rx="37" fill="white"/>
</g>
<rect x="2" y="3" width="359.18" height="268" rx="37" fill="url(#paint0_radial_139_70)"/>
<rect x="2" y="3" width="359.18" height="268" rx="37" fill="url(#paint1_radial_139_70)"/>
<mask id="mask0_139_70" style="mask-type:alpha" maskUnits="userSpaceOnUse" x="2" y="3" width="360" height="268">
<rect x="2" y="3" width="359.18" height="268" rx="37" fill="white"/>
</mask>
<g mask="url(#mask0_139_70)">
<path d="M-16.8291 74.731C-16.8291 72.2095 -15.3127 69.9355 -12.9849 68.9662L99.1835 22.26C101.143 21.4443 103.32 21.3179 105.361 21.9016L170.15 40.4379C172.327 41.0609 173.828 43.0513 173.828 45.316V225.721C173.828 228.143 172.233 230.276 169.91 230.961L105.593 249.94C103.518 250.553 101.304 250.511 99.2534 249.822L-13.809 211.822C-14.8605 211.469 -15.709 210.68 -16.138 209.657L-16.3319 209.195C-17.2782 206.938 -16.3566 204.332 -14.2022 203.172C-13.3742 202.726 -12.4234 202.563 -11.4941 202.706L107.088 221.024V60.8096L21.8096 82.6659V182.559C21.8096 185.082 20.3789 187.386 18.1179 188.505L-9.5047 202.177C-12.877 203.846 -16.8291 201.393 -16.8291 197.63V74.731Z" fill="url(#paint2_linear_139_70)"/>
</g>
<path d="M119.636 226.545C119.636 230.307 118.932 233.528 117.523 236.21C116.125 238.881 114.216 240.926 111.795 242.347C109.386 243.767 106.653 244.477 103.597 244.477C100.54 244.477 97.8011 243.767 95.3807 242.347C92.9716 240.915 91.0625 238.864 89.6534 236.193C88.2557 233.511 87.5568 230.295 87.5568 226.545C87.5568 222.784 88.2557 219.568 89.6534 216.898C91.0625 214.216 92.9716 212.165 95.3807 210.744C97.8011 209.324 100.54 208.614 103.597 208.614C106.653 208.614 109.386 209.324 111.795 210.744C114.216 212.165 116.125 214.216 117.523 216.898C118.932 219.568 119.636 222.784 119.636 226.545ZM113.278 226.545C113.278 223.898 112.864 221.665 112.034 219.847C111.216 218.017 110.08 216.636 108.625 215.705C107.17 214.761 105.494 214.29 103.597 214.29C101.699 214.29 100.023 214.761 98.5682 215.705C97.1136 216.636 95.9716 218.017 95.142 219.847C94.3239 221.665 93.9148 223.898 93.9148 226.545C93.9148 229.193 94.3239 231.432 95.142 233.261C95.9716 235.08 97.1136 236.46 98.5682 237.403C100.023 238.335 101.699 238.801 103.597 238.801C105.494 238.801 107.17 238.335 108.625 237.403C110.08 236.46 111.216 235.08 112.034 233.261C112.864 231.432 113.278 229.193 113.278 226.545ZM138.604 217.818V222.591H123.126V217.818H138.604ZM126.996 244V215.347C126.996 213.585 127.359 212.119 128.087 210.949C128.825 209.778 129.814 208.903 131.053 208.324C132.291 207.744 133.666 207.455 135.178 207.455C136.246 207.455 137.195 207.54 138.024 207.71C138.854 207.881 139.467 208.034 139.865 208.17L138.638 212.943C138.376 212.864 138.047 212.784 137.649 212.705C137.251 212.614 136.808 212.568 136.32 212.568C135.172 212.568 134.359 212.847 133.882 213.403C133.416 213.949 133.183 214.733 133.183 215.756V244H126.996ZM156.697 217.818V222.591H141.22V217.818H156.697ZM145.089 244V215.347C145.089 213.585 145.453 212.119 146.18 210.949C146.919 209.778 147.908 208.903 149.146 208.324C150.385 207.744 151.76 207.455 153.271 207.455C154.339 207.455 155.288 207.54 156.118 207.71C156.947 207.881 157.561 208.034 157.959 208.17L156.732 212.943C156.47 212.864 156.141 212.784 155.743 212.705C155.345 212.614 154.902 212.568 154.413 212.568C153.266 212.568 152.453 212.847 151.976 213.403C151.51 213.949 151.277 214.733 151.277 215.756V244H145.089ZM161.53 244V217.818H167.7V244H161.53ZM164.632 214.102C163.655 214.102 162.814 213.778 162.109 213.131C161.405 212.472 161.053 211.682 161.053 210.761C161.053 209.83 161.405 209.04 162.109 208.392C162.814 207.733 163.655 207.403 164.632 207.403C165.621 207.403 166.462 207.733 167.155 208.392C167.859 209.04 168.212 209.83 168.212 210.761C168.212 211.682 167.859 212.472 167.155 213.131C166.462 213.778 165.621 214.102 164.632 214.102ZM185.466 244.511C182.852 244.511 180.608 243.938 178.733 242.79C176.869 241.642 175.432 240.057 174.42 238.034C173.42 236 172.92 233.659 172.92 231.011C172.92 228.352 173.432 226.006 174.455 223.972C175.477 221.926 176.92 220.335 178.784 219.199C180.659 218.051 182.875 217.477 185.432 217.477C187.557 217.477 189.438 217.869 191.074 218.653C192.722 219.426 194.034 220.523 195.011 221.943C195.989 223.352 196.545 225 196.682 226.886H190.784C190.545 225.625 189.977 224.574 189.08 223.733C188.193 222.881 187.006 222.455 185.517 222.455C184.256 222.455 183.148 222.795 182.193 223.477C181.239 224.148 180.494 225.114 179.96 226.375C179.438 227.636 179.176 229.148 179.176 230.909C179.176 232.693 179.438 234.227 179.96 235.511C180.483 236.784 181.216 237.767 182.159 238.46C183.114 239.142 184.233 239.483 185.517 239.483C186.426 239.483 187.239 239.312 187.955 238.972C188.682 238.619 189.29 238.114 189.778 237.455C190.267 236.795 190.602 235.994 190.784 235.051H196.682C196.534 236.903 195.989 238.545 195.045 239.977C194.102 241.398 192.818 242.511 191.193 243.318C189.568 244.114 187.659 244.511 185.466 244.511ZM213.339 244.511C210.714 244.511 208.447 243.966 206.538 242.875C204.641 241.773 203.18 240.216 202.158 238.205C201.135 236.182 200.624 233.801 200.624 231.062C200.624 228.369 201.135 226.006 202.158 223.972C203.192 221.926 204.635 220.335 206.487 219.199C208.339 218.051 210.516 217.477 213.016 217.477C214.629 217.477 216.152 217.739 217.584 218.261C219.027 218.773 220.3 219.568 221.402 220.648C222.516 221.727 223.391 223.102 224.027 224.773C224.663 226.432 224.982 228.409 224.982 230.705V232.597H203.521V228.438H219.067C219.055 227.256 218.8 226.205 218.3 225.284C217.8 224.352 217.101 223.619 216.203 223.085C215.317 222.551 214.283 222.284 213.101 222.284C211.839 222.284 210.732 222.591 209.777 223.205C208.822 223.807 208.078 224.602 207.544 225.591C207.021 226.568 206.754 227.642 206.743 228.812V232.443C206.743 233.966 207.021 235.273 207.578 236.364C208.135 237.443 208.913 238.273 209.913 238.852C210.913 239.42 212.084 239.705 213.425 239.705C214.322 239.705 215.135 239.58 215.862 239.33C216.589 239.068 217.22 238.688 217.754 238.188C218.288 237.688 218.692 237.068 218.964 236.33L224.726 236.977C224.362 238.5 223.669 239.83 222.646 240.966C221.635 242.091 220.339 242.966 218.76 243.591C217.18 244.205 215.374 244.511 213.339 244.511ZM254.568 244.477C252.114 244.477 249.932 244.057 248.023 243.216C246.125 242.375 244.625 241.205 243.523 239.705C242.42 238.205 241.835 236.472 241.767 234.506H248.176C248.233 235.449 248.545 236.273 249.114 236.977C249.682 237.67 250.438 238.21 251.381 238.597C252.324 238.983 253.381 239.176 254.551 239.176C255.801 239.176 256.909 238.96 257.875 238.528C258.841 238.085 259.597 237.472 260.142 236.688C260.688 235.903 260.955 235 260.943 233.977C260.955 232.92 260.682 231.989 260.125 231.182C259.568 230.375 258.761 229.744 257.705 229.29C256.659 228.835 255.398 228.608 253.92 228.608H250.835V223.733H253.92C255.136 223.733 256.199 223.523 257.108 223.102C258.028 222.682 258.75 222.091 259.273 221.33C259.795 220.557 260.051 219.665 260.04 218.653C260.051 217.665 259.83 216.807 259.375 216.08C258.932 215.341 258.301 214.767 257.483 214.358C256.676 213.949 255.727 213.744 254.636 213.744C253.568 213.744 252.58 213.937 251.67 214.324C250.761 214.71 250.028 215.261 249.472 215.977C248.915 216.682 248.619 217.523 248.585 218.5H242.5C242.545 216.545 243.108 214.83 244.188 213.352C245.278 211.864 246.733 210.705 248.551 209.875C250.369 209.034 252.409 208.614 254.67 208.614C257 208.614 259.023 209.051 260.739 209.926C262.466 210.79 263.801 211.955 264.744 213.42C265.688 214.886 266.159 216.506 266.159 218.278C266.17 220.244 265.591 221.892 264.42 223.222C263.261 224.551 261.739 225.42 259.852 225.83V226.102C262.307 226.443 264.188 227.352 265.494 228.83C266.813 230.295 267.466 232.119 267.455 234.301C267.455 236.256 266.898 238.006 265.784 239.551C264.682 241.085 263.159 242.29 261.216 243.165C259.284 244.04 257.068 244.477 254.568 244.477ZM286.089 244.477C284.419 244.466 282.788 244.176 281.197 243.608C279.607 243.028 278.175 242.091 276.902 240.795C275.629 239.489 274.618 237.756 273.868 235.597C273.118 233.426 272.749 230.739 272.76 227.534C272.76 224.545 273.078 221.881 273.714 219.54C274.351 217.199 275.266 215.222 276.459 213.608C277.652 211.983 279.089 210.744 280.771 209.892C282.464 209.04 284.357 208.614 286.447 208.614C288.641 208.614 290.584 209.045 292.277 209.909C293.982 210.773 295.357 211.955 296.402 213.455C297.447 214.943 298.095 216.625 298.345 218.5H292.124C291.805 217.159 291.152 216.091 290.163 215.295C289.186 214.489 287.947 214.085 286.447 214.085C284.027 214.085 282.163 215.136 280.857 217.239C279.561 219.341 278.908 222.227 278.896 225.898H279.135C279.692 224.898 280.413 224.04 281.3 223.324C282.186 222.608 283.186 222.057 284.3 221.67C285.425 221.273 286.612 221.074 287.862 221.074C289.908 221.074 291.743 221.562 293.368 222.54C295.004 223.517 296.3 224.864 297.254 226.58C298.209 228.284 298.68 230.239 298.669 232.443C298.68 234.739 298.158 236.801 297.101 238.631C296.044 240.449 294.572 241.881 292.686 242.926C290.8 243.972 288.601 244.489 286.089 244.477ZM286.055 239.364C287.294 239.364 288.402 239.062 289.379 238.46C290.357 237.858 291.129 237.045 291.697 236.023C292.266 235 292.544 233.852 292.533 232.58C292.544 231.33 292.271 230.199 291.714 229.188C291.169 228.176 290.413 227.375 289.447 226.784C288.482 226.193 287.379 225.898 286.141 225.898C285.22 225.898 284.362 226.074 283.567 226.426C282.771 226.778 282.078 227.267 281.487 227.892C280.896 228.506 280.43 229.222 280.089 230.04C279.76 230.847 279.589 231.71 279.578 232.631C279.589 233.847 279.874 234.966 280.43 235.989C280.987 237.011 281.754 237.83 282.732 238.443C283.709 239.057 284.817 239.364 286.055 239.364ZM316.567 244.477C314.294 244.477 312.26 244.051 310.464 243.199C308.669 242.335 307.243 241.153 306.186 239.653C305.141 238.153 304.584 236.437 304.516 234.506H310.652C310.766 235.937 311.385 237.108 312.51 238.017C313.635 238.915 314.987 239.364 316.567 239.364C317.805 239.364 318.908 239.08 319.874 238.511C320.839 237.943 321.601 237.153 322.158 236.142C322.714 235.131 322.987 233.977 322.976 232.682C322.987 231.364 322.709 230.193 322.141 229.17C321.572 228.148 320.794 227.347 319.805 226.767C318.817 226.176 317.68 225.881 316.396 225.881C315.351 225.869 314.322 226.062 313.311 226.46C312.3 226.858 311.499 227.381 310.908 228.028L305.197 227.091L307.021 209.091H327.271V214.375H312.254L311.249 223.631H311.453C312.101 222.869 313.016 222.239 314.197 221.739C315.379 221.227 316.675 220.972 318.084 220.972C320.197 220.972 322.084 221.472 323.743 222.472C325.402 223.46 326.709 224.824 327.663 226.562C328.618 228.301 329.095 230.29 329.095 232.528C329.095 234.835 328.561 236.892 327.493 238.699C326.436 240.494 324.964 241.909 323.078 242.943C321.203 243.966 319.033 244.477 316.567 244.477Z" fill="#FCFCFC"/>
<defs>
<filter id="filter0_d_139_70" x="0" y="0" width="397.18" height="306" filterUnits="userSpaceOnUse" color-interpolation-filters="sRGB">
<feFlood flood-opacity="0" result="BackgroundImageFix"/>
<feColorMatrix in="SourceAlpha" type="matrix" values="0 0 0 0 0 0 0 0 0 0 0 0 0 0 0 0 0 0 127 0" result="hardAlpha"/>
<feMorphology radius="3" operator="erode" in="SourceAlpha" result="effect1_dropShadow_139_70"/>
<feOffset dx="17" dy="16"/>
<feGaussianBlur stdDeviation="11"/>
<feComposite in2="hardAlpha" operator="out"/>
<feColorMatrix type="matrix" values="0 0 0 0 0.383337 0 0 0 0 0.322292 0 0 0 0 0.758333 0 0 0 0.16 0"/>
<feBlend mode="normal" in2="BackgroundImageFix" result="effect1_dropShadow_139_70"/>
<feBlend mode="normal" in="SourceGraphic" in2="effect1_dropShadow_139_70" result="shape"/>
</filter>
<radialGradient id="paint0_radial_139_70" cx="0" cy="0" r="1" gradientUnits="userSpaceOnUse" gradientTransform="translate(80.5 52) rotate(36.2948) scale(338.717 453.957)">
<stop stop-color="#EE45F5"/>
<stop offset="1" stop-color="#EE45F5" stop-opacity="0"/>
</radialGradient>
<radialGradient id="paint1_radial_139_70" cx="0" cy="0" r="1" gradientUnits="userSpaceOnUse" gradientTransform="translate(330 224) rotate(-140.181) scale(548.126 734.611)">
<stop stop-color="#9F24F3"/>
<stop offset="1" stop-color="#EE45F5" stop-opacity="0"/>
</radialGradient>
<linearGradient id="paint2_linear_139_70" x1="198.5" y1="22" x2="8.99999" y2="239.5" gradientUnits="userSpaceOnUse">
<stop stop-color="white"/>
<stop offset="1" stop-color="white" stop-opacity="0"/>
</linearGradient>
</defs>
</svg>
