<svg width="398" height="306" viewBox="0 0 398 306" fill="none" xmlns="http://www.w3.org/2000/svg">
<g filter="url(#filter0_d_105_90)">
<rect x="2" y="3" width="359.18" height="268" rx="34.0756" fill="#D9D9D9"/>
</g>
<rect x="2" y="3" width="359.18" height="268" rx="34.0756" fill="url(#paint0_radial_105_90)"/>
<rect x="2" y="3" width="359.18" height="268" rx="34.0756" fill="url(#paint1_radial_105_90)"/>
<mask id="mask0_105_90" style="mask-type:alpha" maskUnits="userSpaceOnUse" x="2" y="3" width="360" height="268">
<rect x="2" y="3" width="359.18" height="268" rx="34.0756" fill="white"/>
</mask>
<g mask="url(#mask0_105_90)">
<path d="M113.971 78.3508H186.073L142.027 112.275L114.136 94.4043V111.681L137.491 126.646L137.503 126.654C140.676 128.689 144.786 128.512 147.772 126.212L199.45 86.4093V177.692H113.971V192.238H206.064C210.447 192.238 214 188.686 214 184.304V71.7391C214 67.3572 210.447 63.805 206.064 63.805H113.971V78.3508Z" fill="url(#paint2_linear_105_90)"/>
<path d="M71.314 127.939C71.314 146.09 59.5071 156.039 50.3162 156.039C41.1253 156.039 29.3183 146.09 29.3183 127.939C29.3183 109.788 41.1253 99.839 50.3162 99.839C59.5071 99.839 71.314 109.788 71.314 127.939Z" fill="url(#paint3_linear_105_90)"/>
<path fill-rule="evenodd" clip-rule="evenodd" d="M-8.07028 42.5238C-11.509 43.1706 -14 46.1732 -14 49.6713V206.255C-14 209.916 -11.3908 213.057 -7.79145 213.729L106.082 235.002C110.354 235.8 114.302 232.522 114.302 228.177V28.2751C114.302 23.7194 110.16 20.2853 105.682 21.1276L-8.07028 42.5238ZM86.1943 127.939C86.1943 151.674 70.1311 170.915 50.3162 170.915C30.5012 170.915 14.438 151.674 14.438 127.939C14.438 104.204 30.5012 84.9626 50.3162 84.9626C70.1311 84.9626 86.1943 104.204 86.1943 127.939Z" fill="url(#paint4_linear_105_90)"/>
</g>
<path d="M175.636 226.545C175.636 230.307 174.932 233.528 173.523 236.21C172.125 238.881 170.216 240.926 167.795 242.347C165.386 243.767 162.653 244.477 159.597 244.477C156.54 244.477 153.801 243.767 151.381 242.347C148.972 240.915 147.063 238.864 145.653 236.193C144.256 233.511 143.557 230.295 143.557 226.545C143.557 222.784 144.256 219.568 145.653 216.898C147.063 214.216 148.972 212.165 151.381 210.744C153.801 209.324 156.54 208.614 159.597 208.614C162.653 208.614 165.386 209.324 167.795 210.744C170.216 212.165 172.125 214.216 173.523 216.898C174.932 219.568 175.636 222.784 175.636 226.545ZM169.278 226.545C169.278 223.898 168.864 221.665 168.034 219.847C167.216 218.017 166.08 216.636 164.625 215.705C163.17 214.761 161.494 214.29 159.597 214.29C157.699 214.29 156.023 214.761 154.568 215.705C153.114 216.636 151.972 218.017 151.142 219.847C150.324 221.665 149.915 223.898 149.915 226.545C149.915 229.193 150.324 231.432 151.142 233.261C151.972 235.08 153.114 236.46 154.568 237.403C156.023 238.335 157.699 238.801 159.597 238.801C161.494 238.801 163.17 238.335 164.625 237.403C166.08 236.46 167.216 235.08 168.034 233.261C168.864 231.432 169.278 229.193 169.278 226.545ZM198.03 232.989V217.818H204.2V244H198.217V239.347H197.945C197.354 240.812 196.382 242.011 195.03 242.943C193.689 243.875 192.036 244.341 190.07 244.341C188.354 244.341 186.837 243.96 185.518 243.199C184.212 242.426 183.189 241.307 182.45 239.841C181.712 238.364 181.342 236.58 181.342 234.489V217.818H187.513V233.534C187.513 235.193 187.967 236.511 188.876 237.489C189.786 238.466 190.979 238.955 192.456 238.955C193.365 238.955 194.246 238.733 195.098 238.29C195.95 237.847 196.649 237.188 197.195 236.312C197.751 235.426 198.03 234.318 198.03 232.989ZM223.619 217.818V222.591H208.568V217.818H223.619ZM212.284 211.545H218.455V236.125C218.455 236.955 218.58 237.591 218.83 238.034C219.091 238.466 219.432 238.761 219.852 238.92C220.273 239.08 220.739 239.159 221.25 239.159C221.636 239.159 221.989 239.131 222.307 239.074C222.636 239.017 222.886 238.966 223.057 238.92L224.097 243.744C223.767 243.858 223.295 243.983 222.682 244.119C222.08 244.256 221.341 244.335 220.466 244.358C218.92 244.403 217.528 244.17 216.29 243.659C215.051 243.136 214.068 242.33 213.341 241.239C212.625 240.148 212.273 238.784 212.284 237.148V211.545ZM235.513 209.091V244H229.342V209.091H235.513ZM253.278 244.511C250.722 244.511 248.506 243.949 246.631 242.824C244.756 241.699 243.301 240.125 242.267 238.102C241.244 236.08 240.733 233.716 240.733 231.011C240.733 228.307 241.244 225.937 242.267 223.903C243.301 221.869 244.756 220.29 246.631 219.165C248.506 218.04 250.722 217.477 253.278 217.477C255.835 217.477 258.051 218.04 259.926 219.165C261.801 220.29 263.25 221.869 264.273 223.903C265.307 225.937 265.824 228.307 265.824 231.011C265.824 233.716 265.307 236.08 264.273 238.102C263.25 240.125 261.801 241.699 259.926 242.824C258.051 243.949 255.835 244.511 253.278 244.511ZM253.312 239.568C254.699 239.568 255.858 239.187 256.79 238.426C257.722 237.653 258.415 236.619 258.869 235.324C259.335 234.028 259.568 232.585 259.568 230.994C259.568 229.392 259.335 227.943 258.869 226.648C258.415 225.341 257.722 224.301 256.79 223.528C255.858 222.756 254.699 222.369 253.312 222.369C251.892 222.369 250.71 222.756 249.767 223.528C248.835 224.301 248.136 225.341 247.67 226.648C247.216 227.943 246.989 229.392 246.989 230.994C246.989 232.585 247.216 234.028 247.67 235.324C248.136 236.619 248.835 237.653 249.767 238.426C250.71 239.187 251.892 239.568 253.312 239.568ZM282.482 244.511C279.925 244.511 277.709 243.949 275.834 242.824C273.959 241.699 272.504 240.125 271.47 238.102C270.447 236.08 269.936 233.716 269.936 231.011C269.936 228.307 270.447 225.937 271.47 223.903C272.504 221.869 273.959 220.29 275.834 219.165C277.709 218.04 279.925 217.477 282.482 217.477C285.038 217.477 287.254 218.04 289.129 219.165C291.004 220.29 292.453 221.869 293.476 223.903C294.51 225.937 295.027 228.307 295.027 231.011C295.027 233.716 294.51 236.08 293.476 238.102C292.453 240.125 291.004 241.699 289.129 242.824C287.254 243.949 285.038 244.511 282.482 244.511ZM282.516 239.568C283.902 239.568 285.061 239.187 285.993 238.426C286.925 237.653 287.618 236.619 288.072 235.324C288.538 234.028 288.771 232.585 288.771 230.994C288.771 229.392 288.538 227.943 288.072 226.648C287.618 225.341 286.925 224.301 285.993 223.528C285.061 222.756 283.902 222.369 282.516 222.369C281.095 222.369 279.913 222.756 278.97 223.528C278.038 224.301 277.339 225.341 276.874 226.648C276.419 227.943 276.192 229.392 276.192 230.994C276.192 232.585 276.419 234.028 276.874 235.324C277.339 236.619 278.038 237.653 278.97 238.426C279.913 239.187 281.095 239.568 282.516 239.568ZM305.889 235.784L305.872 228.335H306.861L316.27 217.818H323.48L311.906 230.705H310.628L305.889 235.784ZM300.264 244V209.091H306.435V244H300.264ZM316.696 244L308.173 232.085L312.332 227.739L324.077 244H316.696Z" fill="white"/>
<defs>
<filter id="filter0_d_105_90" x="0" y="0" width="397.18" height="306" filterUnits="userSpaceOnUse" color-interpolation-filters="sRGB">
<feFlood flood-opacity="0" result="BackgroundImageFix"/>
<feColorMatrix in="SourceAlpha" type="matrix" values="0 0 0 0 0 0 0 0 0 0 0 0 0 0 0 0 0 0 127 0" result="hardAlpha"/>
<feMorphology radius="3" operator="erode" in="SourceAlpha" result="effect1_dropShadow_105_90"/>
<feOffset dx="17" dy="16"/>
<feGaussianBlur stdDeviation="11"/>
<feComposite in2="hardAlpha" operator="out"/>
<feColorMatrix type="matrix" values="0 0 0 0 0.383337 0 0 0 0 0.322292 0 0 0 0 0.758333 0 0 0 0.16 0"/>
<feBlend mode="normal" in2="BackgroundImageFix" result="effect1_dropShadow_105_90"/>
<feBlend mode="normal" in="SourceGraphic" in2="effect1_dropShadow_105_90" result="shape"/>
</filter>
<radialGradient id="paint0_radial_105_90" cx="0" cy="0" r="1" gradientUnits="userSpaceOnUse" gradientTransform="translate(35.5168 39) rotate(37.7329) scale(411.777 551.528)">
<stop stop-color="#4945E1"/>
<stop offset="1" stop-color="#4945E1" stop-opacity="0"/>
</radialGradient>
<radialGradient id="paint1_radial_105_90" cx="0" cy="0" r="1" gradientUnits="userSpaceOnUse" gradientTransform="translate(383.191 284) rotate(-142.706) scale(509.977 683.049)">
<stop stop-color="#45D8E1"/>
<stop offset="1" stop-color="#4945E1" stop-opacity="0"/>
</radialGradient>
<linearGradient id="paint2_linear_105_90" x1="221.5" y1="51.5" x2="37" y2="235" gradientUnits="userSpaceOnUse">
<stop stop-color="white"/>
<stop offset="1" stop-color="white" stop-opacity="0"/>
</linearGradient>
<linearGradient id="paint3_linear_105_90" x1="221.5" y1="51.5" x2="37" y2="235" gradientUnits="userSpaceOnUse">
<stop stop-color="white"/>
<stop offset="1" stop-color="white" stop-opacity="0"/>
</linearGradient>
<linearGradient id="paint4_linear_105_90" x1="221.5" y1="51.5" x2="37" y2="235" gradientUnits="userSpaceOnUse">
<stop stop-color="white"/>
<stop offset="1" stop-color="white" stop-opacity="0"/>
</linearGradient>
</defs>
</svg>
