<svg width="248" height="93" viewBox="0 0 248 93" fill="none" xmlns="http://www.w3.org/2000/svg">
<g filter="url(#filter0_d_520_106)">
<path d="M222 42.0086C222 53.0496 213.05 62 202.009 62H46.5C35.1782 62 26 52.8218 26 41.5C26 30.1782 35.1782 21 46.5 21H200.991C212.594 21 222 30.4059 222 42.0086Z" fill="white"/>
</g>
<path d="M88.3274 49V33.7273H94.353C95.5114 33.7273 96.4982 33.9485 97.3136 34.391C98.1289 34.8285 98.7504 35.4375 99.1779 36.218C99.6104 36.9936 99.8267 37.8885 99.8267 38.9027C99.8267 39.9169 99.608 40.8118 99.1705 41.5874C98.733 42.3629 98.0991 42.967 97.2688 43.3995C96.4435 43.832 95.4442 44.0483 94.271 44.0483H90.4304V41.4606H93.7489C94.3704 41.4606 94.8825 41.3537 95.2852 41.1399C95.6928 40.9212 95.9961 40.6204 96.195 40.2376C96.3988 39.8498 96.5007 39.4048 96.5007 38.9027C96.5007 38.3956 96.3988 37.9531 96.195 37.5753C95.9961 37.1925 95.6928 36.8967 95.2852 36.6879C94.8775 36.4741 94.3604 36.3672 93.734 36.3672H91.5565V49H88.3274ZM106.855 49.2237C105.697 49.2237 104.695 48.9776 103.85 48.4854C103.01 47.9883 102.361 47.2972 101.904 46.4123C101.446 45.5224 101.218 44.4908 101.218 43.3175C101.218 42.1342 101.446 41.1001 101.904 40.2152C102.361 39.3253 103.01 38.6342 103.85 38.142C104.695 37.6449 105.697 37.3963 106.855 37.3963C108.014 37.3963 109.013 37.6449 109.853 38.142C110.698 38.6342 111.35 39.3253 111.807 40.2152C112.264 41.1001 112.493 42.1342 112.493 43.3175C112.493 44.4908 112.264 45.5224 111.807 46.4123C111.35 47.2972 110.698 47.9883 109.853 48.4854C109.013 48.9776 108.014 49.2237 106.855 49.2237ZM106.87 46.7628C107.397 46.7628 107.837 46.6136 108.19 46.3153C108.543 46.0121 108.809 45.5994 108.988 45.0774C109.172 44.5554 109.264 43.9613 109.264 43.2951C109.264 42.6289 109.172 42.0348 108.988 41.5128C108.809 40.9908 108.543 40.5781 108.19 40.2749C107.837 39.9716 107.397 39.82 106.87 39.82C106.338 39.82 105.891 39.9716 105.528 40.2749C105.17 40.5781 104.899 40.9908 104.715 41.5128C104.536 42.0348 104.447 42.6289 104.447 43.2951C104.447 43.9613 104.536 44.5554 104.715 45.0774C104.899 45.5994 105.17 46.0121 105.528 46.3153C105.891 46.6136 106.338 46.7628 106.87 46.7628ZM114.559 49V37.5455H117.639V39.544H117.758C117.967 38.8331 118.317 38.2962 118.809 37.9332C119.302 37.5653 119.868 37.3814 120.51 37.3814C120.669 37.3814 120.84 37.3913 121.024 37.4112C121.208 37.4311 121.37 37.4585 121.509 37.4933V40.3121C121.36 40.2674 121.154 40.2276 120.89 40.1928C120.627 40.158 120.385 40.1406 120.167 40.1406C119.699 40.1406 119.282 40.2425 118.914 40.4464C118.551 40.6452 118.263 40.9237 118.049 41.2816C117.84 41.6396 117.736 42.0522 117.736 42.5195V49H114.559ZM129.818 37.5455V39.9318H122.92V37.5455H129.818ZM124.486 34.8011H127.663V45.4801C127.663 45.7734 127.708 46.0021 127.797 46.1662C127.887 46.3253 128.011 46.4371 128.17 46.5018C128.334 46.5664 128.523 46.5987 128.737 46.5987C128.886 46.5987 129.035 46.5863 129.185 46.5614C129.334 46.5316 129.448 46.5092 129.528 46.4943L130.027 48.8583C129.868 48.908 129.644 48.9652 129.356 49.0298C129.068 49.0994 128.717 49.1417 128.305 49.1566C127.539 49.1864 126.868 49.0845 126.291 48.8509C125.719 48.6172 125.274 48.2543 124.956 47.7621C124.638 47.2699 124.481 46.6484 124.486 45.8977V34.8011ZM139.233 44.1229V37.5455H142.41V49H139.36V46.9194H139.241C138.982 47.5906 138.552 48.13 137.951 48.5376C137.354 48.9453 136.626 49.1491 135.766 49.1491C135 49.1491 134.326 48.9751 133.745 48.6271C133.163 48.2791 132.708 47.7844 132.38 47.1431C132.057 46.5018 131.893 45.7337 131.888 44.8388V37.5455H135.065V44.272C135.07 44.9482 135.251 45.4826 135.609 45.8754C135.967 46.2681 136.447 46.4645 137.048 46.4645C137.431 46.4645 137.789 46.3775 138.122 46.2035C138.455 46.0245 138.724 45.761 138.928 45.413C139.136 45.065 139.238 44.6349 139.233 44.1229ZM150.112 53.5341C149.083 53.5341 148.2 53.3924 147.464 53.109C146.734 52.8306 146.152 52.4503 145.719 51.968C145.287 51.4858 145.006 50.9439 144.877 50.3423L147.815 49.9471C147.904 50.1758 148.046 50.3896 148.24 50.5884C148.434 50.7873 148.69 50.9464 149.008 51.0657C149.331 51.19 149.724 51.2521 150.186 51.2521C150.877 51.2521 151.447 51.0831 151.894 50.745C152.347 50.4119 152.573 49.8526 152.573 49.0671V46.9716H152.439C152.299 47.2898 152.091 47.5906 151.812 47.8739C151.534 48.1573 151.176 48.3885 150.738 48.5675C150.301 48.7464 149.779 48.8359 149.172 48.8359C148.312 48.8359 147.529 48.6371 146.823 48.2393C146.122 47.8366 145.563 47.2227 145.145 46.3974C144.733 45.5671 144.526 44.5181 144.526 43.2504C144.526 41.9528 144.738 40.869 145.16 39.9989C145.583 39.1289 146.145 38.4776 146.846 38.0451C147.551 37.6126 148.325 37.3963 149.165 37.3963C149.806 37.3963 150.343 37.5057 150.776 37.7244C151.208 37.9382 151.556 38.2067 151.82 38.5298C152.088 38.848 152.294 39.1612 152.439 39.4695H152.558V37.5455H155.712V49.1119C155.712 50.0863 155.474 50.9016 154.996 51.5579C154.519 52.2141 153.858 52.7063 153.013 53.0344C152.173 53.3675 151.206 53.5341 150.112 53.5341ZM150.179 46.4496C150.691 46.4496 151.124 46.3228 151.477 46.0692C151.835 45.8107 152.108 45.4428 152.297 44.9656C152.491 44.4833 152.588 43.9066 152.588 43.2354C152.588 42.5643 152.493 41.9826 152.304 41.4904C152.115 40.9933 151.842 40.608 151.484 40.3345C151.126 40.0611 150.691 39.9244 150.179 39.9244C149.657 39.9244 149.217 40.0661 148.859 40.3494C148.501 40.6278 148.23 41.0156 148.046 41.5128C147.862 42.0099 147.77 42.5842 147.77 43.2354C147.77 43.8967 147.862 44.4684 148.046 44.9506C148.235 45.4279 148.506 45.7983 148.859 46.0618C149.217 46.3203 149.657 46.4496 150.179 46.4496ZM165.586 44.1229V37.5455H168.763V49H165.713V46.9194H165.593C165.335 47.5906 164.905 48.13 164.303 48.5376C163.707 48.9453 162.978 49.1491 162.118 49.1491C161.353 49.1491 160.679 48.9751 160.097 48.6271C159.516 48.2791 159.061 47.7844 158.733 47.1431C158.409 46.5018 158.245 45.7337 158.24 44.8388V37.5455H161.417V44.272C161.422 44.9482 161.604 45.4826 161.962 45.8754C162.32 46.2681 162.799 46.4645 163.401 46.4645C163.784 46.4645 164.142 46.3775 164.475 46.2035C164.808 46.0245 165.076 45.761 165.28 45.413C165.489 45.065 165.591 44.6349 165.586 44.1229ZM176.524 49.2237C175.346 49.2237 174.332 48.9851 173.481 48.5078C172.636 48.0256 171.985 47.3445 171.528 46.4645C171.07 45.5795 170.842 44.533 170.842 43.3249C170.842 42.1467 171.07 41.1126 171.528 40.2227C171.985 39.3327 172.629 38.6392 173.459 38.142C174.294 37.6449 175.274 37.3963 176.397 37.3963C177.153 37.3963 177.856 37.5181 178.508 37.7617C179.164 38.0004 179.736 38.3608 180.223 38.843C180.715 39.3253 181.098 39.9318 181.371 40.6626C181.645 41.3885 181.782 42.2386 181.782 43.2131V44.0856H172.109V42.1168H178.791C178.791 41.6594 178.692 41.2543 178.493 40.9013C178.294 40.5483 178.018 40.2724 177.665 40.0735C177.317 39.8697 176.912 39.7678 176.449 39.7678C175.967 39.7678 175.54 39.8796 175.167 40.1033C174.799 40.3221 174.511 40.6179 174.302 40.9908C174.093 41.3587 173.986 41.7688 173.981 42.2212V44.093C173.981 44.6598 174.085 45.1495 174.294 45.5621C174.508 45.9748 174.809 46.293 175.197 46.5167C175.584 46.7404 176.044 46.8523 176.576 46.8523C176.929 46.8523 177.252 46.8026 177.546 46.7031C177.839 46.6037 178.09 46.4545 178.299 46.2557C178.508 46.0568 178.667 45.8132 178.776 45.5249L181.714 45.7188C181.565 46.4247 181.259 47.0412 180.797 47.5682C180.34 48.0902 179.748 48.4979 179.022 48.7912C178.301 49.0795 177.469 49.2237 176.524 49.2237ZM177.822 36.1733L176.323 34.3537L174.824 36.1733H172.117V36.0689L175.137 32.7876H177.501L180.529 36.0689V36.1733H177.822ZM193.385 40.8118L190.477 40.9908C190.427 40.7422 190.32 40.5185 190.156 40.3196C189.992 40.1158 189.776 39.9542 189.507 39.8349C189.244 39.7106 188.928 39.6484 188.56 39.6484C188.068 39.6484 187.653 39.7528 187.315 39.9616C186.977 40.1655 186.808 40.4389 186.808 40.782C186.808 41.0554 186.917 41.2866 187.136 41.4755C187.355 41.6644 187.73 41.8161 188.262 41.9304L190.335 42.348C191.449 42.5767 192.279 42.9446 192.826 43.4517C193.373 43.9588 193.646 44.625 193.646 45.4503C193.646 46.201 193.425 46.8597 192.983 47.4265C192.545 47.9933 191.943 48.4357 191.178 48.7539C190.417 49.0671 189.54 49.2237 188.545 49.2237C187.029 49.2237 185.821 48.908 184.921 48.2766C184.026 47.6403 183.502 46.7752 183.348 45.6815L186.472 45.5174C186.567 45.9798 186.795 46.3327 187.158 46.5763C187.521 46.815 187.986 46.9343 188.553 46.9343C189.11 46.9343 189.557 46.8274 189.895 46.6136C190.238 46.3949 190.412 46.114 190.417 45.771C190.412 45.4826 190.29 45.2464 190.052 45.0625C189.813 44.8736 189.445 44.7294 188.948 44.63L186.964 44.2347C185.846 44.011 185.013 43.6232 184.466 43.0714C183.924 42.5195 183.653 41.8161 183.653 40.9609C183.653 40.2251 183.852 39.5913 184.25 39.0593C184.653 38.5273 185.217 38.1172 185.943 37.8288C186.674 37.5405 187.529 37.3963 188.508 37.3963C189.955 37.3963 191.093 37.7021 191.924 38.3136C192.759 38.9251 193.246 39.7578 193.385 40.8118Z" fill="black"/>
<path d="M77.2162 33.6364C76.8422 33.3792 76.4042 33.1928 75.933 33.0905C75.4618 32.9881 74.9691 32.9724 74.4898 33.0443L68.7345 33.9063C67.9817 34.0183 67.2796 34.2958 66.7026 34.7096C66.1258 34.2957 65.4237 34.0181 64.6707 33.9063L58.9214 33.0443C58.4421 32.9726 57.9495 32.9884 57.4785 33.0906C57.0074 33.1929 56.5694 33.3791 56.1954 33.6361C55.8213 33.8931 55.5204 34.2146 55.3138 34.578C55.1073 34.9413 55.0001 35.3375 55 35.7387V49.0128L66.7056 50.7657L78.4111 49.0128V35.7387C78.4117 35.3375 78.3049 34.9412 78.0983 34.5778C77.8918 34.2145 77.5906 33.893 77.2162 33.6364ZM65.2424 48.0962L57.9264 47.0013V35.7387C57.9269 35.6908 57.9401 35.6436 57.9651 35.6003C57.99 35.557 58.0261 35.5187 58.0709 35.4882C58.1157 35.4576 58.168 35.4354 58.2242 35.4232C58.2805 35.4109 58.3393 35.409 58.3966 35.4174L64.1518 36.2793C64.4574 36.3253 64.7339 36.458 64.9331 36.6544C65.1323 36.8507 65.2417 37.0983 65.2424 37.3542V48.0962ZM75.4847 47.0013L68.1688 48.097V37.3542C68.1688 37.0977 68.2782 36.8493 68.4779 36.6524C68.6775 36.4556 68.9548 36.3227 69.2613 36.2769L75.0165 35.4158C75.0738 35.4071 75.1328 35.4088 75.1892 35.4209C75.2455 35.433 75.298 35.4552 75.3429 35.4859C75.3877 35.5165 75.4238 35.5549 75.4487 35.5983C75.4735 35.6417 75.4865 35.6891 75.4867 35.7371L75.4847 47.0013Z" fill="black"/>
<defs>
<filter id="filter0_d_520_106" x="0.615385" y="0.692308" width="246.769" height="91.7692" filterUnits="userSpaceOnUse" color-interpolation-filters="sRGB">
<feFlood flood-opacity="0" result="BackgroundImageFix"/>
<feColorMatrix in="SourceAlpha" type="matrix" values="0 0 0 0 0 0 0 0 0 0 0 0 0 0 0 0 0 0 127 0" result="hardAlpha"/>
<feOffset dy="5.07692"/>
<feGaussianBlur stdDeviation="12.6923"/>
<feComposite in2="hardAlpha" operator="out"/>
<feColorMatrix type="matrix" values="0 0 0 0 0.384314 0 0 0 0 0.321569 0 0 0 0 0.756863 0 0 0 0.25 0"/>
<feBlend mode="normal" in2="BackgroundImageFix" result="effect1_dropShadow_520_106"/>
<feBlend mode="normal" in="SourceGraphic" in2="effect1_dropShadow_520_106" result="shape"/>
</filter>
</defs>
</svg>
