<svg width="321" height="113" viewBox="0 0 321 113" fill="none" xmlns="http://www.w3.org/2000/svg">
<g filter="url(#filter0_d_520_108)">
<path d="M289.292 50.6203C289.292 64.0848 278.376 75 264.912 75H57C43.1929 75 32 63.8071 32 50C32 36.1929 43.1929 25 57 25H263.671C277.821 25 289.292 36.4706 289.292 50.6203Z" fill="white"/>
</g>
<path d="M113.659 59V39.4509H121.372C122.855 39.4509 124.118 39.7341 125.161 40.3005C126.205 40.8605 127 41.64 127.548 42.6391C128.101 43.6318 128.378 44.7773 128.378 46.0755C128.378 47.3736 128.098 48.5191 127.538 49.5118C126.978 50.5045 126.167 51.2777 125.104 51.8314C124.048 52.385 122.769 52.6618 121.267 52.6618H116.351V49.3495H120.599C121.394 49.3495 122.05 49.2127 122.565 48.9391C123.087 48.6591 123.475 48.2741 123.73 47.7841C123.99 47.2877 124.121 46.7182 124.121 46.0755C124.121 45.4264 123.99 44.86 123.73 44.3764C123.475 43.8864 123.087 43.5077 122.565 43.2405C122.043 42.9668 121.381 42.83 120.58 42.83H117.792V59H113.659ZM137.375 59.2864C135.892 59.2864 134.61 58.9714 133.528 58.3414C132.452 57.705 131.622 56.8205 131.037 55.6877C130.451 54.5486 130.158 53.2282 130.158 51.7264C130.158 50.2118 130.451 48.8882 131.037 47.7555C131.622 46.6164 132.452 45.7318 133.528 45.1018C134.61 44.4655 135.892 44.1473 137.375 44.1473C138.857 44.1473 140.137 44.4655 141.212 45.1018C142.294 45.7318 143.127 46.6164 143.713 47.7555C144.298 48.8882 144.591 50.2118 144.591 51.7264C144.591 53.2282 144.298 54.5486 143.713 55.6877C143.127 56.8205 142.294 57.705 141.212 58.3414C140.137 58.9714 138.857 59.2864 137.375 59.2864ZM137.394 56.1364C138.068 56.1364 138.632 55.9455 139.083 55.5636C139.535 55.1755 139.876 54.6473 140.105 53.9791C140.34 53.3109 140.458 52.5505 140.458 51.6977C140.458 50.845 140.34 50.0845 140.105 49.4164C139.876 48.7482 139.535 48.22 139.083 47.8318C138.632 47.4436 138.068 47.2495 137.394 47.2495C136.713 47.2495 136.14 47.4436 135.676 47.8318C135.217 48.22 134.871 48.7482 134.635 49.4164C134.406 50.0845 134.292 50.845 134.292 51.6977C134.292 52.5505 134.406 53.3109 134.635 53.9791C134.871 54.6473 135.217 55.1755 135.676 55.5636C136.14 55.9455 136.713 56.1364 137.394 56.1364ZM147.235 59V44.3382H151.177V46.8964H151.33C151.597 45.9864 152.046 45.2991 152.676 44.8345C153.306 44.3636 154.032 44.1282 154.852 44.1282C155.056 44.1282 155.276 44.1409 155.511 44.1664C155.747 44.1918 155.953 44.2268 156.132 44.2714V47.8795C155.941 47.8223 155.677 47.7714 155.339 47.7268C155.002 47.6823 154.693 47.66 154.413 47.66C153.815 47.66 153.281 47.7905 152.81 48.0514C152.345 48.3059 151.976 48.6623 151.702 49.1205C151.435 49.5786 151.302 50.1068 151.302 50.705V59H147.235ZM166.768 44.3382V47.3927H157.938V44.3382H166.768ZM159.943 40.8255H164.009V54.4945C164.009 54.87 164.066 55.1627 164.181 55.3727C164.295 55.5764 164.454 55.7195 164.658 55.8023C164.868 55.885 165.11 55.9264 165.383 55.9264C165.574 55.9264 165.765 55.9105 165.956 55.8786C166.147 55.8405 166.293 55.8118 166.395 55.7927L167.035 58.8186C166.831 58.8823 166.545 58.9555 166.176 59.0382C165.807 59.1273 165.358 59.1814 164.83 59.2005C163.85 59.2386 162.991 59.1082 162.253 58.8091C161.521 58.51 160.951 58.0455 160.544 57.4155C160.137 56.7855 159.936 55.99 159.943 55.0291V40.8255ZM178.819 52.7573V44.3382H182.885V59H178.981V56.3368H178.828C178.497 57.1959 177.947 57.8864 177.177 58.4082C176.413 58.93 175.481 59.1909 174.38 59.1909C173.4 59.1909 172.538 58.9682 171.793 58.5227C171.049 58.0773 170.466 57.4441 170.046 56.6232C169.633 55.8023 169.423 54.8191 169.416 53.6736V44.3382H173.483V52.9482C173.489 53.8136 173.721 54.4977 174.18 55.0005C174.638 55.5032 175.252 55.7545 176.022 55.7545C176.512 55.7545 176.97 55.6432 177.396 55.4205C177.823 55.1914 178.166 54.8541 178.427 54.4086C178.695 53.9632 178.825 53.4127 178.819 52.7573ZM192.743 64.8036C191.426 64.8036 190.296 64.6223 189.354 64.2595C188.419 63.9032 187.674 63.4164 187.121 62.7991C186.567 62.1818 186.208 61.4882 186.042 60.7182L189.803 60.2123C189.918 60.505 190.099 60.7786 190.347 61.0332C190.595 61.2877 190.923 61.4914 191.33 61.6441C191.744 61.8032 192.247 61.8827 192.839 61.8827C193.723 61.8827 194.452 61.6664 195.024 61.2336C195.604 60.8073 195.893 60.0914 195.893 59.0859V56.4036H195.721C195.543 56.8109 195.276 57.1959 194.919 57.5586C194.563 57.9214 194.105 58.2173 193.545 58.4464C192.985 58.6755 192.317 58.79 191.54 58.79C190.439 58.79 189.437 58.5355 188.534 58.0264C187.636 57.5109 186.92 56.725 186.386 55.6686C185.858 54.6059 185.594 53.2632 185.594 51.6405C185.594 49.9795 185.864 48.5923 186.405 47.4786C186.946 46.365 187.665 45.5314 188.562 44.9777C189.466 44.4241 190.455 44.1473 191.531 44.1473C192.352 44.1473 193.039 44.2873 193.593 44.5673C194.146 44.8409 194.592 45.1845 194.929 45.5982C195.273 46.0055 195.537 46.4064 195.721 46.8009H195.874V44.3382H199.912V59.1432C199.912 60.3905 199.606 61.4341 198.995 62.2741C198.384 63.1141 197.538 63.7441 196.456 64.1641C195.381 64.5905 194.143 64.8036 192.743 64.8036ZM192.829 55.7355C193.484 55.7355 194.038 55.5732 194.49 55.2486C194.948 54.9177 195.298 54.4468 195.54 53.8359C195.788 53.2186 195.912 52.4805 195.912 51.6214C195.912 50.7623 195.791 50.0177 195.549 49.3877C195.308 48.7514 194.958 48.2582 194.499 47.9082C194.041 47.5582 193.484 47.3832 192.829 47.3832C192.161 47.3832 191.598 47.5645 191.139 47.9273C190.681 48.2836 190.334 48.78 190.099 49.4164C189.864 50.0527 189.746 50.7877 189.746 51.6214C189.746 52.4677 189.864 53.1995 190.099 53.8168C190.341 54.4277 190.688 54.9018 191.139 55.2391C191.598 55.57 192.161 55.7355 192.829 55.7355ZM212.55 52.7573V44.3382H216.616V59H212.712V56.3368H212.56C212.229 57.1959 211.678 57.8864 210.908 58.4082C210.145 58.93 209.212 59.1909 208.111 59.1909C207.131 59.1909 206.269 58.9682 205.525 58.5227C204.78 58.0773 204.198 57.4441 203.778 56.6232C203.364 55.8023 203.154 54.8191 203.148 53.6736V44.3382H207.214V52.9482C207.22 53.8136 207.453 54.4977 207.911 55.0005C208.369 55.5032 208.983 55.7545 209.753 55.7545C210.243 55.7545 210.701 55.6432 211.128 55.4205C211.554 55.1914 211.898 54.8541 212.159 54.4086C212.426 53.9632 212.556 53.4127 212.55 52.7573ZM226.551 59.2864C225.043 59.2864 223.744 58.9809 222.656 58.37C221.574 57.7527 220.741 56.8809 220.155 55.7545C219.57 54.6218 219.277 53.2823 219.277 51.7359C219.277 50.2277 219.57 48.9041 220.155 47.765C220.741 46.6259 221.565 45.7382 222.628 45.1018C223.697 44.4655 224.95 44.1473 226.388 44.1473C227.356 44.1473 228.256 44.3032 229.09 44.615C229.93 44.9205 230.662 45.3818 231.285 45.9991C231.915 46.6164 232.405 47.3927 232.755 48.3282C233.105 49.2573 233.28 50.3455 233.28 51.5927V52.7095H220.9V50.1895H229.453C229.453 49.6041 229.325 49.0855 229.071 48.6336C228.816 48.1818 228.463 47.8286 228.011 47.5741C227.566 47.3132 227.047 47.1827 226.455 47.1827C225.838 47.1827 225.291 47.3259 224.813 47.6123C224.343 47.8923 223.973 48.2709 223.706 48.7482C223.439 49.2191 223.302 49.7441 223.296 50.3232V52.7191C223.296 53.4445 223.429 54.0714 223.697 54.5995C223.97 55.1277 224.355 55.535 224.852 55.8214C225.348 56.1077 225.937 56.2509 226.618 56.2509C227.069 56.2509 227.483 56.1873 227.858 56.06C228.234 55.9327 228.555 55.7418 228.823 55.4873C229.09 55.2327 229.293 54.9209 229.433 54.5518L233.194 54.8C233.003 55.7036 232.612 56.4927 232.02 57.1673C231.435 57.8355 230.678 58.3573 229.748 58.7327C228.826 59.1018 227.76 59.2864 226.551 59.2864ZM228.212 42.5818L226.293 40.2527L224.374 42.5818H220.909V42.4482L224.775 38.2482H227.801L231.677 42.4482V42.5818H228.212ZM248.133 48.5191L244.41 48.7482C244.347 48.43 244.21 48.1436 244 47.8891C243.79 47.6282 243.513 47.4214 243.169 47.2686C242.832 47.1095 242.428 47.03 241.957 47.03C241.327 47.03 240.796 47.1636 240.363 47.4309C239.93 47.6918 239.714 48.0418 239.714 48.4809C239.714 48.8309 239.854 49.1268 240.134 49.3686C240.414 49.6105 240.894 49.8045 241.575 49.9509L244.229 50.4855C245.654 50.7782 246.717 51.2491 247.417 51.8982C248.117 52.5473 248.467 53.4 248.467 54.4564C248.467 55.4173 248.184 56.2605 247.618 56.9859C247.058 57.7114 246.288 58.2777 245.308 58.685C244.334 59.0859 243.211 59.2864 241.938 59.2864C239.997 59.2864 238.451 58.8823 237.299 58.0741C236.153 57.2595 235.482 56.1523 235.285 54.7523L239.284 54.5423C239.405 55.1341 239.698 55.5859 240.163 55.8977C240.627 56.2032 241.222 56.3559 241.948 56.3559C242.66 56.3559 243.233 56.2191 243.666 55.9455C244.105 55.6655 244.328 55.3059 244.334 54.8668C244.328 54.4977 244.172 54.1955 243.866 53.96C243.561 53.7182 243.09 53.5336 242.453 53.4064L239.914 52.9005C238.483 52.6141 237.417 52.1177 236.717 51.4114C236.023 50.705 235.676 49.8045 235.676 48.71C235.676 47.7682 235.931 46.9568 236.44 46.2759C236.955 45.595 237.678 45.07 238.607 44.7009C239.542 44.3318 240.637 44.1473 241.89 44.1473C243.742 44.1473 245.199 44.5386 246.262 45.3214C247.331 46.1041 247.955 47.17 248.133 48.5191Z" fill="black"/>
<path d="M99.4367 39.9347C98.958 39.6054 98.3973 39.3669 97.7942 39.2359C97.1912 39.1049 96.5605 39.0848 95.9469 39.1769L88.5802 40.2802C87.6165 40.4235 86.7178 40.7788 85.9794 41.3085C85.2411 40.7786 84.3423 40.4233 83.3786 40.2802L76.0193 39.1769C75.4059 39.085 74.7754 39.1053 74.1725 39.2361C73.5695 39.367 73.0088 39.6054 72.5301 39.9343C72.0513 40.2633 71.6661 40.6749 71.4017 41.1399C71.1373 41.605 71.0002 42.1122 71 42.6256V59.6165L85.9831 61.8602L100.966 59.6165V42.6256C100.967 42.1121 100.83 41.6048 100.566 41.1397C100.302 40.6746 99.916 40.2632 99.4367 39.9347ZM84.1102 58.4433L74.7458 57.0418V42.6256C74.7464 42.5643 74.7633 42.5039 74.7953 42.4485C74.8272 42.3931 74.8735 42.3441 74.9308 42.305C74.9881 42.2658 75.055 42.2374 75.127 42.2218C75.199 42.2061 75.2743 42.2036 75.3476 42.2143L82.7143 43.3177C83.1055 43.3765 83.4593 43.5464 83.7143 43.7977C83.9693 44.049 84.1094 44.366 84.1102 44.6935V58.4433ZM97.2205 57.0418L87.856 58.4443V44.6935C87.8561 44.3651 87.9961 44.0472 88.2517 43.7952C88.5072 43.5432 88.8621 43.3731 89.2544 43.3146L96.6211 42.2123C96.6945 42.2011 96.7699 42.2034 96.8421 42.2189C96.9143 42.2344 96.9815 42.2628 97.0389 42.302C97.0963 42.3413 97.1425 42.3904 97.1743 42.446C97.2061 42.5015 97.2227 42.5622 97.223 42.6236L97.2205 57.0418Z" fill="black"/>
<defs>
<filter id="filter0_d_520_108" x="0.750002" y="1.90735e-06" width="319.792" height="112.5" filterUnits="userSpaceOnUse" color-interpolation-filters="sRGB">
<feFlood flood-opacity="0" result="BackgroundImageFix"/>
<feColorMatrix in="SourceAlpha" type="matrix" values="0 0 0 0 0 0 0 0 0 0 0 0 0 0 0 0 0 0 127 0" result="hardAlpha"/>
<feOffset dy="6.25"/>
<feGaussianBlur stdDeviation="15.625"/>
<feComposite in2="hardAlpha" operator="out"/>
<feColorMatrix type="matrix" values="0 0 0 0 0.384314 0 0 0 0 0.321569 0 0 0 0 0.756863 0 0 0 0.25 0"/>
<feBlend mode="normal" in2="BackgroundImageFix" result="effect1_dropShadow_520_108"/>
<feBlend mode="normal" in="SourceGraphic" in2="effect1_dropShadow_520_108" result="shape"/>
</filter>
</defs>
</svg>
