<svg width="398" height="306" viewBox="0 0 398 306" fill="none" xmlns="http://www.w3.org/2000/svg">
<g filter="url(#filter0_d_139_71)">
<rect x="2" y="3" width="359.18" height="268" rx="37" fill="url(#paint0_linear_139_71)"/>
</g>
<mask id="mask0_139_71" style="mask-type:alpha" maskUnits="userSpaceOnUse" x="2" y="3" width="360" height="268">
<rect x="2" y="3" width="359.18" height="268" rx="37" fill="url(#paint1_linear_139_71)"/>
</mask>
<g mask="url(#mask0_139_71)">
<path d="M-22 122.605C-22 116.149 -16.7666 110.916 -10.3108 110.916H82.6182C89.074 110.916 94.3074 116.149 94.3074 122.605V186.343C94.3074 190.974 93.6597 195.583 92.3832 200.035L91.1517 204.33C75.2034 259.953 -3.76274 259.54 -19.1277 203.753L-20.2166 199.799C-21.4001 195.502 -22 191.065 -22 186.608V122.605Z" fill="url(#paint2_linear_139_71)"/>
<path d="M97.0207 201.038C115.355 208.782 139.687 200.984 145.896 177.312C146.569 174.75 146.909 172.112 146.909 169.463V118.283C146.909 114.214 143.61 110.916 139.541 110.916H92.9797C96.8794 112.81 99.5675 116.809 99.5675 121.436V185.174C99.5675 189.805 98.9199 194.414 97.6433 198.866L97.0207 201.038Z" fill="url(#paint3_linear_139_71)"/>
<path d="M71.5135 59.7753C71.5135 78.9812 55.944 94.5507 36.7382 94.5507C17.5323 94.5507 1.96283 78.9812 1.96283 59.7753C1.96283 40.5694 17.5323 25 36.7382 25C55.944 25 71.5135 40.5694 71.5135 59.7753Z" fill="url(#paint4_linear_139_71)"/>
<path d="M135.22 66.4966C135.22 79.4081 124.753 89.875 111.841 89.875C98.9296 89.875 88.4628 79.4081 88.4628 66.4966C88.4628 53.5851 98.9296 43.1182 111.841 43.1182C124.753 43.1182 135.22 53.5851 135.22 66.4966Z" fill="url(#paint5_linear_139_71)"/>
</g>
<path d="M177.909 211.392V206.091H205.761V211.392H194.972V241H188.699V211.392H177.909ZM218.652 241.511C216.027 241.511 213.76 240.966 211.851 239.875C209.953 238.773 208.493 237.216 207.47 235.205C206.447 233.182 205.936 230.801 205.936 228.062C205.936 225.369 206.447 223.006 207.47 220.972C208.504 218.926 209.947 217.335 211.8 216.199C213.652 215.051 215.828 214.477 218.328 214.477C219.942 214.477 221.464 214.739 222.896 215.261C224.339 215.773 225.612 216.568 226.714 217.648C227.828 218.727 228.703 220.102 229.339 221.773C229.976 223.432 230.294 225.409 230.294 227.705V229.597H208.834V225.438H224.379C224.368 224.256 224.112 223.205 223.612 222.284C223.112 221.352 222.413 220.619 221.516 220.085C220.629 219.551 219.595 219.284 218.413 219.284C217.152 219.284 216.044 219.591 215.089 220.205C214.135 220.807 213.391 221.602 212.857 222.591C212.334 223.568 212.067 224.642 212.055 225.812V229.443C212.055 230.966 212.334 232.273 212.891 233.364C213.447 234.443 214.226 235.273 215.226 235.852C216.226 236.42 217.396 236.705 218.737 236.705C219.635 236.705 220.447 236.58 221.175 236.33C221.902 236.068 222.533 235.688 223.067 235.188C223.601 234.688 224.004 234.068 224.277 233.33L230.038 233.977C229.675 235.5 228.982 236.83 227.959 237.966C226.947 239.091 225.652 239.966 224.072 240.591C222.493 241.205 220.686 241.511 218.652 241.511ZM243.048 241.528C241.389 241.528 239.895 241.233 238.565 240.642C237.247 240.04 236.202 239.153 235.429 237.983C234.668 236.812 234.287 235.369 234.287 233.653C234.287 232.176 234.56 230.955 235.105 229.989C235.651 229.023 236.395 228.25 237.338 227.67C238.281 227.091 239.344 226.653 240.526 226.358C241.719 226.051 242.952 225.83 244.224 225.693C245.759 225.534 247.003 225.392 247.957 225.267C248.912 225.131 249.605 224.926 250.037 224.653C250.48 224.369 250.702 223.932 250.702 223.341V223.239C250.702 221.955 250.321 220.96 249.56 220.256C248.798 219.551 247.702 219.199 246.27 219.199C244.759 219.199 243.56 219.528 242.673 220.188C241.798 220.847 241.207 221.625 240.901 222.523L235.139 221.705C235.594 220.114 236.344 218.784 237.389 217.716C238.435 216.636 239.713 215.83 241.224 215.295C242.736 214.75 244.406 214.477 246.236 214.477C247.497 214.477 248.753 214.625 250.003 214.92C251.253 215.216 252.395 215.705 253.429 216.386C254.463 217.057 255.293 217.972 255.918 219.131C256.554 220.29 256.872 221.739 256.872 223.477V241H250.94V237.403H250.736C250.361 238.131 249.832 238.812 249.151 239.449C248.48 240.074 247.634 240.58 246.611 240.966C245.599 241.341 244.412 241.528 243.048 241.528ZM244.651 236.994C245.889 236.994 246.963 236.75 247.872 236.261C248.781 235.761 249.48 235.102 249.969 234.284C250.469 233.466 250.719 232.574 250.719 231.608V228.523C250.526 228.682 250.196 228.83 249.73 228.966C249.276 229.102 248.764 229.222 248.196 229.324C247.628 229.426 247.065 229.517 246.509 229.597C245.952 229.676 245.469 229.744 245.06 229.801C244.139 229.926 243.315 230.131 242.588 230.415C241.861 230.699 241.287 231.097 240.866 231.608C240.446 232.108 240.236 232.756 240.236 233.551C240.236 234.688 240.651 235.545 241.48 236.125C242.31 236.705 243.366 236.994 244.651 236.994ZM263.077 241V214.818H268.974V219.267H269.281C269.827 217.767 270.73 216.597 271.991 215.756C273.253 214.903 274.759 214.477 276.509 214.477C278.281 214.477 279.776 214.909 280.991 215.773C282.219 216.625 283.082 217.79 283.582 219.267H283.855C284.435 217.812 285.412 216.653 286.787 215.79C288.173 214.915 289.815 214.477 291.713 214.477C294.122 214.477 296.088 215.239 297.611 216.761C299.134 218.284 299.895 220.506 299.895 223.426V241H293.707V224.381C293.707 222.756 293.276 221.568 292.412 220.818C291.548 220.057 290.491 219.676 289.241 219.676C287.753 219.676 286.588 220.142 285.747 221.074C284.918 221.994 284.503 223.193 284.503 224.67V241H278.452V224.125C278.452 222.773 278.043 221.693 277.224 220.886C276.418 220.08 275.361 219.676 274.054 219.676C273.168 219.676 272.361 219.903 271.634 220.358C270.906 220.801 270.327 221.432 269.895 222.25C269.463 223.057 269.247 224 269.247 225.08V241H263.077ZM326.848 221.739L321.223 222.352C321.064 221.784 320.786 221.25 320.388 220.75C320.001 220.25 319.479 219.847 318.82 219.54C318.161 219.233 317.354 219.08 316.399 219.08C315.115 219.08 314.036 219.358 313.161 219.915C312.297 220.472 311.871 221.193 311.882 222.08C311.871 222.841 312.149 223.46 312.717 223.938C313.297 224.415 314.251 224.807 315.581 225.114L320.047 226.068C322.524 226.602 324.365 227.449 325.57 228.608C326.786 229.767 327.399 231.284 327.411 233.159C327.399 234.807 326.916 236.261 325.962 237.523C325.018 238.773 323.706 239.75 322.024 240.455C320.342 241.159 318.411 241.511 316.229 241.511C313.024 241.511 310.445 240.841 308.49 239.5C306.536 238.148 305.371 236.267 304.996 233.858L311.013 233.278C311.286 234.46 311.865 235.352 312.751 235.955C313.638 236.557 314.791 236.858 316.212 236.858C317.678 236.858 318.854 236.557 319.74 235.955C320.638 235.352 321.087 234.608 321.087 233.722C321.087 232.972 320.797 232.352 320.217 231.864C319.649 231.375 318.763 231 317.558 230.739L313.092 229.801C310.581 229.278 308.723 228.398 307.518 227.159C306.314 225.909 305.717 224.33 305.729 222.42C305.717 220.807 306.155 219.409 307.041 218.227C307.939 217.034 309.183 216.114 310.774 215.466C312.376 214.807 314.223 214.477 316.314 214.477C319.382 214.477 321.797 215.131 323.558 216.438C325.331 217.744 326.428 219.511 326.848 221.739Z" fill="white"/>
<defs>
<filter id="filter0_d_139_71" x="0" y="0" width="397.18" height="306" filterUnits="userSpaceOnUse" color-interpolation-filters="sRGB">
<feFlood flood-opacity="0" result="BackgroundImageFix"/>
<feColorMatrix in="SourceAlpha" type="matrix" values="0 0 0 0 0 0 0 0 0 0 0 0 0 0 0 0 0 0 127 0" result="hardAlpha"/>
<feMorphology radius="3" operator="erode" in="SourceAlpha" result="effect1_dropShadow_139_71"/>
<feOffset dx="17" dy="16"/>
<feGaussianBlur stdDeviation="11"/>
<feComposite in2="hardAlpha" operator="out"/>
<feColorMatrix type="matrix" values="0 0 0 0 0.383337 0 0 0 0 0.322292 0 0 0 0 0.758333 0 0 0 0.16 0"/>
<feBlend mode="normal" in2="BackgroundImageFix" result="effect1_dropShadow_139_71"/>
<feBlend mode="normal" in="SourceGraphic" in2="effect1_dropShadow_139_71" result="shape"/>
</filter>
<linearGradient id="paint0_linear_139_71" x1="25.5" y1="18.5" x2="500" y2="396" gradientUnits="userSpaceOnUse">
<stop stop-color="#78E8E8"/>
<stop offset="0.880208" stop-color="#754FE0"/>
</linearGradient>
<linearGradient id="paint1_linear_139_71" x1="25.5" y1="18.5" x2="500" y2="396" gradientUnits="userSpaceOnUse">
<stop offset="0.0260286" stop-color="#78E8E8"/>
<stop offset="0.332049" stop-color="#C76DF1"/>
<stop offset="0.58526" stop-color="#548CFA"/>
</linearGradient>
<linearGradient id="paint2_linear_139_71" x1="145" y1="49" x2="-10.5" y2="245.5" gradientUnits="userSpaceOnUse">
<stop stop-color="white"/>
<stop offset="1" stop-color="white" stop-opacity="0"/>
</linearGradient>
<linearGradient id="paint3_linear_139_71" x1="145" y1="49" x2="-10.5" y2="245.5" gradientUnits="userSpaceOnUse">
<stop stop-color="white"/>
<stop offset="1" stop-color="white" stop-opacity="0"/>
</linearGradient>
<linearGradient id="paint4_linear_139_71" x1="145" y1="49" x2="-10.5" y2="245.5" gradientUnits="userSpaceOnUse">
<stop stop-color="white"/>
<stop offset="1" stop-color="white" stop-opacity="0"/>
</linearGradient>
<linearGradient id="paint5_linear_139_71" x1="145" y1="49" x2="-10.5" y2="245.5" gradientUnits="userSpaceOnUse">
<stop stop-color="white"/>
<stop offset="1" stop-color="white" stop-opacity="0"/>
</linearGradient>
</defs>
</svg>
