<svg width="364" height="401" viewBox="0 0 364 401" fill="none" xmlns="http://www.w3.org/2000/svg">
<path d="M0.118652 75.5905C0.118652 51.6649 19.5142 32.2693 43.4398 32.2693H252.826C276.751 32.2693 296.147 51.6648 296.147 75.5905V357.179C296.147 381.105 276.751 400.5 252.826 400.5H0.118652V75.5905Z" fill="#B9B9B9"/>
<path d="M0.118652 75.5905C0.118652 51.6649 19.5142 32.2693 43.4398 32.2693H252.826C276.751 32.2693 296.147 51.6648 296.147 75.5905V357.179C296.147 381.105 276.751 400.5 252.826 400.5H0.118652V75.5905Z" fill="url(#paint0_radial_492_50)"/>
<path d="M0.118652 75.5905C0.118652 51.6649 19.5142 32.2693 43.4398 32.2693H252.826C276.751 32.2693 296.147 51.6648 296.147 75.5905V357.179C296.147 381.105 276.751 400.5 252.826 400.5H0.118652V75.5905Z" fill="url(#paint1_radial_492_50)"/>
<path d="M0.118652 75.5905C0.118652 51.6649 19.5142 32.2693 43.4398 32.2693H252.826C276.751 32.2693 296.147 51.6648 296.147 75.5905V357.179C296.147 381.105 276.751 400.5 252.826 400.5H0.118652V75.5905Z" fill="url(#paint2_radial_492_50)"/>
<path d="M54.9944 25.0487C54.9944 11.4908 65.9852 0.5 79.5431 0.5H242.72V62.5939C242.72 76.1517 231.729 87.1425 218.171 87.1425H79.5431C65.9852 87.1425 54.9944 76.1517 54.9944 62.5939V25.0487Z" fill="url(#paint3_linear_492_50)"/>
<path d="M54.9944 25.0487C54.9944 11.4908 65.9852 0.5 79.5431 0.5H242.72V62.5939C242.72 76.1517 231.729 87.1425 218.171 87.1425H79.5431C65.9852 87.1425 54.9944 76.1517 54.9944 62.5939V25.0487Z" fill="url(#paint4_linear_492_50)"/>
<path d="M363.575 77.9265L204.619 271.179L145.349 297.403L159.646 234.187L318.602 40.9346L363.575 77.9265Z" fill="white" fill-opacity="0.46"/>
<path d="M363.575 77.9265L204.619 271.179L145.349 297.403L159.646 234.187L318.602 40.9346L363.575 77.9265Z" fill="url(#paint5_radial_492_50)"/>
<path d="M0.118652 75.5905C0.118652 51.6649 19.5142 32.2693 43.4398 32.2693H252.826C276.751 32.2693 296.147 51.6648 296.147 75.5905V357.179C296.147 381.105 276.751 400.5 252.826 400.5H0.118652V75.5905Z" fill="#B9B9B9"/>
<path d="M0.118652 75.5905C0.118652 51.6649 19.5142 32.2693 43.4398 32.2693H252.826C276.751 32.2693 296.147 51.6648 296.147 75.5905V357.179C296.147 381.105 276.751 400.5 252.826 400.5H0.118652V75.5905Z" fill="url(#paint6_radial_492_50)"/>
<path d="M0.118652 75.5905C0.118652 51.6649 19.5142 32.2693 43.4398 32.2693H252.826C276.751 32.2693 296.147 51.6648 296.147 75.5905V357.179C296.147 381.105 276.751 400.5 252.826 400.5H0.118652V75.5905Z" fill="url(#paint7_radial_492_50)"/>
<path d="M0.118652 75.5905C0.118652 51.6649 19.5142 32.2693 43.4398 32.2693H252.826C276.751 32.2693 296.147 51.6648 296.147 75.5905V357.179C296.147 381.105 276.751 400.5 252.826 400.5H0.118652V75.5905Z" fill="url(#paint8_radial_492_50)"/>
<path d="M54.9944 25.0487C54.9944 11.4908 65.9852 0.5 79.5431 0.5H242.72V62.5939C242.72 76.1517 231.729 87.1425 218.171 87.1425H79.5431C65.9852 87.1425 54.9944 76.1517 54.9944 62.5939V25.0487Z" fill="url(#paint9_linear_492_50)"/>
<path d="M54.9944 25.0487C54.9944 11.4908 65.9852 0.5 79.5431 0.5H242.72V62.5939C242.72 76.1517 231.729 87.1425 218.171 87.1425H79.5431C65.9852 87.1425 54.9944 76.1517 54.9944 62.5939V25.0487Z" fill="url(#paint10_linear_492_50)"/>
<path d="M363.575 77.9265L204.619 271.179L145.349 297.403L159.646 234.187L318.602 40.9346L363.575 77.9265Z" fill="white" fill-opacity="0.46"/>
<path d="M363.575 77.9265L204.619 271.179L145.349 297.403L159.646 234.187L318.602 40.9346L363.575 77.9265Z" fill="url(#paint11_radial_492_50)"/>
<defs>
<radialGradient id="paint0_radial_492_50" cx="0" cy="0" r="1" gradientUnits="userSpaceOnUse" gradientTransform="translate(5.89479 26.4931) rotate(46.4129) scale(455.545 502.272)">
<stop stop-color="#2A6CEE"/>
<stop offset="1" stop-color="white" stop-opacity="0"/>
</radialGradient>
<radialGradient id="paint1_radial_492_50" cx="0" cy="0" r="1" gradientUnits="userSpaceOnUse" gradientTransform="translate(85.317 415.663) rotate(-59.752) scale(356.893 393.5)">
<stop stop-color="#B131ED"/>
<stop offset="1" stop-color="#A641D6" stop-opacity="0"/>
</radialGradient>
<radialGradient id="paint2_radial_492_50" cx="0" cy="0" r="1" gradientUnits="userSpaceOnUse" gradientTransform="translate(320.695 83.5328) rotate(143.227) scale(256.895 230.043)">
<stop stop-color="#41D6D6"/>
<stop offset="1" stop-color="#CEAADF" stop-opacity="0"/>
</radialGradient>
<linearGradient id="paint3_linear_492_50" x1="148.857" y1="0.5" x2="148.857" y2="349.958" gradientUnits="userSpaceOnUse">
<stop stop-color="#F4F4F4"/>
<stop offset="1" stop-color="#F4F4F4" stop-opacity="0.53"/>
</linearGradient>
<linearGradient id="paint4_linear_492_50" x1="148.857" y1="-54.3736" x2="148.857" y2="122.522" gradientUnits="userSpaceOnUse">
<stop stop-color="#95B0E7" stop-opacity="0"/>
<stop offset="1" stop-color="#B5C7EB"/>
</linearGradient>
<radialGradient id="paint5_radial_492_50" cx="0" cy="0" r="1" gradientUnits="userSpaceOnUse" gradientTransform="translate(136.581 305.917) rotate(-51.3534) scale(356.812 1888.04)">
<stop stop-color="white"/>
<stop offset="1" stop-color="#D9D9D9" stop-opacity="0.33"/>
</radialGradient>
<radialGradient id="paint6_radial_492_50" cx="0" cy="0" r="1" gradientUnits="userSpaceOnUse" gradientTransform="translate(5.89479 26.4931) rotate(46.4129) scale(455.545 502.272)">
<stop stop-color="#2A6CEE"/>
<stop offset="1" stop-color="white" stop-opacity="0"/>
</radialGradient>
<radialGradient id="paint7_radial_492_50" cx="0" cy="0" r="1" gradientUnits="userSpaceOnUse" gradientTransform="translate(85.317 415.663) rotate(-59.752) scale(356.893 393.5)">
<stop stop-color="#B131ED"/>
<stop offset="1" stop-color="#A641D6" stop-opacity="0"/>
</radialGradient>
<radialGradient id="paint8_radial_492_50" cx="0" cy="0" r="1" gradientUnits="userSpaceOnUse" gradientTransform="translate(320.695 83.5328) rotate(143.227) scale(256.895 230.043)">
<stop stop-color="#41D6D6"/>
<stop offset="1" stop-color="#CEAADF" stop-opacity="0"/>
</radialGradient>
<linearGradient id="paint9_linear_492_50" x1="148.857" y1="0.5" x2="148.857" y2="349.958" gradientUnits="userSpaceOnUse">
<stop stop-color="#F4F4F4"/>
<stop offset="1" stop-color="#F4F4F4" stop-opacity="0.53"/>
</linearGradient>
<linearGradient id="paint10_linear_492_50" x1="148.857" y1="-54.3736" x2="148.857" y2="122.522" gradientUnits="userSpaceOnUse">
<stop stop-color="#95B0E7" stop-opacity="0"/>
<stop offset="1" stop-color="#B5C7EB"/>
</linearGradient>
<radialGradient id="paint11_radial_492_50" cx="0" cy="0" r="1" gradientUnits="userSpaceOnUse" gradientTransform="translate(136.581 305.917) rotate(-51.3534) scale(356.812 1888.04)">
<stop stop-color="white"/>
<stop offset="1" stop-color="#D9D9D9" stop-opacity="0.33"/>
</radialGradient>
</defs>
</svg>
