<svg width="321" height="113" viewBox="0 0 321 113" fill="none" xmlns="http://www.w3.org/2000/svg">
<g filter="url(#filter0_d_520_107)">
<path d="M289.292 50.6203C289.292 64.0848 278.376 75 264.912 75H57C43.1929 75 32 63.8071 32 50V50C32 36.1929 43.1929 25 57 25H263.671C277.821 25 289.292 36.4706 289.292 50.6203V50.6203Z" fill="white"/>
<path d="M264.912 73.5H57C44.0213 73.5 33.5 62.9787 33.5 50C33.5 37.0213 44.0213 26.5 57 26.5H263.671C276.993 26.5 287.792 37.299 287.792 50.6203C287.792 63.2564 277.548 73.5 264.912 73.5Z" stroke="#AA98EF" stroke-width="3"/>
</g>
<path d="M106.714 40.8182H111.455L116.462 53.0341H116.675L121.682 40.8182H126.423V59H122.694V47.1658H122.543L117.838 58.9112H115.299L110.594 47.1214H110.443V59H106.714V40.8182ZM133.407 59.2575C132.537 59.2575 131.762 59.1065 131.081 58.8047C130.401 58.4969 129.862 58.0442 129.466 57.4464C129.075 56.8427 128.88 56.091 128.88 55.1914C128.88 54.4338 129.019 53.7976 129.297 53.2827C129.575 52.7678 129.954 52.3535 130.433 52.0398C130.913 51.7261 131.457 51.4893 132.067 51.3295C132.682 51.1697 133.328 51.0573 134.002 50.9922C134.795 50.9093 135.435 50.8324 135.92 50.7614C136.405 50.6844 136.757 50.572 136.976 50.424C137.195 50.276 137.305 50.0571 137.305 49.767V49.7138C137.305 49.1515 137.127 48.7165 136.772 48.4087C136.423 48.101 135.926 47.9471 135.281 47.9471C134.6 47.9471 134.059 48.098 133.656 48.3999C133.254 48.6958 132.987 49.0687 132.857 49.5185L129.359 49.2344C129.537 48.4058 129.886 47.6896 130.407 47.0859C130.928 46.4763 131.599 46.0088 132.422 45.6832C133.251 45.3518 134.209 45.1861 135.298 45.1861C136.056 45.1861 136.781 45.2749 137.474 45.4524C138.172 45.63 138.79 45.9052 139.329 46.2781C139.874 46.6509 140.303 47.1303 140.616 47.7163C140.93 48.2963 141.087 48.9917 141.087 49.8026V59H137.5V57.109H137.394C137.175 57.5352 136.882 57.911 136.515 58.2365C136.148 58.5561 135.707 58.8076 135.192 58.9911C134.677 59.1687 134.082 59.2575 133.407 59.2575ZM134.491 56.6474C135.047 56.6474 135.538 56.5379 135.964 56.3189C136.39 56.094 136.725 55.7921 136.968 55.4134C137.21 55.0346 137.331 54.6055 137.331 54.1261V52.679C137.213 52.7559 137.05 52.8269 136.843 52.892C136.642 52.9512 136.414 53.0075 136.16 53.0607C135.905 53.1081 135.651 53.1525 135.396 53.1939C135.142 53.2294 134.911 53.262 134.704 53.2915C134.26 53.3567 133.872 53.4602 133.541 53.6023C133.209 53.7443 132.952 53.9367 132.768 54.1793C132.585 54.4161 132.493 54.712 132.493 55.0671C132.493 55.582 132.68 55.9756 133.052 56.2479C133.431 56.5142 133.911 56.6474 134.491 56.6474ZM151.274 45.3636V48.2045H143.062V45.3636H151.274ZM144.926 42.0966H148.708V54.8097C148.708 55.1589 148.762 55.4311 148.868 55.6264C148.975 55.8158 149.123 55.949 149.312 56.0259C149.507 56.1029 149.732 56.1413 149.987 56.1413C150.164 56.1413 150.342 56.1265 150.52 56.0969C150.697 56.0614 150.833 56.0348 150.928 56.017L151.523 58.8313C151.333 58.8905 151.067 58.9586 150.724 59.0355C150.38 59.1184 149.963 59.1687 149.472 59.1864C148.56 59.2219 147.761 59.1006 147.075 58.8224C146.394 58.5443 145.865 58.1122 145.486 57.5263C145.107 56.9403 144.921 56.2005 144.926 55.3068V42.0966ZM159.806 59.2663C158.403 59.2663 157.196 58.9822 156.184 58.4141C155.177 57.84 154.402 57.0291 153.858 55.9815C153.313 54.928 153.041 53.6822 153.041 52.244C153.041 50.8413 153.313 49.6102 153.858 48.5508C154.402 47.4914 155.169 46.6657 156.157 46.0739C157.151 45.482 158.317 45.1861 159.655 45.1861C160.554 45.1861 161.392 45.3311 162.167 45.6211C162.949 45.9052 163.629 46.3343 164.209 46.9084C164.795 47.4825 165.251 48.2045 165.576 49.0746C165.902 49.9387 166.065 50.9508 166.065 52.1108V53.1495H154.55V50.8058H162.505C162.505 50.2612 162.386 49.7789 162.15 49.3587C161.913 48.9384 161.584 48.61 161.164 48.3732C160.75 48.1306 160.267 48.0092 159.717 48.0092C159.143 48.0092 158.634 48.1424 158.19 48.4087C157.752 48.6692 157.409 49.0213 157.16 49.4652C156.912 49.9032 156.784 50.3915 156.778 50.93V53.1584C156.778 53.8331 156.903 54.4161 157.151 54.9073C157.406 55.3986 157.764 55.7773 158.225 56.0437C158.687 56.31 159.235 56.4432 159.868 56.4432C160.288 56.4432 160.673 56.384 161.022 56.2656C161.371 56.1473 161.67 55.9697 161.919 55.733C162.167 55.4962 162.357 55.2062 162.487 54.8629L165.985 55.0938C165.807 55.9342 165.443 56.6681 164.893 57.2955C164.348 57.9169 163.644 58.4022 162.78 58.7514C161.922 59.0947 160.93 59.2663 159.806 59.2663ZM168.533 59V45.3636H172.137V47.7695H172.297C172.581 46.9705 173.054 46.3402 173.717 45.8786C174.38 45.4169 175.173 45.1861 176.097 45.1861C177.032 45.1861 177.828 45.4199 178.485 45.8874C179.142 46.3491 179.58 46.9764 179.799 47.7695H179.941C180.219 46.9883 180.722 46.3639 181.45 45.8963C182.184 45.4228 183.051 45.1861 184.051 45.1861C185.324 45.1861 186.356 45.5915 187.15 46.4023C187.949 47.2073 188.348 48.3495 188.348 49.8292V59H184.575V50.5749C184.575 49.8174 184.374 49.2492 183.971 48.8704C183.569 48.4916 183.066 48.3022 182.462 48.3022C181.775 48.3022 181.24 48.5212 180.855 48.9592C180.47 49.3912 180.278 49.9624 180.278 50.6726V59H176.612V50.495C176.612 49.8262 176.419 49.2936 176.034 48.897C175.656 48.5005 175.156 48.3022 174.534 48.3022C174.114 48.3022 173.735 48.4087 173.398 48.6218C173.066 48.829 172.803 49.1219 172.608 49.5007C172.412 49.8736 172.315 50.3116 172.315 50.8146V59H168.533ZM195.224 59.2575C194.354 59.2575 193.579 59.1065 192.898 58.8047C192.217 58.4969 191.679 58.0442 191.282 57.4464C190.892 56.8427 190.696 56.091 190.696 55.1914C190.696 54.4338 190.835 53.7976 191.113 53.2827C191.392 52.7678 191.77 52.3535 192.25 52.0398C192.729 51.7261 193.274 51.4893 193.883 51.3295C194.499 51.1697 195.144 51.0573 195.819 50.9922C196.612 50.9093 197.251 50.8324 197.736 50.7614C198.222 50.6844 198.574 50.572 198.793 50.424C199.012 50.276 199.121 50.0571 199.121 49.767V49.7138C199.121 49.1515 198.944 48.7165 198.589 48.4087C198.239 48.101 197.742 47.9471 197.097 47.9471C196.416 47.9471 195.875 48.098 195.472 48.3999C195.07 48.6958 194.804 49.0687 194.673 49.5185L191.176 49.2344C191.353 48.4058 191.702 47.6896 192.223 47.0859C192.744 46.4763 193.416 46.0088 194.238 45.6832C195.067 45.3518 196.026 45.1861 197.115 45.1861C197.872 45.1861 198.597 45.2749 199.29 45.4524C199.988 45.63 200.607 45.9052 201.145 46.2781C201.69 46.6509 202.119 47.1303 202.433 47.7163C202.746 48.2963 202.903 48.9917 202.903 49.8026V59H199.317V57.109H199.21C198.991 57.5352 198.698 57.911 198.331 58.2365C197.964 58.5561 197.523 58.8076 197.008 58.9911C196.493 59.1687 195.899 59.2575 195.224 59.2575ZM196.307 56.6474C196.863 56.6474 197.355 56.5379 197.781 56.3189C198.207 56.094 198.541 55.7921 198.784 55.4134C199.027 55.0346 199.148 54.6055 199.148 54.1261V52.679C199.03 52.7559 198.867 52.8269 198.66 52.892C198.458 52.9512 198.231 53.0075 197.976 53.0607C197.722 53.1081 197.467 53.1525 197.213 53.1939C196.958 53.2294 196.727 53.262 196.52 53.2915C196.076 53.3567 195.689 53.4602 195.357 53.6023C195.026 53.7443 194.768 53.9367 194.585 54.1793C194.401 54.4161 194.309 54.712 194.309 55.0671C194.309 55.582 194.496 55.9756 194.869 56.2479C195.248 56.5142 195.727 56.6474 196.307 56.6474ZM195.899 43.6058L197.781 39.5664H201.279L198.571 43.6058H195.899ZM213.091 45.3636V48.2045H204.879V45.3636H213.091ZM206.743 42.0966H210.525V54.8097C210.525 55.1589 210.578 55.4311 210.685 55.6264C210.791 55.8158 210.939 55.949 211.129 56.0259C211.324 56.1029 211.549 56.1413 211.803 56.1413C211.981 56.1413 212.158 56.1265 212.336 56.0969C212.513 56.0614 212.65 56.0348 212.744 56.017L213.339 58.8313C213.15 58.8905 212.883 58.9586 212.54 59.0355C212.197 59.1184 211.78 59.1687 211.288 59.1864C210.377 59.2219 209.578 59.1006 208.891 58.8224C208.211 58.5443 207.681 58.1122 207.302 57.5263C206.923 56.9403 206.737 56.2005 206.743 55.3068V42.0966ZM215.554 59V45.3636H219.336V59H215.554ZM217.454 43.6058C216.892 43.6058 216.409 43.4194 216.007 43.0465C215.61 42.6677 215.412 42.215 215.412 41.6882C215.412 41.1674 215.61 40.7205 216.007 40.3477C216.409 39.9689 216.892 39.7795 217.454 39.7795C218.016 39.7795 218.496 39.9689 218.892 40.3477C219.295 40.7205 219.496 41.1674 219.496 41.6882C219.496 42.215 219.295 42.6677 218.892 43.0465C218.496 43.4194 218.016 43.6058 217.454 43.6058ZM228.527 59.2663C227.13 59.2663 225.929 58.9704 224.922 58.3786C223.922 57.7808 223.153 56.9522 222.614 55.8928C222.082 54.8333 221.815 53.6141 221.815 52.2351C221.815 50.8383 222.085 49.6132 222.623 48.5597C223.168 47.5002 223.94 46.6746 224.94 46.0827C225.94 45.485 227.13 45.1861 228.509 45.1861C229.699 45.1861 230.74 45.4021 231.634 45.8342C232.528 46.2662 233.235 46.8729 233.756 47.6541C234.277 48.4354 234.564 49.3527 234.617 50.4062H231.048C230.948 49.7256 230.681 49.1781 230.249 48.7638C229.823 48.3436 229.264 48.1335 228.571 48.1335C227.985 48.1335 227.473 48.2933 227.035 48.6129C226.603 48.9266 226.266 49.3853 226.023 49.989C225.781 50.5927 225.659 51.3236 225.659 52.1818C225.659 53.0518 225.778 53.7917 226.014 54.4013C226.257 55.0109 226.597 55.4755 227.035 55.7951C227.473 56.1147 227.985 56.2745 228.571 56.2745C229.003 56.2745 229.391 56.1857 229.734 56.0082C230.083 55.8306 230.371 55.5732 230.595 55.2358C230.826 54.8925 230.977 54.4812 231.048 54.0018H234.617C234.558 55.0434 234.274 55.9608 233.765 56.7539C233.262 57.5411 232.566 58.1566 231.679 58.6005C230.791 59.0444 229.74 59.2663 228.527 59.2663ZM240.927 59.2575C240.057 59.2575 239.282 59.1065 238.601 58.8047C237.92 58.4969 237.382 58.0442 236.985 57.4464C236.595 56.8427 236.399 56.091 236.399 55.1914C236.399 54.4338 236.538 53.7976 236.817 53.2827C237.095 52.7678 237.474 52.3535 237.953 52.0398C238.432 51.7261 238.977 51.4893 239.586 51.3295C240.202 51.1697 240.847 51.0573 241.522 50.9922C242.315 50.9093 242.954 50.8324 243.439 50.7614C243.925 50.6844 244.277 50.572 244.496 50.424C244.715 50.276 244.824 50.0571 244.824 49.767V49.7138C244.824 49.1515 244.647 48.7165 244.292 48.4087C243.943 48.101 243.445 47.9471 242.8 47.9471C242.12 47.9471 241.578 48.098 241.176 48.3999C240.773 48.6958 240.507 49.0687 240.377 49.5185L236.879 49.2344C237.056 48.4058 237.405 47.6896 237.926 47.0859C238.447 46.4763 239.119 46.0088 239.942 45.6832C240.77 45.3518 241.729 45.1861 242.818 45.1861C243.576 45.1861 244.301 45.2749 244.993 45.4524C245.691 45.63 246.31 45.9052 246.849 46.2781C247.393 46.6509 247.822 47.1303 248.136 47.7163C248.45 48.2963 248.606 48.9917 248.606 49.8026V59H245.02V57.109H244.913C244.694 57.5352 244.401 57.911 244.034 58.2365C243.667 58.5561 243.226 58.8076 242.711 58.9911C242.197 59.1687 241.602 59.2575 240.927 59.2575ZM242.01 56.6474C242.566 56.6474 243.058 56.5379 243.484 56.3189C243.91 56.094 244.244 55.7921 244.487 55.4134C244.73 55.0346 244.851 54.6055 244.851 54.1261V52.679C244.733 52.7559 244.57 52.8269 244.363 52.892C244.162 52.9512 243.934 53.0075 243.679 53.0607C243.425 53.1081 243.17 53.1525 242.916 53.1939C242.661 53.2294 242.43 53.262 242.223 53.2915C241.779 53.3567 241.392 53.4602 241.06 53.6023C240.729 53.7443 240.471 53.9367 240.288 54.1793C240.104 54.4161 240.013 54.712 240.013 55.0671C240.013 55.582 240.199 55.9756 240.572 56.2479C240.951 56.5142 241.43 56.6474 242.01 56.6474Z" fill="black"/>
<line x1="65.1713" y1="50.7999" x2="89.8346" y2="50.7999" stroke="black" stroke-width="4.34257" stroke-linecap="round"/>
<circle cx="77.3478" cy="41.0294" r="3.64466" fill="black"/>
<circle cx="77.3478" cy="60.5709" r="3.64466" fill="black"/>
<defs>
<filter id="filter0_d_520_107" x="0.750002" y="1.90735e-06" width="319.792" height="112.5" filterUnits="userSpaceOnUse" color-interpolation-filters="sRGB">
<feFlood flood-opacity="0" result="BackgroundImageFix"/>
<feColorMatrix in="SourceAlpha" type="matrix" values="0 0 0 0 0 0 0 0 0 0 0 0 0 0 0 0 0 0 127 0" result="hardAlpha"/>
<feOffset dy="6.25"/>
<feGaussianBlur stdDeviation="15.625"/>
<feComposite in2="hardAlpha" operator="out"/>
<feColorMatrix type="matrix" values="0 0 0 0 0.384314 0 0 0 0 0.321569 0 0 0 0 0.756863 0 0 0 0.25 0"/>
<feBlend mode="normal" in2="BackgroundImageFix" result="effect1_dropShadow_520_107"/>
<feBlend mode="normal" in="SourceGraphic" in2="effect1_dropShadow_520_107" result="shape"/>
</filter>
</defs>
</svg>
