<svg width="398" height="306" viewBox="0 0 398 306" fill="none" xmlns="http://www.w3.org/2000/svg">
<g filter="url(#filter0_d_123_54)">
<rect x="2" y="3" width="359.18" height="268" rx="37" fill="white"/>
</g>
<rect x="2" y="3" width="359.18" height="268" rx="37" fill="#5743D2"/>
<rect x="2" y="3" width="359.18" height="268" rx="37" fill="url(#paint0_radial_123_54)"/>
<mask id="mask0_123_54" style="mask-type:alpha" maskUnits="userSpaceOnUse" x="2" y="3" width="360" height="268">
<path d="M2 40C2 19.5655 18.5655 3 39 3H324.18C344.615 3 361.18 19.5655 361.18 40V234C361.18 254.435 344.615 271 324.18 271H39C18.5655 271 2 254.435 2 234V40Z" fill="white"/>
</mask>
<g mask="url(#mask0_123_54)">
<path d="M94.9973 40.9176C97.2567 34.9486 102.973 31 109.356 31H155.672C163.393 31 168.717 38.7371 165.959 45.9481L93.6866 234.924C91.6113 240.35 86.4036 243.934 80.5939 243.934H18.1501L94.9973 40.9176Z" fill="url(#paint1_linear_123_54)"/>
<path d="M-43.0912 91.6897C-46.3649 83.5735 -40.3905 74.7216 -31.6389 74.7216H10.1482C16.1005 74.7216 21.4641 78.3146 23.7288 83.8192L41.5828 127.214C43.1655 131.061 43.511 135.306 42.5711 139.358L18.317 243.934L-43.0912 91.6897Z" fill="url(#paint2_linear_123_54)"/>
</g>
<path d="M218.864 203.091L227.949 230.568H228.307L237.375 203.091H244.33L232.023 238H224.216L211.926 203.091H218.864ZM248.655 238V211.818H254.825V238H248.655ZM251.757 208.102C250.78 208.102 249.939 207.778 249.234 207.131C248.53 206.472 248.178 205.682 248.178 204.761C248.178 203.83 248.53 203.04 249.234 202.392C249.939 201.733 250.78 201.403 251.757 201.403C252.746 201.403 253.587 201.733 254.28 202.392C254.984 203.04 255.337 203.83 255.337 204.761C255.337 205.682 254.984 206.472 254.28 207.131C253.587 207.778 252.746 208.102 251.757 208.102ZM267.341 222.659V238H261.17V211.818H267.068V216.267H267.375C267.977 214.801 268.938 213.636 270.256 212.773C271.585 211.909 273.227 211.477 275.182 211.477C276.989 211.477 278.563 211.864 279.903 212.636C281.256 213.409 282.301 214.528 283.04 215.994C283.79 217.46 284.159 219.239 284.148 221.33V238H277.977V222.284C277.977 220.534 277.523 219.165 276.614 218.176C275.716 217.187 274.472 216.693 272.881 216.693C271.801 216.693 270.841 216.932 270 217.409C269.17 217.875 268.517 218.551 268.04 219.438C267.574 220.324 267.341 221.398 267.341 222.659ZM300.136 238.46C298.08 238.46 296.239 237.932 294.614 236.875C292.989 235.818 291.705 234.284 290.761 232.273C289.818 230.261 289.347 227.818 289.347 224.943C289.347 222.034 289.824 219.58 290.778 217.58C291.744 215.568 293.045 214.051 294.682 213.028C296.318 211.994 298.142 211.477 300.153 211.477C301.688 211.477 302.949 211.739 303.938 212.261C304.926 212.773 305.71 213.392 306.29 214.119C306.869 214.835 307.318 215.511 307.636 216.148H307.892V203.091H314.08V238H308.011V233.875H307.636C307.318 234.511 306.858 235.187 306.256 235.903C305.653 236.608 304.858 237.21 303.869 237.71C302.881 238.21 301.636 238.46 300.136 238.46ZM301.858 233.398C303.165 233.398 304.278 233.045 305.199 232.341C306.119 231.625 306.818 230.631 307.295 229.358C307.773 228.085 308.011 226.602 308.011 224.909C308.011 223.216 307.773 221.744 307.295 220.494C306.83 219.244 306.136 218.273 305.216 217.58C304.307 216.886 303.188 216.54 301.858 216.54C300.483 216.54 299.335 216.898 298.415 217.614C297.494 218.33 296.801 219.318 296.335 220.58C295.869 221.841 295.636 223.284 295.636 224.909C295.636 226.545 295.869 228.006 296.335 229.29C296.813 230.562 297.511 231.568 298.432 232.307C299.364 233.034 300.506 233.398 301.858 233.398ZM320.655 238V211.818H326.825V238H320.655ZM323.757 208.102C322.78 208.102 321.939 207.778 321.234 207.131C320.53 206.472 320.178 205.682 320.178 204.761C320.178 203.83 320.53 203.04 321.234 202.392C321.939 201.733 322.78 201.403 323.757 201.403C324.746 201.403 325.587 201.733 326.28 202.392C326.984 203.04 327.337 203.83 327.337 204.761C327.337 205.682 326.984 206.472 326.28 207.131C325.587 207.778 324.746 208.102 323.757 208.102Z" fill="white"/>
<defs>
<filter id="filter0_d_123_54" x="0" y="0" width="397.18" height="306" filterUnits="userSpaceOnUse" color-interpolation-filters="sRGB">
<feFlood flood-opacity="0" result="BackgroundImageFix"/>
<feColorMatrix in="SourceAlpha" type="matrix" values="0 0 0 0 0 0 0 0 0 0 0 0 0 0 0 0 0 0 127 0" result="hardAlpha"/>
<feMorphology radius="3" operator="erode" in="SourceAlpha" result="effect1_dropShadow_123_54"/>
<feOffset dx="17" dy="16"/>
<feGaussianBlur stdDeviation="11"/>
<feComposite in2="hardAlpha" operator="out"/>
<feColorMatrix type="matrix" values="0 0 0 0 0.383337 0 0 0 0 0.322292 0 0 0 0 0.758333 0 0 0 0.16 0"/>
<feBlend mode="normal" in2="BackgroundImageFix" result="effect1_dropShadow_123_54"/>
<feBlend mode="normal" in="SourceGraphic" in2="effect1_dropShadow_123_54" result="shape"/>
</filter>
<radialGradient id="paint0_radial_123_54" cx="0" cy="0" r="1" gradientUnits="userSpaceOnUse" gradientTransform="translate(311.5 45.5) rotate(143.954) scale(458.847 614.958)">
<stop stop-color="#3AD7EC"/>
<stop offset="1" stop-color="#5743D2" stop-opacity="0"/>
</radialGradient>
<linearGradient id="paint1_linear_123_54" x1="207" y1="54.5" x2="-52.5" y2="282" gradientUnits="userSpaceOnUse">
<stop stop-color="white"/>
<stop offset="1" stop-color="white" stop-opacity="0"/>
</linearGradient>
<linearGradient id="paint2_linear_123_54" x1="207" y1="54.5" x2="-52.5" y2="282" gradientUnits="userSpaceOnUse">
<stop stop-color="white"/>
<stop offset="1" stop-color="white" stop-opacity="0"/>
</linearGradient>
</defs>
</svg>
