<svg width="404" height="312" viewBox="0 0 404 312" fill="none" xmlns="http://www.w3.org/2000/svg">
<g filter="url(#filter0_d_117_68)">
<path d="M5 43C5 22.5655 21.5655 6 42 6H327.18C347.615 6 364.18 22.5655 364.18 43V237C364.18 257.435 347.615 274 327.18 274H42C21.5655 274 5 257.435 5 237V43Z" fill="white"/>
</g>
<path d="M5 43C5 22.5655 21.5655 6 42 6H327.18C347.615 6 364.18 22.5655 364.18 43V237C364.18 257.435 347.615 274 327.18 274H42C21.5655 274 5 257.435 5 237V43Z" fill="url(#paint0_linear_117_68)"/>
<path d="M5 43C5 22.5655 21.5655 6 42 6H327.18C347.615 6 364.18 22.5655 364.18 43V237C364.18 257.435 347.615 274 327.18 274H42C21.5655 274 5 257.435 5 237V43Z" fill="url(#paint1_linear_117_68)"/>
<mask id="mask0_117_68" style="mask-type:alpha" maskUnits="userSpaceOnUse" x="5" y="6" width="360" height="268">
<path d="M5 43C5 22.5655 21.5655 6 42 6H327.18C347.615 6 364.18 22.5655 364.18 43V237C364.18 257.435 347.615 274 327.18 274H42C21.5655 274 5 257.435 5 237V43Z" fill="#D9D9D9"/>
</mask>
<g mask="url(#mask0_117_68)">
<path d="M48.2989 249C58.6028 249 66.9557 240.643 66.9557 230.333C66.9557 220.024 58.6028 211.667 48.2989 211.667C37.995 211.667 29.6421 220.024 29.6421 230.333C29.6421 240.643 37.995 249 48.2989 249Z" fill="url(#paint2_linear_117_68)"/>
<path d="M141.583 249C151.887 249 160.24 240.643 160.24 230.333C160.24 220.024 151.887 211.667 141.583 211.667C131.279 211.667 122.926 220.024 122.926 230.333C122.926 240.643 131.279 249 141.583 249Z" fill="url(#paint3_linear_117_68)"/>
<path d="M197.404 81.168C190.838 74.8857 182.047 71.4683 172.964 71.6667H35.7428L33.2895 52.4213C32.3986 44.8678 28.7687 37.9039 23.0879 32.8497C17.4071 27.7955 10.0703 25.0024 2.46839 25H-3.00738C-6.71846 25 -10.2775 26.475 -12.9017 29.1005C-15.5258 31.726 -17 35.287 -17 39C-17 42.713 -15.5258 46.274 -12.9017 48.8995C-10.2775 51.525 -6.71846 53 -3.00738 53H2.46839C3.23152 53.0082 3.96459 53.2988 4.52616 53.8159C5.08773 54.333 5.43803 55.0398 5.50946 55.8L19.5021 165.551C20.3846 173.11 24.0112 180.082 29.6931 185.142C35.3749 190.202 42.7164 192.999 50.3232 193H144.745C155.977 192.993 166.897 189.299 175.828 182.484C184.759 175.669 191.208 166.111 194.186 155.275L205.809 112.985C207.359 107.413 207.397 101.528 205.92 95.9362C204.442 90.3442 201.503 85.2467 197.404 81.168ZM167.236 147.855C165.87 152.776 162.933 157.116 158.872 160.211C154.812 163.307 149.85 164.989 144.745 165H50.3232C49.5604 164.994 48.8273 164.703 48.2669 164.186C47.7064 163.668 47.3586 162.96 47.2914 162.2L39.3156 99.6667H174.363C175.084 99.6613 175.795 99.823 176.443 100.139C177.091 100.455 177.656 100.917 178.095 101.488C178.535 102.06 178.835 102.725 178.975 103.433C179.114 104.14 179.087 104.87 178.897 105.565L167.236 147.855Z" fill="url(#paint4_linear_117_68)"/>
</g>
<path d="M118.196 245L108.344 210.091H115.145L121.435 235.744H121.759L128.474 210.091H134.662L141.395 235.761H141.702L147.991 210.091H154.793L144.94 245H138.702L131.713 220.506H131.44L124.435 245H118.196ZM167.824 245.511C165.199 245.511 162.932 244.966 161.023 243.875C159.125 242.773 157.665 241.216 156.642 239.205C155.619 237.182 155.108 234.801 155.108 232.062C155.108 229.369 155.619 227.006 156.642 224.972C157.676 222.926 159.119 221.335 160.972 220.199C162.824 219.051 165 218.477 167.5 218.477C169.114 218.477 170.636 218.739 172.068 219.261C173.511 219.773 174.784 220.568 175.886 221.648C177 222.727 177.875 224.102 178.511 225.773C179.148 227.432 179.466 229.409 179.466 231.705V233.597H158.006V229.438H173.551C173.54 228.256 173.284 227.205 172.784 226.284C172.284 225.352 171.585 224.619 170.688 224.085C169.801 223.551 168.767 223.284 167.585 223.284C166.324 223.284 165.216 223.591 164.261 224.205C163.307 224.807 162.563 225.602 162.028 226.591C161.506 227.568 161.239 228.642 161.227 229.812V233.443C161.227 234.966 161.506 236.273 162.062 237.364C162.619 238.443 163.398 239.273 164.398 239.852C165.398 240.42 166.568 240.705 167.909 240.705C168.807 240.705 169.619 240.58 170.347 240.33C171.074 240.068 171.705 239.688 172.239 239.188C172.773 238.688 173.176 238.068 173.449 237.33L179.21 237.977C178.847 239.5 178.153 240.83 177.131 241.966C176.119 243.091 174.824 243.966 173.244 244.591C171.665 245.205 169.858 245.511 167.824 245.511ZM184.959 245V210.091H191.129V223.148H191.385C191.703 222.511 192.152 221.835 192.732 221.119C193.311 220.392 194.095 219.773 195.084 219.261C196.072 218.739 197.334 218.477 198.868 218.477C200.891 218.477 202.714 218.994 204.339 220.028C205.976 221.051 207.271 222.568 208.226 224.58C209.192 226.58 209.675 229.034 209.675 231.943C209.675 234.818 209.203 237.261 208.26 239.273C207.317 241.284 206.033 242.818 204.408 243.875C202.783 244.932 200.942 245.46 198.885 245.46C197.385 245.46 196.141 245.21 195.152 244.71C194.163 244.21 193.368 243.608 192.766 242.903C192.175 242.187 191.714 241.511 191.385 240.875H191.027V245H184.959ZM191.01 231.909C191.01 233.602 191.249 235.085 191.726 236.358C192.214 237.631 192.913 238.625 193.822 239.341C194.743 240.045 195.857 240.398 197.163 240.398C198.527 240.398 199.669 240.034 200.589 239.307C201.51 238.568 202.203 237.562 202.669 236.29C203.146 235.006 203.385 233.545 203.385 231.909C203.385 230.284 203.152 228.841 202.686 227.58C202.22 226.318 201.527 225.33 200.607 224.614C199.686 223.898 198.538 223.54 197.163 223.54C195.845 223.54 194.726 223.886 193.805 224.58C192.885 225.273 192.186 226.244 191.709 227.494C191.243 228.744 191.01 230.216 191.01 231.909ZM246.386 227.545C246.386 231.307 245.682 234.528 244.273 237.21C242.875 239.881 240.966 241.926 238.545 243.347C236.136 244.767 233.403 245.477 230.347 245.477C227.29 245.477 224.551 244.767 222.131 243.347C219.722 241.915 217.813 239.864 216.403 237.193C215.006 234.511 214.307 231.295 214.307 227.545C214.307 223.784 215.006 220.568 216.403 217.898C217.813 215.216 219.722 213.165 222.131 211.744C224.551 210.324 227.29 209.614 230.347 209.614C233.403 209.614 236.136 210.324 238.545 211.744C240.966 213.165 242.875 215.216 244.273 217.898C245.682 220.568 246.386 223.784 246.386 227.545ZM240.028 227.545C240.028 224.898 239.614 222.665 238.784 220.847C237.966 219.017 236.83 217.636 235.375 216.705C233.92 215.761 232.244 215.29 230.347 215.29C228.449 215.29 226.773 215.761 225.318 216.705C223.864 217.636 222.722 219.017 221.892 220.847C221.074 222.665 220.665 224.898 220.665 227.545C220.665 230.193 221.074 232.432 221.892 234.261C222.722 236.08 223.864 237.46 225.318 238.403C226.773 239.335 228.449 239.801 230.347 239.801C232.244 239.801 233.92 239.335 235.375 238.403C236.83 237.46 237.966 236.08 238.784 234.261C239.614 232.432 240.028 230.193 240.028 227.545ZM252.092 245V218.818H258.075V223.182H258.348C258.825 221.67 259.643 220.506 260.803 219.688C261.973 218.858 263.308 218.443 264.808 218.443C265.149 218.443 265.53 218.46 265.95 218.494C266.382 218.517 266.74 218.557 267.024 218.614V224.29C266.763 224.199 266.348 224.119 265.78 224.051C265.223 223.972 264.683 223.932 264.161 223.932C263.036 223.932 262.024 224.176 261.126 224.665C260.24 225.142 259.541 225.807 259.03 226.659C258.518 227.511 258.263 228.494 258.263 229.608V245H252.092ZM279.761 245.46C277.705 245.46 275.864 244.932 274.239 243.875C272.614 242.818 271.33 241.284 270.386 239.273C269.443 237.261 268.972 234.818 268.972 231.943C268.972 229.034 269.449 226.58 270.403 224.58C271.369 222.568 272.67 221.051 274.307 220.028C275.943 218.994 277.767 218.477 279.778 218.477C281.313 218.477 282.574 218.739 283.562 219.261C284.551 219.773 285.335 220.392 285.915 221.119C286.494 221.835 286.943 222.511 287.261 223.148H287.517V210.091H293.705V245H287.636V240.875H287.261C286.943 241.511 286.483 242.187 285.881 242.903C285.278 243.608 284.483 244.21 283.494 244.71C282.506 245.21 281.261 245.46 279.761 245.46ZM281.483 240.398C282.79 240.398 283.903 240.045 284.824 239.341C285.744 238.625 286.443 237.631 286.92 236.358C287.398 235.085 287.636 233.602 287.636 231.909C287.636 230.216 287.398 228.744 286.92 227.494C286.455 226.244 285.761 225.273 284.841 224.58C283.932 223.886 282.813 223.54 281.483 223.54C280.108 223.54 278.96 223.898 278.04 224.614C277.119 225.33 276.426 226.318 275.96 227.58C275.494 228.841 275.261 230.284 275.261 231.909C275.261 233.545 275.494 235.006 275.96 236.29C276.438 237.562 277.136 238.568 278.057 239.307C278.989 240.034 280.131 240.398 281.483 240.398ZM311.871 245.511C309.246 245.511 306.979 244.966 305.07 243.875C303.172 242.773 301.712 241.216 300.689 239.205C299.666 237.182 299.155 234.801 299.155 232.062C299.155 229.369 299.666 227.006 300.689 224.972C301.723 222.926 303.166 221.335 305.018 220.199C306.871 219.051 309.047 218.477 311.547 218.477C313.161 218.477 314.683 218.739 316.115 219.261C317.558 219.773 318.831 220.568 319.933 221.648C321.047 222.727 321.922 224.102 322.558 225.773C323.195 227.432 323.513 229.409 323.513 231.705V233.597H302.053V229.438H317.598C317.587 228.256 317.331 227.205 316.831 226.284C316.331 225.352 315.632 224.619 314.734 224.085C313.848 223.551 312.814 223.284 311.632 223.284C310.371 223.284 309.263 223.591 308.308 224.205C307.354 224.807 306.609 225.602 306.075 226.591C305.553 227.568 305.286 228.642 305.274 229.812V233.443C305.274 234.966 305.553 236.273 306.109 237.364C306.666 238.443 307.445 239.273 308.445 239.852C309.445 240.42 310.615 240.705 311.956 240.705C312.854 240.705 313.666 240.58 314.393 240.33C315.121 240.068 315.751 239.688 316.286 239.188C316.82 238.688 317.223 238.068 317.496 237.33L323.257 237.977C322.893 239.5 322.2 240.83 321.178 241.966C320.166 243.091 318.871 243.966 317.291 244.591C315.712 245.205 313.905 245.511 311.871 245.511ZM328.733 245V218.818H334.716V223.182H334.989C335.466 221.67 336.284 220.506 337.443 219.688C338.614 218.858 339.949 218.443 341.449 218.443C341.79 218.443 342.17 218.46 342.591 218.494C343.023 218.517 343.381 218.557 343.665 218.614V224.29C343.403 224.199 342.989 224.119 342.42 224.051C341.864 223.972 341.324 223.932 340.801 223.932C339.676 223.932 338.665 224.176 337.767 224.665C336.881 225.142 336.182 225.807 335.67 226.659C335.159 227.511 334.903 228.494 334.903 229.608V245H328.733Z" fill="white"/>
<defs>
<filter id="filter0_d_117_68" x="0" y="0" width="403.18" height="312" filterUnits="userSpaceOnUse" color-interpolation-filters="sRGB">
<feFlood flood-opacity="0" result="BackgroundImageFix"/>
<feColorMatrix in="SourceAlpha" type="matrix" values="0 0 0 0 0 0 0 0 0 0 0 0 0 0 0 0 0 0 127 0" result="hardAlpha"/>
<feOffset dx="17" dy="16"/>
<feGaussianBlur stdDeviation="11"/>
<feComposite in2="hardAlpha" operator="out"/>
<feColorMatrix type="matrix" values="0 0 0 0 0.383337 0 0 0 0 0.322292 0 0 0 0 0.758333 0 0 0 0.16 0"/>
<feBlend mode="normal" in2="BackgroundImageFix" result="effect1_dropShadow_117_68"/>
<feBlend mode="normal" in="SourceGraphic" in2="effect1_dropShadow_117_68" result="shape"/>
</filter>
<linearGradient id="paint0_linear_117_68" x1="4.99999" y1="-3.49999" x2="430.5" y2="341" gradientUnits="userSpaceOnUse">
<stop stop-color="#B23EE8"/>
<stop offset="1" stop-color="#B23EE8" stop-opacity="0"/>
</linearGradient>
<linearGradient id="paint1_linear_117_68" x1="364" y1="326" x2="-52.9999" y2="-33.5001" gradientUnits="userSpaceOnUse">
<stop stop-color="#3E82E8"/>
<stop offset="1" stop-color="#B23EE8" stop-opacity="0"/>
</linearGradient>
<linearGradient id="paint2_linear_117_68" x1="207" y1="60.5" x2="4.5" y2="275" gradientUnits="userSpaceOnUse">
<stop stop-color="white"/>
<stop offset="1" stop-color="white" stop-opacity="0"/>
</linearGradient>
<linearGradient id="paint3_linear_117_68" x1="207" y1="60.5" x2="4.5" y2="275" gradientUnits="userSpaceOnUse">
<stop stop-color="white"/>
<stop offset="1" stop-color="white" stop-opacity="0"/>
</linearGradient>
<linearGradient id="paint4_linear_117_68" x1="207" y1="60.5" x2="4.5" y2="275" gradientUnits="userSpaceOnUse">
<stop stop-color="white"/>
<stop offset="1" stop-color="white" stop-opacity="0"/>
</linearGradient>
</defs>
</svg>
